<svg xmlns="http://www.w3.org/2000/svg" width="40" height="40" viewBox="0 0 214 214" fill="none">
<path d="M75.792 111.458V209.541" stroke="#160F26" stroke-width="2" stroke-miterlimit="10" stroke-linecap="round" stroke-linejoin="round"/>
<path d="M66.8747 69.666L4.45801 89.1668" stroke="#160F26" stroke-width="2" stroke-miterlimit="10" stroke-linecap="round" stroke-linejoin="round"/>
<path d="M86.1614 108.222L75.7913 111.459L4.45801 89.167V187.25L75.7913 209.542L147.125 187.25" stroke="#160F26" stroke-width="2" stroke-miterlimit="10" stroke-linecap="round" stroke-linejoin="round"/>
<path d="M173.875 89.1667L129.291 102.542L84.708 89.1667V26.75L129.291 40.125L173.875 26.75V89.1667Z" stroke="#160F26" stroke-width="2" stroke-miterlimit="10" stroke-linecap="round" stroke-linejoin="round"/>
<path d="M173.875 26.75L129.291 13.375L84.708 26.75" stroke="#160F26" stroke-width="2" stroke-miterlimit="10" stroke-linecap="round" stroke-linejoin="round"/>
<path d="M129.292 40.125V102.542" stroke="#160F26" stroke-width="2" stroke-miterlimit="10" stroke-linecap="round" stroke-linejoin="round"/>
<path d="M200.625 160.5L164.959 173.875L129.292 160.5V120.375L164.959 133.75L200.625 120.375V160.5Z" stroke="#160F26" stroke-width="2" stroke-miterlimit="10" stroke-linecap="round" stroke-linejoin="round"/>
<path d="M200.625 120.375L164.959 107L129.292 120.375" stroke="#160F26" stroke-width="2" stroke-miterlimit="10" stroke-linecap="round" stroke-linejoin="round"/>
<path d="M164.958 133.75V173.875" stroke="#160F26" stroke-width="2" stroke-miterlimit="10" stroke-linecap="round" stroke-linejoin="round"/>
</svg>