<svg width="10" height="16" viewBox="0 0 10 16" fill="none"
    xmlns="http://www.w3.org/2000/svg">
    <path d="M9.50904 7.10826C9.50904 7.18972 9.50904 7.27857 9.50904 7.36002C9.50165 7.36002 9.50165 7.36002 9.49425 7.36743C9.44989 7.3304 9.40552 7.30079 9.36855 7.26376C9.08757 7.02681 8.7844 6.81208 8.45166 6.64918C8.39251 6.61956 8.34075 6.58994 8.2742 6.57513C8.2668 6.56773 8.25941 6.56032 8.25202 6.56032C8.12631 6.50849 8.00061 6.46406 7.86751 6.43444C7.57914 6.3678 7.29076 6.3604 7.00238 6.41963C6.63267 6.49368 6.29992 6.65658 5.98936 6.86391C5.6788 7.07124 5.40522 7.31559 5.14642 7.58216C5.10205 7.62659 5.10205 7.62659 5.07248 7.56735C4.93199 7.27857 4.7841 6.9972 4.59185 6.73803C4.44396 6.53811 4.28129 6.3604 4.07425 6.22711C3.85982 6.09383 3.63059 6.0494 3.38658 6.10864C3.08342 6.18269 2.83941 6.3604 2.61018 6.56032C2.46969 6.67139 2.34399 6.78987 2.21828 6.90834C2.09997 7.012 1.98906 7.12307 1.86336 7.22674C1.84118 7.24895 1.82639 7.24155 1.8116 7.22674C1.69329 7.10086 1.56759 6.98979 1.4197 6.90834C1.20527 6.78987 0.976047 6.77506 0.746825 6.85651C0.554573 6.92315 0.377112 7.02681 0.207043 7.13048C0.140495 7.17491 0.0739428 7.21933 0 7.25636C0 7.24895 0 7.24155 0 7.24155C0.00739428 7.22674 0.00739698 7.21193 0.00739698 7.20452C0.0147913 6.89353 0.0443693 6.58254 0.0961292 6.27154C0.162678 5.84948 0.266195 5.43482 0.458446 5.04237C0.598937 4.75359 0.783795 4.49443 1.02781 4.27229C1.34576 3.98351 1.71547 3.8058 2.12216 3.68733C2.55842 3.56145 3.00947 3.50962 3.46792 3.4874C3.64538 3.48 3.83024 3.47259 4.0077 3.46519C4.09643 3.50221 4.18516 3.52443 4.28129 3.55404C4.41438 3.59107 4.54748 3.6355 4.67318 3.67252C4.73973 3.69473 4.80628 3.72435 4.87283 3.74656C5.13163 3.84282 5.38304 3.9613 5.60487 4.1316C5.66402 4.17603 5.71578 4.22046 5.77493 4.27229C5.76014 4.22787 5.74535 4.19084 5.73056 4.15382C5.63444 3.89466 5.48655 3.67992 5.24994 3.53923C5.15381 3.48 5.0429 3.42817 4.94677 3.37633C4.95417 3.37633 4.96896 3.37633 4.97635 3.36893C5.29431 3.3171 5.61226 3.28748 5.93021 3.27267C6.2038 3.26526 6.48478 3.26526 6.75837 3.29488C7.07632 3.33191 7.39428 3.39114 7.69744 3.50221C8.1485 3.66511 8.533 3.93168 8.82877 4.30932C9.08757 4.64252 9.25024 5.02016 9.36116 5.42001C9.46468 5.81986 9.50904 6.23452 9.52383 6.64177C9.50904 6.79727 9.50904 6.95277 9.50904 7.10826Z" fill="#24AF63"/>
    <path d="M9.50903 6.64209H9.51643C9.51643 6.79759 9.51643 6.95308 9.51643 7.10858H9.50903C9.50903 6.95308 9.50903 6.79759 9.50903 6.64209Z" fill="#ECDC86"/>
    <path d="M6.95802 0V0.00740451C6.8545 0.00740451 6.75098 0.00740451 6.64746 0.00740451C6.64746 0.00740451 6.64746 0.00740463 6.64746 0C6.75098 0 6.8545 0 6.95802 0Z" fill="#A0918F"/>
    <path d="M7.16503 13.1949C7.34249 13.1209 7.51256 13.0394 7.67524 12.9432C7.86749 12.8247 8.05234 12.6988 8.2372 12.5655C8.39248 12.4471 8.54036 12.3286 8.68085 12.2101C8.76219 12.1361 8.85093 12.0694 8.93226 11.9954C8.94705 11.9806 8.94705 11.988 8.95444 12.0028C8.98402 12.1213 9.0062 12.2323 9.02839 12.3508C9.05796 12.5063 9.08754 12.6692 9.10233 12.8321C9.12451 13.0172 9.13191 13.2023 9.11712 13.3949C9.10233 13.6244 9.05796 13.8539 8.98402 14.0761C8.93226 14.2094 8.8731 14.3352 8.79916 14.4537C8.70304 14.6092 8.58473 14.7425 8.45163 14.8684C8.28896 15.0165 8.1115 15.1423 7.91925 15.246C7.66045 15.3941 7.37946 15.4978 7.09848 15.5866C6.82489 15.6681 6.55131 15.7273 6.27032 15.7791C6.19638 15.7939 6.11504 15.8088 6.0411 15.8014C5.87842 15.794 5.72315 15.7569 5.56787 15.6977C5.33864 15.6088 5.1316 15.4681 4.90977 15.3645C4.78407 15.3052 4.65837 15.2682 4.52527 15.2534C4.34781 15.2386 4.19992 15.3052 4.07422 15.4237C3.9781 15.5126 3.88936 15.6088 3.80063 15.6977C3.64535 15.8532 3.4605 15.9569 3.24606 15.9865C3.10557 16.0087 2.95769 16.0013 2.8172 15.9791C2.61755 15.9494 2.4179 15.905 2.22565 15.8458C1.94467 15.7569 1.68587 15.6236 1.44925 15.4459C1.22743 15.2756 1.04996 15.0683 0.902076 14.8239C0.761585 14.5796 0.665459 14.3204 0.606305 14.0465C0.576728 13.928 0.561939 13.8021 0.554544 13.6836C0.539756 13.5133 0.524968 13.343 0.532362 13.1653C0.539757 12.921 0.554544 12.684 0.591516 12.4323C0.621093 12.4545 0.643278 12.4841 0.672855 12.5063C0.828135 12.647 0.998201 12.7729 1.18306 12.8839C1.3901 13.0024 1.60453 13.0987 1.84115 13.1579C1.99643 13.2023 2.1591 13.2245 2.32178 13.2394C2.45487 13.2468 2.58797 13.2542 2.72107 13.2468C2.87635 13.2394 3.03163 13.2245 3.18691 13.1875C3.20909 13.1875 3.22388 13.1875 3.24606 13.1801C3.38655 13.1505 3.52704 13.1209 3.66014 13.0765C3.81542 13.032 3.9781 12.9802 4.12598 12.921C4.27387 12.8617 4.42175 12.8025 4.56964 12.7432C4.61401 12.721 4.63619 12.7358 4.67316 12.7581C4.91717 12.9506 5.18336 13.1135 5.47174 13.2245C5.78969 13.3504 6.12244 13.4097 6.46257 13.38C6.69919 13.343 6.93581 13.2838 7.16503 13.1949Z" fill="#24AF63"/>
    <path d="M7.1651 13.1948C6.93588 13.2837 6.69926 13.3503 6.44786 13.3725C6.10033 13.4021 5.77498 13.3429 5.45703 13.217C5.16865 13.106 4.90245 12.9431 4.65844 12.7505C4.62147 12.7209 4.59929 12.7135 4.55492 12.7357C4.40704 12.8024 4.25915 12.8616 4.11127 12.9134C3.95599 12.9727 3.80071 13.0245 3.64543 13.0689C3.50494 13.106 3.37184 13.143 3.23135 13.1726C3.20916 13.18 3.19438 13.18 3.17219 13.18C3.22395 13.1208 3.26832 13.0689 3.32008 13.0097C3.51972 12.7802 3.65282 12.521 3.73416 12.2322C3.84507 11.8398 3.96338 11.4399 4.05211 11.0401C4.11866 10.7439 4.17782 10.4477 4.22218 10.1515C4.25176 9.93678 4.26655 9.72205 4.28133 9.50731C4.29612 9.30739 4.28873 9.10746 4.27394 8.91494C4.23697 8.31517 4.10387 7.73761 3.85986 7.18967C3.71197 6.86386 3.46796 6.63432 3.10564 6.54546C2.95036 6.50844 2.80248 6.51585 2.6472 6.56768C2.63241 6.57508 2.62502 6.57508 2.61023 6.57508C2.83945 6.37516 3.08346 6.19745 3.38663 6.1234C3.63064 6.06416 3.85986 6.10859 4.0743 6.24187C4.28873 6.37516 4.4514 6.55287 4.59189 6.75279C4.78415 7.01196 4.93203 7.29333 5.07252 7.58211C5.1021 7.64135 5.1021 7.64135 5.14647 7.59692C5.40527 7.33035 5.68624 7.086 5.98941 6.87867C6.29997 6.67134 6.63271 6.50844 7.00243 6.43439C7.2908 6.37516 7.57918 6.38256 7.86756 6.4492C8.00066 6.47882 8.12636 6.52325 8.25206 6.57508C8.25946 6.58249 8.27424 6.58249 8.27424 6.58989C7.90453 6.5973 7.58658 6.73798 7.2982 6.95272C7.15771 7.05638 7.03201 7.17486 6.93588 7.32295C6.85454 7.44142 6.79539 7.57471 6.72884 7.70799C6.60314 7.97456 6.49962 8.24853 6.42567 8.53731C6.35913 8.78166 6.32215 9.03342 6.29997 9.28518C6.28518 9.4777 6.27779 9.67762 6.28518 9.87014C6.29258 10.1071 6.31476 10.3514 6.34434 10.5884C6.3961 10.9882 6.47004 11.3881 6.5292 11.7805C6.56617 12.0027 6.59574 12.2248 6.63271 12.4395C6.68447 12.7579 6.86194 13.0023 7.12074 13.1874C7.14292 13.18 7.15031 13.1874 7.1651 13.1948Z" fill="#ECDC86"/>
    <path d="M6.64747 0.00732422C6.75099 0.00732422 6.85451 0.00732422 6.95803 0.00732422C7.20944 0.0221335 7.46084 0.0591567 7.70485 0.140608C7.88971 0.207249 7.93408 0.325723 7.82316 0.488625C7.74183 0.607099 7.63091 0.68855 7.52 0.762596C7.37211 0.866261 7.20944 0.947712 7.03937 1.00695C6.86191 1.07359 6.69184 1.00695 6.58832 0.829238C6.55135 0.777406 6.52916 0.718168 6.51438 0.651527C6.50698 0.629313 6.49959 0.621908 6.4848 0.621908C6.0929 0.555267 5.74537 0.644122 5.457 0.925498C5.22038 1.15504 5.07989 1.43642 4.98376 1.74741C4.89503 2.02879 4.85066 2.31016 4.83587 2.59894C4.82109 2.85811 4.84327 3.11727 4.88024 3.36902C4.88763 3.41345 4.90242 3.45788 4.90242 3.50231C4.90982 3.55414 4.89503 3.60597 4.84327 3.63559C4.79151 3.67261 4.73975 3.66521 4.6806 3.66521C4.5475 3.62819 4.4144 3.58376 4.2887 3.54674C4.2887 3.51712 4.2887 3.4875 4.2887 3.45048C4.2887 3.31719 4.2887 3.1765 4.29609 3.04322C4.32567 2.50268 4.40701 1.96955 4.61405 1.46604C4.76933 1.0884 4.99115 0.762596 5.30171 0.503434C5.56051 0.2887 5.85629 0.148012 6.18163 0.073966C6.32952 0.0369428 6.4848 0.0147288 6.64747 0.00732422Z" fill="#3F2B29"/>
    <path d="M4.66577 3.67273C4.72493 3.67273 4.77669 3.68014 4.82845 3.64311C4.87281 3.60609 4.89499 3.56166 4.8876 3.50983C4.88021 3.4654 4.87281 3.42097 4.86542 3.37655C4.8876 3.37655 4.91718 3.36914 4.93936 3.36914C5.04288 3.42838 5.1464 3.47281 5.24252 3.53204C5.47914 3.68014 5.62703 3.89487 5.72315 4.14663C5.73794 4.18365 5.75273 4.22808 5.76752 4.2651C5.70836 4.22067 5.6566 4.16884 5.59745 4.12441C5.37562 3.95411 5.13161 3.83563 4.86542 3.73937C4.79887 3.72456 4.73232 3.69494 4.66577 3.67273Z" fill="#396E35"/>
    <path d="M4.26651 3.45801C4.26651 3.48763 4.26651 3.51724 4.26651 3.55427C4.17778 3.52465 4.08165 3.50244 3.99292 3.46541C4.08905 3.46541 4.17778 3.45801 4.26651 3.45801Z" fill="#396E35"/>
</svg>
