<svg width="21" height="21" viewBox="0 0 21 21" fill="none" xmlns="http://www.w3.org/2000/svg">
	<g clip-path="url(#clip0_289_3978)">
		<path d="M15.3125 5.6875L14 3.0625L10.5 4.375L8.77625 0.4375L2.625 3.9375L0.4375 10.5L3.5 17.5L10.5 20.5625L17.5 17.5L20.5625 10.5L19.25 5.25L15.3125 5.6875Z" stroke="white" stroke-width="0.75" stroke-linecap="round" stroke-linejoin="round" />
		<path d="M8.3125 8.3125L7 9.1875L5.6875 8.3125V7L7 6.125L8.3125 7V8.3125Z" stroke="white" stroke-width="0.75" stroke-linecap="round" stroke-linejoin="round" />
		<path d="M10.9375 14L9.625 14.875L8.3125 14V12.6875L9.625 11.8125L10.9375 12.6875V14Z" stroke="white" stroke-width="0.75" stroke-linecap="round" stroke-linejoin="round" />
		<path d="M4.36719 10.9287L4.81344 11.375L4.36719 11.8212" stroke="white" stroke-width="0.75" stroke-linecap="round" stroke-linejoin="round" />
		<path d="M4.36719 10.9287L3.92969 11.375L4.36719 11.8212" stroke="white" stroke-width="0.75" stroke-linecap="round" stroke-linejoin="round" />
		<path d="M14 8.3125L14.4375 8.75875L14 9.19625" stroke="white" stroke-width="0.75" stroke-linecap="round" stroke-linejoin="round" />
		<path d="M14.0009 8.3125L13.5547 8.75875L14.0009 9.19625" stroke="white" stroke-width="0.75" stroke-linecap="round" stroke-linejoin="round" />
		<path d="M14 15.3125L14.4375 15.75L14 16.1875" stroke="white" stroke-width="0.75" stroke-linecap="round" stroke-linejoin="round" />
		<path d="M14.0009 15.3125L13.5547 15.75L14.0009 16.1875" stroke="white" stroke-width="0.75" stroke-linecap="round" stroke-linejoin="round" />
	</g>
	<defs>
		<clipPath id="clip0_289_3978">
			<rect width="21" height="21" fill="white" />
		</clipPath>
	</defs>
</svg>