<svg width="155" height="33" viewBox="0 0 155 33" fill="none" xmlns="http://www.w3.org/2000/svg">
<g clip-path="url(#clip0_556_6034)">
<path d="M26.0995 16.8915L26.1425 16.9092L26.1856 16.9269L26.2262 16.9472L26.2668 16.97L26.3062 16.9928L26.3455 17.0181L26.3824 17.0472L26.4181 17.0751L26.4513 17.1067L26.4858 17.1384L26.5178 17.1739L26.5473 17.2081L26.5768 17.246L26.6026 17.284L26.6285 17.3246L26.6506 17.3638L26.6715 17.4069L26.6912 17.4487L26.7084 17.4917L26.7257 17.536L26.738 17.5816L26.7503 17.626L26.7589 17.6741L26.7675 17.7197L26.7724 17.7678L26.7749 17.8134L26.7761 17.8602L26.7749 17.9084L26.7724 17.9552L26.7675 18.0021L26.7589 18.0489L26.7503 18.0945L26.738 18.1414L26.7257 18.1857L26.7084 18.2313L26.6912 18.2743L26.6715 18.3161L26.6506 18.3579L26.6285 18.3984L26.6026 18.439L26.5768 18.477L26.5473 18.5124L26.5178 18.5491L26.4858 18.5821L26.4513 18.6163L26.4181 18.6479L26.3824 18.6758L26.3455 18.7024L26.3062 18.7302L26.2668 18.753L26.2262 18.7758L26.1856 18.7948L26.1425 18.8138L26.0995 18.829L26.0564 18.8442L26.0121 18.8543L25.9679 18.8657L25.9211 18.8721L25.8768 18.8771L25.8301 18.8822H25.8227L25.8694 18.8809L25.9531 18.8771L26.0367 18.8721L26.1204 18.8645L26.2028 18.8531L26.2865 18.8404L26.3689 18.8265L26.4513 18.8087L26.5325 18.7898L26.6149 18.7682L26.6961 18.7442L26.7761 18.7176L26.8548 18.6897L26.9336 18.6593L27.0111 18.6264L27.0886 18.5922L27.1648 18.5555L27.2399 18.5162L27.3137 18.4757L27.3863 18.4326L27.4576 18.387L27.529 18.3415L27.5979 18.2933L27.6668 18.2414L27.7332 18.1882L27.7984 18.135L27.8624 18.0781L27.9251 18.0198L27.9854 17.9615L28.0457 17.8995L28.1035 17.8374L28.1588 17.7729L28.213 17.707L28.2659 17.6399L28.3175 17.5702L28.3667 17.5006L28.4135 17.4297L28.4602 17.3562L28.5033 17.2828L28.5451 17.2068L28.5857 17.1308L28.6226 17.0548L28.6583 16.9763L28.6915 16.8965L28.7235 16.8167L28.753 16.7357L28.7813 16.6534L28.8059 16.5711L28.8293 16.4875L28.8502 16.4039L28.8687 16.3203L28.8859 16.2342L28.9006 16.1494L28.9129 16.0645L28.9216 15.9784L28.9302 15.8923L28.9363 15.8049L28.9388 15.7188L28.94 15.6327L28.9388 15.5466L28.9363 15.4592L28.9302 15.3731L28.9216 15.287L28.9129 15.2021L28.9006 15.116L28.8859 15.0299L28.8687 14.9463L28.8502 14.8615L28.8342 14.7969H25.8436L25.7846 14.7981H18.7109L26.0478 16.8763L26.0995 16.8915Z" fill="#FFFDF9"/>
<path d="M30.7389 17.645L30.7327 17.536L30.7253 17.4284L30.7155 17.3195L30.7032 17.2119L30.6897 17.1055L30.6724 16.9978L30.6528 16.8915L30.6331 16.7851L30.6097 16.68L30.5839 16.5749L30.5568 16.4698L30.5261 16.3659L30.4941 16.2633L30.4609 16.1595L30.4239 16.0582L30.3858 15.9581L30.3452 15.8568L30.3034 15.7581L30.2591 15.6593L30.2136 15.5618L30.1644 15.4668L30.1139 15.3705L30.061 15.2768L30.0069 15.1831L29.9516 15.0919L29.8925 15.0008L29.8335 14.9121L29.7719 14.8247L29.751 14.7969H28.8345L28.8505 14.8615L28.869 14.9463L28.8862 15.0299L28.901 15.116L28.9133 15.2021L28.9219 15.287L28.9305 15.3731L28.9366 15.4592L28.9391 15.5466L28.9403 15.6327L28.9391 15.7188L28.9366 15.8049L28.9305 15.8923L28.9219 15.9784L28.9133 16.0645L28.901 16.1494L28.8862 16.2342L28.869 16.3203L28.8505 16.4039L28.8296 16.4875L28.8062 16.5711L28.7816 16.6534L28.7533 16.7357L28.7238 16.8167L28.6918 16.8965L28.6586 16.9763L28.6229 17.0548L28.586 17.1308L28.5454 17.2068L28.5036 17.2828L28.4606 17.3562L28.4138 17.4297L28.3671 17.5006L28.3179 17.5702L28.2662 17.6399L28.2133 17.707L28.1592 17.7729L28.1038 17.8374L28.046 17.8995L27.9857 17.9615L27.9254 18.0198L27.8627 18.0781L27.7987 18.135L27.7335 18.1882L27.6671 18.2414L27.5982 18.2933L27.5293 18.3415L27.4579 18.387L27.3866 18.4326L27.314 18.4757L27.2402 18.5162L27.1652 18.5555L27.0889 18.5922L27.0114 18.6264L26.9339 18.6593L26.8552 18.6897L26.7764 18.7176L26.6965 18.7442L26.6153 18.7682L26.5328 18.7898L26.4517 18.8088L26.3692 18.8265L26.2868 18.8404L26.2032 18.8531L26.1207 18.8645L26.0371 18.8721L25.9534 18.8771L25.8698 18.8809L25.7849 18.8822H0V22.9675H25.7849L25.8907 22.9663L25.9952 22.9637L26.101 22.9574L26.2056 22.9485L26.3102 22.9384L26.4147 22.927L26.5193 22.9105L26.6226 22.8941L26.726 22.8751L26.8293 22.8523L26.9327 22.8282L27.0335 22.8029L27.1356 22.7738L27.2377 22.7434L27.3374 22.7117L27.437 22.675L27.5355 22.6383L27.6339 22.599L27.7311 22.5585L27.827 22.5154L27.923 22.4686L28.0177 22.4205L28.1112 22.3711L28.2034 22.3191L28.2945 22.266L28.3855 22.209L28.4729 22.152L28.5614 22.0925L28.6488 22.0304L28.7337 21.9671L28.8173 21.9012L28.8997 21.8341L28.9822 21.7645L29.0621 21.6936L29.1396 21.6226L29.2159 21.5479L29.2909 21.4719L29.3648 21.3947L29.4361 21.3149L29.5075 21.2351L29.5763 21.1528L29.6428 21.0692L29.708 20.9844L29.7719 20.897L29.8335 20.8096L29.8925 20.721L29.9516 20.6298L30.0069 20.5386L30.061 20.4449L30.1139 20.3512L30.1644 20.2562L30.2136 20.16L30.2591 20.0625L30.3034 19.965L30.3452 19.8649L30.3858 19.7649L30.4239 19.6648L30.4609 19.5622L30.4941 19.4597L30.5261 19.3571L30.5568 19.252L30.5839 19.1481L30.6097 19.043L30.6331 18.9367L30.6528 18.8315L30.6724 18.7252L30.6897 18.6175L30.7032 18.5099L30.7155 18.4022L30.7253 18.2946L30.7327 18.1857L30.7389 18.0781L30.7426 17.9704L30.7438 17.8615L30.7426 17.7526L30.7389 17.645Z" fill="#FA6863"/>
<path d="M4.64521 15.7668L4.60215 15.7504L4.55909 15.7326L4.5185 15.7124L4.47667 15.6896L4.43853 15.6655L4.39917 15.6402L4.36226 15.6123L4.32659 15.5832L4.29214 15.5515L4.25893 15.5199L4.22694 15.4857L4.19742 15.4502L4.16789 15.4122L4.14206 15.3742L4.11622 15.335L4.09408 15.2957L4.07317 15.2527L4.05225 15.2096L4.03626 15.1678L4.01904 15.1235L4.00674 15.0766L3.99443 15.0323L3.98459 14.9855L3.97721 14.9399L3.97229 14.8918L3.96983 14.8462L3.9686 14.798L3.96983 14.7512L3.97229 14.7031L3.97721 14.6575L3.98459 14.6106L3.99443 14.5638L4.00674 14.5182L4.01904 14.4738L4.03626 14.4283L4.05225 14.3852L4.07317 14.3421L4.09408 14.3016L4.11622 14.2598L4.14206 14.2206L4.16789 14.1826L4.19742 14.1459L4.22694 14.1104L4.25893 14.0762L4.29214 14.0433L4.32659 14.0116L4.36226 13.9838L4.39917 13.9559L4.43853 13.9293L4.47667 13.9052L4.5185 13.8837L4.55909 13.8647L4.60215 13.8457L4.64521 13.8293L4.68826 13.8153L4.73255 13.8039L4.77684 13.7938L4.82359 13.7875L4.86787 13.7824L4.91339 13.7773H4.922H4.87525L4.7916 13.7811L4.70795 13.7875L4.62429 13.7951L4.54187 13.8052L4.45822 13.8179L4.37456 13.8331L4.29337 13.8495L4.21095 13.8698L4.12976 13.8913L4.04856 13.9154L3.9686 13.942L3.88987 13.9698L3.80991 13.999L3.73363 14.0319L3.65613 14.0673L3.57986 14.1041L3.50482 14.1433L3.42978 14.1839L3.35842 14.2256L3.28707 14.2712L3.21572 14.3181L3.1456 14.3662L3.07794 14.4181L3.01028 14.4701L2.94631 14.5245L2.88234 14.5802L2.8196 14.6385L2.75932 14.698L2.69904 14.7588L2.64122 14.8221L2.58586 14.8854L2.5305 14.9513L2.47883 15.0197L2.42594 15.088L2.37796 15.1577L2.32998 15.2299L2.28446 15.3021L2.24141 15.3768L2.19958 15.4515L2.15898 15.5287L2.12208 15.6047L2.0864 15.6832L2.05319 15.763L2.0212 15.8428L1.99168 15.9238L1.96338 16.0062L1.93878 16.0885L1.91541 16.1721L1.89449 16.2544L1.87604 16.3392L1.85882 16.4241L1.84405 16.5102L1.83175 16.595L1.82314 16.6811L1.81453 16.766L1.80838 16.8534L1.80592 16.9395L1.80469 17.0256L1.80592 17.113L1.80838 17.1991L1.81453 17.2852L1.82314 17.3713L1.83175 17.4574L1.84405 17.5435L1.85882 17.6284L1.87604 17.7132L1.89449 17.7968L1.91048 17.8627H4.90109L4.96014 17.8614H12.0338L4.69688 15.7833L4.64521 15.7668Z" fill="#FFFDF9"/>
<path d="M0.00492078 15.014L0.00984156 15.1229L0.0184529 15.2305L0.0282945 15.3382L0.0405964 15.4458L0.0541286 15.5535L0.0713513 15.6598L0.0898042 15.7675L0.110718 15.8738L0.134091 15.979L0.159925 16.0841L0.18699 16.1892L0.217744 16.293L0.24973 16.3956L0.282945 16.4982L0.319851 16.6007L0.357987 16.7008L0.398583 16.8021L0.44041 16.9009L0.484697 16.9997L0.530214 17.0959L0.579422 17.1921L0.62986 17.2884L0.682758 17.3821L0.736887 17.4745L0.792246 17.5657L0.850065 17.6569L0.910344 17.7468L0.971854 17.8342L0.992767 17.8621H1.90926L1.89327 17.7962L1.87482 17.7126L1.85759 17.6278L1.84283 17.5429L1.83053 17.4568L1.82192 17.3707L1.81331 17.2846L1.80716 17.1985L1.8047 17.1124L1.80347 17.025L1.8047 16.9389L1.80716 16.8528L1.81331 16.7654L1.82192 16.6805L1.83053 16.5944L1.84283 16.5096L1.85759 16.4235L1.87482 16.3386L1.89327 16.2538L1.91418 16.1714L1.93756 16.0879L1.96216 16.0056L1.99046 15.9232L2.01998 15.8422L2.05197 15.7624L2.08518 15.6826L2.12086 15.6041L2.15776 15.5281L2.19836 15.4509L2.24018 15.3762L2.28324 15.3014L2.32876 15.2293L2.37674 15.1571L2.42471 15.0874L2.47761 15.019L2.52928 14.9507L2.58464 14.8848L2.64 14.8215L2.69782 14.7582L2.7581 14.6974L2.81838 14.6379L2.88112 14.5796L2.94509 14.5239L3.00906 14.4694L3.07672 14.4175L3.14438 14.3656L3.2145 14.3175L3.28585 14.2706L3.3572 14.225L3.42855 14.1832L3.50359 14.1427L3.57864 14.1035L3.65491 14.0667L3.73241 14.0313L3.80868 13.9983L3.88865 13.9692L3.96738 13.9414L4.04734 13.9148L4.12853 13.8907L4.20973 13.8692L4.29215 13.8489L4.37334 13.8325L4.457 13.8173L4.54065 13.8046L4.62307 13.7945L4.70673 13.7869L4.79038 13.7805L4.87403 13.7767L4.95892 13.7755H30.7438V9.69141H4.95892L4.85312 9.69267L4.74855 9.69521L4.64276 9.70154L4.53819 9.70914L4.43239 9.71927L4.32906 9.73193L4.22449 9.74713L4.12115 9.76359L4.01782 9.78385L3.91325 9.80538L3.81114 9.82944L3.70904 9.85603L3.60816 9.88389L3.50606 9.91555L3.40641 9.94721L3.30676 9.98267L3.20835 10.0194L3.10993 10.0599L3.01275 10.1004L2.91679 10.1435L2.82084 10.1904L2.72611 10.2385L2.63262 10.2866L2.54035 10.3398L2.44932 10.393L2.35828 10.4487L2.26971 10.507L2.18114 10.5665L2.09502 10.6285L2.01014 10.6918L1.92525 10.7564L1.84406 10.8235L1.76164 10.8932L1.68168 10.9641L1.60417 11.0363L1.5279 11.111L1.45286 11.1857L1.37905 11.2642L1.30647 11.344L1.23635 11.4238L1.16745 11.5061L1.10102 11.5897L1.03582 11.6745L0.971854 11.7607L0.910344 11.8493L0.850065 11.938L0.792246 12.0279L0.736887 12.1203L0.682758 12.214L0.62986 12.3077L0.579422 12.4014L0.530214 12.4977L0.484697 12.5965L0.44041 12.694L0.398583 12.794L0.357987 12.8928L0.319851 12.9941L0.282945 13.0954L0.24973 13.198L0.217744 13.3018L0.18699 13.4057L0.159925 13.5108L0.134091 13.6159L0.110718 13.7223L0.0898042 13.8274L0.0713513 13.9338L0.0541286 14.0414L0.0405964 14.149L0.0282945 14.2567L0.0184529 14.3643L0.00984156 14.472L0.00492078 14.5796L0 14.6885V14.7974V14.9063L0.00492078 15.014Z" fill="#F18046"/>
<path d="M4.64521 6.57668L4.60215 6.55895L4.55909 6.53995L4.51727 6.52096L4.4779 6.49816L4.4373 6.47537L4.39917 6.45004L4.36226 6.42091L4.32536 6.39305L4.29091 6.36139L4.2577 6.32974L4.22694 6.29428L4.19742 6.26008L4.16789 6.22209L4.14083 6.1841L4.11622 6.14358L4.09285 6.10305L4.07194 6.06126L4.05102 6.01947L4.03503 5.97642L4.01904 5.93083L4.00551 5.8865L3.99443 5.84218L3.98459 5.79406L3.97721 5.74847L3.97106 5.70035L3.96983 5.65349L3.9686 5.60537L3.96983 5.55851L3.97106 5.51292L3.97721 5.46607L3.98459 5.41921L3.99443 5.37362L4.00551 5.32677L4.01904 5.28118L4.03503 5.23685L4.05102 5.1938L4.07194 5.15201L4.09285 5.10895L4.11622 5.06969L4.14083 5.02917L4.16789 4.99118L4.19742 4.95572L4.22694 4.91899L4.2577 4.88354L4.29091 4.85188L4.32536 4.82022L4.36226 4.79236L4.39917 4.76576L4.4373 4.7379L4.4779 4.71511L4.51727 4.69231L4.55909 4.67205L4.60215 4.65432L4.64521 4.63913L4.68826 4.62393L4.73255 4.61127L4.77807 4.6024L4.82236 4.5948L4.86787 4.58974L4.91462 4.58594H4.92938H4.87525L4.7916 4.58974L4.70795 4.59607L4.62429 4.60367L4.54187 4.61506L4.45822 4.62773L4.37456 4.64166L4.29337 4.65939L4.21095 4.67838L4.12976 4.69991L4.04856 4.72397L3.9686 4.75057L3.88987 4.77843L3.80991 4.80882L3.73363 4.84048L3.65613 4.87594L3.57986 4.91266L3.50482 4.95192L3.42978 4.99244L3.35842 5.03423L3.28584 5.07982L3.21572 5.12668L3.1456 5.1748L3.07794 5.22672L3.01028 5.27864L2.94508 5.3331L2.88234 5.39009L2.8196 5.44707L2.75809 5.50659L2.69904 5.56738L2.64122 5.6307L2.58586 5.69528L2.5305 5.76113L2.47883 5.82825L2.42594 5.8979L2.37796 5.96755L2.32998 6.03847L2.28446 6.11065L2.24141 6.18537L2.19958 6.26008L2.15898 6.33733L2.12208 6.41332L2.0864 6.49183L2.05319 6.57161L2.0212 6.65139L1.99168 6.73244L1.96338 6.81476L1.93878 6.89707L1.91541 6.98065L1.89449 7.06423L1.87481 7.14781L1.85882 7.23266L1.84405 7.31877L1.83175 7.40362L1.82191 7.48973L1.81453 7.57458L1.80838 7.66196L1.80592 7.74934L1.80469 7.83545L1.80592 7.92157L1.80838 8.00895L1.81453 8.09506L1.82191 8.18118L1.83175 8.26602L1.84405 8.35214L1.85882 8.43825L1.87481 8.52183L1.89449 8.60668L1.91541 8.69026L1.93878 8.77257L1.96338 8.85615L1.99168 8.9372L2.0212 9.01825L2.05319 9.09803L2.0864 9.17781L2.12208 9.25633L2.15898 9.33358L2.18359 9.3779L2.18605 9.37663L2.28938 9.32218L2.39272 9.27026L2.49729 9.2196L2.60308 9.17275L2.70888 9.12462L2.81714 9.08157L2.92416 9.04104L3.03365 8.99925L3.14314 8.96379L3.25386 8.92834L3.36457 8.89541L3.47529 8.86375L3.58724 8.83462L3.70042 8.8093L3.8136 8.7865L3.92554 8.76371L4.03995 8.74471L4.15436 8.72698L4.26877 8.71179L4.38441 8.69912L4.49881 8.68899L4.61445 8.68013L4.72763 8.67506L4.84573 8.67253L4.96014 8.67H12.0338L4.69565 6.59187L4.64521 6.57668Z" fill="#FFFDF9"/>
<path d="M25.7846 28.0757H25.8694L25.9531 28.0707L26.0367 28.0656L26.1204 28.058L26.2041 28.0466L26.2877 28.034L26.3701 28.02L26.4526 28.0023L26.5337 27.9833L26.6162 27.9618L26.6961 27.9377L26.7761 27.9111L26.8561 27.8833L26.9348 27.8529L27.0111 27.8199L27.0886 27.7857L27.1648 27.749L27.2399 27.7098L27.3149 27.6692L27.3875 27.6262L27.4589 27.5806L27.529 27.5337L27.5991 27.4856L27.668 27.435L27.7344 27.3818L27.7996 27.3286L27.8636 27.2716L27.9251 27.2133L27.9866 27.1551L28.0457 27.093L28.1035 27.031L28.1601 26.9664L28.2142 26.9005L28.2671 26.8334L28.3188 26.7638L28.3667 26.6941L28.4147 26.6232L28.4602 26.5498L28.5033 26.4763L28.5451 26.4003L28.5857 26.3243L28.6238 26.2471L28.6595 26.1699L28.6915 26.0901L28.7247 26.009L28.753 25.9292L28.7813 25.8469L28.8071 25.7646L28.8293 25.681L28.8514 25.5975L28.8699 25.5139L28.8859 25.4278L28.9006 25.3429L28.9129 25.2581L28.9228 25.1707L28.9314 25.0858L28.9363 24.9985L28.94 24.9123V24.8262V24.7401L28.9363 24.6527L28.9314 24.5666L28.9228 24.4805L28.9129 24.3957L28.9006 24.3095L28.8859 24.2234L28.8699 24.1399L28.8514 24.055L28.8293 23.9714L28.8071 23.8891L28.7813 23.8055L28.753 23.7232L28.7247 23.6434L28.6915 23.5637L28.6595 23.4839L28.6238 23.4054L28.5857 23.3281L28.5611 23.2812L28.5586 23.2825L28.4553 23.337L28.352 23.3889L28.2474 23.4395L28.1416 23.4877L28.0346 23.5333L27.9276 23.5776L27.8205 23.6181L27.711 23.6586L27.6003 23.6966L27.4908 23.7308L27.3814 23.7637L27.2682 23.7954L27.1575 23.8233L27.0443 23.8499L26.9311 23.8739L26.8179 23.8954L26.7047 23.9144L26.5903 23.9322L26.4759 23.9474L26.3615 23.96L26.2459 23.9702L26.1302 23.9778L26.0146 23.9841L25.9002 23.9879L25.7846 23.9892H18.7109L26.0478 26.0673L26.0995 26.0837L26.1425 26.1002L26.1856 26.1179L26.2262 26.1382L26.2668 26.161L26.3062 26.185L26.3455 26.2104L26.3824 26.2382L26.4181 26.2674L26.4513 26.299L26.4858 26.3307L26.5178 26.3649L26.5473 26.4003L26.5768 26.4383L26.6026 26.4763L26.6285 26.5156L26.6506 26.5548L26.6715 26.5979L26.6912 26.6409L26.7084 26.6827L26.7257 26.7271L26.738 26.7739L26.7503 26.8182L26.7589 26.8651L26.7675 26.9107L26.7724 26.9588L26.7749 27.0044L26.7761 27.0525L26.7749 27.0994L26.7724 27.1475L26.7675 27.1931L26.7589 27.2399L26.7503 27.2868L26.738 27.3324L26.7257 27.3767L26.7084 27.4223L26.6912 27.4654L26.6715 27.5084L26.6506 27.5489L26.6285 27.5907L26.6026 27.63L26.5768 27.668L26.5473 27.7047L26.5178 27.7402L26.4858 27.7743L26.4513 27.8073L26.4181 27.8389L26.3824 27.8668L26.3455 27.8947L26.3062 27.9212L26.2668 27.9453L26.2262 27.9668L26.1856 27.9858L26.1425 28.0048L26.0995 28.0213L26.0564 28.0352L26.0121 28.0466L25.9679 28.0567L25.9211 28.0631L25.8768 28.0681L25.8301 28.0732L25.7846 28.0745" fill="#FFFDF9"/>
<path d="M30.7389 26.838L30.734 26.7304L30.7266 26.6227L30.7155 26.5138L30.7044 26.4062L30.6897 26.2998L30.6724 26.1921L30.654 26.0858L30.6331 25.9794L30.6097 25.873L30.5839 25.7692L30.5568 25.6641L30.5273 25.559L30.4953 25.4576L30.4609 25.3538L30.4239 25.2525L30.387 25.1524L30.3464 25.0511L30.3034 24.9524L30.2603 24.8536L30.2136 24.7561L30.1644 24.6611L30.1152 24.5648L30.0623 24.4711L30.0069 24.3774L29.9516 24.2862L29.8937 24.1951L29.8335 24.1064L29.7719 24.019L29.708 23.9317L29.644 23.8481L29.5763 23.7632L29.5075 23.6822L29.4373 23.6011L29.3648 23.5226L29.2922 23.4441L29.2159 23.3694L29.1396 23.2947L29.0621 23.2225L28.9822 23.1516L28.901 23.0819L28.896 23.0781L28.7804 23.1503L28.6783 23.2098L28.5725 23.2693L28.559 23.2769L28.586 23.3289L28.6242 23.4061L28.6598 23.4846L28.6918 23.5644L28.7251 23.6442L28.7533 23.724L28.7816 23.8063L28.8075 23.8899L28.8296 23.9722L28.8518 24.0558L28.8702 24.1406L28.8862 24.2242L28.901 24.3103L28.9133 24.3964L28.9231 24.4813L28.9317 24.5674L28.9366 24.6535L28.9403 24.7409V24.827V24.9131L28.9366 24.9992L28.9317 25.0866L28.9231 25.1714L28.9133 25.2588L28.901 25.3437L28.8862 25.4285L28.8702 25.5146L28.8518 25.5982L28.8296 25.6818L28.8075 25.7654L28.7816 25.8477L28.7533 25.93L28.7251 26.0098L28.6918 26.0908L28.6598 26.1706L28.6242 26.2479L28.586 26.3251L28.5454 26.4011L28.5036 26.4771L28.4606 26.5505L28.415 26.624L28.3671 26.6949L28.3191 26.7645L28.2674 26.8342L28.2145 26.9013L28.1604 26.9672L28.1038 27.0317L28.046 27.0938L27.9869 27.1559L27.9254 27.2141L27.8639 27.2724L27.7999 27.3293L27.7347 27.3825L27.6683 27.4357L27.5994 27.4864L27.5293 27.5345L27.4592 27.5814L27.3878 27.6269L27.3152 27.67L27.2402 27.7105L27.1652 27.7498L27.0889 27.7865L27.0114 27.8207L26.9351 27.8536L26.8564 27.884L26.7764 27.9119L26.6965 27.9385L26.6165 27.9625L26.5341 27.9841L26.4529 28.0031L26.3705 28.0208L26.288 28.0347L26.2044 28.0474L26.1207 28.0588L26.0371 28.0664L25.9534 28.0714L25.8698 28.0765H25.7849H0V32.1618H25.7849L25.8907 32.1606L25.9952 32.158L26.101 32.1517L26.2056 32.1428L26.3114 32.134L26.416 32.1213L26.5205 32.1048L26.6239 32.0884L26.7272 32.0694L26.8306 32.0466L26.9327 32.0225L27.0348 31.9972L27.1356 31.9693L27.2377 31.9377L27.3374 31.906L27.437 31.8693L27.5367 31.8326L27.6351 31.7933L27.7323 31.7528L27.8282 31.7097L27.9242 31.6629L28.0177 31.6148L28.1124 31.5654L28.2034 31.5134L28.2957 31.4603L28.3855 31.4045L28.4741 31.345L28.5627 31.2868L28.6488 31.2247L28.7337 31.1601L28.8185 31.0955L28.901 31.0284L28.9822 30.9588L29.0621 30.8879L29.1396 30.8169L29.2159 30.7422L29.2922 30.6662L29.3648 30.589L29.4373 30.5092L29.5075 30.4294L29.5763 30.3471L29.644 30.2635L29.708 30.1787L29.7719 30.0926L29.8335 30.0039L29.8937 29.9153L29.9516 29.8241L30.0069 29.7329L30.0623 29.6392L30.1152 29.5455L30.1644 29.4505L30.2136 29.3543L30.2603 29.2568L30.3034 29.1593L30.3464 29.0592L30.387 28.9592L30.4239 28.8591L30.4609 28.7566L30.4953 28.654L30.5273 28.5501L30.5568 28.4463L30.5839 28.3424L30.6097 28.2361L30.6331 28.131L30.654 28.0259L30.6724 27.9182L30.6897 27.8118L30.7044 27.7042L30.7155 27.5966L30.7266 27.4889L30.734 27.38L30.7389 27.2724L30.7438 27.1647V27.0558V26.9469L30.7389 26.838Z" fill="#3D95FD"/>
<path d="M0.00492078 5.82257L0.00984156 5.93148L0.0172227 6.03912L0.0282945 6.14803L0.0405964 6.25567L0.0541286 6.36205L0.0713513 6.46969L0.0898042 6.57607L0.110718 6.68244L0.134091 6.78755L0.159925 6.89266L0.18699 6.9965L0.216514 7.10161L0.24973 7.20419L0.282945 7.30676L0.319851 7.40934L0.356757 7.50938L0.397353 7.61069L0.44041 7.70947L0.484697 7.80825L0.530214 7.90449L0.579422 8.00074L0.62986 8.09698L0.681528 8.19069L0.736887 8.28441L0.792246 8.37432L0.850065 8.4655L0.910344 8.55541L0.971854 8.64279L1.03582 8.73017L1.10102 8.81375L1.16745 8.8986L1.23635 8.97965L1.30647 9.06069L1.37905 9.13921L1.45286 9.21646L1.5279 9.29244L1.60417 9.36716L1.68168 9.43934L1.76164 9.51026L1.84406 9.57864L1.84775 9.58244L1.96339 9.51152L2.0655 9.452L2.17129 9.39122L2.18606 9.38489L2.15776 9.33296L2.12086 9.25571L2.08518 9.1772L2.05197 9.09742L2.01998 9.01764L1.99046 8.93659L1.96216 8.85554L1.93756 8.77196L1.91418 8.68965L1.89327 8.60606L1.87359 8.52122L1.85759 8.43764L1.84283 8.35152L1.83053 8.26541L1.82069 8.18056L1.81331 8.09445L1.80716 8.00834L1.8047 7.92096L1.80347 7.83484L1.8047 7.74873L1.80716 7.66135L1.81331 7.57397L1.82069 7.48912L1.83053 7.40301L1.84283 7.31816L1.85759 7.23205L1.87359 7.1472L1.89327 7.06362L1.91418 6.98004L1.93756 6.89646L1.96216 6.81414L1.99046 6.73183L2.01998 6.65078L2.05197 6.571L2.08518 6.49122L2.12086 6.4127L2.15776 6.33672L2.19836 6.25947L2.24018 6.18476L2.28324 6.11004L2.32876 6.03786L2.37674 5.96694L2.42471 5.89729L2.47761 5.82764L2.52928 5.76052L2.58464 5.69467L2.64 5.63008L2.69782 5.56677L2.75687 5.50598L2.81838 5.44646L2.88112 5.38947L2.94386 5.33249L3.00906 5.27803L3.07672 5.22611L3.14438 5.17419L3.2145 5.12607L3.28462 5.07921L3.3572 5.03362L3.42855 4.99183L3.50359 4.95131L3.57864 4.91205L3.65491 4.87532L3.73241 4.83987L3.80868 4.80821L3.88865 4.77781L3.96738 4.74995L4.04734 4.72336L4.12853 4.6993L4.20973 4.67777L4.29215 4.65877L4.37334 4.64105L4.457 4.62712L4.54065 4.61445L4.62307 4.60305L4.70673 4.59546L4.79038 4.58912L4.87403 4.58532H4.95892H30.7438V0.5H4.95892H4.85312L4.74855 0.503799L4.64276 0.510131L4.53819 0.518996L4.43239 0.52786L4.32783 0.540524L4.22449 0.556987L4.11992 0.572183L4.01659 0.592445L3.91325 0.613974L3.81114 0.639301L3.70904 0.664629L3.60816 0.692489L3.50606 0.724148L3.40641 0.755808L3.30676 0.791266L3.20835 0.827991L3.1087 0.868515L3.01275 0.909039L2.91679 0.952096L2.82084 0.998952L2.72611 1.04581L2.63262 1.09646L2.54035 1.14838L2.44932 1.20157L2.35828 1.25729L2.26971 1.31555L2.18114 1.37506L2.09502 1.43712L2.01014 1.50044L1.92525 1.56629L1.84406 1.63341L1.76164 1.70306L1.68168 1.77271L1.60417 1.84489L1.5279 1.91961L1.45286 1.99559L1.37905 2.07284L1.30647 2.15135L1.23635 2.2324L1.16745 2.31471L1.10102 2.3983L1.03582 2.48314L0.971854 2.56926L0.910344 2.6579L0.850065 2.74655L0.792246 2.83646L0.736887 2.92891L0.681528 3.02135L0.62986 3.11633L0.579422 3.21131L0.530214 3.30629L0.484697 3.40506L0.44041 3.50257L0.397353 3.60262L0.356757 3.70266L0.319851 3.80271L0.282945 3.90402L0.24973 4.00786L0.216514 4.11043L0.18699 4.21428L0.159925 4.31939L0.134091 4.4245L0.110718 4.53087L0.0898042 4.63598L0.0713513 4.74236L0.0541286 4.85L0.0405964 4.95764L0.0282945 5.06528L0.0172227 5.17292L0.00984156 5.28183L0.00492078 5.38947L0 5.49711V5.60602V5.71493L0.00492078 5.82257Z" fill="#0DC09D"/>
<path d="M48.2398 26.1916H40.3528V22.9965H48.2398C49.4608 22.9965 50.4015 22.7534 51.0618 22.2646C51.7222 21.777 52.0529 21.1476 52.0529 20.3777C52.0529 19.6077 51.7406 19.0429 51.1184 18.6833C50.495 18.3249 49.5727 18.0286 48.3517 17.7981L47.0802 17.5676C45.8334 17.3371 44.6996 17.0028 43.679 16.5672C42.6572 16.1315 41.8468 15.5275 41.2492 14.7575C40.6516 13.9876 40.3516 12.9998 40.3516 11.7929C40.3516 9.99721 40.9996 8.6042 42.2956 7.61642C43.5917 6.62865 45.3108 6.13477 47.454 6.13477H55.1541V9.36909H47.454C46.4076 9.36909 45.585 9.56791 44.9874 9.96555C44.3897 10.3632 44.0897 10.9217 44.0897 11.6397C44.0897 12.4097 44.3824 12.9745 44.9677 13.3341C45.553 13.6938 46.3449 13.9635 47.3409 14.1421L48.6493 14.3725C49.9699 14.603 51.1787 14.9247 52.2755 15.335C53.3724 15.7453 54.238 16.3354 54.8738 17.1054C55.5095 17.8753 55.8268 18.9024 55.8268 20.1852C55.8268 22.0848 55.1406 23.5601 53.7708 24.6124C52.3997 25.6648 50.5565 26.1903 48.2386 26.1903L48.2398 26.1916Z" fill="#FFFDF9"/>
<path d="M96.0127 32.0327V23.0744H95.4151C95.1409 23.5885 94.7424 24.0824 94.2186 24.556C93.6948 25.0309 93.0283 25.4222 92.2192 25.73C91.4088 26.0377 90.4067 26.1922 89.2102 26.1922C87.6646 26.1922 86.2443 25.8072 84.9482 25.0373C83.6522 24.2673 82.6181 23.158 81.8458 21.7067C81.0736 20.2567 80.6875 18.5053 80.6875 16.4512V15.8738C80.6875 13.821 81.0798 12.0696 81.8655 10.6183C82.65 9.16831 83.6903 8.0577 84.9864 7.28775C86.2824 6.51779 87.6904 6.13281 89.2102 6.13281C91.0043 6.13281 92.3815 6.46714 93.3406 7.13325C94.2998 7.80063 95.0167 8.55792 95.4901 9.40512H96.0877V6.13281H99.864V32.0302H96.0139L96.0127 32.0327ZM90.2936 22.7274C91.988 22.7274 93.3714 22.1752 94.4424 21.0722C95.5134 19.9692 96.0496 18.3901 96.0496 16.3373V15.9903C96.0496 13.9628 95.5073 12.3976 94.424 11.2933C93.3394 10.1903 91.9622 9.63814 90.2936 9.63814C88.6249 9.63814 87.2846 10.1903 86.2 11.2933C85.1155 12.3976 84.5744 13.9628 84.5744 15.9903V16.3373C84.5744 18.3913 85.1167 19.9692 86.2 21.0722C87.2846 22.1765 88.6483 22.7274 90.2936 22.7274Z" fill="#FFFDF9"/>
<path d="M76.9916 15.7592C76.9916 13.8343 76.6177 12.1538 75.8701 10.7165C75.1225 9.27917 74.081 8.1559 72.7493 7.34795C71.4151 6.54001 69.8633 6.13477 68.095 6.13477C66.3268 6.13477 64.6803 6.54507 63.3104 7.36695C62.6243 7.77725 62.0132 8.26734 61.4746 8.83974C61.4069 8.91066 61.3405 8.98411 61.2741 9.05756C61.0774 9.28044 60.8942 9.51345 60.7196 9.7566C60.4884 10.0821 60.2732 10.4278 60.0764 10.7938C59.2919 12.2564 58.8984 13.9762 58.8984 15.953V16.4152C58.8984 18.392 59.2907 20.1105 60.0764 21.5744C60.861 23.0371 61.9517 24.173 63.3473 24.981C64.7418 25.7889 66.3747 26.1941 68.2438 26.1941C69.8891 26.1941 71.2589 25.9244 72.3558 25.3862C73.4526 24.8467 74.3244 24.1793 74.9725 23.3841C75.152 23.1624 75.3217 22.9446 75.4803 22.7293C75.8935 22.1709 76.2353 21.6327 76.5046 21.1122L73.2903 19.4178C72.8919 20.2916 72.3238 21.0615 71.5897 21.7276C70.8531 22.395 69.7637 22.7281 68.3188 22.7281C66.7731 22.7281 65.4832 22.2329 64.4503 21.2464C64.3864 21.1844 64.3237 21.1236 64.2634 21.0577C64.2019 20.9919 64.1441 20.9273 64.0863 20.8614C63.9486 20.6981 63.8207 20.5271 63.7027 20.3473C63.1998 19.5697 62.912 18.644 62.8395 17.5714C62.8321 17.4688 62.8284 17.365 62.8247 17.2611H76.9928V15.7592H76.9916ZM65.4033 14.2193L63.4346 16.2468H62.7866C62.7768 15.663 62.7866 14.9133 62.8616 14.2193C62.8985 13.9559 62.9477 13.7014 63.0116 13.4569C63.0731 13.2125 63.1481 12.9795 63.2354 12.7566C63.5256 12.0133 63.9572 11.3839 64.5253 10.8697C65.434 10.0479 66.6108 9.63756 68.0581 9.63756C69.5054 9.63756 70.6748 10.0479 71.5725 10.8697C72.4701 11.6916 72.9804 12.8086 73.1046 14.2193H65.4045H65.4033Z" fill="#FFFDF9"/>
<path d="M121.64 15.7592C121.64 13.8343 121.266 12.1538 120.519 10.7165C119.771 9.27917 118.729 8.1559 117.398 7.34795C116.064 6.54001 114.512 6.13477 112.743 6.13477C110.975 6.13477 109.329 6.54507 107.959 7.36695C107.273 7.77725 106.662 8.26734 106.123 8.83974C106.055 8.91066 105.989 8.98411 105.923 9.05756C105.726 9.28044 105.543 9.51345 105.368 9.7566C105.137 10.0821 104.922 10.4278 104.725 10.7938C103.94 12.2564 103.547 13.9762 103.547 15.953V16.4152C103.547 18.392 103.939 20.1105 104.725 21.5744C105.509 23.0371 106.6 24.173 107.996 24.981C109.39 25.7889 111.023 26.1941 112.892 26.1941C114.538 26.1941 115.907 25.9244 117.004 25.3862C118.101 24.8467 118.973 24.1793 119.621 23.3841C119.8 23.1624 119.97 22.9446 120.129 22.7293C120.542 22.1709 120.884 21.6327 121.153 21.1122L117.939 19.4178C117.54 20.2916 116.972 21.0615 116.238 21.7276C115.502 22.395 114.412 22.7281 112.967 22.7281C111.422 22.7281 110.132 22.2329 109.099 21.2464C109.035 21.1844 108.972 21.1236 108.912 21.0577C108.85 20.9919 108.793 20.9273 108.735 20.8614C108.597 20.6981 108.469 20.5271 108.351 20.3473C107.848 19.5697 107.56 18.644 107.488 17.5714C107.481 17.4688 107.477 17.365 107.473 17.2611H121.641V15.7592H121.64ZM110.052 14.2193L108.083 16.2468H107.435C107.425 15.663 107.435 14.9133 107.51 14.2193C107.547 13.9559 107.596 13.7014 107.66 13.4569C107.722 13.2125 107.797 12.9795 107.884 12.7566C108.174 12.0133 108.606 11.3839 109.174 10.8697C110.082 10.0479 111.259 9.63756 112.707 9.63756C114.154 9.63756 115.323 10.0479 116.221 10.8697C117.119 11.6916 117.629 12.8086 117.753 14.2193H110.053H110.052Z" fill="#FFFDF9"/>
<path d="M125.329 26.192V6.13389H129.104V8.36651H129.702C130.001 7.57122 130.48 6.98743 131.141 6.61511C131.801 6.2428 132.618 6.05664 133.589 6.05664H135.795V9.63668H133.44C132.193 9.63668 131.173 9.99 130.375 10.6954C129.577 11.402 129.178 12.486 129.178 13.9487V26.1907H125.328L125.329 26.192Z" fill="#FFFDF9"/>
<path d="M154.366 13.3276C154.366 11.0076 153.679 9.21567 152.302 7.95309C150.926 6.69051 149.036 6.05859 146.632 6.05859C145.055 6.05859 143.722 6.31567 142.633 6.83235C141.545 7.34903 140.668 8.03161 140.005 8.88134C139.342 9.73235 138.86 10.6606 138.559 11.6648L142.163 12.8641C142.388 11.8333 142.852 10.9949 143.553 10.3503C144.255 9.70702 145.267 9.38409 146.594 9.38409C147.92 9.38409 148.947 9.72601 149.598 10.4086C150.249 11.0912 150.574 11.9751 150.574 13.0578V16.3555H149.949L147.946 14.2951H144.942C142.915 14.2951 141.231 14.7915 139.892 15.7844C138.553 16.7759 137.883 18.2399 137.883 20.1736C137.883 21.4628 138.19 22.5569 138.803 23.4598C139.416 24.3628 140.243 25.0453 141.28 25.5088C142.321 25.9723 143.504 26.2053 144.828 26.2053C146.152 26.2053 147.131 26.0179 147.907 25.6443C148.683 25.2708 149.272 24.8326 149.672 24.3298C150.074 23.8271 150.371 23.3687 150.573 22.9571H151.174V26.2053H154.365V13.3289L154.366 13.3276ZM150.574 17.7738C150.574 19.3733 150.092 20.6295 149.128 21.5438C148.164 22.4581 146.921 22.9166 145.392 22.9166C144.266 22.9166 143.378 22.6595 142.726 22.1428C142.075 21.6261 141.75 20.9309 141.75 20.0546C141.75 19.1782 142.064 18.5134 142.688 18.0638C143.315 17.613 144.139 17.3876 145.166 17.3876H150.573V17.7738H150.574Z" fill="#FFFDF9"/>
</g>
<defs>
<clipPath id="clip0_556_6034">
<rect width="155" height="31.6619" fill="white" transform="translate(0 0.5)"/>
</clipPath>
</defs>
</svg>
