<svg width="69" height="14" viewBox="0 0 69 14" fill="none" xmlns="http://www.w3.org/2000/svg">
<g clip-path="url(#clip0_556_6208)">
<g clip-path="url(#clip1_556_6208)">
<path d="M11.6172 7.23013L11.6364 7.23741L11.6556 7.24469L11.6736 7.25301L11.6917 7.26237L11.7092 7.27173L11.7267 7.28212L11.7432 7.29408L11.7591 7.30552L11.7738 7.31852L11.7892 7.33152L11.8034 7.34608L11.8166 7.36012L11.8297 7.37572L11.8412 7.39131L11.8527 7.40795L11.8626 7.42407L11.8719 7.44175L11.8806 7.45891L11.8883 7.47659L11.896 7.49479L11.9014 7.51351L11.9069 7.5317L11.9108 7.55146L11.9146 7.57018L11.9168 7.58994L11.9179 7.60866L11.9184 7.6279L11.9179 7.64765L11.9168 7.66689L11.9146 7.68613L11.9108 7.70537L11.9069 7.72409L11.9014 7.74333L11.896 7.76153L11.8883 7.78024L11.8806 7.79792L11.8719 7.81508L11.8626 7.83224L11.8527 7.84888L11.8412 7.86552L11.8297 7.88112L11.8166 7.89568L11.8034 7.91075L11.7892 7.92427L11.7738 7.93831L11.7591 7.95131L11.7432 7.96275L11.7267 7.97367L11.7092 7.98511L11.6917 7.99447L11.6736 8.00383L11.6556 8.01163L11.6364 8.01942L11.6172 8.02566L11.5981 8.0319L11.5783 8.03606L11.5586 8.04074L11.5378 8.04334L11.5181 8.04542L11.4973 8.0475H11.494L11.5148 8.04698L11.5521 8.04542L11.5893 8.04334L11.6265 8.04022L11.6632 8.03554L11.7005 8.03034L11.7372 8.02462L11.7738 8.01735L11.81 8.00955L11.8467 8.00071L11.8828 7.99083L11.9184 7.97991L11.9535 7.96847L11.9885 7.95599L12.023 7.94247L12.0575 7.92843L12.0915 7.91335L12.1249 7.89724L12.1577 7.8806L12.19 7.86292L12.2218 7.8442L12.2536 7.82548L12.2842 7.80572L12.3149 7.7844L12.3445 7.76257L12.3735 7.74073L12.402 7.71733L12.4299 7.69341L12.4567 7.66949L12.4836 7.64401L12.5093 7.61854L12.534 7.59202L12.5581 7.56498L12.5816 7.53742L12.6046 7.50883L12.6265 7.48023L12.6473 7.45111L12.6681 7.42095L12.6873 7.3908L12.7059 7.3596L12.724 7.3284L12.7404 7.2972L12.7563 7.26497L12.7711 7.23221L12.7853 7.19945L12.7985 7.16617L12.8111 7.13238L12.822 7.09858L12.8324 7.06426L12.8417 7.02994L12.8499 6.99563L12.8576 6.96027L12.8642 6.92543L12.8697 6.8906L12.8735 6.85524L12.8773 6.81988L12.8801 6.784L12.8812 6.74865L12.8817 6.71329L12.8812 6.67793L12.8801 6.64206L12.8773 6.6067L12.8735 6.57134L12.8697 6.5365L12.8642 6.50115L12.8576 6.46579L12.8499 6.43147L12.8417 6.39664L12.8346 6.37012H11.5033L11.477 6.37064H8.32812L11.5942 7.22389L11.6172 7.23013Z" fill="#160F26"/>
<path d="M13.6838 7.5395L13.681 7.49479L13.6777 7.45059L13.6734 7.40587L13.6679 7.36168L13.6619 7.318L13.6542 7.2738L13.6454 7.23013L13.6367 7.18645L13.6263 7.1433L13.6148 7.10014L13.6027 7.05698L13.589 7.01435L13.5748 6.97223L13.56 6.92959L13.5436 6.888L13.5266 6.84692L13.5085 6.80532L13.4899 6.76477L13.4702 6.72421L13.4499 6.68417L13.428 6.64518L13.4056 6.60566L13.382 6.56718L13.3579 6.5287L13.3333 6.49127L13.307 6.45383L13.2807 6.41743L13.2533 6.38156L13.244 6.37012H12.836L12.8431 6.39664L12.8514 6.43147L12.859 6.46579L12.8656 6.50115L12.8711 6.5365L12.8749 6.57134L12.8787 6.6067L12.8815 6.64206L12.8826 6.67793L12.8831 6.71329L12.8826 6.74865L12.8815 6.784L12.8787 6.81988L12.8749 6.85524L12.8711 6.8906L12.8656 6.92543L12.859 6.96027L12.8514 6.99563L12.8431 7.02994L12.8338 7.06426L12.8234 7.09858L12.8125 7.13238L12.7999 7.16617L12.7867 7.19945L12.7725 7.23221L12.7577 7.26497L12.7418 7.2972L12.7254 7.3284L12.7073 7.3596L12.6887 7.3908L12.6695 7.42095L12.6487 7.45111L12.6279 7.48023L12.606 7.50883L12.583 7.53742L12.5595 7.56498L12.5354 7.59202L12.5107 7.61854L12.485 7.64401L12.4582 7.66949L12.4313 7.69341L12.4034 7.71733L12.3749 7.74073L12.3459 7.76257L12.3163 7.7844L12.2856 7.80572L12.255 7.82548L12.2232 7.8442L12.1915 7.86292L12.1591 7.8806L12.1263 7.89724L12.0929 7.91335L12.0589 7.92843L12.0244 7.94247L11.9899 7.95599L11.9549 7.96847L11.9198 7.97991L11.8842 7.99083L11.8481 8.00071L11.8114 8.00955L11.7753 8.01735L11.7386 8.02462L11.7019 8.03034L11.6646 8.03554L11.6279 8.04022L11.5907 8.04334L11.5535 8.04542L11.5162 8.04698L11.4784 8.0475H0V9.72489H11.4784L11.5255 9.72437L11.5721 9.72333L11.6192 9.72073L11.6657 9.71709L11.7123 9.71293L11.7588 9.70825L11.8054 9.70149L11.8514 9.69473L11.8974 9.68693L11.9434 9.67757L11.9894 9.66769L12.0343 9.65729L12.0797 9.64533L12.1252 9.63286L12.1695 9.61986L12.2139 9.60478L12.2577 9.5897L12.3015 9.57358L12.3448 9.55694L12.3875 9.53926L12.4302 9.52002L12.4724 9.50027L12.514 9.47999L12.5551 9.45867L12.5956 9.43683L12.6361 9.41343L12.675 9.39004L12.7144 9.3656L12.7533 9.34012L12.7911 9.31412L12.8284 9.28708L12.865 9.25953L12.9017 9.23093L12.9373 9.20181L12.9718 9.17269L13.0058 9.14202L13.0392 9.11082L13.0721 9.0791L13.1038 9.04634L13.1356 9.01359L13.1662 8.97979L13.1958 8.94547L13.2248 8.91063L13.2533 8.87476L13.2807 8.83888L13.307 8.80248L13.3333 8.76505L13.3579 8.72761L13.382 8.68913L13.4056 8.65065L13.428 8.61166L13.4499 8.57214L13.4702 8.5321L13.4899 8.49207L13.5085 8.45099L13.5266 8.40991L13.5436 8.36884L13.56 8.32672L13.5748 8.2846L13.589 8.24249L13.6027 8.19933L13.6148 8.15669L13.6263 8.11354L13.6367 8.06986L13.6454 8.0267L13.6542 7.98303L13.6619 7.93883L13.6679 7.89464L13.6734 7.85044L13.6777 7.80624L13.681 7.76153L13.6838 7.71733L13.6854 7.67313L13.686 7.62842L13.6854 7.5837L13.6838 7.5395Z" fill="#FA6863"/>
<path d="M2.06918 6.76803L2.05001 6.76127L2.03084 6.75399L2.01277 6.74567L1.99415 6.73631L1.97717 6.72643L1.95965 6.71603L1.94322 6.70459L1.92734 6.69263L1.91201 6.67963L1.89722 6.66663L1.88298 6.6526L1.86984 6.63804L1.85669 6.62244L1.84519 6.60684L1.83369 6.59072L1.82384 6.5746L1.81453 6.55692L1.80522 6.53925L1.7981 6.52209L1.79043 6.50389L1.78495 6.48465L1.77948 6.46645L1.7751 6.44721L1.77181 6.42849L1.76962 6.40874L1.76853 6.39002L1.76798 6.37026L1.76853 6.35102L1.76962 6.33126L1.77181 6.31254L1.7751 6.2933L1.77948 6.27407L1.78495 6.25535L1.79043 6.23715L1.7981 6.21843L1.80522 6.20075L1.81453 6.18307L1.82384 6.16644L1.83369 6.14928L1.84519 6.13316L1.85669 6.11756L1.86984 6.10248L1.88298 6.08792L1.89722 6.07388L1.91201 6.06036L1.92734 6.04736L1.94322 6.03593L1.95965 6.02449L1.97717 6.01357L1.99415 6.00369L2.01277 5.99485L2.03084 5.98705L2.05001 5.97925L2.06918 5.97249L2.08834 5.96677L2.10806 5.96209L2.12777 5.95793L2.14858 5.95533L2.1683 5.95325L2.18856 5.95117H2.19239H2.17158L2.13435 5.95273L2.09711 5.95533L2.05987 5.95845L2.02318 5.96261L1.98594 5.96781L1.9487 5.97405L1.91255 5.98081L1.87586 5.98913L1.83972 5.99797L1.80357 6.00785L1.76798 6.01877L1.73293 6.03021L1.69733 6.04216L1.66338 6.05568L1.62888 6.07024L1.59493 6.08532L1.56152 6.10144L1.52811 6.11808L1.49635 6.13524L1.46459 6.15396L1.43282 6.17319L1.40161 6.19295L1.37149 6.21427L1.34137 6.23559L1.31289 6.25795L1.28442 6.28083L1.25649 6.30474L1.22965 6.32918L1.20282 6.35414L1.17708 6.38014L1.15244 6.40614L1.12779 6.43317L1.10479 6.46125L1.08124 6.48933L1.05989 6.51793L1.03853 6.54756L1.01827 6.5772L0.999098 6.60788L0.980478 6.63856L0.962406 6.67027L0.945977 6.70147L0.930096 6.73371L0.91531 6.76647L0.901071 6.79922L0.887928 6.8325L0.875332 6.8663L0.86438 6.9001L0.853975 6.93441L0.844665 6.96821L0.83645 7.00305L0.828783 7.03789L0.822212 7.07324L0.816735 7.10808L0.812902 7.14344L0.809069 7.17827L0.80633 7.21415L0.805235 7.24951L0.804688 7.28487L0.805235 7.32074L0.80633 7.3561L0.809069 7.39146L0.812902 7.42681L0.816735 7.46217L0.822212 7.49753L0.828783 7.53237L0.83645 7.5672L0.844665 7.60152L0.851784 7.62856H2.18309L2.20937 7.62804H5.35827L2.09218 6.77479L2.06918 6.76803Z" fill="#160F26"/>
<path d="M0.00219054 6.45882L0.00438108 6.50354L0.00821453 6.54774L0.0125956 6.59193L0.018072 6.63613L0.0240959 6.68032L0.0317628 6.724L0.0399774 6.7682L0.0492872 6.81187L0.0596922 6.85503L0.0711926 6.89819L0.0832405 6.94134L0.0969314 6.98398L0.11117 7.0261L0.125956 7.06821L0.142385 7.11033L0.159362 7.15141L0.177434 7.193L0.196053 7.23356L0.215768 7.27412L0.236031 7.31363L0.257936 7.35315L0.280389 7.39267L0.303938 7.43114L0.328033 7.4691L0.352677 7.50654L0.378416 7.54398L0.40525 7.58089L0.432632 7.61677L0.441942 7.62821H0.84993L0.842811 7.60117L0.834596 7.56685L0.826929 7.53202L0.820357 7.49718L0.814881 7.46182L0.811048 7.42646L0.807214 7.39111L0.804476 7.35575L0.803381 7.32039L0.802833 7.28452L0.803381 7.24916L0.804476 7.2138L0.807214 7.17792L0.811048 7.14309L0.814881 7.10773L0.820357 7.07289L0.826929 7.03754L0.834596 7.0027L0.842811 6.96786L0.85212 6.93406L0.862525 6.89975L0.873478 6.86595L0.886074 6.83215L0.899217 6.79888L0.913455 6.76612L0.928242 6.73336L0.944123 6.70112L0.960552 6.66993L0.978624 6.63821L0.997244 6.60753L1.01641 6.57685L1.03667 6.54722L1.05803 6.51758L1.07939 6.48898L1.10294 6.4609L1.12594 6.43282L1.15058 6.40579L1.17522 6.37979L1.20096 6.35379L1.2278 6.32883L1.25463 6.30439L1.28256 6.28048L1.31104 6.2576L1.33952 6.23524L1.36964 6.21392L1.39976 6.1926L1.43097 6.17285L1.46273 6.15361L1.4945 6.13489L1.52626 6.11773L1.55966 6.10109L1.59307 6.08497L1.62702 6.06989L1.66153 6.05533L1.69548 6.04182L1.73107 6.02986L1.76612 6.01842L1.80172 6.0075L1.83786 5.99762L1.87401 5.98878L1.9107 5.98046L1.94684 5.9737L1.98408 5.96746L2.02132 5.96226L2.05801 5.9581L2.09525 5.95498L2.13249 5.95238L2.16973 5.95082L2.20752 5.9503H13.686V4.27344H2.20752L2.16042 4.27396L2.11387 4.275L2.06678 4.2776L2.02023 4.28072L1.97313 4.28488L1.92713 4.29008L1.88058 4.29632L1.83458 4.30308L1.78858 4.31139L1.74203 4.32023L1.69657 4.33011L1.65112 4.34103L1.60621 4.35247L1.56076 4.36547L1.5164 4.37847L1.47204 4.39303L1.42823 4.40811L1.38442 4.42475L1.34116 4.44138L1.29844 4.45906L1.25573 4.4783L1.21356 4.49806L1.17194 4.51782L1.13087 4.53966L1.09034 4.56149L1.04982 4.58437L1.01039 4.60829L0.970957 4.63273L0.932623 4.65821L0.894836 4.6842L0.857049 4.71072L0.820905 4.73828L0.784214 4.76688L0.748617 4.796L0.714116 4.82563L0.680163 4.85631L0.646757 4.88699L0.613899 4.91923L0.581589 4.95198L0.550373 4.98474L0.519706 5.01854L0.490133 5.05285L0.461109 5.08769L0.432632 5.12305L0.40525 5.15945L0.378416 5.19584L0.352677 5.23276L0.328033 5.27072L0.303938 5.30919L0.280389 5.34767L0.257936 5.38615L0.236031 5.42567L0.215768 5.46622L0.196053 5.50626L0.177434 5.54734L0.159362 5.58789L0.142385 5.62949L0.125956 5.67109L0.11117 5.7132L0.0969314 5.75584L0.0832405 5.79848L0.0711926 5.84163L0.0596922 5.88479L0.0492872 5.92847L0.0399774 5.97162L0.0317628 6.0153L0.0240959 6.05949L0.018072 6.10369L0.0125956 6.14789L0.00821453 6.19208L0.00438108 6.23628L0.00219054 6.28048L0 6.32519V6.36991V6.41463L0.00219054 6.45882Z" fill="#F18046"/>
<path d="M2.06918 2.99511L2.05001 2.98783L2.03084 2.98003L2.01222 2.97223L1.9947 2.96287L1.97663 2.95351L1.95965 2.94311L1.94322 2.93115L1.92679 2.91972L1.91146 2.90672L1.89667 2.89372L1.88298 2.87916L1.86984 2.86512L1.85669 2.84952L1.84465 2.83392L1.83369 2.81728L1.82329 2.80064L1.81398 2.78349L1.80467 2.76633L1.79755 2.74865L1.79043 2.72993L1.78441 2.71173L1.77948 2.69353L1.7751 2.67377L1.77181 2.65506L1.76907 2.6353L1.76853 2.61606L1.76798 2.5963L1.76853 2.57706L1.76907 2.55834L1.77181 2.53911L1.7751 2.51987L1.77948 2.50115L1.78441 2.48191L1.79043 2.46319L1.79755 2.44499L1.80467 2.42731L1.81398 2.41016L1.82329 2.39248L1.83369 2.37636L1.84465 2.35972L1.85669 2.34412L1.86984 2.32956L1.88298 2.31448L1.89667 2.29992L1.91146 2.28693L1.92679 2.27393L1.94322 2.26249L1.95965 2.25157L1.97663 2.24013L1.9947 2.23077L2.01222 2.22141L2.03084 2.21309L2.05001 2.20581L2.06918 2.19957L2.08834 2.19333L2.10806 2.18813L2.12832 2.18449L2.14804 2.18137L2.1683 2.17929L2.18911 2.17773H2.19568H2.17158L2.13435 2.17929L2.09711 2.18189L2.05987 2.18501L2.02318 2.18969L1.98594 2.19489L1.9487 2.20061L1.91255 2.20789L1.87586 2.21569L1.83972 2.22453L1.80357 2.23441L1.76798 2.24533L1.73293 2.25677L1.69733 2.26925L1.66338 2.28225L1.62888 2.2968L1.59493 2.31188L1.56152 2.328L1.52811 2.34464L1.49635 2.3618L1.46404 2.38052L1.43282 2.39976L1.40161 2.41952L1.37149 2.44083L1.34137 2.46215L1.31235 2.48451L1.28442 2.50791L1.25649 2.53131L1.2291 2.55574L1.20282 2.5807L1.17708 2.6067L1.15244 2.63322L1.12779 2.66026L1.10479 2.68781L1.08124 2.71641L1.05989 2.74501L1.03853 2.77413L1.01827 2.80376L0.999098 2.83444L0.980478 2.86512L0.962406 2.89684L0.945977 2.92803L0.930096 2.96027L0.91531 2.99303L0.901071 3.02579L0.887928 3.05906L0.875332 3.09286L0.86438 3.12666L0.853975 3.16098L0.844665 3.19529L0.835903 3.22961L0.828783 3.26445L0.822212 3.2998L0.816735 3.33464L0.812354 3.37L0.809069 3.40484L0.80633 3.44071L0.805235 3.47659L0.804688 3.51195L0.805235 3.5473L0.80633 3.58318L0.809069 3.61854L0.812354 3.6539L0.816735 3.68873L0.822212 3.72409L0.828783 3.75945L0.835903 3.79377L0.844665 3.8286L0.853975 3.86292L0.86438 3.89672L0.875332 3.93103L0.887928 3.96431L0.901071 3.99759L0.91531 4.03035L0.930096 4.0631L0.945977 4.09534L0.962406 4.12706L0.973359 4.14526L0.974454 4.14474L1.02046 4.12238L1.06646 4.10106L1.11301 4.08026L1.1601 4.06102L1.2072 4.04127L1.25539 4.02359L1.30304 4.00695L1.35177 3.98979L1.40051 3.97523L1.4498 3.96067L1.49909 3.94715L1.54838 3.93415L1.59821 3.92219L1.64859 3.9118L1.69898 3.90244L1.74881 3.89308L1.79974 3.88528L1.85067 3.878L1.9016 3.87176L1.95308 3.86656L2.00401 3.8624L2.05549 3.85876L2.10587 3.85668L2.15844 3.85564L2.20937 3.8546H5.35827L2.09163 3.00135L2.06918 2.99511Z" fill="#160F26"/>
<path d="M11.477 11.8231H11.5148L11.5521 11.821L11.5893 11.8189L11.6265 11.8158L11.6638 11.8111L11.701 11.8059L11.7377 11.8002L11.7744 11.7929L11.8105 11.7851L11.8472 11.7763L11.8828 11.7664L11.9184 11.7555L11.954 11.744L11.9891 11.7315L12.023 11.718L12.0575 11.704L12.0915 11.6889L12.1249 11.6728L12.1583 11.6561L12.1906 11.6385L12.2224 11.6198L12.2536 11.6005L12.2848 11.5808L12.3155 11.56L12.345 11.5381L12.3741 11.5163L12.4025 11.4929L12.4299 11.469L12.4573 11.445L12.4836 11.4196L12.5093 11.3941L12.5345 11.3676L12.5586 11.3405L12.5822 11.313L12.6052 11.2844L12.6265 11.2558L12.6479 11.2267L12.6681 11.1965L12.6873 11.1663L12.7059 11.1351L12.724 11.104L12.741 11.0722L12.7569 11.0405L12.7711 11.0078L12.7859 10.9745L12.7985 10.9417L12.8111 10.9079L12.8226 10.8741L12.8324 10.8398L12.8423 10.8055L12.8505 10.7712L12.8576 10.7358L12.8642 10.701L12.8697 10.6661L12.874 10.6303L12.8779 10.5954L12.8801 10.5596L12.8817 10.5242V10.4888V10.4535L12.8801 10.4176L12.8779 10.3823L12.874 10.3469L12.8697 10.3121L12.8642 10.2767L12.8576 10.2413L12.8505 10.207L12.8423 10.1722L12.8324 10.1379L12.8226 10.1041L12.8111 10.0698L12.7985 10.036L12.7859 10.0032L12.7711 9.97044L12.7569 9.93769L12.741 9.90545L12.724 9.87373L12.713 9.85449L12.7119 9.85501L12.6659 9.87737L12.6199 9.89869L12.5734 9.91949L12.5263 9.93925L12.4787 9.95796L12.431 9.97616L12.3834 9.9928L12.3346 10.0094L12.2853 10.025L12.2366 10.0391L12.1879 10.0526L12.1375 10.0656L12.0882 10.077L12.0378 10.088L11.9874 10.0978L11.937 10.1067L11.8867 10.1145L11.8357 10.1218L11.7848 10.128L11.7339 10.1332L11.6824 10.1373L11.6309 10.1405L11.5794 10.1431L11.5285 10.1446L11.477 10.1451H8.32812L11.5942 10.9984L11.6172 11.0052L11.6364 11.0119L11.6556 11.0192L11.6736 11.0275L11.6917 11.0369L11.7092 11.0468L11.7267 11.0572L11.7432 11.0686L11.7591 11.0806L11.7738 11.0936L11.7892 11.1066L11.8034 11.1206L11.8166 11.1351L11.8297 11.1507L11.8412 11.1663L11.8527 11.1825L11.8626 11.1986L11.8719 11.2163L11.8806 11.2339L11.8883 11.2511L11.896 11.2693L11.9014 11.2885L11.9069 11.3067L11.9108 11.326L11.9146 11.3447L11.9168 11.3645L11.9179 11.3832L11.9184 11.4029L11.9179 11.4222L11.9168 11.4419L11.9146 11.4606L11.9108 11.4799L11.9069 11.4991L11.9014 11.5178L11.896 11.536L11.8883 11.5548L11.8806 11.5724L11.8719 11.5901L11.8626 11.6068L11.8527 11.6239L11.8412 11.64L11.8297 11.6556L11.8166 11.6707L11.8034 11.6853L11.7892 11.6993L11.7738 11.7128L11.7591 11.7258L11.7432 11.7373L11.7267 11.7487L11.7092 11.7596L11.6917 11.7695L11.6736 11.7783L11.6556 11.7861L11.6364 11.7939L11.6172 11.8007L11.5981 11.8064L11.5783 11.8111L11.5586 11.8153L11.5378 11.8179L11.5181 11.8199L11.4973 11.822L11.477 11.8225" fill="#160F26"/>
<path d="M13.6838 11.3143L13.6816 11.2701L13.6783 11.2259L13.6734 11.1812L13.6684 11.137L13.6619 11.0933L13.6542 11.0491L13.646 11.0054L13.6367 10.9617L13.6263 10.9181L13.6148 10.8754L13.6027 10.8323L13.5896 10.7891L13.5753 10.7475L13.56 10.7049L13.5436 10.6633L13.5271 10.6222L13.5091 10.5806L13.4899 10.54L13.4707 10.4995L13.4499 10.4595L13.428 10.4205L13.4061 10.3809L13.3826 10.3425L13.3579 10.304L13.3333 10.2665L13.3075 10.2291L13.2807 10.1927L13.2533 10.1568L13.2248 10.121L13.1964 10.0866L13.1662 10.0518L13.1356 10.0185L13.1044 9.98525L13.0721 9.95301L13.0397 9.92078L13.0058 9.8901L12.9718 9.85942L12.9373 9.82978L12.9017 9.80067L12.8656 9.77207L12.8634 9.77051L12.8119 9.80015L12.7665 9.82458L12.7194 9.84902L12.7133 9.85214L12.7254 9.87346L12.7424 9.90518L12.7583 9.93741L12.7725 9.97017L12.7873 10.0029L12.7999 10.0357L12.8125 10.0695L12.824 10.1038L12.8338 10.1376L12.8437 10.1719L12.8519 10.2068L12.859 10.2411L12.8656 10.2764L12.8711 10.3118L12.8754 10.3466L12.8793 10.382L12.8815 10.4173L12.8831 10.4532V10.4886V10.5239L12.8815 10.5593L12.8793 10.5952L12.8754 10.63L12.8711 10.6659L12.8656 10.7007L12.859 10.7356L12.8519 10.7709L12.8437 10.8052L12.8338 10.8395L12.824 10.8739L12.8125 10.9077L12.7999 10.9415L12.7873 10.9742L12.7725 11.0075L12.7583 11.0402L12.7424 11.072L12.7254 11.1037L12.7073 11.1349L12.6887 11.1661L12.6695 11.1962L12.6493 11.2264L12.6279 11.2555L12.6066 11.2841L12.5836 11.3127L12.56 11.3403L12.5359 11.3673L12.5107 11.3938L12.485 11.4193L12.4587 11.4448L12.4313 11.4687L12.4039 11.4926L12.3755 11.516L12.3464 11.5378L12.3169 11.5597L12.2862 11.5805L12.255 11.6002L12.2238 11.6195L12.192 11.6382L12.1597 11.6559L12.1263 11.6725L12.0929 11.6886L12.0589 11.7037L12.0244 11.7178L11.9905 11.7313L11.9554 11.7438L11.9198 11.7552L11.8842 11.7661L11.8486 11.776L11.8119 11.7848L11.7758 11.7926L11.7391 11.7999L11.7024 11.8056L11.6652 11.8108L11.6279 11.8155L11.5907 11.8186L11.5535 11.8207L11.5162 11.8228H11.4784H0V13.5002H11.4784L11.5255 13.4996L11.5721 13.4986L11.6192 13.496L11.6657 13.4924L11.7128 13.4887L11.7594 13.4835L11.8059 13.4768L11.8519 13.47L11.8979 13.4622L11.9439 13.4529L11.9894 13.443L12.0348 13.4326L12.0797 13.4211L12.1252 13.4081L12.1695 13.3951L12.2139 13.3801L12.2583 13.365L12.3021 13.3489L12.3453 13.3322L12.3881 13.3145L12.4308 13.2953L12.4724 13.2755L12.5146 13.2553L12.5551 13.234L12.5962 13.2121L12.6361 13.1892L12.6756 13.1648L12.715 13.1409L12.7533 13.1154L12.7911 13.0889L12.8289 13.0624L12.8656 13.0348L12.9017 13.0062L12.9373 12.9771L12.9718 12.948L13.0058 12.9173L13.0397 12.8861L13.0721 12.8544L13.1044 12.8216L13.1356 12.7889L13.1662 12.7551L13.1964 12.7208L13.2248 12.6859L13.2533 12.6506L13.2807 12.6142L13.3075 12.5778L13.3333 12.5403L13.3579 12.5029L13.3826 12.4644L13.4061 12.4259L13.428 12.3869L13.4499 12.3474L13.4707 12.3074L13.4899 12.2673L13.5091 12.2263L13.5271 12.1852L13.5436 12.1441L13.56 12.102L13.5753 12.0599L13.5896 12.0172L13.6027 11.9746L13.6148 11.932L13.6263 11.8883L13.6367 11.8451L13.646 11.802L13.6542 11.7578L13.6619 11.7141L13.6684 11.6699L13.6734 11.6257L13.6783 11.5815L13.6816 11.5368L13.6838 11.4926L13.686 11.4484V11.4037V11.359L13.6838 11.3143Z" fill="#3D95FD"/>
<path d="M0.00219054 2.68539L0.00438108 2.7301L0.00766689 2.7743L0.0125956 2.81901L0.018072 2.86321L0.0240959 2.90689L0.0317628 2.95108L0.0399774 2.99476L0.0492872 3.03844L0.0596922 3.08159L0.0711926 3.12475L0.0832405 3.16739L0.0963838 3.21054L0.11117 3.25266L0.125956 3.29478L0.142385 3.33689L0.158814 3.37797L0.176886 3.41957L0.196053 3.46012L0.215768 3.50068L0.236031 3.5402L0.257936 3.57971L0.280389 3.61923L0.30339 3.65771L0.328033 3.69618L0.352677 3.7331L0.378416 3.77054L0.40525 3.80746L0.432632 3.84333L0.461109 3.87921L0.490133 3.91353L0.519706 3.94836L0.550373 3.98164L0.581589 4.01492L0.613899 4.04716L0.646757 4.07887L0.680163 4.11007L0.714116 4.14075L0.748617 4.17039L0.784214 4.1995L0.820905 4.22758L0.822548 4.22914L0.874026 4.20002L0.919479 4.17559L0.966576 4.15063L0.973148 4.14803L0.960552 4.12671L0.944123 4.09499L0.928242 4.06275L0.913455 4.03L0.899217 3.99724L0.886074 3.96396L0.873478 3.93069L0.862525 3.89637L0.85212 3.86257L0.842811 3.82825L0.834048 3.79342L0.826929 3.7591L0.820357 3.72374L0.814881 3.68838L0.8105 3.65355L0.807214 3.61819L0.804476 3.58283L0.803381 3.54696L0.802833 3.5116L0.803381 3.47624L0.804476 3.44036L0.807214 3.40449L0.8105 3.36965L0.814881 3.33429L0.820357 3.29946L0.826929 3.2641L0.834048 3.22926L0.842811 3.19494L0.85212 3.16063L0.862525 3.12631L0.873478 3.09251L0.886074 3.05872L0.899217 3.02544L0.913455 2.99268L0.928242 2.95992L0.944123 2.92769L0.960552 2.89649L0.978624 2.86477L0.997244 2.83409L1.01641 2.80342L1.03667 2.77378L1.05803 2.74466L1.07939 2.71606L1.10294 2.68746L1.12594 2.65991L1.15058 2.63287L1.17522 2.60635L1.20096 2.58035L1.22725 2.5554L1.25463 2.53096L1.28256 2.50756L1.31049 2.48416L1.33952 2.4618L1.36964 2.44048L1.39976 2.41917L1.43097 2.39941L1.46219 2.38017L1.4945 2.36145L1.52626 2.34429L1.55966 2.32765L1.59307 2.31154L1.62702 2.29646L1.66153 2.2819L1.69548 2.2689L1.73107 2.25642L1.76612 2.24498L1.80172 2.23406L1.83786 2.22418L1.87401 2.21534L1.9107 2.20754L1.94684 2.20026L1.98408 2.19454L2.02132 2.18934L2.05801 2.18467L2.09525 2.18155L2.13249 2.17895L2.16973 2.17739H2.20752H13.686V0.5H2.20752H2.16042L2.11387 0.50156L2.06678 0.50416L2.02023 0.507799L1.97313 0.511439L1.92658 0.516639L1.88058 0.523398L1.83403 0.529638L1.78803 0.537957L1.74203 0.546796L1.69657 0.557195L1.65112 0.567595L1.60621 0.579034L1.56076 0.592033L1.5164 0.605032L1.47204 0.61959L1.42823 0.634669L1.38387 0.651308L1.34116 0.667947L1.29844 0.685625L1.25573 0.704864L1.21356 0.724102L1.17194 0.7449L1.13087 0.766219L1.09034 0.788057L1.04982 0.810935L1.01039 0.834853L0.970957 0.859291L0.932623 0.884769L0.894836 0.910767L0.857049 0.937805L0.820905 0.965363L0.784214 0.99396L0.748617 1.02256L0.714116 1.0522L0.680163 1.08287L0.646757 1.11407L0.613899 1.14579L0.581589 1.17803L0.550373 1.2113L0.519706 1.2451L0.490133 1.27942L0.461109 1.31425L0.432632 1.34961L0.40525 1.38601L0.378416 1.42241L0.352677 1.45932L0.328033 1.49728L0.30339 1.53524L0.280389 1.57423L0.257936 1.61323L0.236031 1.65223L0.215768 1.69278L0.196053 1.73282L0.176886 1.7739L0.158814 1.81497L0.142385 1.85605L0.125956 1.89765L0.11117 1.94028L0.0963838 1.9824L0.0832405 2.02504L0.0711926 2.06819L0.0596922 2.11135L0.0492872 2.15503L0.0399774 2.19818L0.0317628 2.24186L0.0240959 2.28606L0.018072 2.33025L0.0125956 2.37445L0.00766689 2.41865L0.00438108 2.46336L0.00219054 2.50756L0 2.55176V2.59647V2.64119L0.00219054 2.68539Z" fill="#0DC09D"/>
</g>
<path d="M21.4725 11.0486H17.9615V9.73672H21.4725C22.016 9.73672 22.4348 9.63689 22.7287 9.43619C23.0227 9.236 23.1699 8.97758 23.1699 8.66145C23.1699 8.34531 23.0309 8.11341 22.7539 7.96574C22.4764 7.8186 22.0658 7.69693 21.5223 7.60229L20.9563 7.50766C20.4012 7.41303 19.8965 7.27576 19.4422 7.09689C18.9873 6.91803 18.6266 6.67001 18.3605 6.35387C18.0945 6.03774 17.9609 5.63217 17.9609 5.13665C17.9609 4.39935 18.2494 3.8274 18.8264 3.42183C19.4033 3.01626 20.1686 2.81348 21.1227 2.81348H24.5505V4.14145H21.1227C20.6569 4.14145 20.2906 4.22308 20.0246 4.38635C19.7586 4.54962 19.625 4.77892 19.625 5.07374C19.625 5.38987 19.7553 5.62177 20.0159 5.76944C20.2764 5.91711 20.6289 6.02786 21.0723 6.10117L21.6548 6.19581C22.2427 6.29044 22.7807 6.42251 23.269 6.59097C23.7573 6.75944 24.1427 7.00174 24.4257 7.31788C24.7087 7.63401 24.8499 8.0557 24.8499 8.58242C24.8499 9.36235 24.5444 9.9681 23.9347 10.4002C23.3243 10.8323 22.5038 11.0481 21.4719 11.0481L21.4725 11.0486Z" fill="#160F26"/>
<path d="M42.7362 13.4467V9.7685H42.4702C42.3481 9.97961 42.1708 10.1824 41.9376 10.3769C41.7044 10.5718 41.4077 10.7325 41.0475 10.8589C40.6868 10.9852 40.2407 11.0486 39.7081 11.0486C39.02 11.0486 38.3877 10.8906 37.8108 10.5744C37.2338 10.2583 36.7735 9.80282 36.4297 9.20695C36.0859 8.6116 35.9141 7.89249 35.9141 7.04912V6.81202C35.9141 5.96917 36.0887 5.25006 36.4385 4.65419C36.7877 4.05884 37.2508 3.60284 37.8278 3.2867C38.4047 2.97057 39.0315 2.8125 39.7081 2.8125C40.5067 2.8125 41.1198 2.94977 41.5467 3.22327C41.9737 3.49729 42.2928 3.80822 42.5036 4.15607H42.7696V2.8125H44.4507V13.4456H42.7368L42.7362 13.4467ZM40.1903 9.62603C40.9446 9.62603 41.5604 9.39933 42.0372 8.94645C42.514 8.49357 42.7527 7.84518 42.7527 7.00232V6.85986C42.7527 6.0274 42.5113 5.38473 42.029 4.93133C41.5462 4.47845 40.9331 4.25174 40.1903 4.25174C39.4475 4.25174 38.8508 4.47845 38.368 4.93133C37.8852 5.38473 37.6444 6.0274 37.6444 6.85986V7.00232C37.6444 7.8457 37.8858 8.49357 38.368 8.94645C38.8508 9.39985 39.4579 9.62603 40.1903 9.62603Z" fill="#160F26"/>
<path d="M34.2731 6.76418C34.2731 5.97385 34.1067 5.28386 33.7739 4.69371C33.4411 4.10356 32.9774 3.64235 32.3846 3.31062C31.7907 2.97889 31.0999 2.8125 30.3127 2.8125C29.5256 2.8125 28.7926 2.98097 28.1828 3.31842C27.8774 3.48689 27.6053 3.68811 27.3655 3.92313C27.3354 3.95225 27.3059 3.98241 27.2763 4.01256C27.1887 4.10408 27.1072 4.19975 27.0294 4.29958C26.9265 4.43321 26.8307 4.57516 26.7432 4.72543C26.3939 5.32598 26.2188 6.03208 26.2188 6.84374V7.03352C26.2188 7.84518 26.3934 8.55076 26.7432 9.15183C27.0924 9.75239 27.5779 10.2188 28.1992 10.5505C28.82 10.8823 29.5469 11.0486 30.3789 11.0486C31.1114 11.0486 31.7212 10.9379 32.2094 10.7169C32.6977 10.4954 33.0858 10.2214 33.3743 9.89485C33.4542 9.80386 33.5297 9.71443 33.6004 9.62604C33.7843 9.39673 33.9365 9.17575 34.0563 8.96205L32.6255 8.26634C32.4481 8.62512 32.1952 8.94125 31.8684 9.21475C31.5405 9.48877 31.0555 9.62552 30.4123 9.62552C29.7243 9.62552 29.15 9.42221 28.6902 9.01716C28.6618 8.99169 28.6339 8.96673 28.607 8.93969C28.5797 8.91265 28.5539 8.88613 28.5282 8.8591C28.4669 8.79202 28.41 8.72183 28.3574 8.64799C28.1335 8.32874 28.0054 7.94865 27.9731 7.50824C27.9699 7.46613 27.9682 7.42349 27.9666 7.38085H34.2737V6.76418H34.2731ZM29.1145 6.13191L28.2381 6.96437H27.9496C27.9452 6.72467 27.9496 6.41685 27.983 6.13191C27.9994 6.02376 28.0213 5.91925 28.0498 5.8189C28.0772 5.71855 28.1105 5.62288 28.1494 5.53136C28.2786 5.22615 28.4707 4.96773 28.7236 4.75662C29.1281 4.41917 29.652 4.25071 30.2963 4.25071C30.9406 4.25071 31.4611 4.41917 31.8607 4.75662C32.2603 5.09408 32.4875 5.55268 32.5428 6.13191H29.115H29.1145Z" fill="#160F26"/>
<path d="M54.1481 6.76418C54.1481 5.97385 53.9817 5.28386 53.6489 4.69371C53.3161 4.10356 52.8524 3.64235 52.2596 3.31062C51.6657 2.97889 50.9749 2.8125 50.1877 2.8125C49.4006 2.8125 48.6676 2.98097 48.0578 3.31842C47.7524 3.48689 47.4803 3.68811 47.2405 3.92313C47.2104 3.95225 47.1809 3.98241 47.1513 4.01256C47.0637 4.10408 46.9822 4.19975 46.9044 4.29958C46.8015 4.43321 46.7057 4.57516 46.6182 4.72543C46.2689 5.32598 46.0938 6.03208 46.0938 6.84374V7.03352C46.0938 7.84518 46.2684 8.55076 46.6182 9.15183C46.9674 9.75239 47.4529 10.2188 48.0742 10.5505C48.695 10.8823 49.4219 11.0486 50.2539 11.0486C50.9864 11.0486 51.5962 10.9379 52.0844 10.7169C52.5727 10.4954 52.9608 10.2214 53.2493 9.89485C53.3292 9.80386 53.4047 9.71443 53.4754 9.62604C53.6593 9.39673 53.8115 9.17575 53.9313 8.96205L52.5005 8.26634C52.3231 8.62512 52.0702 8.94125 51.7434 9.21475C51.4155 9.48877 50.9305 9.62552 50.2873 9.62552C49.5993 9.62552 49.025 9.42221 48.5652 9.01716C48.5368 8.99169 48.5089 8.96673 48.482 8.93969C48.4547 8.91265 48.4289 8.88613 48.4032 8.8591C48.3419 8.79202 48.285 8.72183 48.2324 8.64799C48.0085 8.32874 47.8804 7.94865 47.8481 7.50824C47.8449 7.46613 47.8432 7.42349 47.8416 7.38085H54.1487V6.76418H54.1481ZM48.9895 6.13191L48.1131 6.96437H47.8246C47.8202 6.72467 47.8246 6.41685 47.858 6.13191C47.8744 6.02376 47.8963 5.91925 47.9248 5.8189C47.9522 5.71855 47.9855 5.62288 48.0244 5.53136C48.1536 5.22615 48.3457 4.96773 48.5986 4.75662C49.0032 4.41917 49.527 4.25071 50.1713 4.25071C50.8156 4.25071 51.3361 4.41917 51.7357 4.75662C52.1353 5.09408 52.3625 5.55268 52.4178 6.13191H48.99H48.9895Z" fill="#160F26"/>
<path d="M55.7896 11.0486V2.81297H57.4701V3.72965H57.7361C57.8692 3.40312 58.0826 3.16342 58.3766 3.01055C58.6705 2.85768 59.034 2.78125 59.4665 2.78125H60.4485V4.25117H59.4002C58.8452 4.25117 58.3908 4.39624 58.0356 4.68586C57.6803 4.97599 57.503 5.42108 57.503 6.02163V11.0481H55.7891L55.7896 11.0486Z" fill="#160F26"/>
<path d="M68.7206 5.76679C68.7206 4.81422 68.4146 4.07848 67.8016 3.56008C67.189 3.04169 66.3477 2.78223 65.2775 2.78223C64.5758 2.78223 63.9824 2.88778 63.4974 3.09992C63.013 3.31206 62.6227 3.59232 62.3276 3.94121C62.0326 4.29063 61.818 4.67176 61.6839 5.08408L63.2883 5.57648C63.3885 5.15324 63.5948 4.80902 63.9069 4.54437C64.2194 4.28023 64.6699 4.14764 65.2606 4.14764C65.8512 4.14764 66.3083 4.28803 66.5978 4.56828C66.888 4.84854 67.0325 5.21147 67.0325 5.65604V7.01001H66.7544L65.8627 6.16404H64.5254C63.6228 6.16404 62.8734 6.36786 62.2773 6.77551C61.6811 7.18263 61.3828 7.78371 61.3828 8.57768C61.3828 9.107 61.5197 9.55624 61.7923 9.92697C62.0654 10.2977 62.4333 10.578 62.8953 10.7683C63.3584 10.9586 63.885 11.0542 64.4745 11.0542C65.064 11.0542 65.4998 10.9773 65.8452 10.8239C66.1906 10.6705 66.4528 10.4906 66.6307 10.2842C66.8097 10.0778 66.9422 9.88954 67.0319 9.72055H67.2996V11.0542H68.7201V5.76731L68.7206 5.76679ZM67.0325 7.59236C67.0325 8.24907 66.8179 8.76487 66.3887 9.14028C65.9596 9.51569 65.4062 9.70391 64.7258 9.70391C64.2243 9.70391 63.8291 9.59836 63.539 9.38622C63.2489 9.17407 63.1044 8.88862 63.1044 8.52881C63.1044 8.169 63.244 7.89602 63.522 7.71143C63.8012 7.52633 64.168 7.43377 64.625 7.43377H67.0319V7.59236H67.0325Z" fill="#160F26"/>
</g>
<defs>
<clipPath id="clip0_556_6208">
<rect width="69" height="13" fill="white" transform="translate(0 0.5)"/>
</clipPath>
<clipPath id="clip1_556_6208">
<rect width="13.686" height="13" fill="white" transform="translate(0 0.5)"/>
</clipPath>
</defs>
</svg>
