<svg width="162" height="32" viewBox="0 0 162 32" fill="none" xmlns="http://www.w3.org/2000/svg">
<g clip-path="url(#clip0_3897_1805)">
<g clip-path="url(#clip1_3897_1805)">
<path d="M27.166 16.5671L27.2108 16.5851L27.2557 16.603L27.2979 16.6235L27.3402 16.6465L27.3812 16.6695L27.4221 16.6951L27.4605 16.7246L27.4977 16.7527L27.5322 16.7847L27.5681 16.8167L27.6014 16.8526L27.6321 16.8871L27.6629 16.9255L27.6897 16.9639L27.7166 17.0049L27.7397 17.0445L27.7614 17.0881L27.7819 17.1303L27.7999 17.1738L27.8178 17.2186L27.8306 17.2647L27.8434 17.3095L27.8524 17.3581L27.8613 17.4042L27.8664 17.4528L27.869 17.4989L27.8703 17.5463L27.869 17.5949L27.8664 17.6423L27.8613 17.6896L27.8524 17.737L27.8434 17.783L27.8306 17.8304L27.8178 17.8752L27.7999 17.9213L27.7819 17.9648L27.7614 18.007L27.7397 18.0493L27.7166 18.0902L27.6897 18.1312L27.6629 18.1696L27.6321 18.2054L27.6014 18.2425L27.5681 18.2758L27.5322 18.3104L27.4977 18.3424L27.4605 18.3705L27.4221 18.3974L27.3812 18.4256L27.3402 18.4486L27.2979 18.4716L27.2557 18.4908L27.2108 18.51L27.166 18.5254L27.1212 18.5407L27.0751 18.551L27.029 18.5625L26.9804 18.5689L26.9343 18.574L26.8856 18.5791H26.8779L26.9266 18.5779L27.0137 18.574L27.1007 18.5689L27.1878 18.5612L27.2736 18.5497L27.3607 18.5369L27.4465 18.5228L27.5322 18.5049L27.6168 18.4857L27.7025 18.464L27.7871 18.4396L27.8703 18.4128L27.9522 18.3846L28.0342 18.3539L28.1149 18.3206L28.1955 18.286L28.2749 18.2489L28.353 18.2093L28.4298 18.1683L28.5054 18.1248L28.5797 18.0787L28.6539 18.0326L28.7256 17.984L28.7973 17.9315L28.8665 17.8778L28.9344 17.824L29.0009 17.7664L29.0662 17.7075L29.129 17.6487L29.1917 17.5859L29.2519 17.5232L29.3095 17.458L29.3659 17.3914L29.4209 17.3236L29.4747 17.2532L29.5259 17.1828L29.5746 17.1111L29.6232 17.0369L29.6681 16.9626L29.7116 16.8858L29.7538 16.809L29.7923 16.7323L29.8294 16.6529L29.864 16.5723L29.8973 16.4916L29.928 16.4097L29.9574 16.3265L29.983 16.2433L30.0074 16.1589L30.0291 16.0744L30.0484 15.9899L30.0663 15.9029L30.0816 15.8171L30.0944 15.7314L30.1034 15.6443L30.1124 15.5573L30.1188 15.469L30.1213 15.382L30.1226 15.2949L30.1213 15.2079L30.1188 15.1196L30.1124 15.0325L30.1034 14.9455L30.0944 14.8598L30.0816 14.7727L30.0663 14.6857L30.0484 14.6012L30.0291 14.5155L30.0125 14.4502H26.8997L26.8382 14.4515H19.4756L27.1123 16.5518L27.166 16.5671Z" fill="white"/>
<path d="M31.9949 17.3287L31.9885 17.2186L31.9808 17.1098L31.9705 16.9998L31.9577 16.891L31.9437 16.7834L31.9257 16.6747L31.9052 16.5671L31.8848 16.4596L31.8604 16.3534L31.8335 16.2472L31.8054 16.1409L31.7734 16.036L31.7401 15.9323L31.7055 15.8274L31.6671 15.725L31.6274 15.6239L31.5851 15.5215L31.5416 15.4216L31.4955 15.3218L31.4481 15.2233L31.3969 15.1273L31.3444 15.03L31.2893 14.9353L31.233 14.8406L31.1754 14.7484L31.1139 14.6563L31.0525 14.5667L30.9884 14.4784L30.9667 14.4502H30.0127L30.0294 14.5155L30.0486 14.6012L30.0665 14.6857L30.0819 14.7727L30.0947 14.8598L30.1036 14.9455L30.1126 15.0325L30.119 15.1196L30.1216 15.2079L30.1228 15.2949L30.1216 15.382L30.119 15.469L30.1126 15.5573L30.1036 15.6443L30.0947 15.7314L30.0819 15.8171L30.0665 15.9029L30.0486 15.9899L30.0294 16.0744L30.0076 16.1589L29.9833 16.2433L29.9577 16.3265L29.9282 16.4097L29.8975 16.4916L29.8642 16.5723L29.8296 16.6529L29.7925 16.7323L29.7541 16.809L29.7118 16.8858L29.6683 16.9626L29.6235 17.0369L29.5748 17.1111L29.5261 17.1828L29.4749 17.2532L29.4212 17.3236L29.3661 17.3914L29.3098 17.458L29.2521 17.5232L29.1919 17.5859L29.1292 17.6487L29.0665 17.7075L29.0012 17.7664L28.9346 17.824L28.8667 17.8778L28.7976 17.9315L28.7259 17.984L28.6542 18.0326L28.5799 18.0787L28.5056 18.1248L28.4301 18.1683L28.3532 18.2093L28.2751 18.2489L28.1957 18.286L28.1151 18.3206L28.0344 18.3539L27.9525 18.3846L27.8705 18.4128L27.7873 18.4396L27.7028 18.464L27.617 18.4857L27.5325 18.5049L27.4467 18.5228L27.3609 18.5369L27.2738 18.5497L27.188 18.5612L27.101 18.5689L27.0139 18.574L26.9268 18.5779L26.8385 18.5791H0V22.7081H26.8385L26.9486 22.7068L27.0574 22.7043L27.1675 22.6979L27.2764 22.6889L27.3852 22.6787L27.4941 22.6671L27.6029 22.6505L27.7105 22.6339L27.818 22.6147L27.9256 22.5916L28.0331 22.5673L28.1381 22.5417L28.2444 22.5123L28.3507 22.4816L28.4544 22.4496L28.5581 22.4124L28.6606 22.3753L28.763 22.3356L28.8642 22.2947L28.964 22.2512L29.0639 22.2038L29.1625 22.1552L29.2598 22.1053L29.3558 22.0528L29.4506 21.999L29.5454 21.9414L29.6363 21.8838L29.7285 21.8237L29.8194 21.761L29.9077 21.697L29.9948 21.6304L30.0806 21.5626L30.1664 21.4922L30.2496 21.4205L30.3303 21.3488L30.4097 21.2733L30.4878 21.1965L30.5646 21.1185L30.6389 21.0378L30.7131 20.9572L30.7848 20.874L30.854 20.7895L30.9219 20.7038L30.9884 20.6155L31.0525 20.5271L31.1139 20.4376L31.1754 20.3454L31.233 20.2533L31.2893 20.1585L31.3444 20.0638L31.3969 19.9678L31.4481 19.8706L31.4955 19.772L31.5416 19.6735L31.5851 19.5723L31.6274 19.4712L31.6671 19.3701L31.7055 19.2664L31.7401 19.1628L31.7734 19.0591L31.8054 18.9529L31.8335 18.8479L31.8604 18.7417L31.8848 18.6342L31.9052 18.5279L31.9257 18.4204L31.9437 18.3116L31.9577 18.2029L31.9705 18.0941L31.9808 17.9853L31.9885 17.8752L31.9949 17.7664L31.9987 17.6576L32 17.5475L31.9987 17.4375L31.9949 17.3287Z" fill="#0DC09D"/>
<path d="M4.83354 15.4292L4.78872 15.4125L4.74391 15.3946L4.70165 15.3741L4.65811 15.3511L4.61842 15.3268L4.57745 15.3012L4.53903 15.273L4.5019 15.2436L4.46605 15.2116L4.43147 15.1796L4.39818 15.145L4.36745 15.1092L4.33672 15.0708L4.30983 15.0324L4.28294 14.9927L4.25989 14.9531L4.23812 14.9095L4.21636 14.866L4.19971 14.8238L4.18178 14.779L4.16898 14.7316L4.15617 14.6868L4.14593 14.6395L4.13825 14.5934L4.13313 14.5448L4.13056 14.4987L4.12928 14.4501L4.13056 14.4027L4.13313 14.3541L4.13825 14.308L4.14593 14.2606L4.15617 14.2133L4.16898 14.1672L4.18178 14.1224L4.19971 14.0763L4.21636 14.0328L4.23812 13.9893L4.25989 13.9483L4.28294 13.9061L4.30983 13.8664L4.33672 13.828L4.36745 13.7909L4.39818 13.7551L4.43147 13.7205L4.46605 13.6872L4.5019 13.6552L4.53903 13.6271L4.57745 13.5989L4.61842 13.572L4.65811 13.5477L4.70165 13.526L4.74391 13.5068L4.78872 13.4876L4.83354 13.4709L4.87835 13.4569L4.92445 13.4453L4.97055 13.4351L5.0192 13.4287L5.0653 13.4236L5.11268 13.4185H5.12164H5.07298L4.98591 13.4223L4.89884 13.4287L4.81177 13.4364L4.72598 13.4466L4.63891 13.4594L4.55184 13.4748L4.46733 13.4914L4.38153 13.5119L4.29702 13.5336L4.21251 13.558L4.12928 13.5848L4.04733 13.613L3.9641 13.6424L3.88472 13.6757L3.80405 13.7116L3.72466 13.7487L3.64655 13.7883L3.56844 13.8293L3.49418 13.8715L3.41991 13.9176L3.34564 13.965L3.27266 14.0136L3.20223 14.0661L3.1318 14.1186L3.06522 14.1736L2.99864 14.2299L2.93333 14.2888L2.87059 14.3489L2.80785 14.4104L2.74767 14.4744L2.69005 14.5384L2.63243 14.6049L2.57865 14.674L2.52359 14.7432L2.47365 14.8135L2.42371 14.8865L2.37633 14.9595L2.33152 15.035L2.28798 15.1105L2.24573 15.1886L2.20731 15.2653L2.17018 15.3447L2.13561 15.4253L2.10231 15.506L2.07158 15.5879L2.04213 15.6711L2.01652 15.7543L1.99219 15.8387L1.97043 15.9219L1.95122 16.0077L1.93329 16.0934L1.91793 16.1805L1.90512 16.2662L1.89616 16.3533L1.8872 16.439L1.88079 16.5273L1.87823 16.6144L1.87695 16.7014L1.87823 16.7897L1.88079 16.8767L1.8872 16.9638L1.89616 17.0508L1.90512 17.1378L1.91793 17.2249L1.93329 17.3106L1.95122 17.3964L1.97043 17.4809L1.98707 17.5474H5.09987L5.16134 17.5461H12.524L4.88732 15.4458L4.83354 15.4292Z" fill="white"/>
<path d="M0.00512184 14.669L0.0102437 14.779L0.0192069 14.8878L0.0294506 14.9966L0.0422552 15.1054L0.0563403 15.2142L0.0742667 15.3217L0.0934737 15.4305L0.115241 15.538L0.13957 15.6442L0.16646 15.7505L0.19463 15.8567L0.226642 15.9617L0.259934 16.0653L0.294506 16.169L0.33292 16.2727L0.372614 16.3738L0.414869 16.4762L0.458405 16.576L0.504502 16.6758L0.551879 16.7731L0.603097 16.8704L0.655596 16.9677L0.710656 17.0624L0.766996 17.1558L0.824617 17.248L0.884798 17.3401L0.947541 17.431L1.01156 17.5193L1.03333 17.5475H1.98728L1.97063 17.4809L1.95142 17.3964L1.9335 17.3107L1.91813 17.2249L1.90533 17.1379L1.89636 17.0509L1.8874 16.9638L1.881 16.8768L1.87844 16.7898L1.87716 16.7014L1.87844 16.6144L1.881 16.5274L1.8874 16.4391L1.89636 16.3533L1.90533 16.2663L1.91813 16.1805L1.9335 16.0935L1.95142 16.0077L1.97063 15.922L1.9924 15.8388L2.01673 15.7543L2.04234 15.6711L2.07179 15.5879L2.10252 15.506L2.13581 15.4254L2.17038 15.3447L2.20751 15.2654L2.24593 15.1886L2.28818 15.1105L2.33172 15.035L2.37654 14.9595L2.42391 14.8865L2.47385 14.8136L2.52379 14.7432L2.57885 14.6741L2.63263 14.605L2.69025 14.5384L2.74787 14.4744L2.80805 14.4104L2.87079 14.349L2.93354 14.2888L2.99884 14.23L3.06542 14.1736L3.13201 14.1186L3.20243 14.0661L3.27286 14.0137L3.34584 13.965L3.42011 13.9177L3.49438 13.8716L3.56864 13.8293L3.64675 13.7884L3.72486 13.7487L3.80425 13.7116L3.88492 13.6758L3.96431 13.6425L4.04754 13.613L4.12949 13.5849L4.21272 13.558L4.29723 13.5337L4.38174 13.5119L4.46753 13.4915L4.55204 13.4748L4.63911 13.4595L4.72618 13.4467L4.81197 13.4364L4.89904 13.4287L4.98611 13.4223L5.07319 13.4185L5.16154 13.4172H32V9.28955H5.16154L5.05142 9.29083L4.94258 9.29339L4.83246 9.29979L4.72362 9.30747L4.6135 9.31771L4.50594 9.33051L4.3971 9.34587L4.28954 9.3625L4.18199 9.38298L4.07315 9.40474L3.96687 9.42906L3.86059 9.45594L3.75559 9.48409L3.64931 9.51609L3.5456 9.54809L3.44188 9.58393L3.33944 9.62104L3.23701 9.662L3.13585 9.70296L3.03597 9.74647L2.9361 9.79383L2.8375 9.84247L2.74019 9.8911L2.64415 9.94486L2.5494 9.99861L2.45464 10.0549L2.36245 10.1138L2.27026 10.174L2.18063 10.2367L2.09227 10.3007L2.00392 10.3659L1.91941 10.4338L1.83362 10.5042L1.75039 10.5758L1.66972 10.6488L1.59033 10.7243L1.51222 10.7998L1.4354 10.8792L1.35985 10.9598L1.28686 11.0405L1.21516 11.1236L1.14601 11.2081L1.07815 11.2939L1.01156 11.3809L0.947541 11.4705L0.884798 11.5601L0.824617 11.651L0.766996 11.7444L0.710656 11.8391L0.655596 11.9338L0.603097 12.0285L0.551879 12.1258L0.504502 12.2256L0.458405 12.3242L0.414869 12.4253L0.372614 12.5251L0.33292 12.6275L0.294506 12.7299L0.259934 12.8336L0.226642 12.9385L0.19463 13.0435L0.16646 13.1497L0.13957 13.256L0.115241 13.3635L0.0934737 13.4697L0.0742667 13.5772L0.0563403 13.686L0.0422552 13.7948L0.0294506 13.9036L0.0192069 14.0124L0.0102437 14.1212L0.00512184 14.23L0 14.34V14.4501V14.5602L0.00512184 14.669Z" fill="#0DC09D"/>
<path d="M4.83354 6.14091L4.78872 6.12299L4.74391 6.10379L4.70037 6.08459L4.65939 6.06155L4.61714 6.03851L4.57745 6.01292L4.53903 5.98348L4.50062 5.95532L4.46476 5.92332L4.43019 5.89133L4.39818 5.85549L4.36745 5.82093L4.33672 5.78253L4.30855 5.74414L4.28294 5.70318L4.25861 5.66222L4.23684 5.61999L4.21507 5.57775L4.19843 5.53423L4.18178 5.48816L4.1677 5.44336L4.15617 5.39856L4.14593 5.34993L4.13825 5.30385L4.13184 5.25522L4.13056 5.20786L4.12928 5.15922L4.13056 5.11187L4.13184 5.06579L4.13825 5.01844L4.14593 4.97108L4.15617 4.925L4.1677 4.87765L4.18178 4.83157L4.19843 4.78677L4.21507 4.74326L4.23684 4.70102L4.25861 4.6575L4.28294 4.61783L4.30855 4.57687L4.33672 4.53847L4.36745 4.50264L4.39818 4.46552L4.43019 4.42968L4.46476 4.39769L4.50062 4.36569L4.53903 4.33753L4.57745 4.31065L4.61714 4.28249L4.65939 4.25946L4.70037 4.23642L4.74391 4.21594L4.78872 4.19802L4.83354 4.18266L4.87835 4.1673L4.92445 4.1545L4.97183 4.14555L5.01792 4.13787L5.0653 4.13275L5.11396 4.12891H5.12932H5.07298L4.98591 4.13275L4.89884 4.13915L4.81177 4.14683L4.72598 4.15834L4.63891 4.17114L4.55184 4.18522L4.46733 4.20314L4.38153 4.22234L4.29702 4.2441L4.21251 4.26842L4.12928 4.29529L4.04733 4.32345L3.9641 4.35417L3.88472 4.38617L3.80405 4.422L3.72466 4.45912L3.64655 4.4988L3.56844 4.53975L3.49418 4.58199L3.41863 4.62807L3.34564 4.67542L3.27266 4.72406L3.20223 4.77653L3.1318 4.82901L3.06394 4.88405L2.99864 4.94164L2.93333 4.99924L2.86931 5.05939L2.80785 5.12083L2.74767 5.18482L2.69005 5.2501L2.63243 5.31665L2.57865 5.38449L2.52359 5.45488L2.47365 5.52527L2.42371 5.59695L2.37633 5.6699L2.33152 5.74542L2.28798 5.82093L2.24573 5.899L2.20731 5.9758L2.17018 6.05515L2.13561 6.13579L2.10231 6.21642L2.07158 6.29833L2.04213 6.38153L2.01652 6.46472L1.99219 6.54919L1.97043 6.63367L1.94994 6.71814L1.93329 6.80389L1.91793 6.89093L1.90512 6.97668L1.89488 7.06371L1.8872 7.14946L1.88079 7.23778L1.87823 7.32609L1.87695 7.41312L1.87823 7.50016L1.88079 7.58847L1.8872 7.6755L1.89488 7.76254L1.90512 7.84829L1.91793 7.93532L1.93329 8.02235L1.94994 8.10683L1.97043 8.19258L1.99219 8.27705L2.01652 8.36025L2.04213 8.44472L2.07158 8.52663L2.10231 8.60855L2.13561 8.68918L2.17018 8.76981L2.20731 8.84917L2.24573 8.92724L2.27134 8.97204L2.2739 8.97076L2.38145 8.91572L2.48901 8.86325L2.59785 8.81205L2.70797 8.7647L2.81809 8.71606L2.93077 8.67254L3.04217 8.63159L3.15613 8.58935L3.27009 8.55351L3.38534 8.51768L3.50058 8.4844L3.61582 8.4524L3.73234 8.42296L3.85014 8.39736L3.96795 8.37433L4.08447 8.35129L4.20355 8.33209L4.32263 8.31417L4.44172 8.29881L4.56208 8.28601L4.68116 8.27577L4.80153 8.26681L4.91933 8.2617L5.04225 8.25914L5.16134 8.25658H12.524L4.88604 6.15626L4.83354 6.14091Z" fill="white"/>
<path d="M26.8382 27.8711H26.9266L27.0137 27.866L27.1007 27.8608L27.1878 27.8532L27.2749 27.8416L27.3619 27.8288L27.4477 27.8148L27.5335 27.7968L27.618 27.7777L27.7038 27.7559L27.7871 27.7316L27.8703 27.7047L27.9535 27.6765L28.0355 27.6458L28.1149 27.6125L28.1955 27.578L28.2749 27.5409L28.353 27.5012L28.4311 27.4602L28.5067 27.4167L28.5809 27.3706L28.6539 27.3233L28.7269 27.2747L28.7986 27.2235L28.8678 27.1697L28.9356 27.1159L29.0022 27.0583L29.0662 26.9995L29.1303 26.9406L29.1917 26.8779L29.2519 26.8152L29.3108 26.7499L29.3671 26.6833L29.4222 26.6155L29.476 26.5451L29.5259 26.4747L29.5759 26.403L29.6232 26.3288L29.6681 26.2546L29.7116 26.1778L29.7538 26.101L29.7935 26.0229L29.8307 25.9448L29.864 25.8642L29.8985 25.7823L29.928 25.7017L29.9574 25.6185L29.9843 25.5353L30.0074 25.4508L30.0304 25.3663L30.0496 25.2819L30.0663 25.1948L30.0816 25.1091L30.0944 25.0233L30.1047 24.935L30.1137 24.8492L30.1188 24.7609L30.1226 24.6739V24.5869V24.4998L30.1188 24.4115L30.1137 24.3245L30.1047 24.2375L30.0944 24.1517L30.0816 24.0647L30.0663 23.9776L30.0496 23.8932L30.0304 23.8074L30.0074 23.7229L29.9843 23.6397L29.9574 23.5553L29.928 23.4721L29.8985 23.3914L29.864 23.3108L29.8307 23.2302L29.7935 23.1508L29.7538 23.0727L29.7282 23.0254L29.7257 23.0267L29.6181 23.0817L29.5106 23.1342L29.4017 23.1854L29.2916 23.234L29.1802 23.2801L29.0688 23.3249L28.9574 23.3658L28.8434 23.4068L28.7282 23.4452L28.6142 23.4798L28.5003 23.513L28.3825 23.545L28.2672 23.5732L28.1494 23.6001L28.0316 23.6244L27.9138 23.6461L27.796 23.6653L27.6769 23.6833L27.5579 23.6986L27.4388 23.7114L27.3184 23.7217L27.198 23.7293L27.0777 23.7357L26.9586 23.7396L26.8382 23.7409H19.4756L27.1123 25.8412L27.166 25.8578L27.2108 25.8744L27.2557 25.8924L27.2979 25.9128L27.3402 25.9359L27.3812 25.9602L27.4221 25.9858L27.4605 26.014L27.4977 26.0434L27.5322 26.0754L27.5681 26.1074L27.6014 26.1419L27.6321 26.1778L27.6629 26.2162L27.6897 26.2546L27.7166 26.2943L27.7397 26.3339L27.7614 26.3774L27.7819 26.421L27.7999 26.4632L27.8178 26.508L27.8306 26.5553L27.8434 26.6001L27.8524 26.6475L27.8613 26.6936L27.8664 26.7422L27.869 26.7883L27.8703 26.8369L27.869 26.8843L27.8664 26.9329L27.8613 26.979L27.8524 27.0264L27.8434 27.0737L27.8306 27.1198L27.8178 27.1646L27.7999 27.2107L27.7819 27.2542L27.7614 27.2977L27.7397 27.3386L27.7166 27.3809L27.6897 27.4206L27.6629 27.459L27.6321 27.4961L27.6014 27.5319L27.5681 27.5665L27.5322 27.5997L27.4977 27.6317L27.4605 27.6599L27.4221 27.6881L27.3812 27.7149L27.3402 27.7393L27.2979 27.761L27.2557 27.7802L27.2108 27.7994L27.166 27.816L27.1212 27.8301L27.0751 27.8416L27.029 27.8519L26.9804 27.8583L26.9343 27.8634L26.8856 27.8685L26.8382 27.8698" fill="white"/>
<path d="M31.9949 26.6194L31.9898 26.5106L31.9821 26.4018L31.9705 26.2917L31.959 26.1829L31.9437 26.0754L31.9257 25.9666L31.9065 25.8591L31.8848 25.7516L31.8604 25.6441L31.8335 25.5391L31.8054 25.4329L31.7746 25.3267L31.7413 25.2243L31.7055 25.1193L31.6671 25.0169L31.6287 24.9158L31.5864 24.8134L31.5416 24.7136L31.4968 24.6138L31.4481 24.5152L31.3969 24.4192L31.3457 24.3219L31.2906 24.2272L31.233 24.1325L31.1754 24.0404L31.1152 23.9482L31.0525 23.8586L30.9884 23.7703L30.9219 23.682L30.8553 23.5975L30.7848 23.5118L30.7131 23.4298L30.6401 23.3479L30.5646 23.2686L30.4891 23.1892L30.4097 23.1137L30.3303 23.0382L30.2496 22.9652L30.1664 22.8936L30.0819 22.8232L30.0767 22.8193L29.9564 22.8923L29.8501 22.9524L29.74 23.0126L29.7259 23.0203L29.7541 23.0728L29.7938 23.1508L29.8309 23.2302L29.8642 23.3108L29.8988 23.3915L29.9282 23.4721L29.9577 23.5553L29.9846 23.6398L30.0076 23.7229L30.0307 23.8074L30.0499 23.8932L30.0665 23.9776L30.0819 24.0647L30.0947 24.1517L30.1049 24.2375L30.1139 24.3245L30.119 24.4115L30.1228 24.4998V24.5869V24.6739L30.119 24.7609L30.1139 24.8493L30.1049 24.935L30.0947 25.0233L30.0819 25.1091L30.0665 25.1948L30.0499 25.2819L30.0307 25.3663L30.0076 25.4508L29.9846 25.5353L29.9577 25.6185L29.9282 25.7017L29.8988 25.7823L29.8642 25.8642L29.8309 25.9448L29.7938 26.0229L29.7541 26.101L29.7118 26.1778L29.6683 26.2546L29.6235 26.3288L29.5761 26.403L29.5261 26.4747L29.4762 26.5451L29.4224 26.6155L29.3674 26.6833L29.311 26.7499L29.2521 26.8152L29.1919 26.8779L29.1305 26.9406L29.0665 26.9995L29.0024 27.0584L28.9359 27.116L28.868 27.1697L28.7988 27.2235L28.7271 27.2747L28.6542 27.3233L28.5812 27.3707L28.5069 27.4167L28.4314 27.4602L28.3532 27.5012L28.2751 27.5409L28.1957 27.578L28.1151 27.6126L28.0357 27.6458L27.9537 27.6765L27.8705 27.7047L27.7873 27.7316L27.7041 27.7559L27.6183 27.7777L27.5338 27.7969L27.448 27.8148L27.3622 27.8289L27.2751 27.8417L27.188 27.8532L27.101 27.8609L27.0139 27.866L26.9268 27.8711H26.8385H0V32H26.8385L26.9486 31.9988L27.0574 31.9962L27.1675 31.9898L27.2764 31.9808L27.3865 31.9719L27.4953 31.9591L27.6042 31.9424L27.7117 31.9258L27.8193 31.9066L27.9269 31.8836L28.0331 31.8593L28.1394 31.8337L28.2444 31.8055L28.3507 31.7735L28.4544 31.7415L28.5581 31.7044L28.6618 31.6673L28.7643 31.6276L28.8654 31.5866L28.9653 31.5431L29.0652 31.4958L29.1625 31.4471L29.2611 31.3972L29.3558 31.3447L29.4519 31.291L29.5454 31.2347L29.6376 31.1745L29.7297 31.1156L29.8194 31.0529L29.9077 30.9876L29.9961 30.9224L30.0819 30.8545L30.1664 30.7841L30.2496 30.7125L30.3303 30.6408L30.4097 30.5653L30.4891 30.4885L30.5646 30.4104L30.6401 30.3298L30.7131 30.2491L30.7848 30.1659L30.8553 30.0815L30.9219 29.9957L30.9884 29.9087L31.0525 29.8191L31.1152 29.7295L31.1754 29.6374L31.233 29.5452L31.2906 29.4505L31.3457 29.3558L31.3969 29.2598L31.4481 29.1625L31.4968 29.064L31.5416 28.9654L31.5864 28.8643L31.6287 28.7632L31.6671 28.6621L31.7055 28.5584L31.7413 28.4547L31.7746 28.3498L31.8054 28.2448L31.8335 28.1399L31.8604 28.0324L31.8848 27.9261L31.9065 27.8199L31.9257 27.7111L31.9437 27.6036L31.959 27.4948L31.9705 27.386L31.9821 27.2772L31.9898 27.1671L31.9949 27.0584L32 26.9496V26.8395V26.7294L31.9949 26.6194Z" fill="#0DC09D"/>
<path d="M0.00512184 5.37941L0.0102437 5.48948L0.0179265 5.59827L0.0294506 5.70834L0.0422552 5.81714L0.0563403 5.92465L0.0742667 6.03344L0.0934737 6.14095L0.115241 6.24846L0.13957 6.35469L0.16646 6.46092L0.19463 6.56588L0.225361 6.67211L0.259934 6.77578L0.294506 6.87945L0.33292 6.98312L0.371334 7.08423L0.413589 7.18663L0.458405 7.28646L0.504502 7.38629L0.551879 7.48356L0.603097 7.58083L0.655596 7.67811L0.709375 7.77282L0.766996 7.86753L0.824617 7.9584L0.884798 8.05056L0.947541 8.14143L1.01156 8.22974L1.07815 8.31805L1.14601 8.40253L1.21516 8.48828L1.28686 8.57019L1.35985 8.65211L1.4354 8.73146L1.51222 8.80954L1.59033 8.88633L1.66972 8.96184L1.75039 9.0348L1.83362 9.10647L1.91941 9.17559L1.92325 9.17943L2.04362 9.10775L2.14989 9.0476L2.26001 8.98616L2.27538 8.97976L2.24593 8.92729L2.20751 8.84921L2.17038 8.76986L2.13581 8.68923L2.10252 8.60859L2.07179 8.52668L2.04234 8.44477L2.01673 8.36029L1.9924 8.2771L1.97063 8.19263L1.95014 8.10687L1.9335 8.0224L1.91813 7.93537L1.90533 7.84833L1.89508 7.76258L1.8874 7.67555L1.881 7.58851L1.87844 7.5002L1.87716 7.41317L1.87844 7.32613L1.881 7.23782L1.8874 7.14951L1.89508 7.06376L1.90533 6.97672L1.91813 6.89097L1.9335 6.80394L1.95014 6.71818L1.97063 6.63371L1.9924 6.54924L2.01673 6.46476L2.04234 6.38157L2.07179 6.29838L2.10252 6.21646L2.13581 6.13583L2.17038 6.0552L2.20751 5.97584L2.24593 5.89905L2.28818 5.82097L2.33172 5.74546L2.37654 5.66995L2.42391 5.59699L2.47385 5.52532L2.52379 5.45492L2.57885 5.38453L2.63263 5.3167L2.69025 5.25014L2.74787 5.18487L2.80805 5.12087L2.86951 5.05944L2.93354 4.99928L2.99884 4.94169L3.06414 4.88409L3.13201 4.82905L3.20243 4.77658L3.27286 4.7241L3.34584 4.67547L3.41883 4.62811L3.49438 4.58203L3.56864 4.5398L3.64675 4.49884L3.72486 4.45916L3.80425 4.42205L3.88492 4.38621L3.96431 4.35421L4.04754 4.32349L4.12949 4.29534L4.21272 4.26846L4.29723 4.24414L4.38174 4.22238L4.46753 4.20318L4.55204 4.18527L4.63911 4.17119L4.72618 4.15839L4.81197 4.14687L4.89904 4.13919L4.98611 4.13279L5.07319 4.12895H5.16154H32V0H5.16154H5.05142L4.94258 0.00383969L4.83246 0.0102392L4.72362 0.0191985L4.6135 0.0281577L4.50466 0.0409567L4.3971 0.0575954L4.28826 0.0729542L4.18071 0.0934325L4.07315 0.115191L3.96687 0.140789L3.86059 0.166387L3.75559 0.194544L3.64931 0.226542L3.5456 0.258539L3.44188 0.294376L3.33944 0.331493L3.23572 0.37245L3.13585 0.413407L3.03597 0.456923L2.9361 0.50428L2.8375 0.551636L2.74019 0.602832L2.64415 0.655308L2.5494 0.709063L2.45464 0.765379L2.36245 0.824254L2.27026 0.884409L2.18063 0.947124L2.09227 1.01112L2.00392 1.07767L1.91941 1.14551L1.83362 1.2159L1.75039 1.2863L1.66972 1.35925L1.59033 1.43477L1.51222 1.51156L1.4354 1.58963L1.35985 1.66899L1.28686 1.7509L1.21516 1.83409L1.14601 1.91857L1.07815 2.00432L1.01156 2.09135L0.947541 2.18095L0.884798 2.27054L0.824617 2.36141L0.766996 2.45484L0.709375 2.54828L0.655596 2.64427L0.603097 2.74026L0.551879 2.83625L0.504502 2.93609L0.458405 3.03464L0.413589 3.13575L0.371334 3.23686L0.33292 3.33797L0.294506 3.44036L0.259934 3.54532L0.225361 3.64899L0.19463 3.75394L0.16646 3.86017L0.13957 3.9664L0.115241 4.07391L0.0934737 4.18015L0.0742667 4.28766L0.0563403 4.39645L0.0422552 4.50524L0.0294506 4.61403L0.0179265 4.72282L0.0102437 4.83289L0.00512184 4.94169L0 5.05048V5.16055V5.27062L0.00512184 5.37941Z" fill="#0DC09D"/>
<path d="M50.1557 26H42.0013V22.814H50.1557C51.4182 22.814 52.3908 22.5715 53.0735 22.0841C53.7562 21.5979 54.0982 20.9703 54.0982 20.2025C54.0982 19.4348 53.7753 18.8716 53.132 18.5129C52.4874 18.1556 51.5339 17.8601 50.2714 17.6303L48.9569 17.4004C47.6677 17.1706 46.4955 16.8372 45.4403 16.4028C44.3838 15.9684 43.546 15.3661 42.9281 14.5983C42.3102 13.8305 42 12.8456 42 11.6421C42 9.8515 42.67 8.46243 44.01 7.47746C45.35 6.49249 47.1274 6 49.3433 6H57.3046V9.22515H49.3433C48.2614 9.22515 47.4109 9.42341 46.793 9.81993C46.1751 10.2164 45.8649 10.7733 45.8649 11.4893C45.8649 12.2571 46.1675 12.8203 46.7727 13.1789C47.3778 13.5376 48.1966 13.8065 49.2264 13.9846L50.5791 14.2144C51.9445 14.4442 53.1943 14.765 54.3283 15.1741C55.4624 15.5833 56.3574 16.1717 57.0147 16.9395C57.672 17.7073 58 18.7314 58 20.0106C58 21.9048 57.2906 23.3759 55.8743 24.4253C54.4567 25.4747 52.551 25.9987 50.1545 25.9987L50.1557 26Z" fill="white"/>
<path d="M98.2258 32.1765V23.1225H97.6037C97.3183 23.6421 96.9036 24.1413 96.3584 24.62C95.8132 25.0999 95.1195 25.4954 94.2773 25.8064C93.4338 26.1174 92.3907 26.2736 91.1454 26.2736C89.5366 26.2736 88.0583 25.8845 86.7093 25.1063C85.3602 24.3281 84.2839 23.2069 83.4801 21.7402C82.6763 20.2747 82.2744 18.5046 82.2744 16.4286V15.845C82.2744 13.7703 82.6827 12.0002 83.5006 10.5334C84.3171 9.06791 85.3999 7.94544 86.7489 7.16727C88.0979 6.38909 89.5634 6 91.1454 6C93.0128 6 94.4462 6.33789 95.4446 7.01112C96.4429 7.68563 97.1891 8.451 97.6818 9.30726H98.3038V6H102.234V32.1739H98.2271L98.2258 32.1765ZM92.273 22.7718C94.0367 22.7718 95.4766 22.2137 96.5913 21.099C97.7061 19.9842 98.2642 18.3881 98.2642 16.3134V15.9627C98.2642 13.9136 97.6997 12.3317 96.5721 11.2156C95.4433 10.1008 94.0098 9.54276 92.273 9.54276C90.5362 9.54276 89.1411 10.1008 88.0122 11.2156C86.8833 12.3317 86.3202 13.9136 86.3202 15.9627V16.3134C86.3202 18.3894 86.8846 19.9842 88.0122 21.099C89.1411 22.215 90.5605 22.7718 92.273 22.7718Z" fill="white"/>
<path d="M79.3324 15.5823C79.3324 13.5992 78.9468 11.8678 78.1755 10.387C77.4042 8.90611 76.3297 7.74883 74.9559 6.91642C73.5795 6.08401 71.9786 5.6665 70.1545 5.6665C68.3303 5.6665 66.6317 6.08923 65.2185 6.93599C64.5107 7.35872 63.8802 7.86364 63.3246 8.45337C63.2548 8.52644 63.1863 8.60211 63.1178 8.67778C62.9149 8.90741 62.7258 9.14748 62.5457 9.39799C62.3072 9.7333 62.0852 10.0895 61.8823 10.4665C61.0729 11.9735 60.667 13.7453 60.667 15.782V16.2582C60.667 18.2948 61.0717 20.0653 61.8823 21.5736C62.6916 23.0805 63.8168 24.2508 65.2566 25.0833C66.6951 25.9157 68.3798 26.3332 70.3079 26.3332C72.0053 26.3332 73.4184 26.0553 74.55 25.5008C75.6815 24.945 76.5809 24.2574 77.2494 23.438C77.4346 23.2097 77.6097 22.9853 77.7733 22.7635C78.1996 22.1881 78.5522 21.6336 78.83 21.0974L75.5141 19.3516C75.1031 20.2519 74.517 21.0452 73.7597 21.7314C72.9998 22.419 71.8759 22.7622 70.3853 22.7622C68.7908 22.7622 67.4601 22.252 66.3945 21.2357C66.3285 21.1717 66.2638 21.1091 66.2017 21.0413C66.1382 20.9734 66.0786 20.9069 66.019 20.839C65.8769 20.6707 65.745 20.4946 65.6232 20.3093C65.1044 19.5082 64.8075 18.5545 64.7327 17.4494C64.7251 17.3437 64.7213 17.2367 64.7175 17.1297H79.3337V15.5823H79.3324ZM67.3776 13.9958L65.3467 16.0846H64.6781C64.668 15.4832 64.6781 14.7108 64.7555 13.9958C64.7936 13.7244 64.8443 13.4622 64.9103 13.2104C64.9737 12.9585 65.0511 12.7185 65.1412 12.4889C65.4405 11.723 65.8858 11.0745 66.4719 10.5448C67.4093 9.69807 68.6233 9.27534 70.1164 9.27534C71.6095 9.27534 72.8159 9.69807 73.7419 10.5448C74.6679 11.3916 75.1944 12.5423 75.3225 13.9958H67.3789H67.3776Z" fill="white"/>
<path d="M123.998 15.5823C123.998 13.5992 123.613 11.8678 122.841 10.387C122.07 8.90611 120.996 7.74883 119.622 6.91642C118.246 6.08401 116.645 5.6665 114.82 5.6665C112.996 5.6665 111.298 6.08923 109.885 6.93599C109.177 7.35872 108.546 7.86364 107.991 8.45337C107.921 8.52644 107.852 8.60211 107.784 8.67778C107.581 8.90741 107.392 9.14748 107.212 9.39799C106.973 9.7333 106.751 10.0895 106.548 10.4665C105.739 11.9735 105.333 13.7453 105.333 15.782V16.2582C105.333 18.2948 105.738 20.0653 106.548 21.5736C107.358 23.0805 108.483 24.2508 109.923 25.0833C111.361 25.9157 113.046 26.3332 114.974 26.3332C116.671 26.3332 118.084 26.0553 119.216 25.5008C120.348 24.945 121.247 24.2574 121.915 23.438C122.101 23.2097 122.276 22.9853 122.439 22.7635C122.866 22.1881 123.218 21.6336 123.496 21.0974L120.18 19.3516C119.769 20.2519 119.183 21.0452 118.426 21.7314C117.666 22.419 116.542 22.7622 115.051 22.7622C113.457 22.7622 112.126 22.252 111.06 21.2357C110.995 21.1717 110.93 21.1091 110.868 21.0413C110.804 20.9734 110.745 20.9069 110.685 20.839C110.543 20.6707 110.411 20.4946 110.289 20.3093C109.77 19.5082 109.474 18.5545 109.399 17.4494C109.391 17.3437 109.387 17.2367 109.383 17.1297H124V15.5823H123.998ZM112.044 13.9958L110.013 16.0846H109.344C109.334 15.4832 109.344 14.7108 109.422 13.9958C109.46 13.7244 109.51 13.4622 109.576 13.2104C109.64 12.9585 109.717 12.7185 109.807 12.4889C110.107 11.723 110.552 11.0745 111.138 10.5448C112.075 9.69807 113.289 9.27534 114.782 9.27534C116.275 9.27534 117.482 9.69807 118.408 10.5448C119.334 11.3916 119.86 12.5423 119.989 13.9958H112.045H112.044Z" fill="white"/>
<path d="M128.001 26.0169V5.74458H131.931V8.00104H132.553C132.864 7.19726 133.363 6.60723 134.05 6.23094C134.737 5.85465 135.587 5.6665 136.598 5.6665H138.894V9.28477H136.443C135.146 9.28477 134.083 9.64187 133.253 10.3548C132.422 11.069 132.007 12.1645 132.007 13.6428V26.0156H128L128.001 26.0169Z" fill="white"/>
<path d="M157.333 13.1231C157.333 10.7432 156.611 8.90505 155.162 7.60989C153.715 6.31473 151.728 5.6665 149.2 5.6665C147.542 5.6665 146.141 5.93021 144.995 6.46023C143.851 6.99024 142.929 7.69043 142.232 8.5621C141.535 9.43506 141.028 10.3873 140.711 11.4174L144.501 12.6476C144.738 11.5902 145.225 10.7302 145.962 10.069C146.701 9.40908 147.765 9.07782 149.16 9.07782C150.555 9.07782 151.635 9.42857 152.319 10.1288C153.004 10.8289 153.346 11.7357 153.346 12.8464V16.2291H152.689L150.582 14.1156H147.423C145.291 14.1156 143.521 14.6248 142.113 15.6432C140.705 16.6604 140 18.1621 140 20.1458C140 21.4682 140.323 22.5906 140.967 23.5168C141.612 24.443 142.481 25.1432 143.573 25.6187C144.667 26.0941 145.911 26.3332 147.303 26.3332C148.696 26.3332 149.725 26.1409 150.541 25.7577C151.357 25.3745 151.976 24.925 152.396 24.4093C152.819 23.8935 153.132 23.4233 153.344 23.0011H153.977V25.9998L157.332 25.9998V13.1244L157.333 13.1231ZM153.346 17.6841C153.346 19.3248 152.839 20.6134 151.825 21.5514C150.811 22.4893 149.504 22.9595 147.897 22.9595C146.712 22.9595 145.779 22.6958 145.093 22.1658C144.408 21.6358 144.067 20.9226 144.067 20.0237C144.067 19.1247 144.396 18.4427 145.053 17.9815C145.713 17.5191 146.579 17.2879 147.659 17.2879H153.344V17.6841H153.346Z" fill="white"/>
</g>
</g>
<defs>
<clipPath id="clip0_3897_1805">
<rect width="161.333" height="32" fill="white"/>
</clipPath>
<clipPath id="clip1_3897_1805">
<rect width="161.333" height="32" fill="white"/>
</clipPath>
</defs>
</svg>
