<svg width="17" height="17" viewBox="0 0 17 17" fill="none" xmlns="http://www.w3.org/2000/svg">
<g clip-path="url(#clip0_5019_16111)">
<path d="M14.1106 4.08453C14.9225 4.08453 15.5806 3.42639 15.5806 2.61453C15.5806 1.80267 14.9225 1.14453 14.1106 1.14453C13.2988 1.14453 12.6406 1.80267 12.6406 2.61453C12.6406 3.42639 13.2988 4.08453 14.1106 4.08453Z" stroke="#0DC09D" stroke-width="0.75" stroke-linecap="round" stroke-linejoin="round"/>
<path d="M8.4325 6.64453L6.5625 9.57453H10.2725L8.4325 6.64453Z" stroke="#0DC09D" stroke-width="0.75" stroke-linecap="round" stroke-linejoin="round"/>
<path d="M4.37188 12.8945H1.42188V15.8445H4.37188V12.8945Z" stroke="#0DC09D" stroke-width="0.75" stroke-linecap="round" stroke-linejoin="round"/>
<path d="M7.0225 8.49523H3.2725L1.3125 5.55523L3.2725 2.61523H12.6425" stroke="#0DC09D" stroke-width="0.75" stroke-linecap="round" stroke-linejoin="round"/>
<path d="M4.375 14.3663H13.715L15.675 11.4263L13.715 8.48633H9.595" stroke="#0DC09D" stroke-width="0.75" stroke-linecap="round" stroke-linejoin="round"/>
</g>
<defs>
<clipPath id="clip0_5019_16111">
<rect width="15.11" height="15.45" fill="white" transform="translate(0.9375 0.775391)"/>
</clipPath>
</defs>
</svg>
