<svg width="349" height="217" viewBox="0 0 349 217" fill="none"
    xmlns="http://www.w3.org/2000/svg">
    <rect x="2" width="344.386" height="213.3" rx="8" fill="white"/>
    <g filter="url(#filter0_d_572_3654)">
        <rect x="2.5" y="0.5" width="343.386" height="212.3" rx="6.7" stroke="#160F26" stroke-opacity="0.2" shape-rendering="crispEdges"/>
        <ellipse cx="21.85" cy="15.85" rx="5.85" ry="5.85" fill="#DDDEDE"/>
        <ellipse cx="37.5492" cy="15.85" rx="5.85" ry="5.85" fill="#DDDEDE"/>
        <ellipse cx="53.2504" cy="15.85" rx="5.85" ry="5.85" fill="#DDDEDE"/>
        <rect x="16" y="31.7" width="316.386" height="171.6" rx="7.2" fill="#F7F7F7"/>
        <rect x="16.5" y="32.2" width="315.386" height="170.6" rx="6.7" stroke="#160F26" stroke-opacity="0.2"/>
        <rect x="29" y="55" width="198" height="24" rx="12" fill="white"/>
        <rect x="29.5" y="55.5" width="197" height="23" rx="11.5" stroke="black" stroke-opacity="0.15"/>
        <path d="M53.5814 71.5H52.5219V67.4252H48.9072V71.5H47.8537V62.6844H48.9072V66.4746H52.5219V62.6844H53.5814V71.5ZM58.6429 71.6211C58.1828 71.6211 57.7589 71.5424 57.3714 71.385C56.988 71.2275 56.659 71.0076 56.3845 70.725C56.11 70.4424 55.8961 70.1074 55.7427 69.7199C55.5893 69.3324 55.5126 68.9106 55.5126 68.4545V68.2002C55.5126 67.6714 55.5974 67.1992 55.7669 66.7834C55.9365 66.3636 56.1625 66.0084 56.4451 65.7178C56.7236 65.4312 57.0404 65.2112 57.3957 65.0578C57.7549 64.9044 58.1222 64.8277 58.4976 64.8277C58.9699 64.8277 59.3816 64.9105 59.7328 65.076C60.088 65.2374 60.3826 65.4615 60.6167 65.748C60.8509 66.0387 61.0244 66.3798 61.1375 66.7713C61.2545 67.1628 61.313 67.5867 61.313 68.0428V68.5453H56.6328V68.5877C56.661 68.9066 56.7236 69.1871 56.8205 69.4293C56.9214 69.6715 57.0586 69.8854 57.2322 70.0711C57.4098 70.2689 57.6237 70.4243 57.874 70.5373C58.1242 70.6503 58.4007 70.7068 58.7035 70.7068C59.1031 70.7068 59.4583 70.6261 59.7691 70.4646C60.0799 70.3032 60.3382 70.0893 60.5441 69.8229L61.2283 70.3557C61.0103 70.6867 60.6834 70.9813 60.2474 71.2396C59.8155 71.4939 59.2807 71.6211 58.6429 71.6211ZM58.4976 65.748C58.2716 65.748 58.0576 65.7904 57.8558 65.8752C57.654 65.9559 57.4723 66.075 57.3109 66.2324C57.1494 66.3939 57.0122 66.5917 56.8992 66.8258C56.7902 67.0559 56.7135 67.3223 56.6691 67.625H60.1929V67.5705C60.1929 67.3687 60.1546 67.1527 60.0779 66.9227C60.0012 66.6885 59.8942 66.4867 59.757 66.3172C59.6197 66.1477 59.4462 66.0104 59.2363 65.9055C59.0304 65.8005 58.7842 65.748 58.4976 65.748ZM63.6196 62.2H66.9679V70.5313H69.1052V71.5H63.6196V70.5313H65.8478V63.1748H63.6196V62.2ZM71.1333 74.0187V64.9488H72.1565L72.211 65.6633C72.2998 65.5503 72.3967 65.4493 72.5016 65.3605C72.6066 65.2677 72.7196 65.189 72.8407 65.1244C73.0102 65.0275 73.1979 64.9549 73.4038 64.9064C73.6137 64.854 73.8377 64.8277 74.0758 64.8277C74.4956 64.8277 74.867 64.9105 75.1899 65.076C75.5128 65.2415 75.7833 65.4715 76.0012 65.7662C76.2192 66.0609 76.3847 66.4141 76.4977 66.8258C76.6107 67.2335 76.6672 67.6815 76.6672 68.1699V68.2971C76.6672 68.7653 76.6107 69.2033 76.4977 69.6109C76.3847 70.0146 76.2192 70.3658 76.0012 70.6645C75.7833 70.9632 75.5128 71.1973 75.1899 71.3668C74.871 71.5363 74.5057 71.6211 74.094 71.6211C73.8437 71.6211 73.6096 71.5949 73.3917 71.5424C73.1777 71.4899 72.984 71.4152 72.8104 71.3184C72.7055 71.2578 72.6066 71.1912 72.5137 71.1186C72.4209 71.0419 72.3341 70.9591 72.2534 70.8703V74.0187H71.1333ZM75.5471 68.1699C75.5471 67.851 75.5108 67.5483 75.4381 67.2617C75.3695 66.9711 75.2626 66.7148 75.1172 66.4928C74.9679 66.2748 74.7802 66.1012 74.5542 65.9721C74.3281 65.8429 74.0577 65.7783 73.7428 65.7783C73.5693 65.7783 73.4078 65.7985 73.2585 65.8389C73.1131 65.8792 72.982 65.9378 72.8649 66.0145C72.7357 66.0911 72.6207 66.186 72.5198 66.299C72.4189 66.412 72.3301 66.5372 72.2534 66.6744V69.8289C72.322 69.95 72.4007 70.063 72.4895 70.168C72.5783 70.2729 72.6792 70.3617 72.7922 70.4344C72.9214 70.5191 73.0647 70.5857 73.2221 70.6342C73.3836 70.6826 73.5612 70.7068 73.7549 70.7068C74.0657 70.7068 74.3342 70.6423 74.5602 70.5131C74.7863 70.3799 74.9719 70.2023 75.1172 69.9803C75.2626 69.7583 75.3695 69.502 75.4381 69.2113C75.5108 68.9207 75.5471 68.616 75.5471 68.2971V68.1699ZM87.0445 64.9488L87.0748 65.5664C87.208 65.3363 87.3815 65.1567 87.5955 65.0275C87.8134 64.8984 88.0758 64.8318 88.3826 64.8277C88.5561 64.8277 88.7116 64.8479 88.8488 64.8883C88.9901 64.9246 89.1132 64.9791 89.2181 65.0518C89.2948 65.1083 89.3634 65.1769 89.424 65.2576C89.4886 65.3383 89.5431 65.4292 89.5875 65.5301C89.644 65.4372 89.7106 65.3505 89.7873 65.2697C89.864 65.189 89.9467 65.1184 90.0355 65.0578C90.1485 64.9892 90.2737 64.9347 90.4109 64.8943C90.5522 64.854 90.7056 64.8318 90.8711 64.8277C91.0971 64.8277 91.3009 64.862 91.4826 64.9307C91.6642 64.9952 91.8176 65.0921 91.9427 65.2213C92.08 65.3666 92.1849 65.5563 92.2576 65.7904C92.3302 66.0205 92.3666 66.293 92.3666 66.6078V71.5H91.3009V66.5957C91.3009 66.4585 91.2848 66.3374 91.2525 66.2324C91.2202 66.1275 91.1738 66.0407 91.1132 65.9721C91.0487 65.9075 90.9679 65.859 90.8711 65.8268C90.7782 65.7945 90.6692 65.7783 90.5441 65.7783C90.4109 65.7783 90.2959 65.7965 90.199 65.8328C90.1021 65.8691 90.0214 65.9176 89.9568 65.9781C89.8922 66.0427 89.8418 66.1174 89.8054 66.2021C89.7691 66.2829 89.7449 66.3737 89.7328 66.4746C89.7328 66.4948 89.7328 66.515 89.7328 66.5352C89.7328 66.5513 89.7328 66.5715 89.7328 66.5957V71.5H88.6672V66.5896C88.6672 66.4524 88.651 66.3313 88.6187 66.2264C88.5905 66.1214 88.544 66.0346 88.4795 65.966C88.4189 65.9014 88.3422 65.855 88.2494 65.8268C88.1606 65.7945 88.0556 65.7783 87.9345 65.7783C87.8013 65.7783 87.6843 65.7945 87.5834 65.8268C87.4865 65.855 87.4037 65.8974 87.3351 65.9539C87.2826 65.9983 87.2362 66.0488 87.1959 66.1053C87.1595 66.1618 87.1293 66.2223 87.105 66.2869V71.5H86.0394V64.9488H87.0445ZM97.1192 71.6211C96.6591 71.6211 96.2353 71.5424 95.8478 71.385C95.4643 71.2275 95.1353 71.0076 94.8609 70.725C94.5864 70.4424 94.3724 70.1074 94.2191 69.7199C94.0657 69.3324 93.989 68.9106 93.989 68.4545V68.2002C93.989 67.6714 94.0737 67.1992 94.2433 66.7834C94.4128 66.3636 94.6388 66.0084 94.9214 65.7178C95.1999 65.4312 95.5168 65.2112 95.872 65.0578C96.2312 64.9044 96.5985 64.8277 96.9739 64.8277C97.4462 64.8277 97.8579 64.9105 98.2091 65.076C98.5643 65.2374 98.859 65.4615 99.0931 65.748C99.3272 66.0387 99.5008 66.3798 99.6138 66.7713C99.7308 67.1628 99.7894 67.5867 99.7894 68.0428V68.5453H95.1091V68.5877C95.1373 68.9066 95.1999 69.1871 95.2968 69.4293C95.3977 69.6715 95.5349 69.8854 95.7085 70.0711C95.8861 70.2689 96.1 70.4243 96.3503 70.5373C96.6006 70.6503 96.8771 70.7068 97.1798 70.7068C97.5794 70.7068 97.9346 70.6261 98.2454 70.4646C98.5562 70.3032 98.8146 70.0893 99.0204 69.8229L99.7046 70.3557C99.4866 70.6867 99.1597 70.9813 98.7237 71.2396C98.2918 71.4939 97.757 71.6211 97.1192 71.6211ZM96.9739 65.748C96.7479 65.748 96.534 65.7904 96.3321 65.8752C96.1303 65.9559 95.9487 66.075 95.7872 66.2324C95.6258 66.3939 95.4885 66.5917 95.3755 66.8258C95.2665 67.0559 95.1898 67.3223 95.1454 67.625H98.6692V67.5705C98.6692 67.3687 98.6309 67.1527 98.5542 66.9227C98.4775 66.6885 98.3706 66.4867 98.2333 66.3172C98.0961 66.1477 97.9225 66.0104 97.7126 65.9055C97.5067 65.8005 97.2605 65.748 96.9739 65.748ZM110.245 71.5L108.853 64.9488H109.846L110.609 69.1266L110.742 70.065L110.905 69.1266L111.953 64.9488H112.673L113.715 69.1266L113.89 70.1559L114.054 69.1266L114.78 64.9488H115.773L114.381 71.5H113.497L112.473 67.4857L112.304 66.4686L112.14 67.4857L111.129 71.5H110.245ZM117.486 64.9488H120.835V70.5313H122.972V71.5H117.486V70.5313H119.715V65.9236H117.486V64.9488ZM119.569 63.2293C119.569 63.1324 119.583 63.0416 119.612 62.9568C119.644 62.8721 119.692 62.7994 119.757 62.7389C119.809 62.6864 119.876 62.646 119.957 62.6178C120.042 62.5855 120.136 62.5693 120.241 62.5693C120.346 62.5693 120.439 62.5855 120.52 62.6178C120.601 62.646 120.667 62.6864 120.72 62.7389C120.784 62.7954 120.833 62.866 120.865 62.9508C120.897 63.0355 120.913 63.1284 120.913 63.2293C120.913 63.4109 120.857 63.5623 120.744 63.6834C120.631 63.8045 120.463 63.865 120.241 63.865C120.015 63.865 119.846 63.8045 119.733 63.6834C119.624 63.5623 119.569 63.4109 119.569 63.2293ZM127.658 63.3625V64.9488H130.153V65.8146H127.658V69.3748C127.658 69.6291 127.69 69.839 127.755 70.0045C127.82 70.17 127.908 70.3012 128.021 70.398C128.134 70.499 128.264 70.5696 128.409 70.61C128.558 70.6503 128.716 70.6705 128.881 70.6705C129.002 70.6705 129.127 70.6645 129.257 70.6523C129.386 70.6362 129.513 70.618 129.638 70.5979C129.759 70.5777 129.872 70.5575 129.977 70.5373C130.086 70.5131 130.175 70.4929 130.243 70.4768L130.401 71.2699C130.308 71.3264 130.195 71.3769 130.062 71.4213C129.929 71.4617 129.783 71.496 129.626 71.5242C129.468 71.5565 129.301 71.5807 129.123 71.5969C128.95 71.613 128.776 71.6211 128.603 71.6211C128.312 71.6211 128.04 71.5807 127.785 71.5C127.535 71.4152 127.317 71.282 127.131 71.1004C126.946 70.9228 126.798 70.6927 126.689 70.4102C126.584 70.1236 126.532 69.7785 126.532 69.3748V65.8146H124.812V64.9488H126.532V63.3625H127.658ZM133.822 65.9236C133.91 65.7904 134.009 65.6693 134.118 65.5604C134.227 65.4473 134.342 65.3484 134.463 65.2637C134.657 65.1224 134.869 65.0154 135.099 64.9428C135.333 64.8701 135.581 64.8318 135.844 64.8277C136.187 64.8277 136.498 64.8782 136.776 64.9791C137.059 65.076 137.299 65.2294 137.497 65.4393C137.695 65.6492 137.846 65.9156 137.951 66.2385C138.06 66.5574 138.114 66.9368 138.114 67.3768V71.5H136.994V67.3646C136.994 67.1063 136.964 66.8803 136.903 66.6865C136.843 66.4887 136.754 66.3253 136.637 66.1961C136.512 66.0548 136.354 65.9499 136.165 65.8813C135.975 65.8086 135.757 65.7743 135.511 65.7783C135.309 65.7783 135.117 65.8066 134.936 65.8631C134.754 65.9196 134.586 66.0003 134.433 66.1053C134.312 66.186 134.199 66.2809 134.094 66.3898C133.993 66.4948 133.902 66.6118 133.822 66.741V71.5H132.701V62.2H133.822V65.9236Z" fill="black"/>
        <path d="M153.614 71.5H152.476L149.055 64.9125L149.036 71.5H147.904V62.6844H149.043L152.463 69.2598L152.482 62.6844H153.614V71.5ZM158.681 71.6211C158.221 71.6211 157.797 71.5424 157.41 71.385C157.026 71.2275 156.697 71.0076 156.423 70.725C156.148 70.4424 155.935 70.1074 155.781 69.7199C155.628 69.3324 155.551 68.9106 155.551 68.4545V68.2002C155.551 67.6714 155.636 67.1992 155.805 66.7834C155.975 66.3636 156.201 66.0084 156.484 65.7178C156.762 65.4312 157.079 65.2112 157.434 65.0578C157.793 64.9044 158.161 64.8277 158.536 64.8277C159.008 64.8277 159.42 64.9105 159.771 65.076C160.126 65.2374 160.421 65.4615 160.655 65.748C160.889 66.0387 161.063 66.3798 161.176 66.7713C161.293 67.1628 161.351 67.5867 161.351 68.0428V68.5453H156.671V68.5877C156.699 68.9066 156.762 69.1871 156.859 69.4293C156.96 69.6715 157.097 69.8854 157.271 70.0711C157.448 70.2689 157.662 70.4243 157.912 70.5373C158.163 70.6503 158.439 70.7068 158.742 70.7068C159.142 70.7068 159.497 70.6261 159.808 70.4646C160.118 70.3032 160.377 70.0893 160.583 69.8229L161.267 70.3557C161.049 70.6867 160.722 70.9813 160.286 71.2396C159.854 71.4939 159.319 71.6211 158.681 71.6211ZM158.536 65.748C158.31 65.748 158.096 65.7904 157.894 65.8752C157.692 65.9559 157.511 66.075 157.349 66.2324C157.188 66.3939 157.051 66.5917 156.938 66.8258C156.829 67.0559 156.752 67.3223 156.708 67.625H160.231V67.5705C160.231 67.3687 160.193 67.1527 160.116 66.9227C160.04 66.6885 159.933 66.4867 159.795 66.3172C159.658 66.1477 159.485 66.0104 159.275 65.9055C159.069 65.8005 158.823 65.748 158.536 65.748ZM166.189 67.3768L167.939 64.9488H169.253L166.813 68.1881L169.319 71.5H168.024L166.213 69.0055L164.403 71.5H163.095L165.602 68.1881L163.162 64.9488H164.457L166.189 67.3768ZM173.83 63.3625V64.9488H176.324V65.8146H173.83V69.3748C173.83 69.6291 173.862 69.839 173.927 70.0045C173.991 70.17 174.08 70.3012 174.193 70.398C174.306 70.499 174.435 70.5696 174.581 70.61C174.73 70.6503 174.887 70.6705 175.053 70.6705C175.174 70.6705 175.299 70.6645 175.428 70.6523C175.557 70.6362 175.684 70.618 175.81 70.5979C175.931 70.5777 176.044 70.5575 176.149 70.5373C176.258 70.5131 176.346 70.4929 176.415 70.4768L176.572 71.2699C176.48 71.3264 176.367 71.3769 176.233 71.4213C176.1 71.4617 175.955 71.496 175.797 71.5242C175.64 71.5565 175.473 71.5807 175.295 71.5969C175.121 71.613 174.948 71.6211 174.774 71.6211C174.484 71.6211 174.211 71.5807 173.957 71.5C173.707 71.4152 173.489 71.282 173.303 71.1004C173.117 70.9228 172.97 70.6927 172.861 70.4102C172.756 70.1236 172.704 69.7785 172.704 69.3748V65.8146H170.984V64.9488H172.704V63.3625H173.83ZM180.544 71.5V65.8146H178.74V64.9488H180.544V64.4887C180.544 64.0689 180.605 63.7016 180.726 63.3867C180.851 63.0678 181.026 62.8014 181.253 62.5875C181.475 62.3736 181.743 62.2121 182.058 62.1031C182.373 61.9941 182.724 61.9396 183.111 61.9396C183.273 61.9396 183.432 61.9497 183.59 61.9699C183.747 61.9861 183.902 62.0083 184.056 62.0365C184.157 62.0567 184.258 62.0789 184.359 62.1031C184.459 62.1233 184.562 62.1475 184.667 62.1758L184.534 63.1021C184.369 63.0456 184.175 62.9972 183.953 62.9568C183.735 62.9124 183.501 62.8902 183.251 62.8902C182.996 62.8902 182.77 62.9225 182.572 62.9871C182.379 63.0477 182.217 63.1405 182.088 63.2656C181.951 63.3948 181.846 63.5623 181.773 63.7682C181.705 63.974 181.67 64.2142 181.67 64.4887V64.9488H184.195V65.8146H181.67V71.5H180.544ZM186.744 62.2H190.092V70.5313H192.229V71.5H186.744V70.5313H188.972V63.1748H186.744V62.2ZM193.949 68.1639C193.949 67.6916 194.017 67.2536 194.155 66.85C194.292 66.4423 194.49 66.0891 194.748 65.7904C195.002 65.4917 195.313 65.2576 195.68 65.0881C196.048 64.9145 196.461 64.8277 196.922 64.8277C197.386 64.8277 197.802 64.9145 198.169 65.0881C198.54 65.2576 198.855 65.4917 199.113 65.7904C199.368 66.0891 199.563 66.4423 199.701 66.85C199.838 67.2536 199.907 67.6916 199.907 68.1639V68.2971C199.907 68.7693 199.838 69.2073 199.701 69.6109C199.563 70.0146 199.368 70.3658 199.113 70.6645C198.855 70.9632 198.542 71.1973 198.175 71.3668C197.808 71.5363 197.394 71.6211 196.934 71.6211C196.469 71.6211 196.052 71.5363 195.68 71.3668C195.313 71.1973 195.002 70.9632 194.748 70.6645C194.49 70.3658 194.292 70.0146 194.155 69.6109C194.017 69.2073 193.949 68.7693 193.949 68.2971V68.1639ZM195.069 68.2971C195.069 68.62 195.107 68.9288 195.184 69.2234C195.261 69.5141 195.378 69.7704 195.535 69.9924C195.688 70.2144 195.882 70.39 196.116 70.5191C196.35 70.6483 196.623 70.7129 196.934 70.7129C197.24 70.7129 197.509 70.6483 197.739 70.5191C197.973 70.39 198.169 70.2144 198.326 69.9924C198.48 69.7704 198.595 69.5141 198.671 69.2234C198.748 68.9288 198.786 68.62 198.786 68.2971V68.1639C198.786 67.845 198.746 67.5402 198.665 67.2496C198.589 66.9549 198.474 66.6966 198.32 66.4746C198.163 66.2526 197.967 66.077 197.733 65.9479C197.503 65.8146 197.232 65.748 196.922 65.748C196.611 65.748 196.34 65.8146 196.11 65.9479C195.88 66.077 195.688 66.2526 195.535 66.4746C195.378 66.6966 195.261 66.9549 195.184 67.2496C195.107 67.5402 195.069 67.845 195.069 68.1639V68.2971ZM202.589 71.5L201.196 64.9488H202.189L202.952 69.1266L203.085 70.065L203.248 69.1266L204.296 64.9488H205.016L206.058 69.1266L206.233 70.1559L206.397 69.1266L207.123 64.9488H208.116L206.724 71.5H205.84L204.817 67.4857L204.647 66.4686L204.484 67.4857L203.473 71.5H202.589Z" fill="#0DC09D"/>
        <rect x="143" y="102" width="181.5" height="24" rx="12" fill="white"/>
        <rect x="143.5" y="102.5" width="180.5" height="23" rx="11.5" stroke="black" stroke-opacity="0.15"/>
        <path d="M164.732 112.929L165.75 109L166.768 112.929L170.5 114L166.768 115.429L165.75 119L164.732 115.429L161 114L164.732 112.929Z" stroke="#160F26" stroke-width="0.5" stroke-linejoin="round"/>
        <path d="M168.982 110.518L169.25 111.5L169.518 110.518L170.5 110.25L169.518 109.893L169.25 109L168.982 109.893L168 110.25L168.982 110.518Z" fill="#160F26"/>
        <path d="M182.499 110.641H179.775V118.5H178.685V110.641H175.96V109.684H182.499V110.641ZM185.369 112.924C185.458 112.79 185.557 112.669 185.666 112.56C185.775 112.447 185.89 112.348 186.011 112.264C186.204 112.122 186.416 112.015 186.646 111.943C186.881 111.87 187.129 111.832 187.391 111.828C187.734 111.828 188.045 111.878 188.324 111.979C188.606 112.076 188.846 112.229 189.044 112.439C189.242 112.649 189.393 112.916 189.498 113.238C189.607 113.557 189.662 113.937 189.662 114.377V118.5H188.542V114.365C188.542 114.106 188.511 113.88 188.451 113.687C188.39 113.489 188.301 113.325 188.184 113.196C188.059 113.055 187.902 112.95 187.712 112.881C187.522 112.809 187.304 112.774 187.058 112.778C186.856 112.778 186.665 112.807 186.483 112.863C186.301 112.92 186.134 113 185.98 113.105C185.859 113.186 185.746 113.281 185.641 113.39C185.54 113.495 185.45 113.612 185.369 113.741V118.5H184.249V109.2H185.369V112.924ZM192.12 111.949H195.468V117.531H197.605V118.5H192.12V117.531H194.348V112.924H192.12V111.949ZM194.202 110.229C194.202 110.132 194.217 110.042 194.245 109.957C194.277 109.872 194.326 109.799 194.39 109.739C194.443 109.686 194.509 109.646 194.59 109.618C194.675 109.585 194.77 109.569 194.875 109.569C194.979 109.569 195.072 109.585 195.153 109.618C195.234 109.646 195.3 109.686 195.353 109.739C195.417 109.795 195.466 109.866 195.498 109.951C195.53 110.036 195.547 110.128 195.547 110.229C195.547 110.411 195.49 110.562 195.377 110.683C195.264 110.804 195.097 110.865 194.875 110.865C194.648 110.865 194.479 110.804 194.366 110.683C194.257 110.562 194.202 110.411 194.202 110.229ZM203.993 116.762C203.993 116.629 203.966 116.51 203.914 116.405C203.861 116.296 203.773 116.197 203.648 116.108C203.522 116.02 203.357 115.939 203.151 115.866C202.945 115.79 202.689 115.721 202.382 115.66C202.007 115.584 201.664 115.491 201.353 115.382C201.046 115.273 200.784 115.142 200.566 114.988C200.344 114.839 200.172 114.663 200.051 114.462C199.93 114.256 199.869 114.018 199.869 113.747C199.869 113.481 199.932 113.232 200.057 113.002C200.182 112.768 200.358 112.564 200.584 112.391C200.81 112.217 201.078 112.08 201.389 111.979C201.704 111.878 202.049 111.828 202.424 111.828C202.828 111.828 203.191 111.88 203.514 111.985C203.837 112.09 204.112 112.235 204.338 112.421C204.564 112.607 204.737 112.825 204.858 113.075C204.984 113.321 205.046 113.588 205.046 113.874H203.926C203.926 113.733 203.89 113.596 203.817 113.463C203.744 113.325 203.643 113.204 203.514 113.099C203.385 112.994 203.228 112.91 203.042 112.845C202.86 112.78 202.655 112.748 202.424 112.748C202.186 112.748 201.976 112.774 201.795 112.827C201.617 112.879 201.47 112.95 201.353 113.039C201.232 113.127 201.141 113.23 201.08 113.347C201.02 113.465 200.99 113.586 200.99 113.711C200.99 113.84 201.014 113.955 201.062 114.056C201.111 114.157 201.195 114.248 201.316 114.328C201.434 114.409 201.591 114.482 201.789 114.546C201.991 114.611 202.245 114.673 202.552 114.734C202.955 114.819 203.317 114.918 203.635 115.031C203.954 115.14 204.223 115.271 204.441 115.424C204.659 115.582 204.824 115.763 204.937 115.969C205.054 116.175 205.113 116.413 205.113 116.684C205.113 116.974 205.046 117.239 204.913 117.477C204.784 117.715 204.602 117.919 204.368 118.088C204.134 118.258 203.853 118.389 203.526 118.482C203.199 118.575 202.842 118.621 202.455 118.621C202.011 118.621 201.615 118.563 201.268 118.446C200.921 118.324 200.628 118.165 200.39 117.967C200.148 117.773 199.962 117.547 199.833 117.289C199.708 117.031 199.645 116.762 199.645 116.484H200.765C200.782 116.714 200.842 116.908 200.947 117.065C201.056 117.222 201.191 117.35 201.353 117.446C201.51 117.543 201.686 117.612 201.88 117.652C202.073 117.693 202.265 117.713 202.455 117.713C202.753 117.713 203.014 117.679 203.236 117.61C203.458 117.537 203.631 117.438 203.756 117.313C203.833 117.237 203.892 117.152 203.932 117.059C203.972 116.966 203.993 116.867 203.993 116.762ZM215.205 111.949H218.554V117.531H220.691V118.5H215.205V117.531H217.434V112.924H215.205V111.949ZM217.288 110.229C217.288 110.132 217.302 110.042 217.331 109.957C217.363 109.872 217.411 109.799 217.476 109.739C217.528 109.686 217.595 109.646 217.676 109.618C217.761 109.585 217.855 109.569 217.96 109.569C218.065 109.569 218.158 109.585 218.239 109.618C218.32 109.646 218.386 109.686 218.439 109.739C218.503 109.795 218.552 109.866 218.584 109.951C218.616 110.036 218.632 110.128 218.632 110.229C218.632 110.411 218.576 110.562 218.463 110.683C218.35 110.804 218.182 110.865 217.96 110.865C217.734 110.865 217.565 110.804 217.452 110.683C217.343 110.562 217.288 110.411 217.288 110.229ZM227.078 116.762C227.078 116.629 227.052 116.51 227 116.405C226.947 116.296 226.858 116.197 226.733 116.108C226.608 116.02 226.443 115.939 226.237 115.866C226.031 115.79 225.775 115.721 225.468 115.66C225.092 115.584 224.749 115.491 224.439 115.382C224.132 115.273 223.869 115.142 223.651 114.988C223.429 114.839 223.258 114.663 223.137 114.462C223.016 114.256 222.955 114.018 222.955 113.747C222.955 113.481 223.018 113.232 223.143 113.002C223.268 112.768 223.444 112.564 223.67 112.391C223.896 112.217 224.164 112.08 224.475 111.979C224.79 111.878 225.135 111.828 225.51 111.828C225.914 111.828 226.277 111.88 226.6 111.985C226.923 112.09 227.198 112.235 227.424 112.421C227.65 112.607 227.823 112.825 227.944 113.075C228.069 113.321 228.132 113.588 228.132 113.874H227.012C227.012 113.733 226.975 113.596 226.903 113.463C226.83 113.325 226.729 113.204 226.6 113.099C226.471 112.994 226.314 112.91 226.128 112.845C225.946 112.78 225.74 112.748 225.51 112.748C225.272 112.748 225.062 112.774 224.881 112.827C224.703 112.879 224.556 112.95 224.439 113.039C224.317 113.127 224.227 113.23 224.166 113.347C224.106 113.465 224.075 113.586 224.075 113.711C224.075 113.84 224.1 113.955 224.148 114.056C224.196 114.157 224.281 114.248 224.402 114.328C224.519 114.409 224.677 114.482 224.875 114.546C225.076 114.611 225.331 114.673 225.637 114.734C226.041 114.819 226.402 114.918 226.721 115.031C227.04 115.14 227.309 115.271 227.526 115.424C227.744 115.582 227.91 115.763 228.023 115.969C228.14 116.175 228.199 116.413 228.199 116.684C228.199 116.974 228.132 117.239 227.999 117.477C227.87 117.715 227.688 117.919 227.454 118.088C227.22 118.258 226.939 118.389 226.612 118.482C226.285 118.575 225.928 118.621 225.541 118.621C225.097 118.621 224.701 118.563 224.354 118.446C224.007 118.324 223.714 118.165 223.476 117.967C223.234 117.773 223.048 117.547 222.919 117.289C222.794 117.031 222.731 116.762 222.731 116.484H223.851C223.867 116.714 223.928 116.908 224.033 117.065C224.142 117.222 224.277 117.35 224.439 117.446C224.596 117.543 224.772 117.612 224.965 117.652C225.159 117.693 225.351 117.713 225.541 117.713C225.839 117.713 226.1 117.679 226.322 117.61C226.544 117.537 226.717 117.438 226.842 117.313C226.919 117.237 226.978 117.152 227.018 117.059C227.058 116.966 227.078 116.867 227.078 116.762ZM242.324 116.217H239.381L238.673 118.5H237.553L240.398 109.684H241.337L244.134 118.5H243.02L242.324 116.217ZM239.684 115.243H242.027L240.864 111.416L239.684 115.243ZM245.811 109.684H251.139V110.659H249.026V117.531H251.139V118.5H245.811V117.531H247.876V110.659H245.811V109.684ZM265.506 118.5C265.462 118.415 265.426 118.31 265.397 118.185C265.373 118.056 265.355 117.923 265.343 117.786C265.23 117.899 265.103 118.006 264.961 118.106C264.824 118.207 264.673 118.296 264.507 118.373C264.338 118.45 264.158 118.51 263.968 118.554C263.779 118.599 263.577 118.621 263.363 118.621C263.016 118.621 262.701 118.571 262.418 118.47C262.14 118.369 261.904 118.232 261.71 118.058C261.512 117.888 261.359 117.687 261.25 117.453C261.145 117.214 261.092 116.958 261.092 116.684C261.092 116.324 261.163 116.01 261.304 115.739C261.45 115.469 261.654 115.243 261.916 115.061C262.178 114.883 262.493 114.75 262.86 114.661C263.232 114.573 263.646 114.528 264.102 114.528H265.325V114.013C265.325 113.816 265.288 113.638 265.216 113.481C265.143 113.323 265.04 113.188 264.907 113.075C264.774 112.966 264.61 112.881 264.416 112.821C264.227 112.76 264.013 112.73 263.775 112.73C263.553 112.73 263.353 112.758 263.175 112.815C263.002 112.871 262.854 112.946 262.733 113.039C262.612 113.132 262.517 113.243 262.449 113.372C262.384 113.497 262.352 113.628 262.352 113.765H261.226C261.23 113.527 261.29 113.293 261.407 113.063C261.528 112.833 261.702 112.625 261.928 112.439C262.15 112.258 262.42 112.11 262.739 111.997C263.062 111.884 263.428 111.828 263.835 111.828C264.207 111.828 264.552 111.874 264.871 111.967C265.189 112.056 265.466 112.191 265.7 112.373C265.93 112.558 266.112 112.788 266.245 113.063C266.378 113.337 266.445 113.658 266.445 114.026V117.071C266.445 117.289 266.465 117.521 266.505 117.767C266.546 118.01 266.602 118.221 266.675 118.403V118.5H265.506ZM263.526 117.646C263.744 117.646 263.948 117.618 264.138 117.562C264.328 117.505 264.501 117.43 264.659 117.338C264.812 117.245 264.945 117.14 265.058 117.023C265.171 116.902 265.26 116.776 265.325 116.647V115.321H264.283C263.896 115.321 263.557 115.356 263.266 115.424C262.979 115.489 262.751 115.59 262.582 115.727C262.461 115.824 262.368 115.939 262.303 116.072C262.243 116.205 262.213 116.357 262.213 116.526C262.213 116.688 262.239 116.837 262.291 116.974C262.348 117.111 262.431 117.229 262.54 117.325C262.649 117.426 262.786 117.505 262.951 117.562C263.117 117.618 263.308 117.646 263.526 117.646ZM268.897 118.5V111.949H269.902L269.98 112.918C270.077 112.78 270.182 112.655 270.295 112.542C270.412 112.425 270.536 112.324 270.665 112.239C270.858 112.11 271.068 112.011 271.294 111.943C271.524 111.87 271.767 111.832 272.021 111.828C272.364 111.828 272.675 111.876 272.953 111.973C273.236 112.07 273.476 112.221 273.674 112.427C273.872 112.633 274.023 112.895 274.128 113.214C274.237 113.529 274.291 113.904 274.291 114.34V118.5H273.171V114.365C273.171 114.074 273.139 113.828 273.074 113.626C273.01 113.424 272.915 113.261 272.79 113.136C272.661 113.01 272.503 112.92 272.318 112.863C272.136 112.807 271.926 112.778 271.688 112.778C271.482 112.778 271.29 112.809 271.113 112.869C270.935 112.926 270.772 113.004 270.622 113.105C270.501 113.194 270.388 113.297 270.283 113.414C270.182 113.531 270.094 113.66 270.017 113.802V118.5H268.897ZM280.945 116.762C280.945 116.629 280.919 116.51 280.867 116.405C280.814 116.296 280.725 116.197 280.6 116.108C280.475 116.02 280.31 115.939 280.104 115.866C279.898 115.79 279.642 115.721 279.335 115.66C278.959 115.584 278.616 115.491 278.305 115.382C277.999 115.273 277.736 115.142 277.518 114.988C277.296 114.839 277.125 114.663 277.004 114.462C276.883 114.256 276.822 114.018 276.822 113.747C276.822 113.481 276.885 113.232 277.01 113.002C277.135 112.768 277.31 112.564 277.536 112.391C277.763 112.217 278.031 112.08 278.342 111.979C278.657 111.878 279.002 111.828 279.377 111.828C279.781 111.828 280.144 111.88 280.467 111.985C280.79 112.09 281.064 112.235 281.29 112.421C281.516 112.607 281.69 112.825 281.811 113.075C281.936 113.321 281.999 113.588 281.999 113.874H280.879C280.879 113.733 280.842 113.596 280.77 113.463C280.697 113.325 280.596 113.204 280.467 113.099C280.338 112.994 280.18 112.91 279.995 112.845C279.813 112.78 279.607 112.748 279.377 112.748C279.139 112.748 278.929 112.774 278.747 112.827C278.57 112.879 278.423 112.95 278.305 113.039C278.184 113.127 278.094 113.23 278.033 113.347C277.972 113.465 277.942 113.586 277.942 113.711C277.942 113.84 277.966 113.955 278.015 114.056C278.063 114.157 278.148 114.248 278.269 114.328C278.386 114.409 278.544 114.482 278.741 114.546C278.943 114.611 279.198 114.673 279.504 114.734C279.908 114.819 280.269 114.918 280.588 115.031C280.907 115.14 281.175 115.271 281.393 115.424C281.611 115.582 281.777 115.763 281.89 115.969C282.007 116.175 282.065 116.413 282.065 116.684C282.065 116.974 281.999 117.239 281.866 117.477C281.736 117.715 281.555 117.919 281.321 118.088C281.087 118.258 280.806 118.389 280.479 118.482C280.152 118.575 279.795 118.621 279.407 118.621C278.963 118.621 278.568 118.563 278.221 118.446C277.874 118.324 277.581 118.165 277.343 117.967C277.101 117.773 276.915 117.547 276.786 117.289C276.661 117.031 276.598 116.762 276.598 116.484H277.718C277.734 116.714 277.795 116.908 277.9 117.065C278.009 117.222 278.144 117.35 278.305 117.446C278.463 117.543 278.638 117.612 278.832 117.652C279.026 117.693 279.218 117.713 279.407 117.713C279.706 117.713 279.966 117.679 280.188 117.61C280.41 117.537 280.584 117.438 280.709 117.313C280.786 117.237 280.844 117.152 280.885 117.059C280.925 116.966 280.945 116.867 280.945 116.762ZM284.917 118.5L283.524 111.949H284.517L285.28 116.127L285.413 117.065L285.577 116.127L286.624 111.949H287.345L288.386 116.127L288.562 117.156L288.725 116.127L289.452 111.949H290.445L289.052 118.5H288.168L287.145 114.486L286.976 113.469L286.812 114.486L285.801 118.5H284.917ZM294.877 118.621C294.416 118.621 293.993 118.542 293.605 118.385C293.222 118.228 292.893 118.008 292.618 117.725C292.344 117.442 292.13 117.107 291.976 116.72C291.823 116.332 291.746 115.911 291.746 115.454V115.2C291.746 114.671 291.831 114.199 292.001 113.783C292.17 113.364 292.396 113.008 292.679 112.718C292.957 112.431 293.274 112.211 293.629 112.058C293.989 111.904 294.356 111.828 294.731 111.828C295.204 111.828 295.615 111.91 295.966 112.076C296.322 112.237 296.616 112.461 296.85 112.748C297.085 113.039 297.258 113.38 297.371 113.771C297.488 114.163 297.547 114.587 297.547 115.043V115.545H292.866V115.588C292.895 115.907 292.957 116.187 293.054 116.429C293.155 116.671 293.292 116.885 293.466 117.071C293.644 117.269 293.857 117.424 294.108 117.537C294.358 117.65 294.634 117.707 294.937 117.707C295.337 117.707 295.692 117.626 296.003 117.465C296.314 117.303 296.572 117.089 296.778 116.823L297.462 117.356C297.244 117.687 296.917 117.981 296.481 118.24C296.049 118.494 295.514 118.621 294.877 118.621ZM294.731 112.748C294.505 112.748 294.291 112.79 294.09 112.875C293.888 112.956 293.706 113.075 293.545 113.232C293.383 113.394 293.246 113.592 293.133 113.826C293.024 114.056 292.947 114.322 292.903 114.625H296.427V114.571C296.427 114.369 296.388 114.153 296.312 113.923C296.235 113.689 296.128 113.487 295.991 113.317C295.853 113.148 295.68 113.01 295.47 112.905C295.264 112.801 295.018 112.748 294.731 112.748ZM303.971 111.828C304.176 111.828 304.39 111.842 304.612 111.87C304.838 111.898 305.008 111.937 305.121 111.985L304.97 113.081C304.752 113.033 304.544 112.998 304.346 112.978C304.152 112.954 303.948 112.942 303.734 112.942C303.46 112.942 303.212 112.976 302.99 113.045C302.768 113.109 302.574 113.206 302.408 113.335C302.259 113.448 302.128 113.588 302.015 113.753C301.906 113.915 301.815 114.096 301.742 114.298V118.5H300.616V111.949H301.682L301.73 112.827L301.736 112.99C302.003 112.631 302.322 112.348 302.693 112.143C303.068 111.933 303.494 111.828 303.971 111.828Z" fill="black"/>
        <rect x="29" y="150" width="175" height="24" rx="12" fill="white"/>
        <rect x="29.5" y="150.5" width="174" height="23" rx="11.5" stroke="black" stroke-opacity="0.15"/>
        <path d="M53.5814 166.5H52.5219V162.425H48.9072V166.5H47.8537V157.684H48.9072V161.475H52.5219V157.684H53.5814V166.5ZM58.6429 166.621C58.1828 166.621 57.7589 166.542 57.3714 166.385C56.988 166.228 56.659 166.008 56.3845 165.725C56.11 165.442 55.8961 165.107 55.7427 164.72C55.5893 164.332 55.5126 163.911 55.5126 163.454V163.2C55.5126 162.671 55.5974 162.199 55.7669 161.783C55.9365 161.364 56.1625 161.008 56.4451 160.718C56.7236 160.431 57.0404 160.211 57.3957 160.058C57.7549 159.904 58.1222 159.828 58.4976 159.828C58.9699 159.828 59.3816 159.91 59.7328 160.076C60.088 160.237 60.3826 160.461 60.6167 160.748C60.8509 161.039 61.0244 161.38 61.1375 161.771C61.2545 162.163 61.313 162.587 61.313 163.043V163.545H56.6328V163.588C56.661 163.907 56.7236 164.187 56.8205 164.429C56.9214 164.671 57.0586 164.885 57.2322 165.071C57.4098 165.269 57.6237 165.424 57.874 165.537C58.1242 165.65 58.4007 165.707 58.7035 165.707C59.1031 165.707 59.4583 165.626 59.7691 165.465C60.0799 165.303 60.3382 165.089 60.5441 164.823L61.2283 165.356C61.0103 165.687 60.6834 165.981 60.2474 166.24C59.8155 166.494 59.2807 166.621 58.6429 166.621ZM58.4976 160.748C58.2716 160.748 58.0576 160.79 57.8558 160.875C57.654 160.956 57.4723 161.075 57.3109 161.232C57.1494 161.394 57.0122 161.592 56.8992 161.826C56.7902 162.056 56.7135 162.322 56.6691 162.625H60.1929V162.571C60.1929 162.369 60.1546 162.153 60.0779 161.923C60.0012 161.689 59.8942 161.487 59.757 161.317C59.6197 161.148 59.4462 161.01 59.2363 160.905C59.0304 160.801 58.7842 160.748 58.4976 160.748ZM63.6196 157.2H66.9679V165.531H69.1052V166.5H63.6196V165.531H65.8478V158.175H63.6196V157.2ZM71.1333 169.019V159.949H72.1565L72.211 160.663C72.2998 160.55 72.3967 160.449 72.5016 160.361C72.6066 160.268 72.7196 160.189 72.8407 160.124C73.0102 160.028 73.1979 159.955 73.4038 159.906C73.6137 159.854 73.8377 159.828 74.0758 159.828C74.4956 159.828 74.867 159.91 75.1899 160.076C75.5128 160.241 75.7833 160.472 76.0012 160.766C76.2192 161.061 76.3847 161.414 76.4977 161.826C76.6107 162.233 76.6672 162.682 76.6672 163.17V163.297C76.6672 163.765 76.6107 164.203 76.4977 164.611C76.3847 165.015 76.2192 165.366 76.0012 165.664C75.7833 165.963 75.5128 166.197 75.1899 166.367C74.871 166.536 74.5057 166.621 74.094 166.621C73.8437 166.621 73.6096 166.595 73.3917 166.542C73.1777 166.49 72.984 166.415 72.8104 166.318C72.7055 166.258 72.6066 166.191 72.5137 166.119C72.4209 166.042 72.3341 165.959 72.2534 165.87V169.019H71.1333ZM75.5471 163.17C75.5471 162.851 75.5108 162.548 75.4381 162.262C75.3695 161.971 75.2626 161.715 75.1172 161.493C74.9679 161.275 74.7802 161.101 74.5542 160.972C74.3281 160.843 74.0577 160.778 73.7428 160.778C73.5693 160.778 73.4078 160.799 73.2585 160.839C73.1131 160.879 72.982 160.938 72.8649 161.014C72.7357 161.091 72.6207 161.186 72.5198 161.299C72.4189 161.412 72.3301 161.537 72.2534 161.674V164.829C72.322 164.95 72.4007 165.063 72.4895 165.168C72.5783 165.273 72.6792 165.362 72.7922 165.434C72.9214 165.519 73.0647 165.586 73.2221 165.634C73.3836 165.683 73.5612 165.707 73.7549 165.707C74.0657 165.707 74.3342 165.642 74.5602 165.513C74.7863 165.38 74.9719 165.202 75.1172 164.98C75.2626 164.758 75.3695 164.502 75.4381 164.211C75.5108 163.921 75.5471 163.616 75.5471 163.297V163.17ZM87.0445 159.949L87.0748 160.566C87.208 160.336 87.3815 160.157 87.5955 160.028C87.8134 159.898 88.0758 159.832 88.3826 159.828C88.5561 159.828 88.7116 159.848 88.8488 159.888C88.9901 159.925 89.1132 159.979 89.2181 160.052C89.2948 160.108 89.3634 160.177 89.424 160.258C89.4886 160.338 89.5431 160.429 89.5875 160.53C89.644 160.437 89.7106 160.35 89.7873 160.27C89.864 160.189 89.9467 160.118 90.0355 160.058C90.1485 159.989 90.2737 159.935 90.4109 159.894C90.5522 159.854 90.7056 159.832 90.8711 159.828C91.0971 159.828 91.3009 159.862 91.4826 159.931C91.6642 159.995 91.8176 160.092 91.9427 160.221C92.08 160.367 92.1849 160.556 92.2576 160.79C92.3302 161.021 92.3666 161.293 92.3666 161.608V166.5H91.3009V161.596C91.3009 161.458 91.2848 161.337 91.2525 161.232C91.2202 161.127 91.1738 161.041 91.1132 160.972C91.0487 160.907 90.9679 160.859 90.8711 160.827C90.7782 160.794 90.6692 160.778 90.5441 160.778C90.4109 160.778 90.2959 160.796 90.199 160.833C90.1021 160.869 90.0214 160.918 89.9568 160.978C89.8922 161.043 89.8418 161.117 89.8054 161.202C89.7691 161.283 89.7449 161.374 89.7328 161.475C89.7328 161.495 89.7328 161.515 89.7328 161.535C89.7328 161.551 89.7328 161.571 89.7328 161.596V166.5H88.6672V161.59C88.6672 161.452 88.651 161.331 88.6187 161.226C88.5905 161.121 88.544 161.035 88.4795 160.966C88.4189 160.901 88.3422 160.855 88.2494 160.827C88.1606 160.794 88.0556 160.778 87.9345 160.778C87.8013 160.778 87.6843 160.794 87.5834 160.827C87.4865 160.855 87.4037 160.897 87.3351 160.954C87.2826 160.998 87.2362 161.049 87.1959 161.105C87.1595 161.162 87.1293 161.222 87.105 161.287V166.5H86.0394V159.949H87.0445ZM97.1192 166.621C96.6591 166.621 96.2353 166.542 95.8478 166.385C95.4643 166.228 95.1353 166.008 94.8609 165.725C94.5864 165.442 94.3724 165.107 94.2191 164.72C94.0657 164.332 93.989 163.911 93.989 163.454V163.2C93.989 162.671 94.0737 162.199 94.2433 161.783C94.4128 161.364 94.6388 161.008 94.9214 160.718C95.1999 160.431 95.5168 160.211 95.872 160.058C96.2312 159.904 96.5985 159.828 96.9739 159.828C97.4462 159.828 97.8579 159.91 98.2091 160.076C98.5643 160.237 98.859 160.461 99.0931 160.748C99.3272 161.039 99.5008 161.38 99.6138 161.771C99.7308 162.163 99.7894 162.587 99.7894 163.043V163.545H95.1091V163.588C95.1373 163.907 95.1999 164.187 95.2968 164.429C95.3977 164.671 95.5349 164.885 95.7085 165.071C95.8861 165.269 96.1 165.424 96.3503 165.537C96.6006 165.65 96.8771 165.707 97.1798 165.707C97.5794 165.707 97.9346 165.626 98.2454 165.465C98.5562 165.303 98.8146 165.089 99.0204 164.823L99.7046 165.356C99.4866 165.687 99.1597 165.981 98.7237 166.24C98.2918 166.494 97.757 166.621 97.1192 166.621ZM96.9739 160.748C96.7479 160.748 96.534 160.79 96.3321 160.875C96.1303 160.956 95.9487 161.075 95.7872 161.232C95.6258 161.394 95.4885 161.592 95.3755 161.826C95.2665 162.056 95.1898 162.322 95.1454 162.625H98.6692V162.571C98.6692 162.369 98.6309 162.153 98.5542 161.923C98.4775 161.689 98.3706 161.487 98.2333 161.317C98.0961 161.148 97.9225 161.01 97.7126 160.905C97.5067 160.801 97.2605 160.748 96.9739 160.748ZM110.245 166.5L108.853 159.949H109.846L110.609 164.127L110.742 165.065L110.905 164.127L111.953 159.949H112.673L113.715 164.127L113.89 165.156L114.054 164.127L114.78 159.949H115.773L114.381 166.5H113.497L112.473 162.486L112.304 161.469L112.14 162.486L111.129 166.5H110.245ZM117.486 159.949H120.835V165.531H122.972V166.5H117.486V165.531H119.715V160.924H117.486V159.949ZM119.569 158.229C119.569 158.132 119.583 158.042 119.612 157.957C119.644 157.872 119.692 157.799 119.757 157.739C119.809 157.686 119.876 157.646 119.957 157.618C120.042 157.585 120.136 157.569 120.241 157.569C120.346 157.569 120.439 157.585 120.52 157.618C120.601 157.646 120.667 157.686 120.72 157.739C120.784 157.795 120.833 157.866 120.865 157.951C120.897 158.036 120.913 158.128 120.913 158.229C120.913 158.411 120.857 158.562 120.744 158.683C120.631 158.804 120.463 158.865 120.241 158.865C120.015 158.865 119.846 158.804 119.733 158.683C119.624 158.562 119.569 158.411 119.569 158.229ZM127.658 158.363V159.949H130.153V160.815H127.658V164.375C127.658 164.629 127.69 164.839 127.755 165.004C127.82 165.17 127.908 165.301 128.021 165.398C128.134 165.499 128.264 165.57 128.409 165.61C128.558 165.65 128.716 165.671 128.881 165.671C129.002 165.671 129.127 165.664 129.257 165.652C129.386 165.636 129.513 165.618 129.638 165.598C129.759 165.578 129.872 165.557 129.977 165.537C130.086 165.513 130.175 165.493 130.243 165.477L130.401 166.27C130.308 166.326 130.195 166.377 130.062 166.421C129.929 166.462 129.783 166.496 129.626 166.524C129.468 166.557 129.301 166.581 129.123 166.597C128.95 166.613 128.776 166.621 128.603 166.621C128.312 166.621 128.04 166.581 127.785 166.5C127.535 166.415 127.317 166.282 127.131 166.1C126.946 165.923 126.798 165.693 126.689 165.41C126.584 165.124 126.532 164.778 126.532 164.375V160.815H124.812V159.949H126.532V158.363H127.658ZM133.822 160.924C133.91 160.79 134.009 160.669 134.118 160.56C134.227 160.447 134.342 160.348 134.463 160.264C134.657 160.122 134.869 160.015 135.099 159.943C135.333 159.87 135.581 159.832 135.844 159.828C136.187 159.828 136.498 159.878 136.776 159.979C137.059 160.076 137.299 160.229 137.497 160.439C137.695 160.649 137.846 160.916 137.951 161.238C138.06 161.557 138.114 161.937 138.114 162.377V166.5H136.994V162.365C136.994 162.106 136.964 161.88 136.903 161.687C136.843 161.489 136.754 161.325 136.637 161.196C136.512 161.055 136.354 160.95 136.165 160.881C135.975 160.809 135.757 160.774 135.511 160.778C135.309 160.778 135.117 160.807 134.936 160.863C134.754 160.92 134.586 161 134.433 161.105C134.312 161.186 134.199 161.281 134.094 161.39C133.993 161.495 133.902 161.612 133.822 161.741V166.5H132.701V157.2H133.822V160.924ZM150.823 161.142L152.724 157.684H154.044L151.483 162.056L154.104 166.5H152.796L150.847 162.976L148.891 166.5H147.565L150.193 162.056L147.632 157.684H148.946L150.823 161.142ZM158.518 161.142L160.419 157.684H161.739L159.178 162.056L161.8 166.5H160.492L158.542 162.976L156.586 166.5H155.26L157.888 162.056L155.327 157.684H156.641L158.518 161.142ZM166.213 161.142L168.114 157.684H169.434L166.873 162.056L169.495 166.5H168.187L166.237 162.976L164.282 166.5H162.956L165.583 162.056L163.022 157.684H164.336L166.213 161.142ZM173.908 161.142L175.81 157.684H177.13L174.568 162.056L177.19 166.5H175.882L173.933 162.976L171.977 166.5H170.651L173.279 162.056L170.718 157.684H172.031L173.908 161.142ZM181.604 161.142L183.505 157.684H184.825L182.264 162.056L184.885 166.5H183.578L181.628 162.976L179.672 166.5H178.346L180.974 162.056L178.413 157.684H179.727L181.604 161.142Z" fill="black"/>
    </g>
    <defs>
        <filter id="filter0_d_572_3654" x="0.2" y="0" width="347.987" height="216.9" filterUnits="userSpaceOnUse" color-interpolation-filters="sRGB">
            <feFlood flood-opacity="0" result="BackgroundImageFix"/>
            <feColorMatrix in="SourceAlpha" type="matrix" values="0 0 0 0 0 0 0 0 0 0 0 0 0 0 0 0 0 0 127 0" result="hardAlpha"/>
            <feOffset dy="1.8"/>
            <feGaussianBlur stdDeviation="0.9"/>
            <feComposite in2="hardAlpha" operator="out"/>
            <feColorMatrix type="matrix" values="0 0 0 0 0 0 0 0 0 0 0 0 0 0 0 0 0 0 0.04 0"/>
            <feBlend mode="normal" in2="BackgroundImageFix" result="effect1_dropShadow_572_3654"/>
            <feBlend mode="normal" in="SourceGraphic" in2="effect1_dropShadow_572_3654" result="shape"/>
        </filter>
    </defs>
</svg>
