<svg width="404" height="256" viewBox="0 0 404 256" fill="none" xmlns="http://www.w3.org/2000/svg">
<rect x="2" width="400" height="252" rx="4" fill="#160F26"/>
<g filter="url(#filter0_d_1010_5402)">
<rect x="2.5" y="0.5" width="399" height="251" rx="6.7" stroke="#160F26" stroke-opacity="0.2" shape-rendering="crispEdges"/>
<ellipse cx="21.85" cy="15.85" rx="5.85" ry="5.85" fill="#DDDEDE"/>
<ellipse cx="37.5492" cy="15.85" rx="5.85" ry="5.85" fill="#DDDEDE"/>
<ellipse cx="53.2504" cy="15.85" rx="5.85" ry="5.85" fill="#DDDEDE"/>
<rect x="16.5" y="32.2" width="371" height="209.3" rx="3.5" fill="#2D273C"/>
<rect x="16.5" y="32.2" width="371" height="209.3" rx="3.5" stroke="#160F26"/>
<rect x="40.5" y="65.5" width="261" height="51" rx="10.5" fill="#160F26"/>
<rect x="40.5" y="65.5" width="261" height="51" rx="10.5" stroke="#160F26"/>
<path d="M65.6357 83.0059C65.5765 83.4661 65.458 83.89 65.2803 84.2773C65.1025 84.6602 64.8724 84.9883 64.5898 85.2617C64.3027 85.5397 63.9632 85.7562 63.5713 85.9111C63.1839 86.0615 62.751 86.1367 62.2725 86.1367C61.8623 86.1367 61.4886 86.0798 61.1514 85.9658C60.8187 85.8473 60.5225 85.6855 60.2627 85.4805C59.9984 85.2754 59.7705 85.0339 59.5791 84.7559C59.3923 84.4779 59.2373 84.1748 59.1143 83.8467C58.9867 83.5186 58.891 83.1745 58.8271 82.8145C58.7679 82.4544 58.736 82.0898 58.7314 81.7207V80.333C58.736 79.9639 58.7679 79.5993 58.8271 79.2393C58.891 78.8792 58.9867 78.5352 59.1143 78.207C59.2373 77.8789 59.3923 77.5758 59.5791 77.2979C59.7705 77.0153 59.9984 76.7715 60.2627 76.5664C60.5225 76.3613 60.8187 76.2018 61.1514 76.0879C61.484 75.9694 61.8577 75.9102 62.2725 75.9102C62.7692 75.9102 63.2135 75.9876 63.6055 76.1426C63.9974 76.293 64.3346 76.5072 64.6172 76.7852C64.8997 77.0677 65.1253 77.4049 65.2939 77.7969C65.4671 78.1888 65.5811 78.6217 65.6357 79.0957H64.3711C64.3301 78.7949 64.2594 78.5146 64.1592 78.2549C64.0589 77.9951 63.9245 77.7673 63.7559 77.5713C63.5872 77.3753 63.3799 77.2227 63.1338 77.1133C62.8923 76.9993 62.6051 76.9424 62.2725 76.9424C61.9717 76.9424 61.7051 76.9925 61.4727 77.0928C61.2448 77.1885 61.0488 77.3206 60.8848 77.4893C60.7161 77.6579 60.5749 77.8538 60.4609 78.0771C60.3516 78.3005 60.2627 78.5374 60.1943 78.7881C60.126 79.0387 60.0758 79.2962 60.0439 79.5605C60.0166 79.8203 60.0029 80.0732 60.0029 80.3193V81.7207C60.0029 81.9668 60.0166 82.222 60.0439 82.4863C60.0758 82.7461 60.126 83.0013 60.1943 83.252C60.2627 83.5072 60.3516 83.7464 60.4609 83.9697C60.5703 84.193 60.7093 84.389 60.8779 84.5576C61.0465 84.7308 61.2448 84.8675 61.4727 84.9678C61.7005 85.0635 61.9671 85.1113 62.2725 85.1113C62.6051 85.1113 62.8923 85.0589 63.1338 84.9541C63.3799 84.8493 63.5872 84.7012 63.7559 84.5098C63.9245 84.3229 64.0589 84.1019 64.1592 83.8467C64.2594 83.5869 64.3301 83.3066 64.3711 83.0059H65.6357ZM72.738 86C72.6879 85.9043 72.6469 85.7858 72.615 85.6445C72.5876 85.4987 72.5671 85.3483 72.5534 85.1934C72.4258 85.321 72.2823 85.4417 72.1228 85.5557C71.9678 85.6696 71.7969 85.7699 71.6101 85.8564C71.4187 85.943 71.2159 86.0114 71.0017 86.0615C70.7875 86.1117 70.5596 86.1367 70.3181 86.1367C69.9262 86.1367 69.5707 86.0798 69.2517 85.9658C68.9372 85.8519 68.6706 85.6969 68.4519 85.501C68.2286 85.3096 68.0554 85.0817 67.9323 84.8174C67.8139 84.5485 67.7546 84.2591 67.7546 83.9492C67.7546 83.5436 67.8344 83.1882 67.9939 82.8828C68.1579 82.5775 68.3881 82.3223 68.6843 82.1172C68.9805 81.9167 69.336 81.7663 69.7507 81.666C70.17 81.5658 70.6371 81.5156 71.1521 81.5156H72.5329V80.9346C72.5329 80.7113 72.4919 80.5107 72.4099 80.333C72.3279 80.1553 72.2116 80.0026 72.0612 79.875C71.9109 79.752 71.7263 79.6562 71.5075 79.5879C71.2933 79.5195 71.0518 79.4854 70.7829 79.4854C70.5323 79.4854 70.3067 79.5173 70.1062 79.5811C69.9102 79.6449 69.7439 79.7292 69.6071 79.834C69.4704 79.9388 69.3633 80.0641 69.2859 80.21C69.2129 80.3512 69.1765 80.4993 69.1765 80.6543H67.905C67.9096 80.3854 67.9779 80.1211 68.1101 79.8613C68.2468 79.6016 68.4428 79.3669 68.698 79.1572C68.9486 78.9521 69.254 78.7858 69.614 78.6582C69.9786 78.5306 70.391 78.4668 70.8513 78.4668C71.2706 78.4668 71.6602 78.5192 72.0202 78.624C72.3803 78.7243 72.6924 78.877 72.9568 79.082C73.2165 79.2917 73.4216 79.5514 73.572 79.8613C73.7224 80.1712 73.7976 80.5335 73.7976 80.9482V84.3867C73.7976 84.6328 73.8204 84.8949 73.8659 85.1729C73.9115 85.4463 73.9753 85.6855 74.0573 85.8906V86H72.738ZM70.5027 85.0361C70.7487 85.0361 70.9789 85.0042 71.1931 84.9404C71.4073 84.8766 71.6032 84.7923 71.781 84.6875C71.9542 84.5827 72.1045 84.4642 72.2321 84.332C72.3598 84.1953 72.46 84.054 72.5329 83.9082V82.4111H71.3571C70.9196 82.4111 70.5368 82.4499 70.2087 82.5273C69.8851 82.6003 69.6277 82.7142 69.4362 82.8691C69.2995 82.9785 69.1947 83.1084 69.1218 83.2588C69.0534 83.4092 69.0193 83.5801 69.0193 83.7715C69.0193 83.9538 69.0489 84.1224 69.1081 84.2773C69.1719 84.4323 69.2654 84.5645 69.3884 84.6738C69.5114 84.7878 69.6664 84.8766 69.8532 84.9404C70.0401 85.0042 70.2566 85.0361 70.5027 85.0361ZM76.5659 86V78.6035H77.7006L77.7895 79.6973C77.8989 79.5423 78.0174 79.401 78.145 79.2734C78.2771 79.1413 78.4161 79.0273 78.562 78.9316C78.7807 78.7858 79.0177 78.6742 79.2729 78.5967C79.5327 78.5146 79.8061 78.4714 80.0932 78.4668C80.4806 78.4668 80.8315 78.5215 81.1459 78.6309C81.4649 78.7402 81.7361 78.9111 81.9594 79.1436C82.1827 79.376 82.3536 79.6722 82.4721 80.0322C82.5952 80.3877 82.6567 80.8115 82.6567 81.3037V86H81.392V81.3311C81.392 81.0029 81.3556 80.7249 81.2827 80.4971C81.2097 80.2692 81.1026 80.0846 80.9614 79.9434C80.8155 79.8021 80.6378 79.6995 80.4282 79.6357C80.2231 79.5719 79.9861 79.54 79.7172 79.54C79.4848 79.54 79.2683 79.5742 79.0678 79.6426C78.8673 79.7064 78.6827 79.7952 78.5141 79.9092C78.3774 80.0094 78.2498 80.1257 78.1313 80.2578C78.0174 80.39 77.9171 80.5358 77.8305 80.6953V86H76.5659ZM94.537 88.9873C94.4185 88.9873 94.2795 88.9736 94.12 88.9463C93.9605 88.9189 93.8397 88.8962 93.7577 88.8779L93.9628 87.8457C94.0767 87.8548 94.1884 87.8617 94.2977 87.8662C94.4117 87.8753 94.5005 87.8799 94.5643 87.8799C94.7375 87.8799 94.8947 87.832 95.036 87.7363C95.1818 87.6406 95.3117 87.5267 95.4257 87.3945C95.535 87.2624 95.6285 87.1257 95.7059 86.9844C95.788 86.8431 95.8518 86.7269 95.8973 86.6357L96.4032 85.6514L93.2177 78.6035H94.6327L96.663 83.375L96.9911 84.2705L97.3397 83.4023L99.247 78.6035H100.662L96.9091 87.1416C96.8225 87.333 96.7108 87.5358 96.5741 87.75C96.4419 87.9642 96.2802 88.1624 96.0887 88.3447C95.8973 88.527 95.674 88.6797 95.4188 88.8027C95.1636 88.9258 94.8697 88.9873 94.537 88.9873ZM102.275 82.2334C102.275 81.7002 102.352 81.2057 102.507 80.75C102.662 80.2897 102.886 79.891 103.177 79.5537C103.464 79.2165 103.815 78.9521 104.23 78.7607C104.645 78.5648 105.112 78.4668 105.631 78.4668C106.156 78.4668 106.625 78.5648 107.04 78.7607C107.459 78.9521 107.814 79.2165 108.106 79.5537C108.393 79.891 108.614 80.2897 108.769 80.75C108.924 81.2057 109.002 81.7002 109.002 82.2334V82.3838C109.002 82.917 108.924 83.4115 108.769 83.8672C108.614 84.3229 108.393 84.7194 108.106 85.0566C107.814 85.3939 107.461 85.6582 107.046 85.8496C106.632 86.041 106.165 86.1367 105.645 86.1367C105.121 86.1367 104.649 86.041 104.23 85.8496C103.815 85.6582 103.464 85.3939 103.177 85.0566C102.886 84.7194 102.662 84.3229 102.507 83.8672C102.352 83.4115 102.275 82.917 102.275 82.3838V82.2334ZM103.54 82.3838C103.54 82.7484 103.583 83.097 103.67 83.4297C103.756 83.7578 103.888 84.0472 104.066 84.2979C104.239 84.5485 104.458 84.7467 104.722 84.8926C104.987 85.0384 105.294 85.1113 105.645 85.1113C105.991 85.1113 106.295 85.0384 106.554 84.8926C106.819 84.7467 107.04 84.5485 107.217 84.2979C107.391 84.0472 107.52 83.7578 107.607 83.4297C107.694 83.097 107.737 82.7484 107.737 82.3838V82.2334C107.737 81.8734 107.691 81.5293 107.6 81.2012C107.514 80.8685 107.384 80.5768 107.211 80.3262C107.033 80.0755 106.812 79.8773 106.547 79.7314C106.288 79.5811 105.982 79.5059 105.631 79.5059C105.281 79.5059 104.975 79.5811 104.715 79.7314C104.456 79.8773 104.239 80.0755 104.066 80.3262C103.888 80.5768 103.756 80.8685 103.67 81.2012C103.583 81.5293 103.54 81.8734 103.54 82.2334V82.3838ZM116.193 86L116.118 84.9814C115.871 85.346 115.564 85.6309 115.195 85.8359C114.826 86.0365 114.399 86.1367 113.916 86.1367C113.529 86.1367 113.178 86.0775 112.864 85.959C112.549 85.8359 112.28 85.6468 112.057 85.3916C111.834 85.1364 111.66 84.8128 111.537 84.4209C111.419 84.0244 111.36 83.5505 111.36 82.999V78.6035H112.624V83.0127C112.624 83.4137 112.656 83.7464 112.72 84.0107C112.784 84.2751 112.88 84.4847 113.007 84.6396C113.135 84.7992 113.29 84.9108 113.472 84.9746C113.659 85.0384 113.873 85.0703 114.115 85.0703C114.397 85.0703 114.65 85.0384 114.873 84.9746C115.097 84.9062 115.29 84.8128 115.454 84.6943C115.591 84.5986 115.71 84.4847 115.81 84.3525C115.915 84.2158 116.001 84.0677 116.07 83.9082V78.6035H117.341V86H116.193ZM131.963 86.1367C131.443 86.1367 130.965 86.0479 130.527 85.8701C130.094 85.6924 129.723 85.444 129.413 85.125C129.103 84.806 128.861 84.4277 128.688 83.9902C128.515 83.5527 128.428 83.0765 128.428 82.5615V82.2744C128.428 81.6774 128.524 81.1442 128.716 80.6748C128.907 80.2008 129.162 79.7998 129.481 79.4717C129.796 79.1481 130.153 78.8997 130.554 78.7266C130.96 78.5534 131.375 78.4668 131.799 78.4668C132.332 78.4668 132.797 78.5602 133.193 78.7471C133.594 78.9294 133.927 79.1823 134.191 79.5059C134.455 79.834 134.651 80.2191 134.779 80.6611C134.911 81.1032 134.977 81.5817 134.977 82.0967V82.6641H129.693V82.7119C129.725 83.0719 129.796 83.3887 129.905 83.6621C130.019 83.9355 130.174 84.1771 130.37 84.3867C130.57 84.61 130.812 84.7855 131.094 84.9131C131.377 85.0407 131.689 85.1045 132.031 85.1045C132.482 85.1045 132.883 85.0133 133.234 84.8311C133.585 84.6488 133.877 84.4072 134.109 84.1064L134.882 84.708C134.636 85.0817 134.266 85.4144 133.774 85.7061C133.287 85.9932 132.683 86.1367 131.963 86.1367ZM131.799 79.5059C131.543 79.5059 131.302 79.5537 131.074 79.6494C130.846 79.7406 130.641 79.875 130.459 80.0527C130.276 80.235 130.122 80.4583 129.994 80.7227C129.871 80.9824 129.784 81.2832 129.734 81.625H133.713V81.5635C133.713 81.3356 133.669 81.0918 133.583 80.832C133.496 80.5677 133.375 80.3398 133.22 80.1484C133.066 79.957 132.87 79.8021 132.633 79.6836C132.4 79.5651 132.122 79.5059 131.799 79.5059ZM140.439 81.3447L142.415 78.6035H143.898L141.143 82.2607L143.973 86H142.51L140.466 83.1836L138.422 86H136.946L139.776 82.2607L137.021 78.6035H138.484L140.439 81.3447ZM146.065 88.8438V78.6035H147.22L147.281 79.4102C147.382 79.2826 147.491 79.1686 147.61 79.0684C147.728 78.9635 147.856 78.8747 147.992 78.8018C148.184 78.6924 148.396 78.6104 148.628 78.5557C148.865 78.4964 149.118 78.4668 149.387 78.4668C149.861 78.4668 150.28 78.5602 150.645 78.7471C151.009 78.9339 151.315 79.1937 151.561 79.5264C151.807 79.859 151.994 80.2578 152.121 80.7227C152.249 81.1829 152.313 81.6888 152.313 82.2402V82.3838C152.313 82.9124 152.249 83.4069 152.121 83.8672C151.994 84.3229 151.807 84.7194 151.561 85.0566C151.315 85.3939 151.009 85.6582 150.645 85.8496C150.285 86.041 149.872 86.1367 149.407 86.1367C149.125 86.1367 148.861 86.1071 148.614 86.0479C148.373 85.9886 148.154 85.9043 147.958 85.7949C147.84 85.7266 147.728 85.6514 147.623 85.5693C147.518 85.4827 147.42 85.3893 147.329 85.2891V88.8438H146.065ZM151.048 82.2402C151.048 81.8802 151.007 81.5384 150.925 81.2148C150.848 80.8867 150.727 80.5973 150.563 80.3467C150.394 80.1006 150.182 79.9046 149.927 79.7588C149.672 79.613 149.366 79.54 149.011 79.54C148.815 79.54 148.633 79.5628 148.464 79.6084C148.3 79.654 148.152 79.7201 148.02 79.8066C147.874 79.8932 147.744 80.0003 147.63 80.1279C147.516 80.2555 147.416 80.3968 147.329 80.5518V84.1133C147.407 84.25 147.496 84.3776 147.596 84.4961C147.696 84.6146 147.81 84.7148 147.938 84.7969C148.084 84.8926 148.245 84.9678 148.423 85.0225C148.605 85.0771 148.806 85.1045 149.025 85.1045C149.376 85.1045 149.679 85.0316 149.934 84.8857C150.189 84.7354 150.399 84.5348 150.563 84.2842C150.727 84.0335 150.848 83.7441 150.925 83.416C151.007 83.0879 151.048 82.7438 151.048 82.3838V82.2402ZM154.958 75.5H158.738V84.9062H161.151V86H154.958V84.9062H157.474V76.6006H154.958V75.5ZM168.308 86C168.258 85.9043 168.217 85.7858 168.185 85.6445C168.158 85.4987 168.137 85.3483 168.124 85.1934C167.996 85.321 167.853 85.4417 167.693 85.5557C167.538 85.6696 167.367 85.7699 167.18 85.8564C166.989 85.943 166.786 86.0114 166.572 86.0615C166.358 86.1117 166.13 86.1367 165.888 86.1367C165.496 86.1367 165.141 86.0798 164.822 85.9658C164.507 85.8519 164.241 85.6969 164.022 85.501C163.799 85.3096 163.626 85.0817 163.503 84.8174C163.384 84.5485 163.325 84.2591 163.325 83.9492C163.325 83.5436 163.405 83.1882 163.564 82.8828C163.728 82.5775 163.958 82.3223 164.255 82.1172C164.551 81.9167 164.906 81.7663 165.321 81.666C165.74 81.5658 166.207 81.5156 166.722 81.5156H168.103V80.9346C168.103 80.7113 168.062 80.5107 167.98 80.333C167.898 80.1553 167.782 80.0026 167.631 79.875C167.481 79.752 167.297 79.6562 167.078 79.5879C166.864 79.5195 166.622 79.4854 166.353 79.4854C166.103 79.4854 165.877 79.5173 165.676 79.5811C165.48 79.6449 165.314 79.7292 165.177 79.834C165.041 79.9388 164.934 80.0641 164.856 80.21C164.783 80.3512 164.747 80.4993 164.747 80.6543H163.475C163.48 80.3854 163.548 80.1211 163.68 79.8613C163.817 79.6016 164.013 79.3669 164.268 79.1572C164.519 78.9521 164.824 78.7858 165.184 78.6582C165.549 78.5306 165.961 78.4668 166.422 78.4668C166.841 78.4668 167.23 78.5192 167.59 78.624C167.95 78.7243 168.263 78.877 168.527 79.082C168.787 79.2917 168.992 79.5514 169.142 79.8613C169.293 80.1712 169.368 80.5335 169.368 80.9482V84.3867C169.368 84.6328 169.391 84.8949 169.436 85.1729C169.482 85.4463 169.546 85.6855 169.628 85.8906V86H168.308ZM166.073 85.0361C166.319 85.0361 166.549 85.0042 166.763 84.9404C166.978 84.8766 167.173 84.7923 167.351 84.6875C167.524 84.5827 167.675 84.4642 167.802 84.332C167.93 84.1953 168.03 84.054 168.103 83.9082V82.4111H166.927C166.49 82.4111 166.107 82.4499 165.779 82.5273C165.455 82.6003 165.198 82.7142 165.006 82.8691C164.87 82.9785 164.765 83.1084 164.692 83.2588C164.624 83.4092 164.589 83.5801 164.589 83.7715C164.589 83.9538 164.619 84.1224 164.678 84.2773C164.742 84.4323 164.836 84.5645 164.959 84.6738C165.082 84.7878 165.237 84.8766 165.423 84.9404C165.61 85.0042 165.827 85.0361 166.073 85.0361ZM172.334 78.6035H176.115V84.9062H178.528V86H172.334V84.9062H174.85V79.7041H172.334V78.6035ZM174.686 76.6621C174.686 76.5527 174.702 76.4502 174.734 76.3545C174.77 76.2588 174.825 76.1768 174.898 76.1084C174.957 76.0492 175.032 76.0036 175.123 75.9717C175.219 75.9352 175.326 75.917 175.445 75.917C175.563 75.917 175.668 75.9352 175.759 75.9717C175.85 76.0036 175.925 76.0492 175.985 76.1084C176.058 76.1722 176.112 76.252 176.149 76.3477C176.185 76.4434 176.203 76.5482 176.203 76.6621C176.203 76.8672 176.14 77.0381 176.012 77.1748C175.884 77.3115 175.695 77.3799 175.445 77.3799C175.189 77.3799 174.998 77.3115 174.87 77.1748C174.747 77.0381 174.686 76.8672 174.686 76.6621ZM180.824 86V78.6035H181.959L182.048 79.6973C182.157 79.5423 182.276 79.401 182.403 79.2734C182.536 79.1413 182.675 79.0273 182.82 78.9316C183.039 78.7858 183.276 78.6742 183.531 78.5967C183.791 78.5146 184.065 78.4714 184.352 78.4668C184.739 78.4668 185.09 78.5215 185.404 78.6309C185.723 78.7402 185.995 78.9111 186.218 79.1436C186.441 79.376 186.612 79.6722 186.731 80.0322C186.854 80.3877 186.915 80.8115 186.915 81.3037V86H185.65V81.3311C185.65 81.0029 185.614 80.7249 185.541 80.4971C185.468 80.2692 185.361 80.0846 185.22 79.9434C185.074 79.8021 184.896 79.6995 184.687 79.6357C184.482 79.5719 184.245 79.54 183.976 79.54C183.743 79.54 183.527 79.5742 183.326 79.6426C183.126 79.7064 182.941 79.7952 182.773 79.9092C182.636 80.0094 182.508 80.1257 182.39 80.2578C182.276 80.39 182.176 80.5358 182.089 80.6953V86H180.824ZM201.195 76.8125V78.6035H204.011V79.5811H201.195V83.6006C201.195 83.8877 201.231 84.1247 201.304 84.3115C201.377 84.4984 201.477 84.6465 201.605 84.7559C201.733 84.8698 201.878 84.9495 202.042 84.9951C202.211 85.0407 202.389 85.0635 202.576 85.0635C202.712 85.0635 202.854 85.0566 203 85.043C203.145 85.0247 203.289 85.0042 203.43 84.9814C203.567 84.9587 203.695 84.9359 203.813 84.9131C203.936 84.8857 204.036 84.863 204.114 84.8447L204.292 85.7402C204.187 85.804 204.059 85.861 203.909 85.9111C203.758 85.9567 203.594 85.9954 203.417 86.0273C203.239 86.0638 203.05 86.0911 202.849 86.1094C202.653 86.1276 202.457 86.1367 202.261 86.1367C201.933 86.1367 201.626 86.0911 201.338 86C201.056 85.9043 200.81 85.7539 200.6 85.5488C200.39 85.3483 200.224 85.0885 200.101 84.7695C199.983 84.446 199.923 84.0563 199.923 83.6006V79.5811H197.982V78.6035H199.923V76.8125H201.195ZM206.533 82.2334C206.533 81.7002 206.611 81.2057 206.766 80.75C206.921 80.2897 207.144 79.891 207.436 79.5537C207.723 79.2165 208.074 78.9521 208.489 78.7607C208.903 78.5648 209.37 78.4668 209.89 78.4668C210.414 78.4668 210.883 78.5648 211.298 78.7607C211.717 78.9521 212.073 79.2165 212.364 79.5537C212.652 79.891 212.873 80.2897 213.028 80.75C213.183 81.2057 213.26 81.7002 213.26 82.2334V82.3838C213.26 82.917 213.183 83.4115 213.028 83.8672C212.873 84.3229 212.652 84.7194 212.364 85.0566C212.073 85.3939 211.72 85.6582 211.305 85.8496C210.89 86.041 210.423 86.1367 209.904 86.1367C209.379 86.1367 208.908 86.041 208.489 85.8496C208.074 85.6582 207.723 85.3939 207.436 85.0566C207.144 84.7194 206.921 84.3229 206.766 83.8672C206.611 83.4115 206.533 82.917 206.533 82.3838V82.2334ZM207.798 82.3838C207.798 82.7484 207.841 83.097 207.928 83.4297C208.015 83.7578 208.147 84.0472 208.324 84.2979C208.498 84.5485 208.716 84.7467 208.981 84.8926C209.245 85.0384 209.553 85.1113 209.904 85.1113C210.25 85.1113 210.553 85.0384 210.813 84.8926C211.077 84.7467 211.298 84.5485 211.476 84.2979C211.649 84.0472 211.779 83.7578 211.865 83.4297C211.952 83.097 211.995 82.7484 211.995 82.3838V82.2334C211.995 81.8734 211.95 81.5293 211.859 81.2012C211.772 80.8685 211.642 80.5768 211.469 80.3262C211.291 80.0755 211.07 79.8773 210.806 79.7314C210.546 79.5811 210.241 79.5059 209.89 79.5059C209.539 79.5059 209.234 79.5811 208.974 79.7314C208.714 79.8773 208.498 80.0755 208.324 80.3262C208.147 80.5768 208.015 80.8685 207.928 81.2012C207.841 81.5293 207.798 81.8734 207.798 82.2334V82.3838ZM224.846 78.6035L224.881 79.3008C225.031 79.041 225.227 78.8382 225.468 78.6924C225.715 78.5465 226.011 78.4714 226.357 78.4668C226.553 78.4668 226.729 78.4896 226.883 78.5352C227.043 78.5762 227.182 78.6377 227.3 78.7197C227.387 78.7835 227.465 78.861 227.533 78.9521C227.606 79.0433 227.667 79.1458 227.717 79.2598C227.781 79.1549 227.856 79.057 227.943 78.9658C228.03 78.8747 228.123 78.7949 228.223 78.7266C228.351 78.6491 228.492 78.5876 228.647 78.542C228.807 78.4964 228.98 78.4714 229.167 78.4668C229.422 78.4668 229.652 78.5055 229.857 78.583C230.062 78.6559 230.235 78.7653 230.377 78.9111C230.532 79.0752 230.65 79.2894 230.732 79.5537C230.814 79.8135 230.855 80.1211 230.855 80.4766V86H229.652V80.4629C229.652 80.3079 229.634 80.1712 229.597 80.0527C229.561 79.9342 229.508 79.8363 229.44 79.7588C229.367 79.6859 229.276 79.6312 229.167 79.5947C229.062 79.5583 228.939 79.54 228.798 79.54C228.647 79.54 228.517 79.5605 228.408 79.6016C228.299 79.6426 228.207 79.6973 228.134 79.7656C228.062 79.8385 228.005 79.9229 227.964 80.0186C227.923 80.1097 227.895 80.2122 227.882 80.3262C227.882 80.349 227.882 80.3717 227.882 80.3945C227.882 80.4128 227.882 80.4355 227.882 80.4629V86H226.678V80.4561C226.678 80.3011 226.66 80.1644 226.624 80.0459C226.592 79.9274 226.539 79.8294 226.466 79.752C226.398 79.679 226.312 79.6266 226.207 79.5947C226.106 79.5583 225.988 79.54 225.851 79.54C225.701 79.54 225.569 79.5583 225.455 79.5947C225.345 79.6266 225.252 79.6745 225.174 79.7383C225.115 79.7884 225.063 79.8454 225.017 79.9092C224.976 79.973 224.942 80.0413 224.915 80.1143V86H223.712V78.6035H224.846ZM236.221 86.1367C235.702 86.1367 235.223 86.0479 234.786 85.8701C234.353 85.6924 233.981 85.444 233.671 85.125C233.361 84.806 233.12 84.4277 232.947 83.9902C232.774 83.5527 232.687 83.0765 232.687 82.5615V82.2744C232.687 81.6774 232.783 81.1442 232.974 80.6748C233.165 80.2008 233.421 79.7998 233.74 79.4717C234.054 79.1481 234.412 78.8997 234.813 78.7266C235.218 78.5534 235.633 78.4668 236.057 78.4668C236.59 78.4668 237.055 78.5602 237.452 78.7471C237.853 78.9294 238.185 79.1823 238.45 79.5059C238.714 79.834 238.91 80.2191 239.038 80.6611C239.17 81.1032 239.236 81.5817 239.236 82.0967V82.6641H233.952V82.7119C233.983 83.0719 234.054 83.3887 234.163 83.6621C234.277 83.9355 234.432 84.1771 234.628 84.3867C234.829 84.61 235.07 84.7855 235.353 84.9131C235.635 85.0407 235.948 85.1045 236.289 85.1045C236.741 85.1045 237.142 85.0133 237.493 84.8311C237.843 84.6488 238.135 84.4072 238.368 84.1064L239.14 84.708C238.894 85.0817 238.525 85.4144 238.033 85.7061C237.545 85.9932 236.941 86.1367 236.221 86.1367ZM236.057 79.5059C235.802 79.5059 235.56 79.5537 235.332 79.6494C235.105 79.7406 234.899 79.875 234.717 80.0527C234.535 80.235 234.38 80.4583 234.252 80.7227C234.129 80.9824 234.043 81.2832 233.993 81.625H237.971V81.5635C237.971 81.3356 237.928 81.0918 237.841 80.832C237.755 80.5677 237.634 80.3398 237.479 80.1484C237.324 79.957 237.128 79.8021 236.891 79.6836C236.659 79.5651 236.381 79.5059 236.057 79.5059ZM251.595 79.7041C251.695 79.5537 251.806 79.417 251.93 79.2939C252.053 79.1663 252.182 79.0547 252.319 78.959C252.538 78.7995 252.777 78.6787 253.037 78.5967C253.301 78.5146 253.582 78.4714 253.878 78.4668C254.265 78.4668 254.616 78.5238 254.931 78.6377C255.25 78.7471 255.521 78.9202 255.744 79.1572C255.967 79.3942 256.138 79.695 256.257 80.0596C256.38 80.4196 256.441 80.848 256.441 81.3447V86H255.177V81.3311C255.177 81.0394 255.142 80.7842 255.074 80.5654C255.006 80.3421 254.905 80.1576 254.773 80.0117C254.632 79.8522 254.454 79.7337 254.24 79.6562C254.026 79.5742 253.78 79.5355 253.502 79.54C253.274 79.54 253.057 79.5719 252.852 79.6357C252.647 79.6995 252.458 79.7907 252.285 79.9092C252.148 80.0003 252.021 80.1074 251.902 80.2305C251.788 80.349 251.686 80.4811 251.595 80.627V86H250.33V75.5H251.595V79.7041ZM258.663 82.2334C258.663 81.7002 258.74 81.2057 258.895 80.75C259.05 80.2897 259.273 79.891 259.565 79.5537C259.852 79.2165 260.203 78.9521 260.618 78.7607C261.032 78.5648 261.5 78.4668 262.019 78.4668C262.543 78.4668 263.013 78.5648 263.427 78.7607C263.847 78.9521 264.202 79.2165 264.494 79.5537C264.781 79.891 265.002 80.2897 265.157 80.75C265.312 81.2057 265.389 81.7002 265.389 82.2334V82.3838C265.389 82.917 265.312 83.4115 265.157 83.8672C265.002 84.3229 264.781 84.7194 264.494 85.0566C264.202 85.3939 263.849 85.6582 263.434 85.8496C263.019 86.041 262.552 86.1367 262.033 86.1367C261.509 86.1367 261.037 86.041 260.618 85.8496C260.203 85.6582 259.852 85.3939 259.565 85.0566C259.273 84.7194 259.05 84.3229 258.895 83.8672C258.74 83.4115 258.663 82.917 258.663 82.3838V82.2334ZM259.927 82.3838C259.927 82.7484 259.971 83.097 260.057 83.4297C260.144 83.7578 260.276 84.0472 260.454 84.2979C260.627 84.5485 260.846 84.7467 261.11 84.8926C261.374 85.0384 261.682 85.1113 262.033 85.1113C262.379 85.1113 262.682 85.0384 262.942 84.8926C263.206 84.7467 263.427 84.5485 263.605 84.2979C263.778 84.0472 263.908 83.7578 263.995 83.4297C264.081 83.097 264.125 82.7484 264.125 82.3838V82.2334C264.125 81.8734 264.079 81.5293 263.988 81.2012C263.901 80.8685 263.771 80.5768 263.598 80.3262C263.42 80.0755 263.199 79.8773 262.935 79.7314C262.675 79.5811 262.37 79.5059 262.019 79.5059C261.668 79.5059 261.363 79.5811 261.103 79.7314C260.843 79.8773 260.627 80.0755 260.454 80.3262C260.276 80.5768 260.144 80.8685 260.057 81.2012C259.971 81.5293 259.927 81.8734 259.927 82.2334V82.3838ZM268.417 86L266.845 78.6035H267.966L268.827 83.3203L268.978 84.3799L269.162 83.3203L270.345 78.6035H271.158L272.334 83.3203L272.533 84.4824L272.717 83.3203L273.537 78.6035H274.658L273.086 86H272.088L270.933 81.4678L270.741 80.3193L270.557 81.4678L269.415 86H268.417ZM140.535 105.111C140.763 105.111 140.984 105.075 141.198 105.002C141.416 104.929 141.61 104.826 141.779 104.694C141.947 104.567 142.082 104.416 142.182 104.243C142.287 104.065 142.342 103.874 142.346 103.669H143.542C143.538 103.997 143.451 104.312 143.283 104.612C143.119 104.909 142.898 105.168 142.62 105.392C142.342 105.619 142.023 105.802 141.663 105.938C141.303 106.071 140.927 106.137 140.535 106.137C139.974 106.137 139.484 106.036 139.065 105.836C138.646 105.635 138.297 105.364 138.019 105.022C137.736 104.685 137.525 104.296 137.383 103.854C137.242 103.407 137.171 102.938 137.171 102.445V102.158C137.171 101.671 137.242 101.203 137.383 100.757C137.525 100.31 137.736 99.916 138.019 99.5742C138.297 99.237 138.646 98.9681 139.065 98.7676C139.484 98.5671 139.974 98.4668 140.535 98.4668C140.972 98.4668 141.373 98.5374 141.738 98.6787C142.107 98.8154 142.426 99.0023 142.695 99.2393C142.959 99.4808 143.166 99.7656 143.317 100.094C143.467 100.422 143.542 100.773 143.542 101.146H142.346C142.342 100.923 142.291 100.714 142.196 100.518C142.105 100.317 141.979 100.142 141.82 99.9912C141.66 99.8408 141.469 99.7223 141.246 99.6357C141.027 99.5492 140.79 99.5059 140.535 99.5059C140.143 99.5059 139.812 99.5856 139.543 99.7451C139.279 99.9001 139.065 100.103 138.901 100.354C138.737 100.609 138.618 100.894 138.545 101.208C138.477 101.522 138.443 101.839 138.443 102.158V102.445C138.443 102.769 138.477 103.09 138.545 103.409C138.618 103.724 138.737 104.006 138.901 104.257C139.06 104.512 139.272 104.719 139.537 104.879C139.805 105.034 140.138 105.111 140.535 105.111ZM147.336 99.7041C147.436 99.5537 147.548 99.417 147.671 99.2939C147.794 99.1663 147.924 99.0547 148.061 98.959C148.279 98.7995 148.519 98.6787 148.779 98.5967C149.043 98.5146 149.323 98.4714 149.619 98.4668C150.007 98.4668 150.358 98.5238 150.672 98.6377C150.991 98.7471 151.262 98.9202 151.486 99.1572C151.709 99.3942 151.88 99.695 151.998 100.06C152.121 100.42 152.183 100.848 152.183 101.345V106H150.918V101.331C150.918 101.039 150.884 100.784 150.816 100.565C150.747 100.342 150.647 100.158 150.515 100.012C150.374 99.8522 150.196 99.7337 149.982 99.6562C149.767 99.5742 149.521 99.5355 149.243 99.54C149.015 99.54 148.799 99.5719 148.594 99.6357C148.389 99.6995 148.2 99.7907 148.027 99.9092C147.89 100 147.762 100.107 147.644 100.23C147.53 100.349 147.427 100.481 147.336 100.627V106H146.071V95.5H147.336V99.7041ZM159.62 106C159.57 105.904 159.529 105.786 159.497 105.645C159.47 105.499 159.449 105.348 159.435 105.193C159.308 105.321 159.164 105.442 159.005 105.556C158.85 105.67 158.679 105.77 158.492 105.856C158.301 105.943 158.098 106.011 157.884 106.062C157.67 106.112 157.442 106.137 157.2 106.137C156.808 106.137 156.453 106.08 156.134 105.966C155.819 105.852 155.553 105.697 155.334 105.501C155.111 105.31 154.937 105.082 154.814 104.817C154.696 104.549 154.637 104.259 154.637 103.949C154.637 103.544 154.716 103.188 154.876 102.883C155.04 102.577 155.27 102.322 155.566 102.117C155.863 101.917 156.218 101.766 156.633 101.666C157.052 101.566 157.519 101.516 158.034 101.516H159.415V100.935C159.415 100.711 159.374 100.511 159.292 100.333C159.21 100.155 159.094 100.003 158.943 99.875C158.793 99.752 158.608 99.6562 158.39 99.5879C158.175 99.5195 157.934 99.4854 157.665 99.4854C157.414 99.4854 157.189 99.5173 156.988 99.5811C156.792 99.6449 156.626 99.7292 156.489 99.834C156.352 99.9388 156.245 100.064 156.168 100.21C156.095 100.351 156.059 100.499 156.059 100.654H154.787C154.792 100.385 154.86 100.121 154.992 99.8613C155.129 99.6016 155.325 99.3669 155.58 99.1572C155.831 98.9521 156.136 98.7858 156.496 98.6582C156.861 98.5306 157.273 98.4668 157.733 98.4668C158.153 98.4668 158.542 98.5192 158.902 98.624C159.262 98.7243 159.574 98.877 159.839 99.082C160.099 99.2917 160.304 99.5514 160.454 99.8613C160.604 100.171 160.68 100.534 160.68 100.948V104.387C160.68 104.633 160.702 104.895 160.748 105.173C160.794 105.446 160.857 105.686 160.939 105.891V106H159.62ZM157.385 105.036C157.631 105.036 157.861 105.004 158.075 104.94C158.289 104.877 158.485 104.792 158.663 104.688C158.836 104.583 158.987 104.464 159.114 104.332C159.242 104.195 159.342 104.054 159.415 103.908V102.411H158.239C157.802 102.411 157.419 102.45 157.091 102.527C156.767 102.6 156.51 102.714 156.318 102.869C156.182 102.979 156.077 103.108 156.004 103.259C155.935 103.409 155.901 103.58 155.901 103.771C155.901 103.954 155.931 104.122 155.99 104.277C156.054 104.432 156.147 104.564 156.27 104.674C156.393 104.788 156.548 104.877 156.735 104.94C156.922 105.004 157.139 105.036 157.385 105.036ZM163.448 106V98.6035H164.583L164.672 99.6973C164.781 99.5423 164.899 99.401 165.027 99.2734C165.159 99.1413 165.298 99.0273 165.444 98.9316C165.663 98.7858 165.9 98.6742 166.155 98.5967C166.415 98.5146 166.688 98.4714 166.975 98.4668C167.363 98.4668 167.714 98.5215 168.028 98.6309C168.347 98.7402 168.618 98.9111 168.841 99.1436C169.065 99.376 169.236 99.6722 169.354 100.032C169.477 100.388 169.539 100.812 169.539 101.304V106H168.274V101.331C168.274 101.003 168.238 100.725 168.165 100.497C168.092 100.269 167.985 100.085 167.843 99.9434C167.698 99.8021 167.52 99.6995 167.31 99.6357C167.105 99.5719 166.868 99.54 166.599 99.54C166.367 99.54 166.15 99.5742 165.95 99.6426C165.749 99.7064 165.565 99.7952 165.396 99.9092C165.259 100.009 165.132 100.126 165.013 100.258C164.899 100.39 164.799 100.536 164.713 100.695V106H163.448ZM172.136 106V98.6035H173.271L173.36 99.6973C173.469 99.5423 173.588 99.401 173.715 99.2734C173.847 99.1413 173.986 99.0273 174.132 98.9316C174.351 98.7858 174.588 98.6742 174.843 98.5967C175.103 98.5146 175.376 98.4714 175.663 98.4668C176.051 98.4668 176.402 98.5215 176.716 98.6309C177.035 98.7402 177.306 98.9111 177.53 99.1436C177.753 99.376 177.924 99.6722 178.042 100.032C178.165 100.388 178.227 100.812 178.227 101.304V106H176.962V101.331C176.962 101.003 176.926 100.725 176.853 100.497C176.78 100.269 176.673 100.085 176.532 99.9434C176.386 99.8021 176.208 99.6995 175.998 99.6357C175.793 99.5719 175.556 99.54 175.287 99.54C175.055 99.54 174.839 99.5742 174.638 99.6426C174.438 99.7064 174.253 99.7952 174.084 99.9092C173.948 100.009 173.82 100.126 173.702 100.258C173.588 100.39 173.487 100.536 173.401 100.695V106H172.136ZM184.092 106.137C183.572 106.137 183.094 106.048 182.656 105.87C182.223 105.692 181.852 105.444 181.542 105.125C181.232 104.806 180.991 104.428 180.817 103.99C180.644 103.553 180.558 103.076 180.558 102.562V102.274C180.558 101.677 180.653 101.144 180.845 100.675C181.036 100.201 181.291 99.7998 181.61 99.4717C181.925 99.1481 182.283 98.8997 182.684 98.7266C183.089 98.5534 183.504 98.4668 183.928 98.4668C184.461 98.4668 184.926 98.5602 185.322 98.7471C185.723 98.9294 186.056 99.1823 186.32 99.5059C186.585 99.834 186.781 100.219 186.908 100.661C187.04 101.103 187.107 101.582 187.107 102.097V102.664H181.822V102.712C181.854 103.072 181.925 103.389 182.034 103.662C182.148 103.936 182.303 104.177 182.499 104.387C182.7 104.61 182.941 104.785 183.224 104.913C183.506 105.041 183.818 105.104 184.16 105.104C184.611 105.104 185.012 105.013 185.363 104.831C185.714 104.649 186.006 104.407 186.238 104.106L187.011 104.708C186.765 105.082 186.396 105.414 185.903 105.706C185.416 105.993 184.812 106.137 184.092 106.137ZM183.928 99.5059C183.673 99.5059 183.431 99.5537 183.203 99.6494C182.975 99.7406 182.77 99.875 182.588 100.053C182.406 100.235 182.251 100.458 182.123 100.723C182 100.982 181.913 101.283 181.863 101.625H185.842V101.563C185.842 101.336 185.799 101.092 185.712 100.832C185.625 100.568 185.505 100.34 185.35 100.148C185.195 99.957 184.999 99.8021 184.762 99.6836C184.529 99.5651 184.251 99.5059 183.928 99.5059ZM189.711 95.5H193.491V104.906H195.904V106H189.711V104.906H192.226V96.6006H189.711V95.5ZM203.116 104.038C203.116 103.888 203.086 103.753 203.027 103.635C202.968 103.512 202.867 103.4 202.726 103.3C202.585 103.2 202.398 103.108 202.166 103.026C201.933 102.94 201.644 102.862 201.297 102.794C200.874 102.707 200.486 102.603 200.135 102.479C199.789 102.356 199.493 102.208 199.247 102.035C198.996 101.867 198.802 101.668 198.666 101.44C198.529 101.208 198.46 100.939 198.46 100.634C198.46 100.333 198.531 100.053 198.672 99.793C198.814 99.5286 199.012 99.2985 199.267 99.1025C199.522 98.9066 199.825 98.7516 200.176 98.6377C200.532 98.5238 200.921 98.4668 201.345 98.4668C201.801 98.4668 202.211 98.526 202.576 98.6445C202.94 98.763 203.25 98.9271 203.505 99.1367C203.761 99.3464 203.957 99.5924 204.093 99.875C204.235 100.153 204.305 100.454 204.305 100.777H203.041C203.041 100.618 203 100.463 202.917 100.312C202.835 100.158 202.722 100.021 202.576 99.9023C202.43 99.7839 202.252 99.6882 202.042 99.6152C201.837 99.5423 201.605 99.5059 201.345 99.5059C201.076 99.5059 200.839 99.5355 200.634 99.5947C200.434 99.654 200.267 99.7337 200.135 99.834C199.999 99.9342 199.896 100.05 199.828 100.183C199.759 100.315 199.725 100.451 199.725 100.593C199.725 100.739 199.752 100.868 199.807 100.982C199.862 101.096 199.958 101.199 200.094 101.29C200.226 101.381 200.404 101.463 200.627 101.536C200.855 101.609 201.142 101.68 201.489 101.748C201.945 101.844 202.352 101.955 202.712 102.083C203.072 102.206 203.376 102.354 203.622 102.527C203.868 102.705 204.055 102.91 204.182 103.143C204.314 103.375 204.38 103.644 204.38 103.949C204.38 104.277 204.305 104.576 204.155 104.845C204.009 105.114 203.804 105.344 203.54 105.535C203.275 105.727 202.959 105.875 202.589 105.979C202.22 106.084 201.817 106.137 201.379 106.137C200.878 106.137 200.431 106.071 200.04 105.938C199.648 105.802 199.317 105.622 199.048 105.398C198.775 105.18 198.565 104.924 198.419 104.633C198.278 104.341 198.208 104.038 198.208 103.724H199.472C199.49 103.983 199.559 104.202 199.677 104.38C199.8 104.558 199.953 104.701 200.135 104.811C200.313 104.92 200.511 104.997 200.73 105.043C200.949 105.089 201.165 105.111 201.379 105.111C201.717 105.111 202.011 105.073 202.261 104.995C202.512 104.913 202.708 104.801 202.849 104.66C202.936 104.574 203.002 104.478 203.047 104.373C203.093 104.268 203.116 104.157 203.116 104.038ZM216.288 106L214.716 98.6035H215.837L216.698 103.32L216.849 104.38L217.033 103.32L218.216 98.6035H219.029L220.205 103.32L220.403 104.482L220.588 103.32L221.408 98.6035H222.529L220.957 106H219.959L218.804 101.468L218.612 100.319L218.428 101.468L217.286 106H216.288ZM223.91 102.233C223.91 101.7 223.987 101.206 224.142 100.75C224.297 100.29 224.521 99.891 224.812 99.5537C225.099 99.2165 225.45 98.9521 225.865 98.7607C226.28 98.5648 226.747 98.4668 227.266 98.4668C227.79 98.4668 228.26 98.5648 228.674 98.7607C229.094 98.9521 229.449 99.2165 229.741 99.5537C230.028 99.891 230.249 100.29 230.404 100.75C230.559 101.206 230.636 101.7 230.636 102.233V102.384C230.636 102.917 230.559 103.411 230.404 103.867C230.249 104.323 230.028 104.719 229.741 105.057C229.449 105.394 229.096 105.658 228.681 105.85C228.267 106.041 227.799 106.137 227.28 106.137C226.756 106.137 226.284 106.041 225.865 105.85C225.45 105.658 225.099 105.394 224.812 105.057C224.521 104.719 224.297 104.323 224.142 103.867C223.987 103.411 223.91 102.917 223.91 102.384V102.233ZM225.174 102.384C225.174 102.748 225.218 103.097 225.304 103.43C225.391 103.758 225.523 104.047 225.701 104.298C225.874 104.549 226.093 104.747 226.357 104.893C226.621 105.038 226.929 105.111 227.28 105.111C227.626 105.111 227.929 105.038 228.189 104.893C228.453 104.747 228.674 104.549 228.852 104.298C229.025 104.047 229.155 103.758 229.242 103.43C229.328 103.097 229.372 102.748 229.372 102.384V102.233C229.372 101.873 229.326 101.529 229.235 101.201C229.148 100.868 229.019 100.577 228.845 100.326C228.668 100.076 228.447 99.8773 228.182 99.7314C227.923 99.5811 227.617 99.5059 227.266 99.5059C226.915 99.5059 226.61 99.5811 226.35 99.7314C226.091 99.8773 225.874 100.076 225.701 100.326C225.523 100.577 225.391 100.868 225.304 101.201C225.218 101.529 225.174 101.873 225.174 102.233V102.384ZM237.8 98.4668C238.033 98.4668 238.274 98.4827 238.525 98.5146C238.78 98.5465 238.971 98.5898 239.099 98.6445L238.928 99.8818C238.682 99.8271 238.447 99.7884 238.224 99.7656C238.005 99.7383 237.775 99.7246 237.534 99.7246C237.224 99.7246 236.943 99.7633 236.693 99.8408C236.442 99.9137 236.223 100.023 236.037 100.169C235.868 100.297 235.72 100.454 235.592 100.641C235.469 100.823 235.367 101.028 235.285 101.256V106H234.013V98.6035H235.216L235.271 99.5947L235.278 99.7793C235.579 99.3737 235.939 99.0547 236.358 98.8223C236.782 98.5853 237.262 98.4668 237.8 98.4668ZM243.857 102.548L242.927 103.443V106H241.655V95.5H242.927V101.926L243.754 101.037L246.181 98.6035H247.719L244.725 101.687L248.177 106H246.57L243.857 102.548ZM252.634 103.197C252.638 102.869 252.652 102.6 252.675 102.391C252.697 102.176 252.745 101.985 252.818 101.816C252.891 101.652 252.996 101.495 253.133 101.345C253.269 101.19 253.452 101.007 253.68 100.798C253.834 100.638 253.992 100.474 254.151 100.306C254.315 100.137 254.466 99.9593 254.602 99.7725C254.735 99.5902 254.844 99.3965 254.931 99.1914C255.017 98.9863 255.06 98.7699 255.06 98.542C255.06 98.305 255.026 98.0954 254.958 97.9131C254.894 97.7262 254.798 97.569 254.671 97.4414C254.529 97.3001 254.352 97.193 254.138 97.1201C253.923 97.0472 253.677 97.0107 253.399 97.0107C253.185 97.0107 252.975 97.0381 252.77 97.0928C252.57 97.1429 252.392 97.2227 252.237 97.332C252.078 97.446 251.95 97.5895 251.854 97.7627C251.759 97.9313 251.711 98.1341 251.711 98.3711H250.446C250.451 97.9883 250.53 97.6442 250.685 97.3389C250.84 97.0335 251.05 96.7738 251.314 96.5596C251.574 96.3499 251.882 96.1904 252.237 96.0811C252.597 95.9671 252.985 95.9102 253.399 95.9102C253.86 95.9102 254.27 95.9694 254.63 96.0879C254.994 96.2018 255.302 96.3704 255.553 96.5938C255.803 96.8171 255.995 97.0882 256.127 97.4072C256.259 97.7262 256.325 98.0908 256.325 98.501C256.325 98.8291 256.268 99.139 256.154 99.4307C256.04 99.7178 255.894 99.9889 255.717 100.244C255.539 100.504 255.338 100.745 255.115 100.969C254.896 101.192 254.68 101.399 254.466 101.591C254.329 101.723 254.222 101.848 254.144 101.967C254.071 102.085 254.017 102.206 253.98 102.329C253.944 102.452 253.921 102.584 253.912 102.726C253.903 102.862 253.898 103.02 253.898 103.197H252.634ZM252.49 105.337C252.49 105.118 252.554 104.936 252.681 104.79C252.814 104.644 253.01 104.571 253.269 104.571C253.529 104.571 253.725 104.644 253.857 104.79C253.994 104.936 254.062 105.118 254.062 105.337C254.062 105.547 253.994 105.722 253.857 105.863C253.725 106.005 253.529 106.075 253.269 106.075C253.01 106.075 252.814 106.005 252.681 105.863C252.554 105.722 252.49 105.547 252.49 105.337Z" fill="white"/>
<path d="M65.4238 106H64.1387L60.2764 98.5625L60.2559 106H58.9775V96.0469H60.2627L64.125 103.471L64.1455 96.0469H65.4238V106ZM71.1452 106.137C70.6257 106.137 70.1472 106.048 69.7097 105.87C69.2767 105.692 68.9053 105.444 68.5954 105.125C68.2855 104.806 68.044 104.428 67.8708 103.99C67.6976 103.553 67.6111 103.076 67.6111 102.562V102.274C67.6111 101.677 67.7068 101.144 67.8982 100.675C68.0896 100.201 68.3448 99.7998 68.6638 99.4717C68.9782 99.1481 69.336 98.8997 69.737 98.7266C70.1426 98.5534 70.5573 98.4668 70.9812 98.4668C71.5144 98.4668 71.9792 98.5602 72.3757 98.7471C72.7767 98.9294 73.1094 99.1823 73.3737 99.5059C73.6381 99.834 73.834 100.219 73.9616 100.661C74.0938 101.103 74.1599 101.582 74.1599 102.097V102.664H68.8757V102.712C68.9076 103.072 68.9782 103.389 69.0876 103.662C69.2015 103.936 69.3565 104.177 69.5525 104.387C69.753 104.61 69.9945 104.785 70.2771 104.913C70.5596 105.041 70.8718 105.104 71.2136 105.104C71.6648 105.104 72.0658 105.013 72.4167 104.831C72.7676 104.649 73.0593 104.407 73.2917 104.106L74.0642 104.708C73.8181 105.082 73.4489 105.414 72.9568 105.706C72.4691 105.993 71.8653 106.137 71.1452 106.137ZM70.9812 99.5059C70.726 99.5059 70.4844 99.5537 70.2566 99.6494C70.0287 99.7406 69.8236 99.875 69.6413 100.053C69.459 100.235 69.3041 100.458 69.1765 100.723C69.0534 100.982 68.9668 101.283 68.9167 101.625H72.8952V101.563C72.8952 101.336 72.8519 101.092 72.7654 100.832C72.6788 100.568 72.558 100.34 72.403 100.148C72.2481 99.957 72.0521 99.8021 71.8152 99.6836C71.5827 99.5651 71.3047 99.5059 70.9812 99.5059ZM79.6215 101.345L81.5971 98.6035H83.0805L80.3256 102.261L83.1557 106H81.6928L79.6489 103.184L77.6049 106H76.1284L78.9584 102.261L76.2036 98.6035H77.6664L79.6215 101.345ZM88.2482 96.8125V98.6035H91.0646V99.5811H88.2482V103.601C88.2482 103.888 88.2847 104.125 88.3576 104.312C88.4305 104.498 88.5308 104.646 88.6584 104.756C88.786 104.87 88.9318 104.95 89.0959 104.995C89.2645 105.041 89.4422 105.063 89.6291 105.063C89.7658 105.063 89.9071 105.057 90.0529 105.043C90.1987 105.025 90.3423 105.004 90.4836 104.981C90.6203 104.959 90.7479 104.936 90.8664 104.913C90.9894 104.886 91.0897 104.863 91.1671 104.845L91.3449 105.74C91.2401 105.804 91.1125 105.861 90.9621 105.911C90.8117 105.957 90.6476 105.995 90.4699 106.027C90.2921 106.064 90.103 106.091 89.9025 106.109C89.7065 106.128 89.5106 106.137 89.3146 106.137C88.9865 106.137 88.6789 106.091 88.3918 106C88.1092 105.904 87.8631 105.754 87.6535 105.549C87.4438 105.348 87.2775 105.089 87.1545 104.77C87.036 104.446 86.9767 104.056 86.9767 103.601V99.5811H85.0353V98.6035H86.9767V96.8125H88.2482ZM95.829 106V99.5811H93.7919V98.6035H95.829V98.084C95.829 97.61 95.8973 97.1953 96.0341 96.8398C96.1753 96.4798 96.3736 96.179 96.6288 95.9375C96.8794 95.696 97.1825 95.5137 97.538 95.3906C97.8934 95.2676 98.2899 95.2061 98.7274 95.2061C98.9097 95.2061 99.0897 95.2174 99.2675 95.2402C99.4452 95.2585 99.6206 95.2835 99.7938 95.3154C99.9078 95.3382 100.022 95.3633 100.136 95.3906C100.25 95.4134 100.366 95.4408 100.484 95.4727L100.334 96.5186C100.147 96.4548 99.9283 96.4001 99.6776 96.3545C99.4315 96.3044 99.1672 96.2793 98.8846 96.2793C98.5975 96.2793 98.3423 96.3158 98.119 96.3887C97.9003 96.457 97.718 96.5618 97.5721 96.7031C97.4172 96.849 97.2987 97.0381 97.2167 97.2705C97.1392 97.5029 97.1005 97.7741 97.1005 98.084V98.6035H99.9511V99.5811H97.1005V106H95.829ZM102.829 95.5H106.609V104.906H109.022V106H102.829V104.906H105.344V96.6006H102.829V95.5ZM110.963 102.233C110.963 101.7 111.041 101.206 111.196 100.75C111.351 100.29 111.574 99.891 111.866 99.5537C112.153 99.2165 112.504 98.9521 112.918 98.7607C113.333 98.5648 113.8 98.4668 114.32 98.4668C114.844 98.4668 115.313 98.5648 115.728 98.7607C116.147 98.9521 116.503 99.2165 116.794 99.5537C117.081 99.891 117.302 100.29 117.457 100.75C117.612 101.206 117.69 101.7 117.69 102.233V102.384C117.69 102.917 117.612 103.411 117.457 103.867C117.302 104.323 117.081 104.719 116.794 105.057C116.503 105.394 116.149 105.658 115.735 105.85C115.32 106.041 114.853 106.137 114.333 106.137C113.809 106.137 113.338 106.041 112.918 105.85C112.504 105.658 112.153 105.394 111.866 105.057C111.574 104.719 111.351 104.323 111.196 103.867C111.041 103.411 110.963 102.917 110.963 102.384V102.233ZM112.228 102.384C112.228 102.748 112.271 103.097 112.358 103.43C112.444 103.758 112.576 104.047 112.754 104.298C112.927 104.549 113.146 104.747 113.41 104.893C113.675 105.038 113.982 105.111 114.333 105.111C114.68 105.111 114.983 105.038 115.243 104.893C115.507 104.747 115.728 104.549 115.906 104.298C116.079 104.047 116.209 103.758 116.295 103.43C116.382 103.097 116.425 102.748 116.425 102.384V102.233C116.425 101.873 116.38 101.529 116.288 101.201C116.202 100.868 116.072 100.577 115.899 100.326C115.721 100.076 115.5 99.8773 115.236 99.7314C114.976 99.5811 114.671 99.5059 114.32 99.5059C113.969 99.5059 113.663 99.5811 113.404 99.7314C113.144 99.8773 112.927 100.076 112.754 100.326C112.576 100.577 112.444 100.868 112.358 101.201C112.271 101.529 112.228 101.873 112.228 102.233V102.384ZM120.718 106L119.146 98.6035H120.267L121.128 103.32L121.278 104.38L121.463 103.32L122.646 98.6035H123.459L124.635 103.32L124.833 104.482L125.018 103.32L125.838 98.6035H126.959L125.387 106H124.389L123.233 101.468L123.042 100.319L122.857 101.468L121.716 106H120.718Z" fill="#0DC09D"/>
<rect x="74" y="155" width="298.5" height="50" rx="11" fill="#160F26"/>
<path d="M98.875 178.026L100.75 170.789L102.625 178.026L109.5 180L102.625 182.632L100.75 189.21L98.875 182.632L92 180L98.875 178.026Z" stroke="white" stroke-width="0.5" stroke-linejoin="round"/>
<path d="M106.704 173.585L107.197 175.395L107.691 173.585L109.5 173.092L107.691 172.434L107.197 170.789L106.704 172.434L104.895 173.092L106.704 173.585Z" fill="white"/>
<path d="M127.136 172.006C127.076 172.466 126.958 172.89 126.78 173.277C126.603 173.66 126.372 173.988 126.09 174.262C125.803 174.54 125.463 174.756 125.071 174.911C124.684 175.062 124.251 175.137 123.772 175.137C123.362 175.137 122.989 175.08 122.651 174.966C122.319 174.847 122.022 174.686 121.763 174.48C121.498 174.275 121.271 174.034 121.079 173.756C120.892 173.478 120.737 173.175 120.614 172.847C120.487 172.519 120.391 172.174 120.327 171.814C120.268 171.454 120.236 171.09 120.231 170.721V169.333C120.236 168.964 120.268 168.599 120.327 168.239C120.391 167.879 120.487 167.535 120.614 167.207C120.737 166.879 120.892 166.576 121.079 166.298C121.271 166.015 121.498 165.771 121.763 165.566C122.022 165.361 122.319 165.202 122.651 165.088C122.984 164.969 123.358 164.91 123.772 164.91C124.269 164.91 124.714 164.988 125.105 165.143C125.497 165.293 125.835 165.507 126.117 165.785C126.4 166.068 126.625 166.405 126.794 166.797C126.967 167.189 127.081 167.622 127.136 168.096H125.871C125.83 167.795 125.759 167.515 125.659 167.255C125.559 166.995 125.424 166.767 125.256 166.571C125.087 166.375 124.88 166.223 124.634 166.113C124.392 165.999 124.105 165.942 123.772 165.942C123.472 165.942 123.205 165.993 122.973 166.093C122.745 166.188 122.549 166.321 122.385 166.489C122.216 166.658 122.075 166.854 121.961 167.077C121.852 167.3 121.763 167.537 121.694 167.788C121.626 168.039 121.576 168.296 121.544 168.561C121.517 168.82 121.503 169.073 121.503 169.319V170.721C121.503 170.967 121.517 171.222 121.544 171.486C121.576 171.746 121.626 172.001 121.694 172.252C121.763 172.507 121.852 172.746 121.961 172.97C122.07 173.193 122.209 173.389 122.378 173.558C122.547 173.731 122.745 173.868 122.973 173.968C123.201 174.063 123.467 174.111 123.772 174.111C124.105 174.111 124.392 174.059 124.634 173.954C124.88 173.849 125.087 173.701 125.256 173.51C125.424 173.323 125.559 173.102 125.659 172.847C125.759 172.587 125.83 172.307 125.871 172.006H127.136ZM132.645 175.137C132.126 175.137 131.647 175.048 131.21 174.87C130.777 174.692 130.405 174.444 130.095 174.125C129.786 173.806 129.544 173.428 129.371 172.99C129.198 172.553 129.111 172.076 129.111 171.562V171.274C129.111 170.677 129.207 170.144 129.398 169.675C129.59 169.201 129.845 168.8 130.164 168.472C130.478 168.148 130.836 167.9 131.237 167.727C131.643 167.553 132.057 167.467 132.481 167.467C133.014 167.467 133.479 167.56 133.876 167.747C134.277 167.929 134.609 168.182 134.874 168.506C135.138 168.834 135.334 169.219 135.462 169.661C135.594 170.103 135.66 170.582 135.66 171.097V171.664H130.376V171.712C130.408 172.072 130.478 172.389 130.588 172.662C130.702 172.936 130.856 173.177 131.052 173.387C131.253 173.61 131.495 173.785 131.777 173.913C132.06 174.041 132.372 174.104 132.714 174.104C133.165 174.104 133.566 174.013 133.917 173.831C134.268 173.649 134.559 173.407 134.792 173.106L135.564 173.708C135.318 174.082 134.949 174.414 134.457 174.706C133.969 174.993 133.365 175.137 132.645 175.137ZM132.481 168.506C132.226 168.506 131.984 168.554 131.757 168.649C131.529 168.741 131.324 168.875 131.141 169.053C130.959 169.235 130.804 169.458 130.676 169.723C130.553 169.982 130.467 170.283 130.417 170.625H134.395V170.563C134.395 170.336 134.352 170.092 134.265 169.832C134.179 169.568 134.058 169.34 133.903 169.148C133.748 168.957 133.552 168.802 133.315 168.684C133.083 168.565 132.805 168.506 132.481 168.506ZM142.913 167.467C143.145 167.467 143.386 167.483 143.637 167.515C143.892 167.547 144.084 167.59 144.211 167.645L144.04 168.882C143.794 168.827 143.56 168.788 143.336 168.766C143.118 168.738 142.887 168.725 142.646 168.725C142.336 168.725 142.056 168.763 141.805 168.841C141.554 168.914 141.336 169.023 141.149 169.169C140.98 169.297 140.832 169.454 140.705 169.641C140.581 169.823 140.479 170.028 140.397 170.256V175H139.125V167.604H140.329L140.383 168.595L140.39 168.779C140.691 168.374 141.051 168.055 141.47 167.822C141.894 167.585 142.375 167.467 142.913 167.467ZM149.748 165.812V167.604H152.565V168.581H149.748V172.601C149.748 172.888 149.785 173.125 149.858 173.312C149.93 173.498 150.031 173.646 150.158 173.756C150.286 173.87 150.432 173.95 150.596 173.995C150.764 174.041 150.942 174.063 151.129 174.063C151.266 174.063 151.407 174.057 151.553 174.043C151.699 174.025 151.842 174.004 151.984 173.981C152.12 173.959 152.248 173.936 152.366 173.913C152.489 173.886 152.59 173.863 152.667 173.845L152.845 174.74C152.74 174.804 152.612 174.861 152.462 174.911C152.312 174.957 152.148 174.995 151.97 175.027C151.792 175.064 151.603 175.091 151.403 175.109C151.207 175.128 151.011 175.137 150.815 175.137C150.486 175.137 150.179 175.091 149.892 175C149.609 174.904 149.363 174.754 149.153 174.549C148.944 174.348 148.778 174.089 148.654 173.77C148.536 173.446 148.477 173.056 148.477 172.601V168.581H146.535V167.604H148.477V165.812H149.748ZM160.303 175C160.252 174.904 160.211 174.786 160.18 174.645C160.152 174.499 160.132 174.348 160.118 174.193C159.99 174.321 159.847 174.442 159.687 174.556C159.532 174.67 159.362 174.77 159.175 174.856C158.983 174.943 158.78 175.011 158.566 175.062C158.352 175.112 158.124 175.137 157.883 175.137C157.491 175.137 157.135 175.08 156.816 174.966C156.502 174.852 156.235 174.697 156.016 174.501C155.793 174.31 155.62 174.082 155.497 173.817C155.378 173.549 155.319 173.259 155.319 172.949C155.319 172.544 155.399 172.188 155.558 171.883C155.723 171.577 155.953 171.322 156.249 171.117C156.545 170.917 156.901 170.766 157.315 170.666C157.735 170.566 158.202 170.516 158.717 170.516H160.098V169.935C160.098 169.711 160.057 169.511 159.974 169.333C159.892 169.155 159.776 169.003 159.626 168.875C159.475 168.752 159.291 168.656 159.072 168.588C158.858 168.52 158.616 168.485 158.348 168.485C158.097 168.485 157.871 168.517 157.671 168.581C157.475 168.645 157.308 168.729 157.172 168.834C157.035 168.939 156.928 169.064 156.85 169.21C156.778 169.351 156.741 169.499 156.741 169.654H155.47C155.474 169.385 155.543 169.121 155.675 168.861C155.811 168.602 156.007 168.367 156.263 168.157C156.513 167.952 156.819 167.786 157.179 167.658C157.543 167.531 157.956 167.467 158.416 167.467C158.835 167.467 159.225 167.519 159.585 167.624C159.945 167.724 160.257 167.877 160.521 168.082C160.781 168.292 160.986 168.551 161.137 168.861C161.287 169.171 161.362 169.534 161.362 169.948V173.387C161.362 173.633 161.385 173.895 161.431 174.173C161.476 174.446 161.54 174.686 161.622 174.891V175H160.303ZM158.067 174.036C158.313 174.036 158.544 174.004 158.758 173.94C158.972 173.877 159.168 173.792 159.346 173.688C159.519 173.583 159.669 173.464 159.797 173.332C159.924 173.195 160.025 173.054 160.098 172.908V171.411H158.922C158.484 171.411 158.101 171.45 157.773 171.527C157.45 171.6 157.192 171.714 157.001 171.869C156.864 171.979 156.759 172.108 156.686 172.259C156.618 172.409 156.584 172.58 156.584 172.771C156.584 172.954 156.613 173.122 156.673 173.277C156.737 173.432 156.83 173.564 156.953 173.674C157.076 173.788 157.231 173.877 157.418 173.94C157.605 174.004 157.821 174.036 158.067 174.036ZM164.329 167.604H168.109V173.906H170.522V175H164.329V173.906H166.844V168.704H164.329V167.604ZM166.68 165.662C166.68 165.553 166.696 165.45 166.728 165.354C166.765 165.259 166.819 165.177 166.892 165.108C166.951 165.049 167.027 165.004 167.118 164.972C167.213 164.935 167.321 164.917 167.439 164.917C167.558 164.917 167.662 164.935 167.754 164.972C167.845 165.004 167.92 165.049 167.979 165.108C168.052 165.172 168.107 165.252 168.143 165.348C168.18 165.443 168.198 165.548 168.198 165.662C168.198 165.867 168.134 166.038 168.006 166.175C167.879 166.312 167.69 166.38 167.439 166.38C167.184 166.38 166.992 166.312 166.865 166.175C166.742 166.038 166.68 165.867 166.68 165.662ZM172.819 175V167.604H173.953L174.042 168.697C174.152 168.542 174.27 168.401 174.398 168.273C174.53 168.141 174.669 168.027 174.815 167.932C175.034 167.786 175.27 167.674 175.526 167.597C175.785 167.515 176.059 167.471 176.346 167.467C176.733 167.467 177.084 167.521 177.399 167.631C177.718 167.74 177.989 167.911 178.212 168.144C178.436 168.376 178.606 168.672 178.725 169.032C178.848 169.388 178.909 169.812 178.909 170.304V175H177.645V170.331C177.645 170.003 177.608 169.725 177.535 169.497C177.463 169.269 177.355 169.085 177.214 168.943C177.068 168.802 176.891 168.7 176.681 168.636C176.476 168.572 176.239 168.54 175.97 168.54C175.738 168.54 175.521 168.574 175.321 168.643C175.12 168.706 174.936 168.795 174.767 168.909C174.63 169.009 174.503 169.126 174.384 169.258C174.27 169.39 174.17 169.536 174.083 169.695V175H172.819ZM181.705 164.5H185.485V173.906H187.898V175H181.705V173.906H184.221V165.601H181.705V164.5ZM190.79 177.987C190.671 177.987 190.532 177.974 190.373 177.946C190.213 177.919 190.093 177.896 190.011 177.878L190.216 176.846C190.33 176.855 190.441 176.862 190.551 176.866C190.664 176.875 190.753 176.88 190.817 176.88C190.99 176.88 191.148 176.832 191.289 176.736C191.435 176.641 191.565 176.527 191.678 176.395C191.788 176.262 191.881 176.126 191.959 175.984C192.041 175.843 192.105 175.727 192.15 175.636L192.656 174.651L189.47 167.604H190.886L192.916 172.375L193.244 173.271L193.593 172.402L195.5 167.604H196.915L193.162 176.142C193.075 176.333 192.964 176.536 192.827 176.75C192.695 176.964 192.533 177.162 192.342 177.345C192.15 177.527 191.927 177.68 191.672 177.803C191.416 177.926 191.122 177.987 190.79 177.987ZM202.411 171.78H201.139V165.047H202.411V171.78ZM201.016 174.337C201.016 174.118 201.08 173.936 201.207 173.79C201.34 173.644 201.536 173.571 201.795 173.571C202.055 173.571 202.251 173.644 202.383 173.79C202.52 173.936 202.588 174.118 202.588 174.337C202.588 174.547 202.52 174.722 202.383 174.863C202.251 175.005 202.055 175.075 201.795 175.075C201.536 175.075 201.34 175.005 201.207 174.863C201.08 174.722 201.016 174.547 201.016 174.337ZM216.26 165.047H222.275V166.147H219.89V173.906H222.275V175H216.26V173.906H218.591V166.147H216.26V165.047ZM228.222 165.259L228.079 167.774H227.135L227.142 165.368V164.5H228.222V165.259ZM233.397 171.24C233.397 170.689 233.465 170.183 233.602 169.723C233.743 169.258 233.944 168.859 234.203 168.526C234.459 168.194 234.769 167.934 235.133 167.747C235.498 167.56 235.906 167.467 236.357 167.467C236.799 167.467 237.184 167.542 237.512 167.692C237.845 167.838 238.132 168.052 238.373 168.335V164.5H239.638V175H238.476L238.421 174.221C238.175 174.521 237.881 174.749 237.539 174.904C237.198 175.059 236.799 175.137 236.343 175.137C235.897 175.137 235.491 175.041 235.126 174.85C234.766 174.658 234.459 174.394 234.203 174.057C233.948 173.719 233.75 173.323 233.609 172.867C233.467 172.407 233.397 171.912 233.397 171.384V171.24ZM234.661 171.384C234.661 171.744 234.7 172.086 234.778 172.409C234.855 172.733 234.976 173.018 235.14 173.264C235.3 173.51 235.505 173.706 235.755 173.852C236.006 173.993 236.307 174.063 236.658 174.063C237.081 174.063 237.432 173.968 237.71 173.776C237.988 173.585 238.209 173.327 238.373 173.004V169.572C238.209 169.271 237.988 169.025 237.71 168.834C237.432 168.638 237.086 168.54 236.671 168.54C236.316 168.54 236.01 168.613 235.755 168.759C235.505 168.905 235.3 169.101 235.14 169.347C234.976 169.597 234.855 169.887 234.778 170.215C234.7 170.538 234.661 170.88 234.661 171.24V171.384ZM257.281 171.384C257.281 171.707 257.256 172.02 257.206 172.32C257.16 172.617 257.092 172.895 257.001 173.154C256.878 173.496 256.716 173.804 256.515 174.077C256.319 174.346 256.082 174.569 255.804 174.747C255.604 174.87 255.383 174.966 255.141 175.034C254.904 175.103 254.647 175.137 254.369 175.137C254.05 175.137 253.758 175.098 253.494 175.021C253.234 174.943 252.999 174.831 252.79 174.686C252.69 174.613 252.594 174.533 252.503 174.446C252.412 174.36 252.325 174.264 252.243 174.159L252.181 175H251.019V164.5H252.284V168.396C252.389 168.264 252.505 168.146 252.633 168.041C252.76 167.932 252.897 167.838 253.043 167.761C253.225 167.665 253.426 167.592 253.644 167.542C253.863 167.492 254.1 167.467 254.355 167.467C254.674 167.467 254.968 167.51 255.237 167.597C255.506 167.683 255.75 167.804 255.969 167.959C256.165 168.105 256.34 168.283 256.495 168.492C256.65 168.697 256.787 168.927 256.905 169.183C257.028 169.47 257.122 169.789 257.185 170.14C257.249 170.486 257.281 170.853 257.281 171.24V171.384ZM256.016 171.24C256.016 171.008 256 170.782 255.969 170.563C255.941 170.34 255.898 170.131 255.839 169.935C255.757 169.693 255.65 169.472 255.517 169.271C255.385 169.071 255.223 168.914 255.032 168.8C254.9 168.718 254.752 168.654 254.588 168.608C254.424 168.563 254.241 168.54 254.041 168.54C253.822 168.54 253.622 168.57 253.439 168.629C253.257 168.684 253.095 168.761 252.954 168.861C252.808 168.966 252.678 169.089 252.564 169.23C252.455 169.367 252.361 169.518 252.284 169.682V172.915C252.366 173.079 252.462 173.232 252.571 173.373C252.685 173.51 252.815 173.631 252.961 173.735C253.107 173.84 253.271 173.922 253.453 173.981C253.635 174.036 253.836 174.063 254.054 174.063C254.264 174.063 254.456 174.038 254.629 173.988C254.802 173.934 254.957 173.856 255.094 173.756C255.276 173.628 255.429 173.466 255.552 173.271C255.675 173.075 255.773 172.856 255.846 172.614C255.905 172.432 255.948 172.236 255.975 172.026C256.003 171.817 256.016 171.603 256.016 171.384V171.24ZM262.968 175.137C262.449 175.137 261.97 175.048 261.533 174.87C261.1 174.692 260.728 174.444 260.418 174.125C260.109 173.806 259.867 173.428 259.694 172.99C259.521 172.553 259.434 172.076 259.434 171.562V171.274C259.434 170.677 259.53 170.144 259.721 169.675C259.913 169.201 260.168 168.8 260.487 168.472C260.801 168.148 261.159 167.9 261.56 167.727C261.966 167.553 262.38 167.467 262.804 167.467C263.337 167.467 263.802 167.56 264.199 167.747C264.6 167.929 264.932 168.182 265.197 168.506C265.461 168.834 265.657 169.219 265.785 169.661C265.917 170.103 265.983 170.582 265.983 171.097V171.664H260.699V171.712C260.731 172.072 260.801 172.389 260.911 172.662C261.025 172.936 261.18 173.177 261.376 173.387C261.576 173.61 261.818 173.785 262.1 173.913C262.383 174.041 262.695 174.104 263.037 174.104C263.488 174.104 263.889 174.013 264.24 173.831C264.591 173.649 264.882 173.407 265.115 173.106L265.887 173.708C265.641 174.082 265.272 174.414 264.78 174.706C264.292 174.993 263.688 175.137 262.968 175.137ZM262.804 168.506C262.549 168.506 262.307 168.554 262.08 168.649C261.852 168.741 261.647 168.875 261.464 169.053C261.282 169.235 261.127 169.458 261 169.723C260.876 169.982 260.79 170.283 260.74 170.625H264.718V170.563C264.718 170.336 264.675 170.092 264.588 169.832C264.502 169.568 264.381 169.34 264.226 169.148C264.071 168.957 263.875 168.802 263.638 168.684C263.406 168.565 263.128 168.506 262.804 168.506ZM278.342 168.704C278.442 168.554 278.554 168.417 278.677 168.294C278.8 168.166 278.93 168.055 279.066 167.959C279.285 167.799 279.524 167.679 279.784 167.597C280.048 167.515 280.329 167.471 280.625 167.467C281.012 167.467 281.363 167.524 281.678 167.638C281.997 167.747 282.268 167.92 282.491 168.157C282.714 168.394 282.885 168.695 283.004 169.06C283.127 169.42 283.188 169.848 283.188 170.345V175H281.924V170.331C281.924 170.039 281.89 169.784 281.821 169.565C281.753 169.342 281.653 169.158 281.52 169.012C281.379 168.852 281.201 168.734 280.987 168.656C280.773 168.574 280.527 168.535 280.249 168.54C280.021 168.54 279.805 168.572 279.6 168.636C279.394 168.7 279.205 168.791 279.032 168.909C278.895 169 278.768 169.107 278.649 169.23C278.535 169.349 278.433 169.481 278.342 169.627V175H277.077V164.5H278.342V168.704ZM290.626 175C290.576 174.904 290.535 174.786 290.503 174.645C290.475 174.499 290.455 174.348 290.441 174.193C290.313 174.321 290.17 174.442 290.01 174.556C289.855 174.67 289.685 174.77 289.498 174.856C289.306 174.943 289.104 175.011 288.889 175.062C288.675 175.112 288.447 175.137 288.206 175.137C287.814 175.137 287.458 175.08 287.139 174.966C286.825 174.852 286.558 174.697 286.34 174.501C286.116 174.31 285.943 174.082 285.82 173.817C285.702 173.549 285.642 173.259 285.642 172.949C285.642 172.544 285.722 172.188 285.882 171.883C286.046 171.577 286.276 171.322 286.572 171.117C286.868 170.917 287.224 170.766 287.638 170.666C288.058 170.566 288.525 170.516 289.04 170.516H290.421V169.935C290.421 169.711 290.38 169.511 290.298 169.333C290.216 169.155 290.099 169.003 289.949 168.875C289.799 168.752 289.614 168.656 289.395 168.588C289.181 168.52 288.939 168.485 288.671 168.485C288.42 168.485 288.194 168.517 287.994 168.581C287.798 168.645 287.632 168.729 287.495 168.834C287.358 168.939 287.251 169.064 287.174 169.21C287.101 169.351 287.064 169.499 287.064 169.654H285.793C285.797 169.385 285.866 169.121 285.998 168.861C286.134 168.602 286.33 168.367 286.586 168.157C286.836 167.952 287.142 167.786 287.502 167.658C287.866 167.531 288.279 167.467 288.739 167.467C289.158 167.467 289.548 167.519 289.908 167.624C290.268 167.724 290.58 167.877 290.844 168.082C291.104 168.292 291.309 168.551 291.46 168.861C291.61 169.171 291.685 169.534 291.685 169.948V173.387C291.685 173.633 291.708 173.895 291.754 174.173C291.799 174.446 291.863 174.686 291.945 174.891V175H290.626ZM288.39 174.036C288.636 174.036 288.867 174.004 289.081 173.94C289.295 173.877 289.491 173.792 289.669 173.688C289.842 173.583 289.992 173.464 290.12 173.332C290.247 173.195 290.348 173.054 290.421 172.908V171.411H289.245C288.807 171.411 288.424 171.45 288.096 171.527C287.773 171.6 287.515 171.714 287.324 171.869C287.187 171.979 287.082 172.108 287.009 172.259C286.941 172.409 286.907 172.58 286.907 172.771C286.907 172.954 286.937 173.122 286.996 173.277C287.06 173.432 287.153 173.564 287.276 173.674C287.399 173.788 287.554 173.877 287.741 173.94C287.928 174.004 288.144 174.036 288.39 174.036ZM294.447 177.844V167.604H295.602L295.663 168.41C295.764 168.283 295.873 168.169 295.992 168.068C296.11 167.964 296.238 167.875 296.374 167.802C296.566 167.692 296.778 167.61 297.01 167.556C297.247 167.496 297.5 167.467 297.769 167.467C298.243 167.467 298.662 167.56 299.027 167.747C299.391 167.934 299.697 168.194 299.943 168.526C300.189 168.859 300.376 169.258 300.503 169.723C300.631 170.183 300.695 170.689 300.695 171.24V171.384C300.695 171.912 300.631 172.407 300.503 172.867C300.376 173.323 300.189 173.719 299.943 174.057C299.697 174.394 299.391 174.658 299.027 174.85C298.667 175.041 298.254 175.137 297.789 175.137C297.507 175.137 297.243 175.107 296.996 175.048C296.755 174.989 296.536 174.904 296.34 174.795C296.222 174.727 296.11 174.651 296.005 174.569C295.9 174.483 295.802 174.389 295.711 174.289V177.844H294.447ZM299.43 171.24C299.43 170.88 299.389 170.538 299.307 170.215C299.23 169.887 299.109 169.597 298.945 169.347C298.776 169.101 298.564 168.905 298.309 168.759C298.054 168.613 297.748 168.54 297.393 168.54C297.197 168.54 297.015 168.563 296.846 168.608C296.682 168.654 296.534 168.72 296.402 168.807C296.256 168.893 296.126 169 296.012 169.128C295.898 169.256 295.798 169.397 295.711 169.552V173.113C295.789 173.25 295.878 173.378 295.978 173.496C296.078 173.615 296.192 173.715 296.32 173.797C296.466 173.893 296.627 173.968 296.805 174.022C296.987 174.077 297.188 174.104 297.407 174.104C297.758 174.104 298.061 174.032 298.316 173.886C298.571 173.735 298.781 173.535 298.945 173.284C299.109 173.034 299.23 172.744 299.307 172.416C299.389 172.088 299.43 171.744 299.43 171.384V171.24ZM303.135 177.844V167.604H304.29L304.352 168.41C304.452 168.283 304.561 168.169 304.68 168.068C304.798 167.964 304.926 167.875 305.063 167.802C305.254 167.692 305.466 167.61 305.698 167.556C305.935 167.496 306.188 167.467 306.457 167.467C306.931 167.467 307.35 167.56 307.715 167.747C308.08 167.934 308.385 168.194 308.631 168.526C308.877 168.859 309.064 169.258 309.192 169.723C309.319 170.183 309.383 170.689 309.383 171.24V171.384C309.383 171.912 309.319 172.407 309.192 172.867C309.064 173.323 308.877 173.719 308.631 174.057C308.385 174.394 308.08 174.658 307.715 174.85C307.355 175.041 306.943 175.137 306.478 175.137C306.195 175.137 305.931 175.107 305.685 175.048C305.443 174.989 305.224 174.904 305.028 174.795C304.91 174.727 304.798 174.651 304.693 174.569C304.589 174.483 304.491 174.389 304.4 174.289V177.844H303.135ZM308.118 171.24C308.118 170.88 308.077 170.538 307.995 170.215C307.918 169.887 307.797 169.597 307.633 169.347C307.464 169.101 307.252 168.905 306.997 168.759C306.742 168.613 306.437 168.54 306.081 168.54C305.885 168.54 305.703 168.563 305.534 168.608C305.37 168.654 305.222 168.72 305.09 168.807C304.944 168.893 304.814 169 304.7 169.128C304.586 169.256 304.486 169.397 304.4 169.552V173.113C304.477 173.25 304.566 173.378 304.666 173.496C304.766 173.615 304.88 173.715 305.008 173.797C305.154 173.893 305.316 173.968 305.493 174.022C305.676 174.077 305.876 174.104 306.095 174.104C306.446 174.104 306.749 174.032 307.004 173.886C307.259 173.735 307.469 173.535 307.633 173.284C307.797 173.034 307.918 172.744 307.995 172.416C308.077 172.088 308.118 171.744 308.118 171.384V171.24ZM312.425 177.987C312.306 177.987 312.167 177.974 312.008 177.946C311.848 177.919 311.727 177.896 311.645 177.878L311.85 176.846C311.964 176.855 312.076 176.862 312.185 176.866C312.299 176.875 312.388 176.88 312.452 176.88C312.625 176.88 312.782 176.832 312.924 176.736C313.07 176.641 313.199 176.527 313.313 176.395C313.423 176.262 313.516 176.126 313.594 175.984C313.676 175.843 313.739 175.727 313.785 175.636L314.291 174.651L311.105 167.604H312.52L314.551 172.375L314.879 173.271L315.227 172.402L317.135 167.604H318.55L314.797 176.142C314.71 176.333 314.598 176.536 314.462 176.75C314.33 176.964 314.168 177.162 313.976 177.345C313.785 177.527 313.562 177.68 313.306 177.803C313.051 177.926 312.757 177.987 312.425 177.987ZM332.2 165.812V167.604H335.017V168.581H332.2V172.601C332.2 172.888 332.237 173.125 332.31 173.312C332.383 173.498 332.483 173.646 332.611 173.756C332.738 173.87 332.884 173.95 333.048 173.995C333.217 174.041 333.394 174.063 333.581 174.063C333.718 174.063 333.859 174.057 334.005 174.043C334.151 174.025 334.295 174.004 334.436 173.981C334.573 173.959 334.7 173.936 334.819 173.913C334.942 173.886 335.042 173.863 335.119 173.845L335.297 174.74C335.192 174.804 335.065 174.861 334.914 174.911C334.764 174.957 334.6 174.995 334.422 175.027C334.244 175.064 334.055 175.091 333.855 175.109C333.659 175.128 333.463 175.137 333.267 175.137C332.939 175.137 332.631 175.091 332.344 175C332.061 174.904 331.815 174.754 331.606 174.549C331.396 174.348 331.23 174.089 331.107 173.77C330.988 173.446 330.929 173.056 330.929 172.601V168.581H328.988V167.604H330.929V165.812H332.2ZM337.539 171.233C337.539 170.7 337.617 170.206 337.771 169.75C337.926 169.29 338.15 168.891 338.441 168.554C338.729 168.216 339.079 167.952 339.494 167.761C339.909 167.565 340.376 167.467 340.896 167.467C341.42 167.467 341.889 167.565 342.304 167.761C342.723 167.952 343.078 168.216 343.37 168.554C343.657 168.891 343.878 169.29 344.033 169.75C344.188 170.206 344.266 170.7 344.266 171.233V171.384C344.266 171.917 344.188 172.411 344.033 172.867C343.878 173.323 343.657 173.719 343.37 174.057C343.078 174.394 342.725 174.658 342.311 174.85C341.896 175.041 341.429 175.137 340.909 175.137C340.385 175.137 339.913 175.041 339.494 174.85C339.079 174.658 338.729 174.394 338.441 174.057C338.15 173.719 337.926 173.323 337.771 172.867C337.617 172.411 337.539 171.917 337.539 171.384V171.233ZM338.804 171.384C338.804 171.748 338.847 172.097 338.934 172.43C339.02 172.758 339.152 173.047 339.33 173.298C339.503 173.549 339.722 173.747 339.986 173.893C340.251 174.038 340.558 174.111 340.909 174.111C341.256 174.111 341.559 174.038 341.818 173.893C342.083 173.747 342.304 173.549 342.481 173.298C342.655 173.047 342.785 172.758 342.871 172.43C342.958 172.097 343.001 171.748 343.001 171.384V171.233C343.001 170.873 342.955 170.529 342.864 170.201C342.778 169.868 342.648 169.577 342.475 169.326C342.297 169.076 342.076 168.877 341.812 168.731C341.552 168.581 341.246 168.506 340.896 168.506C340.545 168.506 340.239 168.581 339.979 168.731C339.72 168.877 339.503 169.076 339.33 169.326C339.152 169.577 339.02 169.868 338.934 170.201C338.847 170.529 338.804 170.873 338.804 171.233V171.384ZM123.957 195.137C123.438 195.137 122.959 195.048 122.521 194.87C122.089 194.692 121.717 194.444 121.407 194.125C121.097 193.806 120.856 193.428 120.683 192.99C120.509 192.553 120.423 192.076 120.423 191.562V191.274C120.423 190.677 120.519 190.144 120.71 189.675C120.901 189.201 121.157 188.8 121.476 188.472C121.79 188.148 122.148 187.9 122.549 187.727C122.954 187.553 123.369 187.467 123.793 187.467C124.326 187.467 124.791 187.56 125.188 187.747C125.589 187.929 125.921 188.182 126.186 188.506C126.45 188.834 126.646 189.219 126.773 189.661C126.906 190.103 126.972 190.582 126.972 191.097V191.664H121.688V191.712C121.719 192.072 121.79 192.389 121.899 192.662C122.013 192.936 122.168 193.177 122.364 193.387C122.565 193.61 122.806 193.785 123.089 193.913C123.371 194.041 123.684 194.104 124.025 194.104C124.477 194.104 124.878 194.013 125.229 193.831C125.579 193.649 125.871 193.407 126.104 193.106L126.876 193.708C126.63 194.082 126.261 194.414 125.769 194.706C125.281 194.993 124.677 195.137 123.957 195.137ZM123.793 188.506C123.538 188.506 123.296 188.554 123.068 188.649C122.84 188.741 122.635 188.875 122.453 189.053C122.271 189.235 122.116 189.458 121.988 189.723C121.865 189.982 121.779 190.283 121.729 190.625H125.707V190.563C125.707 190.336 125.664 190.092 125.577 189.832C125.491 189.568 125.37 189.34 125.215 189.148C125.06 188.957 124.864 188.802 124.627 188.684C124.395 188.565 124.117 188.506 123.793 188.506ZM132.433 190.345L134.409 187.604H135.892L133.137 191.261L135.967 195H134.505L132.461 192.184L130.417 195H128.94L131.77 191.261L129.015 187.604H130.478L132.433 190.345ZM138.059 197.844V187.604H139.214L139.276 188.41C139.376 188.283 139.485 188.169 139.604 188.068C139.722 187.964 139.85 187.875 139.987 187.802C140.178 187.692 140.39 187.61 140.622 187.556C140.859 187.496 141.112 187.467 141.381 187.467C141.855 187.467 142.275 187.56 142.639 187.747C143.004 187.934 143.309 188.194 143.555 188.526C143.801 188.859 143.988 189.258 144.116 189.723C144.243 190.183 144.307 190.689 144.307 191.24V191.384C144.307 191.912 144.243 192.407 144.116 192.867C143.988 193.323 143.801 193.719 143.555 194.057C143.309 194.394 143.004 194.658 142.639 194.85C142.279 195.041 141.867 195.137 141.402 195.137C141.119 195.137 140.855 195.107 140.609 195.048C140.367 194.989 140.149 194.904 139.953 194.795C139.834 194.727 139.722 194.651 139.618 194.569C139.513 194.483 139.415 194.389 139.324 194.289V197.844H138.059ZM143.042 191.24C143.042 190.88 143.001 190.538 142.919 190.215C142.842 189.887 142.721 189.597 142.557 189.347C142.388 189.101 142.177 188.905 141.921 188.759C141.666 188.613 141.361 188.54 141.005 188.54C140.809 188.54 140.627 188.563 140.458 188.608C140.294 188.654 140.146 188.72 140.014 188.807C139.868 188.893 139.738 189 139.624 189.128C139.511 189.256 139.41 189.397 139.324 189.552V193.113C139.401 193.25 139.49 193.378 139.59 193.496C139.691 193.615 139.804 193.715 139.932 193.797C140.078 193.893 140.24 193.968 140.417 194.022C140.6 194.077 140.8 194.104 141.019 194.104C141.37 194.104 141.673 194.032 141.928 193.886C142.183 193.735 142.393 193.535 142.557 193.284C142.721 193.034 142.842 192.744 142.919 192.416C143.001 192.088 143.042 191.744 143.042 191.384V191.24ZM146.952 184.5H150.733V193.906H153.146V195H146.952V193.906H149.468V185.601H146.952V184.5ZM160.303 195C160.252 194.904 160.211 194.786 160.18 194.645C160.152 194.499 160.132 194.348 160.118 194.193C159.99 194.321 159.847 194.442 159.687 194.556C159.532 194.67 159.362 194.77 159.175 194.856C158.983 194.943 158.78 195.011 158.566 195.062C158.352 195.112 158.124 195.137 157.883 195.137C157.491 195.137 157.135 195.08 156.816 194.966C156.502 194.852 156.235 194.697 156.016 194.501C155.793 194.31 155.62 194.082 155.497 193.817C155.378 193.549 155.319 193.259 155.319 192.949C155.319 192.544 155.399 192.188 155.558 191.883C155.723 191.577 155.953 191.322 156.249 191.117C156.545 190.917 156.901 190.766 157.315 190.666C157.735 190.566 158.202 190.516 158.717 190.516H160.098V189.935C160.098 189.711 160.057 189.511 159.974 189.333C159.892 189.155 159.776 189.003 159.626 188.875C159.475 188.752 159.291 188.656 159.072 188.588C158.858 188.52 158.616 188.485 158.348 188.485C158.097 188.485 157.871 188.517 157.671 188.581C157.475 188.645 157.308 188.729 157.172 188.834C157.035 188.939 156.928 189.064 156.85 189.21C156.778 189.351 156.741 189.499 156.741 189.654H155.47C155.474 189.385 155.543 189.121 155.675 188.861C155.811 188.602 156.007 188.367 156.263 188.157C156.513 187.952 156.819 187.786 157.179 187.658C157.543 187.531 157.956 187.467 158.416 187.467C158.835 187.467 159.225 187.519 159.585 187.624C159.945 187.724 160.257 187.877 160.521 188.082C160.781 188.292 160.986 188.551 161.137 188.861C161.287 189.171 161.362 189.534 161.362 189.948V193.387C161.362 193.633 161.385 193.895 161.431 194.173C161.476 194.446 161.54 194.686 161.622 194.891V195H160.303ZM158.067 194.036C158.313 194.036 158.544 194.004 158.758 193.94C158.972 193.877 159.168 193.792 159.346 193.688C159.519 193.583 159.669 193.464 159.797 193.332C159.924 193.195 160.025 193.054 160.098 192.908V191.411H158.922C158.484 191.411 158.101 191.45 157.773 191.527C157.45 191.6 157.192 191.714 157.001 191.869C156.864 191.979 156.759 192.108 156.686 192.259C156.618 192.409 156.584 192.58 156.584 192.771C156.584 192.954 156.613 193.122 156.673 193.277C156.737 193.432 156.83 193.564 156.953 193.674C157.076 193.788 157.231 193.877 157.418 193.94C157.605 194.004 157.821 194.036 158.067 194.036ZM164.329 187.604H168.109V193.906H170.522V195H164.329V193.906H166.844V188.704H164.329V187.604ZM166.68 185.662C166.68 185.553 166.696 185.45 166.728 185.354C166.765 185.259 166.819 185.177 166.892 185.108C166.951 185.049 167.027 185.004 167.118 184.972C167.213 184.935 167.321 184.917 167.439 184.917C167.558 184.917 167.662 184.935 167.754 184.972C167.845 185.004 167.92 185.049 167.979 185.108C168.052 185.172 168.107 185.252 168.143 185.348C168.18 185.443 168.198 185.548 168.198 185.662C168.198 185.867 168.134 186.038 168.006 186.175C167.879 186.312 167.69 186.38 167.439 186.38C167.184 186.38 166.992 186.312 166.865 186.175C166.742 186.038 166.68 185.867 166.68 185.662ZM172.819 195V187.604H173.953L174.042 188.697C174.152 188.542 174.27 188.401 174.398 188.273C174.53 188.141 174.669 188.027 174.815 187.932C175.034 187.786 175.27 187.674 175.526 187.597C175.785 187.515 176.059 187.471 176.346 187.467C176.733 187.467 177.084 187.521 177.399 187.631C177.718 187.74 177.989 187.911 178.212 188.144C178.436 188.376 178.606 188.672 178.725 189.032C178.848 189.388 178.909 189.812 178.909 190.304V195H177.645V190.331C177.645 190.003 177.608 189.725 177.535 189.497C177.463 189.269 177.355 189.085 177.214 188.943C177.068 188.802 176.891 188.7 176.681 188.636C176.476 188.572 176.239 188.54 175.97 188.54C175.738 188.54 175.521 188.574 175.321 188.643C175.12 188.706 174.936 188.795 174.767 188.909C174.63 189.009 174.503 189.126 174.384 189.258C174.27 189.39 174.17 189.536 174.083 189.695V195H172.819ZM191.46 188.704C191.56 188.554 191.672 188.417 191.795 188.294C191.918 188.166 192.048 188.055 192.184 187.959C192.403 187.799 192.642 187.679 192.902 187.597C193.166 187.515 193.447 187.471 193.743 187.467C194.13 187.467 194.481 187.524 194.796 187.638C195.115 187.747 195.386 187.92 195.609 188.157C195.832 188.394 196.003 188.695 196.122 189.06C196.245 189.42 196.306 189.848 196.306 190.345V195H195.042V190.331C195.042 190.039 195.008 189.784 194.939 189.565C194.871 189.342 194.771 189.158 194.638 189.012C194.497 188.852 194.319 188.734 194.105 188.656C193.891 188.574 193.645 188.535 193.367 188.54C193.139 188.54 192.923 188.572 192.718 188.636C192.512 188.7 192.323 188.791 192.15 188.909C192.013 189 191.886 189.107 191.767 189.23C191.653 189.349 191.551 189.481 191.46 189.627V195H190.195V184.5H191.46V188.704ZM198.528 191.233C198.528 190.7 198.605 190.206 198.76 189.75C198.915 189.29 199.138 188.891 199.43 188.554C199.717 188.216 200.068 187.952 200.483 187.761C200.898 187.565 201.365 187.467 201.884 187.467C202.408 187.467 202.878 187.565 203.292 187.761C203.712 187.952 204.067 188.216 204.359 188.554C204.646 188.891 204.867 189.29 205.022 189.75C205.177 190.206 205.254 190.7 205.254 191.233V191.384C205.254 191.917 205.177 192.411 205.022 192.867C204.867 193.323 204.646 193.719 204.359 194.057C204.067 194.394 203.714 194.658 203.299 194.85C202.885 195.041 202.417 195.137 201.898 195.137C201.374 195.137 200.902 195.041 200.483 194.85C200.068 194.658 199.717 194.394 199.43 194.057C199.138 193.719 198.915 193.323 198.76 192.867C198.605 192.411 198.528 191.917 198.528 191.384V191.233ZM199.792 191.384C199.792 191.748 199.836 192.097 199.922 192.43C200.009 192.758 200.141 193.047 200.319 193.298C200.492 193.549 200.711 193.747 200.975 193.893C201.239 194.038 201.547 194.111 201.898 194.111C202.244 194.111 202.547 194.038 202.807 193.893C203.071 193.747 203.292 193.549 203.47 193.298C203.643 193.047 203.773 192.758 203.86 192.43C203.946 192.097 203.99 191.748 203.99 191.384V191.233C203.99 190.873 203.944 190.529 203.853 190.201C203.766 189.868 203.637 189.577 203.463 189.326C203.286 189.076 203.065 188.877 202.8 188.731C202.541 188.581 202.235 188.506 201.884 188.506C201.533 188.506 201.228 188.581 200.968 188.731C200.708 188.877 200.492 189.076 200.319 189.326C200.141 189.577 200.009 189.868 199.922 190.201C199.836 190.529 199.792 190.873 199.792 191.233V191.384ZM208.282 195L206.71 187.604H207.831L208.693 192.32L208.843 193.38L209.028 192.32L210.21 187.604H211.024L212.199 192.32L212.398 193.482L212.582 192.32L213.403 187.604H214.524L212.951 195H211.953L210.798 190.468L210.607 189.319L210.422 190.468L209.28 195H208.282ZM228.099 194.111C228.327 194.111 228.548 194.075 228.762 194.002C228.981 193.929 229.175 193.826 229.343 193.694C229.512 193.567 229.646 193.416 229.747 193.243C229.852 193.065 229.906 192.874 229.911 192.669H231.107C231.103 192.997 231.016 193.312 230.847 193.612C230.683 193.909 230.462 194.168 230.184 194.392C229.906 194.619 229.587 194.802 229.227 194.938C228.867 195.071 228.491 195.137 228.099 195.137C227.539 195.137 227.049 195.036 226.63 194.836C226.21 194.635 225.862 194.364 225.584 194.022C225.301 193.685 225.089 193.296 224.948 192.854C224.807 192.407 224.736 191.938 224.736 191.445V191.158C224.736 190.671 224.807 190.203 224.948 189.757C225.089 189.31 225.301 188.916 225.584 188.574C225.862 188.237 226.21 187.968 226.63 187.768C227.049 187.567 227.539 187.467 228.099 187.467C228.537 187.467 228.938 187.537 229.302 187.679C229.672 187.815 229.991 188.002 230.259 188.239C230.524 188.481 230.731 188.766 230.881 189.094C231.032 189.422 231.107 189.773 231.107 190.146H229.911C229.906 189.923 229.856 189.714 229.76 189.518C229.669 189.317 229.544 189.142 229.384 188.991C229.225 188.841 229.034 188.722 228.81 188.636C228.591 188.549 228.354 188.506 228.099 188.506C227.707 188.506 227.377 188.586 227.108 188.745C226.844 188.9 226.63 189.103 226.465 189.354C226.301 189.609 226.183 189.894 226.11 190.208C226.042 190.522 226.007 190.839 226.007 191.158V191.445C226.007 191.769 226.042 192.09 226.11 192.409C226.183 192.724 226.301 193.006 226.465 193.257C226.625 193.512 226.837 193.719 227.101 193.879C227.37 194.034 227.703 194.111 228.099 194.111ZM234.901 188.704C235.001 188.554 235.113 188.417 235.236 188.294C235.359 188.166 235.489 188.055 235.625 187.959C235.844 187.799 236.083 187.679 236.343 187.597C236.607 187.515 236.888 187.471 237.184 187.467C237.571 187.467 237.922 187.524 238.237 187.638C238.556 187.747 238.827 187.92 239.05 188.157C239.273 188.394 239.444 188.695 239.563 189.06C239.686 189.42 239.747 189.848 239.747 190.345V195H238.483V190.331C238.483 190.039 238.449 189.784 238.38 189.565C238.312 189.342 238.212 189.158 238.079 189.012C237.938 188.852 237.76 188.734 237.546 188.656C237.332 188.574 237.086 188.535 236.808 188.54C236.58 188.54 236.364 188.572 236.159 188.636C235.953 188.7 235.764 188.791 235.591 188.909C235.454 189 235.327 189.107 235.208 189.23C235.094 189.349 234.992 189.481 234.901 189.627V195H233.636V184.5H234.901V188.704ZM247.185 195C247.135 194.904 247.094 194.786 247.062 194.645C247.034 194.499 247.014 194.348 247 194.193C246.872 194.321 246.729 194.442 246.569 194.556C246.414 194.67 246.244 194.77 246.057 194.856C245.865 194.943 245.663 195.011 245.448 195.062C245.234 195.112 245.006 195.137 244.765 195.137C244.373 195.137 244.017 195.08 243.698 194.966C243.384 194.852 243.117 194.697 242.899 194.501C242.675 194.31 242.502 194.082 242.379 193.817C242.26 193.549 242.201 193.259 242.201 192.949C242.201 192.544 242.281 192.188 242.441 191.883C242.605 191.577 242.835 191.322 243.131 191.117C243.427 190.917 243.783 190.766 244.197 190.666C244.617 190.566 245.084 190.516 245.599 190.516H246.98V189.935C246.98 189.711 246.939 189.511 246.857 189.333C246.774 189.155 246.658 189.003 246.508 188.875C246.357 188.752 246.173 188.656 245.954 188.588C245.74 188.52 245.498 188.485 245.23 188.485C244.979 188.485 244.753 188.517 244.553 188.581C244.357 188.645 244.191 188.729 244.054 188.834C243.917 188.939 243.81 189.064 243.732 189.21C243.66 189.351 243.623 189.499 243.623 189.654H242.352C242.356 189.385 242.425 189.121 242.557 188.861C242.693 188.602 242.889 188.367 243.145 188.157C243.395 187.952 243.701 187.786 244.061 187.658C244.425 187.531 244.838 187.467 245.298 187.467C245.717 187.467 246.107 187.519 246.467 187.624C246.827 187.724 247.139 187.877 247.403 188.082C247.663 188.292 247.868 188.551 248.019 188.861C248.169 189.171 248.244 189.534 248.244 189.948V193.387C248.244 193.633 248.267 193.895 248.313 194.173C248.358 194.446 248.422 194.686 248.504 194.891V195H247.185ZM244.949 194.036C245.195 194.036 245.426 194.004 245.64 193.94C245.854 193.877 246.05 193.792 246.228 193.688C246.401 193.583 246.551 193.464 246.679 193.332C246.806 193.195 246.907 193.054 246.98 192.908V191.411H245.804C245.366 191.411 244.983 191.45 244.655 191.527C244.332 191.6 244.074 191.714 243.883 191.869C243.746 191.979 243.641 192.108 243.568 192.259C243.5 192.409 243.466 192.58 243.466 192.771C243.466 192.954 243.496 193.122 243.555 193.277C243.619 193.432 243.712 193.564 243.835 193.674C243.958 193.788 244.113 193.877 244.3 193.94C244.487 194.004 244.703 194.036 244.949 194.036ZM251.012 195V187.604H252.147L252.236 188.697C252.346 188.542 252.464 188.401 252.592 188.273C252.724 188.141 252.863 188.027 253.009 187.932C253.227 187.786 253.464 187.674 253.72 187.597C253.979 187.515 254.253 187.471 254.54 187.467C254.927 187.467 255.278 187.521 255.593 187.631C255.912 187.74 256.183 187.911 256.406 188.144C256.629 188.376 256.8 188.672 256.919 189.032C257.042 189.388 257.103 189.812 257.103 190.304V195H255.839V190.331C255.839 190.003 255.802 189.725 255.729 189.497C255.656 189.269 255.549 189.085 255.408 188.943C255.262 188.802 255.084 188.7 254.875 188.636C254.67 188.572 254.433 188.54 254.164 188.54C253.931 188.54 253.715 188.574 253.514 188.643C253.314 188.706 253.129 188.795 252.961 188.909C252.824 189.009 252.696 189.126 252.578 189.258C252.464 189.39 252.364 189.536 252.277 189.695V195H251.012ZM259.701 195V187.604H260.835L260.924 188.697C261.034 188.542 261.152 188.401 261.28 188.273C261.412 188.141 261.551 188.027 261.697 187.932C261.916 187.786 262.153 187.674 262.408 187.597C262.667 187.515 262.941 187.471 263.228 187.467C263.615 187.467 263.966 187.521 264.281 187.631C264.6 187.74 264.871 187.911 265.094 188.144C265.318 188.376 265.488 188.672 265.607 189.032C265.73 189.388 265.792 189.812 265.792 190.304V195H264.527V190.331C264.527 190.003 264.49 189.725 264.417 189.497C264.345 189.269 264.237 189.085 264.096 188.943C263.95 188.802 263.773 188.7 263.563 188.636C263.358 188.572 263.121 188.54 262.852 188.54C262.62 188.54 262.403 188.574 262.203 188.643C262.002 188.706 261.818 188.795 261.649 188.909C261.512 189.009 261.385 189.126 261.266 189.258C261.152 189.39 261.052 189.536 260.965 189.695V195H259.701ZM271.656 195.137C271.137 195.137 270.658 195.048 270.221 194.87C269.788 194.692 269.417 194.444 269.107 194.125C268.797 193.806 268.555 193.428 268.382 192.99C268.209 192.553 268.122 192.076 268.122 191.562V191.274C268.122 190.677 268.218 190.144 268.409 189.675C268.601 189.201 268.856 188.8 269.175 188.472C269.489 188.148 269.847 187.9 270.248 187.727C270.654 187.553 271.069 187.467 271.492 187.467C272.026 187.467 272.49 187.56 272.887 187.747C273.288 187.929 273.621 188.182 273.885 188.506C274.149 188.834 274.345 189.219 274.473 189.661C274.605 190.103 274.671 190.582 274.671 191.097V191.664H269.387V191.712C269.419 192.072 269.489 192.389 269.599 192.662C269.713 192.936 269.868 193.177 270.064 193.387C270.264 193.61 270.506 193.785 270.788 193.913C271.071 194.041 271.383 194.104 271.725 194.104C272.176 194.104 272.577 194.013 272.928 193.831C273.279 193.649 273.571 193.407 273.803 193.106L274.575 193.708C274.329 194.082 273.96 194.414 273.468 194.706C272.98 194.993 272.377 195.137 271.656 195.137ZM271.492 188.506C271.237 188.506 270.996 188.554 270.768 188.649C270.54 188.741 270.335 188.875 270.153 189.053C269.97 189.235 269.815 189.458 269.688 189.723C269.565 189.982 269.478 190.283 269.428 190.625H273.406V190.563C273.406 190.336 273.363 190.092 273.277 189.832C273.19 189.568 273.069 189.34 272.914 189.148C272.759 188.957 272.563 188.802 272.326 188.684C272.094 188.565 271.816 188.506 271.492 188.506ZM277.275 184.5H281.056V193.906H283.469V195H277.275V193.906H279.791V185.601H277.275V184.5ZM290.68 193.038C290.68 192.888 290.651 192.753 290.591 192.635C290.532 192.512 290.432 192.4 290.291 192.3C290.149 192.2 289.963 192.108 289.73 192.026C289.498 191.94 289.208 191.862 288.862 191.794C288.438 191.707 288.051 191.603 287.7 191.479C287.354 191.356 287.057 191.208 286.811 191.035C286.561 190.867 286.367 190.668 286.23 190.44C286.093 190.208 286.025 189.939 286.025 189.634C286.025 189.333 286.096 189.053 286.237 188.793C286.378 188.529 286.577 188.299 286.832 188.103C287.087 187.907 287.39 187.752 287.741 187.638C288.096 187.524 288.486 187.467 288.91 187.467C289.366 187.467 289.776 187.526 290.14 187.645C290.505 187.763 290.815 187.927 291.07 188.137C291.325 188.346 291.521 188.592 291.658 188.875C291.799 189.153 291.87 189.454 291.87 189.777H290.605C290.605 189.618 290.564 189.463 290.482 189.312C290.4 189.158 290.286 189.021 290.14 188.902C289.994 188.784 289.817 188.688 289.607 188.615C289.402 188.542 289.17 188.506 288.91 188.506C288.641 188.506 288.404 188.535 288.199 188.595C287.998 188.654 287.832 188.734 287.7 188.834C287.563 188.934 287.461 189.05 287.392 189.183C287.324 189.315 287.29 189.451 287.29 189.593C287.29 189.739 287.317 189.868 287.372 189.982C287.426 190.096 287.522 190.199 287.659 190.29C287.791 190.381 287.969 190.463 288.192 190.536C288.42 190.609 288.707 190.68 289.053 190.748C289.509 190.844 289.917 190.955 290.277 191.083C290.637 191.206 290.94 191.354 291.186 191.527C291.432 191.705 291.619 191.91 291.747 192.143C291.879 192.375 291.945 192.644 291.945 192.949C291.945 193.277 291.87 193.576 291.719 193.845C291.574 194.114 291.369 194.344 291.104 194.535C290.84 194.727 290.523 194.875 290.154 194.979C289.785 195.084 289.382 195.137 288.944 195.137C288.443 195.137 287.996 195.071 287.604 194.938C287.212 194.802 286.882 194.622 286.613 194.398C286.34 194.18 286.13 193.924 285.984 193.633C285.843 193.341 285.772 193.038 285.772 192.724H287.037C287.055 192.983 287.123 193.202 287.242 193.38C287.365 193.558 287.518 193.701 287.7 193.811C287.878 193.92 288.076 193.997 288.295 194.043C288.513 194.089 288.73 194.111 288.944 194.111C289.281 194.111 289.575 194.073 289.826 193.995C290.077 193.913 290.272 193.801 290.414 193.66C290.5 193.574 290.566 193.478 290.612 193.373C290.658 193.268 290.68 193.157 290.68 193.038ZM303.853 195L302.28 187.604H303.401L304.263 192.32L304.413 193.38L304.598 192.32L305.78 187.604H306.594L307.77 192.32L307.968 193.482L308.152 192.32L308.973 187.604H310.094L308.522 195H307.524L306.368 190.468L306.177 189.319L305.992 190.468L304.851 195H303.853ZM311.474 191.233C311.474 190.7 311.552 190.206 311.707 189.75C311.862 189.29 312.085 188.891 312.377 188.554C312.664 188.216 313.015 187.952 313.43 187.761C313.844 187.565 314.311 187.467 314.831 187.467C315.355 187.467 315.824 187.565 316.239 187.761C316.658 187.952 317.014 188.216 317.306 188.554C317.593 188.891 317.814 189.29 317.969 189.75C318.124 190.206 318.201 190.7 318.201 191.233V191.384C318.201 191.917 318.124 192.411 317.969 192.867C317.814 193.323 317.593 193.719 317.306 194.057C317.014 194.394 316.661 194.658 316.246 194.85C315.831 195.041 315.364 195.137 314.845 195.137C314.32 195.137 313.849 195.041 313.43 194.85C313.015 194.658 312.664 194.394 312.377 194.057C312.085 193.719 311.862 193.323 311.707 192.867C311.552 192.411 311.474 191.917 311.474 191.384V191.233ZM312.739 191.384C312.739 191.748 312.782 192.097 312.869 192.43C312.956 192.758 313.088 193.047 313.265 193.298C313.439 193.549 313.657 193.747 313.922 193.893C314.186 194.038 314.494 194.111 314.845 194.111C315.191 194.111 315.494 194.038 315.754 193.893C316.018 193.747 316.239 193.549 316.417 193.298C316.59 193.047 316.72 192.758 316.806 192.43C316.893 192.097 316.936 191.748 316.936 191.384V191.233C316.936 190.873 316.891 190.529 316.8 190.201C316.713 189.868 316.583 189.577 316.41 189.326C316.232 189.076 316.011 188.877 315.747 188.731C315.487 188.581 315.182 188.506 314.831 188.506C314.48 188.506 314.175 188.581 313.915 188.731C313.655 188.877 313.439 189.076 313.265 189.326C313.088 189.577 312.956 189.868 312.869 190.201C312.782 190.529 312.739 190.873 312.739 191.233V191.384ZM325.365 187.467C325.597 187.467 325.839 187.483 326.089 187.515C326.345 187.547 326.536 187.59 326.664 187.645L326.493 188.882C326.247 188.827 326.012 188.788 325.789 188.766C325.57 188.738 325.34 188.725 325.098 188.725C324.788 188.725 324.508 188.763 324.257 188.841C324.007 188.914 323.788 189.023 323.601 189.169C323.433 189.297 323.284 189.454 323.157 189.641C323.034 189.823 322.931 190.028 322.849 190.256V195H321.578V187.604H322.781L322.836 188.595L322.842 188.779C323.143 188.374 323.503 188.055 323.922 187.822C324.346 187.585 324.827 187.467 325.365 187.467ZM331.421 191.548L330.491 192.443V195H329.22V184.5H330.491V190.926L331.319 190.037L333.745 187.604H335.283L332.289 190.687L335.741 195H334.135L331.421 191.548ZM340.096 194.18C340.096 193.911 340.178 193.681 340.342 193.489C340.506 193.298 340.754 193.202 341.087 193.202C341.415 193.202 341.663 193.298 341.832 193.489C342.005 193.676 342.092 193.906 342.092 194.18C342.092 194.449 342.005 194.674 341.832 194.856C341.659 195.039 341.41 195.13 341.087 195.13C340.759 195.13 340.51 195.039 340.342 194.856C340.178 194.67 340.096 194.444 340.096 194.18Z" fill="white"/>
</g>
<path d="M368.707 201.291C368.216 198.07 368.18 191.392 368.177 190.188L357.097 203.526C361.137 207.704 366.287 210.001 371.613 210L372.732 210C372.717 209.976 369.248 204.83 368.707 201.291Z" fill="#160F26"/>
<path d="M44.2925 115.291C44.784 112.07 44.8203 105.392 44.8228 104.188L55.9031 117.526C51.8632 121.704 46.7132 124.001 41.3871 124L40.2675 124C40.2835 123.976 43.7524 118.83 44.2925 115.291Z" fill="#160F26"/>
<defs>
<filter id="filter0_d_1010_5402" x="0.2" y="0" width="403.6" height="255.6" filterUnits="userSpaceOnUse" color-interpolation-filters="sRGB">
<feFlood flood-opacity="0" result="BackgroundImageFix"/>
<feColorMatrix in="SourceAlpha" type="matrix" values="0 0 0 0 0 0 0 0 0 0 0 0 0 0 0 0 0 0 127 0" result="hardAlpha"/>
<feOffset dy="1.8"/>
<feGaussianBlur stdDeviation="0.9"/>
<feComposite in2="hardAlpha" operator="out"/>
<feColorMatrix type="matrix" values="0 0 0 0 0 0 0 0 0 0 0 0 0 0 0 0 0 0 0.04 0"/>
<feBlend mode="normal" in2="BackgroundImageFix" result="effect1_dropShadow_1010_5402"/>
<feBlend mode="normal" in="SourceGraphic" in2="effect1_dropShadow_1010_5402" result="shape"/>
</filter>
</defs>
</svg>
