<svg width="30" height="30" viewBox="0 0 21 23" fill="none" xmlns="http://www.w3.org/2000/svg">
<path d="M10.0755 21.1284V12.0382L2.1198 7.43188V16.0985C2.1198 16.224 2.15119 16.3417 2.21395 16.4515C2.27672 16.5614 2.37088 16.6555 2.49641 16.734L10.0755 21.1284ZM11.2995 21.1284L18.8786 16.734C19.0041 16.6555 19.0983 16.5614 19.1611 16.4515C19.2238 16.3417 19.2552 16.224 19.2552 16.0985V7.43188L11.2995 12.0382V21.1284ZM10.6875 10.9861L18.5514 6.44093L11.0641 2.10766C10.9386 2.02921 10.813 1.98998 10.6875 1.98998C10.562 1.98998 10.4364 2.02921 10.3109 2.10766L2.82358 6.44093L10.6875 10.9861ZM1.8844 17.8167C1.57529 17.6394 1.33326 17.3985 1.15829 17.0941C0.983326 16.7897 0.895844 16.4601 0.895844 16.1055V7.26946C0.895844 6.91484 0.983326 6.58532 1.15829 6.2809C1.33326 5.97646 1.57529 5.73559 1.8844 5.55828L9.69892 1.05552C10.008 0.878207 10.3376 0.789551 10.6875 0.789551C11.0374 0.789551 11.367 0.878207 11.6761 1.05552L19.4906 5.55828C19.7997 5.73559 20.0418 5.97646 20.2167 6.2809C20.3917 6.58532 20.4792 6.91484 20.4792 7.26946V16.1055C20.4792 16.4601 20.3917 16.7897 20.2167 17.0941C20.0418 17.3985 19.7997 17.6394 19.4906 17.8167L11.6761 22.3195C11.367 22.4968 11.0374 22.5854 10.6875 22.5854C10.3376 22.5854 10.008 22.4968 9.69892 22.3195L1.8844 17.8167Z" fill="#0DC09D"/>
</svg>