<svg width="178" height="183" viewBox="0 0 178 183" fill="none"
    xmlns="http://www.w3.org/2000/svg">
    <rect y="103" width="80" height="80" rx="8" fill="#0DC09D"/>
    <rect x="0.5" y="103.5" width="79" height="79" rx="7.5" stroke="black" stroke-opacity="0.05"/>
    <rect y="15" width="80" height="80" rx="8" fill="#0DC09D"/>
    <rect x="0.5" y="15.5" width="79" height="79" rx="7.5" stroke="black" stroke-opacity="0.05"/>
    <rect x="89" y="103" width="80" height="80" rx="8" fill="#0DC09D"/>
    <rect x="89.5" y="103.5" width="79" height="79" rx="7.5" stroke="black" stroke-opacity="0.05"/>
    <rect x="98" width="80" height="80" rx="4" fill="#160F26"/>
    <rect x="104.5" y="6.5" width="67" height="67" rx="4" fill="#160F26"/>
    <path d="M114.5 25.163C121.917 25.6556 127.859 31.6133 128.326 39.0374H136.987C136.505 26.825 126.707 17.0076 114.5 16.5V25.163Z" fill="#0DC09D"/>
    <path d="M128.374 41.0133C127.882 48.4299 121.924 54.3726 114.5 54.8388V63.5C126.712 63.0187 136.53 53.2201 137.037 41.0133H128.374Z" fill="#0DC09D"/>
    <path d="M147.626 38.9867C148.118 31.5701 154.076 25.6274 161.5 25.1612V16.5C149.288 16.9813 139.47 26.7798 138.963 38.9867H147.626Z" fill="#0DC09D"/>
    <path d="M161.498 54.8369C154.082 54.3444 148.139 48.3866 147.673 40.9625H139.012C139.493 53.175 149.292 62.9924 161.498 63.5V54.8369Z" fill="#0DC09D"/>
</svg>
