<svg width="179" height="184" viewBox="0 0 179 184" fill="none"
    xmlns="http://www.w3.org/2000/svg">
    <rect x="0.5" y="103.5" width="80" height="80" rx="8" fill="white"/>
    <rect x="1" y="104" width="79" height="79" rx="7.5" stroke="black" stroke-opacity="0.05"/>
    <rect x="0.5" y="15.5" width="80" height="80" rx="8" fill="white"/>
    <rect x="1" y="16" width="79" height="79" rx="7.5" stroke="black" stroke-opacity="0.05"/>
    <rect x="89.5" y="103.5" width="80" height="80" rx="8" fill="white"/>
    <rect x="90" y="104" width="79" height="79" rx="7.5" stroke="black" stroke-opacity="0.05"/>
    <rect x="98.5" y="0.5" width="80" height="80" rx="4" fill="#0DC09D"/>
    <rect x="105" y="7" width="67" height="67" rx="4" fill="#0DC09D"/>
    <path d="M115 25.663C122.417 26.1556 128.359 32.1133 128.826 39.5374H137.487C137.005 27.325 127.207 17.5076 115 17V25.663Z" fill="white"/>
    <path d="M128.874 41.5133C128.382 48.9299 122.424 54.8726 115 55.3388V64C127.212 63.5187 137.03 53.7201 137.537 41.5133H128.874Z" fill="white"/>
    <path d="M148.126 39.4867C148.618 32.0701 154.576 26.1274 162 25.6612V17C149.788 17.4813 139.97 27.2798 139.463 39.4867H148.126Z" fill="white"/>
    <path d="M161.998 55.3369C154.582 54.8444 148.639 48.8866 148.173 41.4625H139.512C139.993 53.675 149.792 63.4924 161.998 64V55.3369Z" fill="white"/>
</svg>
