<svg width="98" height="16" viewBox="0 0 98 16" fill="none" xmlns="http://www.w3.org/2000/svg">
<g clip-path="url(#clip0_504_1051)">
<path d="M0 2.94912C2.5248 3.1168 4.54784 5.14496 4.70656 7.67232H7.65504C7.4912 3.51488 4.15552 0.1728 0 0V2.94912Z" fill="#0DC09D"/>
<path d="M4.7232 8.34497C4.55552 10.8698 2.52736 12.8928 0 13.0515V16C4.15744 15.8362 7.49952 12.5005 7.67232 8.34497H4.7232Z" fill="#0DC09D"/>
<path d="M11.2768 7.65504C11.4445 5.13024 13.4726 3.1072 16 2.94848V0C11.8425 0.16384 8.50047 3.49952 8.32767 7.65504H11.2768Z" fill="#0DC09D"/>
<path d="M16 13.0509C13.4752 12.8832 11.4522 10.855 11.2935 8.32767H8.34497C8.50881 12.4851 11.8445 15.8272 16 16V13.0509Z" fill="#0DC09D"/>
<path d="M21 13.0893V2.95233H22.9648V4.54785H23.2758C23.4576 4.15873 23.7814 3.79585 24.2486 3.45857C24.7158 3.12129 25.4096 2.95297 26.3306 2.95297C27.057 2.95297 27.7021 3.11553 28.2666 3.43937C28.831 3.76385 29.2752 4.22081 29.599 4.81089C29.9229 5.40097 30.0854 6.11137 30.0854 6.94145V13.0893H28.0816V7.09697C28.0816 6.26689 27.8742 5.65441 27.4589 5.25825C27.0435 4.86273 26.4733 4.66497 25.7469 4.66497C24.9168 4.66497 24.2518 4.93761 23.7526 5.48225C23.2534 6.02689 23.0038 6.81857 23.0038 7.85601V13.0899H21V13.0893Z" fill="#160F26"/>
<path d="M68.8983 13.0938V0.0185547H70.9021V13.0938H68.8983Z" fill="#160F26"/>
<path d="M77.7834 13.0937C76.8234 13.0937 75.9709 12.896 75.2246 12.5005C74.4784 12.1049 73.8922 11.5373 73.464 10.7981C73.0358 10.0589 72.8221 9.18335 72.8221 8.17151V7.87967C72.8221 6.86783 73.0358 5.99551 73.464 5.26271C73.8922 4.52991 74.479 3.96223 75.2246 3.56031C75.9702 3.15839 76.8234 2.95743 77.7834 2.95743C78.7434 2.95743 79.599 3.15839 80.3517 3.56031C81.1037 3.96223 81.6944 4.52991 82.1219 5.26271C82.5501 5.99551 82.7638 6.86783 82.7638 7.87967V8.17151C82.7638 9.18335 82.5501 10.0589 82.1219 10.7981C81.6938 11.5373 81.1037 12.1049 80.3517 12.5005C79.599 12.896 78.7434 13.0937 77.7834 13.0937ZM77.7834 11.3037C78.6653 11.3037 79.3821 11.0214 79.9331 10.4576C80.4842 9.89311 80.76 9.11231 80.76 8.11327V7.93791C80.76 6.93951 80.4874 6.15743 79.9427 5.59359C79.3981 5.02911 78.6781 4.74751 77.7834 4.74751C76.8886 4.74751 76.2038 5.02975 75.6528 5.59359C75.1011 6.15807 74.8259 6.93951 74.8259 7.93791V8.11327C74.8259 9.11231 75.1011 9.89375 75.6528 10.4576C76.2038 11.0221 76.9142 11.3037 77.7834 11.3037Z" fill="#160F26"/>
<path d="M85.471 11.4099L84.1085 2.95743H86.1123L87.3187 11.7517H87.6298L89 4.55167C89.176 3.62687 89.9843 2.95743 90.9264 2.95743C91.8698 2.95743 92.6787 3.62879 92.8534 4.55551L94.2064 11.751H94.5174L95.7238 2.95679H97.7277L96.3651 11.4093C96.209 12.3795 95.3712 13.0931 94.3882 13.0931C93.425 13.0931 92.5987 12.4077 92.4202 11.4617L91.0742 4.31871H90.7632L89.4173 11.4617C89.2387 12.4083 88.4125 13.0931 87.4493 13.0931C86.4662 13.0931 85.6285 12.3795 85.4723 11.4093L85.471 11.4099Z" fill="#160F26"/>
<path d="M62.6115 0.561265C62.2659 0.912625 62.0938 1.38174 62.0938 1.96734V13.0937H64.1053V4.6611H66.9782V2.9619H65.5894L64.4566 4.0947H64.1053V2.2995C64.1053 1.90911 64.2934 1.7139 64.6717 1.7139H66.9706V0.033905H64.0272C63.4275 0.033905 62.9558 0.209905 62.6115 0.561265Z" fill="#160F26"/>
<path d="M57.3891 10.7859V5.45856H55.377V11.1373C55.377 11.7235 55.5491 12.192 55.8947 12.544C56.2397 12.8954 56.7056 13.0714 57.2918 13.0714H59.9485V11.3715H57.9363C57.5709 11.3715 57.3891 11.1763 57.3891 10.7853V10.7859Z" fill="#160F26"/>
<path d="M45.32 10.3424C44.7632 11.0067 43.9414 11.3312 43.0755 11.3312H36.9725C36.1648 11.3312 35.4909 11.0803 34.9507 10.5792C34.9174 10.5479 34.8842 10.5165 34.8528 10.4832C34.8208 10.4499 34.7901 10.4167 34.76 10.3834C34.6877 10.3002 34.6211 10.2131 34.5597 10.1223C34.2966 9.72738 34.1462 9.25761 34.1085 8.71361C34.1046 8.66177 34.1027 8.60929 34.1008 8.55617H41.505V7.79457C41.505 6.81793 41.3097 5.96482 40.9187 5.23522C40.5277 4.50562 39.9837 3.93602 39.2874 3.52578C38.5898 3.11554 37.7789 2.9101 36.8554 2.9101C35.9318 2.9101 35.071 3.1181 34.3549 3.53538C33.9965 3.74338 33.6771 3.99233 33.3955 4.28289C33.3603 4.31873 33.3251 4.35586 33.2912 4.39362C33.1888 4.5069 33.0928 4.6253 33.0013 4.74818C32.8803 4.9133 32.7677 5.08929 32.6653 5.27489C32.255 6.01729 32.0496 6.88961 32.0496 7.89249V8.12674C32.0496 9.12961 32.255 10.0019 32.6653 10.7443C33.0755 11.4867 33.6451 12.0627 34.3747 12.473C35.1037 12.8832 35.9574 13.0887 36.9341 13.0887H42.9104C43.4563 13.0887 44.5981 12.9901 45.2752 12.6112C46.0265 12.1901 46.4912 11.68 47.2541 10.7706L47.544 10.3559L46.4438 8.79489L45.3206 10.3424H45.32ZM34.12 7.01377C34.1398 6.88001 34.1648 6.75074 34.1981 6.62722C34.2301 6.50306 34.2691 6.38465 34.3152 6.27137C34.4669 5.89441 34.6922 5.57505 34.9891 5.31393C35.464 4.89665 36.079 4.68866 36.8355 4.68866C37.592 4.68866 38.2032 4.89665 38.6717 5.31393C39.1408 5.73121 39.407 6.29761 39.473 7.01377H35.4486L34.4202 8.04225H34.081C34.0758 7.74657 34.081 7.36513 34.12 7.01377Z" fill="#160F26"/>
<path d="M57.3891 2.92864V0H55.377V2.92864H53.4845C52.9386 2.92864 51.7968 3.0272 51.1197 3.40608C50.3683 3.8272 49.7584 4.36928 48.9955 5.27872L48.1533 6.43904C47.8 5.9296 47.5152 5.51936 47.3814 5.33056C46.6947 4.36224 46.0266 3.85984 45.2746 3.43872C44.5974 3.0592 43.5197 2.96128 42.9738 2.96128H42.5987V4.71936H43.1395C44.0061 4.71936 44.7632 5.04384 45.32 5.70816L46.9654 8.07488L46.9584 8.08448L47.9645 9.51232L48.817 10.7386C49.5798 11.648 50.1898 12.1901 50.9411 12.6112C51.6182 12.9907 52.76 13.0886 53.3059 13.0886H53.681V11.3306H53.1402C52.2736 11.3306 51.4333 11.0214 50.8957 10.3418C50.689 10.0806 49.9613 9.04192 49.2138 7.96736L50.8176 5.67488C51.3744 5.01056 52.4522 4.62784 53.3181 4.62784H60.1738V2.928H57.3891V2.92864Z" fill="#160F26"/>
</g>
<defs>
<clipPath id="clip0_504_1051">
<rect width="98" height="16" fill="white"/>
</clipPath>
</defs>
</svg>
