<?xml version="1.0" encoding="utf-8"?>
<!-- Generator: Adobe Illustrator 27.9.0, SVG Export Plug-In . SVG Version: 6.00 Build 0)  -->
<svg version="1.1" id="Layer_1" xmlns="http://www.w3.org/2000/svg" xmlns:xlink="http://www.w3.org/1999/xlink" x="0px" y="0px"
	 viewBox="0 0 200 96" style="enable-background:new 0 0 200 96;" xml:space="preserve">
<style type="text/css">
	.st0{fill:#FFFFFF;}
	.st1{fill-rule:evenodd;clip-rule:evenodd;fill:#0DC09D;}
	.st2{fill-rule:evenodd;clip-rule:evenodd;}
	.st3{clip-path:url(#SVGID_00000182513489957980823220000009321543159570646186_);}
	.st4{fill:#0DC09D;}
</style>
<path class="st0" d="M6,0h188c3.3,0,6,2.7,6,6v84c0,3.3-2.7,6-6,6H6c-3.3,0-6-2.7-6-6V6C0,2.7,2.7,0,6,0z"/>
<path class="st1" d="M36.4,30.9l0-0.1c-0.1-2-1.8-3.7-4-3.7c-2.1,0-3.8,1.6-4,3.7l0,0.1v15.6v0.1l0,0.1c0.1,2.1,1.8,3.8,4,3.8
	s3.9-1.7,4-3.8l0-0.1v-0.1V31.1v0v0l0,0l0,0V30.9L36.4,30.9L36.4,30.9z M39.4,30.6L39.4,30.6l0,0.4l0,0l0,0v2.6v10v2.9v0.2h0
	c-0.1,3.8-3.2,6.8-7.1,6.8s-7-3-7.1-6.8h0v-0.2v-2.9v-10v-3.1h0c0.2-3.7,3.3-6.6,7.1-6.6S39.2,26.9,39.4,30.6z"/>
<path class="st2" d="M20,43.1v1.2v2.3v0.4h0c0.2,6,4.7,10.9,10.5,11.8c0.1,0,0.2,0,0.3,0v2.6h-0.3h-0.2h-2.2H28h-2.6v0V64v0H28h8.9
	h2.6v0v-2.6v0h-2.6h-0.7h-1.7h-0.7h-0.2v-2.6c0.3,0,0.5-0.1,0.7-0.1c5.8-0.9,10.3-5.8,10.5-11.8h0v-0.4v-2.3v-1.2h-2.6v3.5v0.2
	l0,0.2c-0.2,4.9-4,8.9-8.9,9.3l-1.1,0.1l-1-0.1c-4.7-0.6-8.4-4.5-8.5-9.3l0-0.2v-0.2v-3.5H20z"/>
<path d="M63.1,46c1.1,0,2.1-0.2,3-0.7c0.9-0.5,1.6-1.1,2.1-1.9c0.5-0.8,0.8-1.7,0.8-2.7v-0.1h-3.2l0,0.1c-0.1,0.5-0.2,0.9-0.5,1.3
	c-0.2,0.4-0.5,0.6-0.9,0.8c-0.4,0.2-0.8,0.3-1.3,0.3c-0.6,0-1.1-0.2-1.6-0.5c-0.4-0.3-0.8-0.8-1-1.4c-0.2-0.6-0.4-1.4-0.4-2.2v0
	c0-0.9,0.1-1.6,0.4-2.2c0.2-0.6,0.6-1.1,1-1.4c0.4-0.3,1-0.5,1.6-0.5c0.5,0,1,0.1,1.3,0.3c0.4,0.2,0.7,0.5,0.9,0.9
	c0.2,0.4,0.4,0.8,0.5,1.2l0,0.1H69l0-0.1c0-1-0.3-1.9-0.8-2.7c-0.5-0.8-1.2-1.4-2.1-1.9c-0.9-0.5-1.9-0.7-3-0.7
	c-1.3,0-2.4,0.3-3.4,0.8c-0.9,0.5-1.7,1.3-2.2,2.4c-0.5,1-0.8,2.3-0.8,3.8v0c0,1.5,0.3,2.7,0.8,3.8c0.5,1,1.2,1.8,2.2,2.4
	C60.7,45.7,61.8,46,63.1,46z"/>
<path d="M72.4,45.8h3.3v-5.4h5.2v5.4h3.3V32.2h-3.3v5.3h-5.2v-5.3h-3.3V45.8z"/>
<path d="M87.3,45.8h3.5l2.9-10.6h1.1v-2.9h-3L87.3,45.8z M89.8,42.8h7.7l-0.7-2.5h-6.2L89.8,42.8z M96.6,45.8h3.5l-4.4-13.5h-2v2.9
	L96.6,45.8z"/>
<path d="M103.2,45.8h3.3v-7.9h1.4l-2.4-1.6l6.3,9.5h2.8V32.2h-3.3V40h-1.4l2.4,1.6l-6.3-9.4h-2.8V45.8z"/>
<path d="M118.4,45.8h3.3v-7.9h1.4l-2.4-1.6l6.3,9.5h2.8V32.2h-3.3V40h-1.4l2.4,1.6l-6.3-9.4h-2.8V45.8z"/>
<path d="M133.6,45.8h8.9V43h-5.6v-2.7h5.3v-2.6h-5.3V35h5.6v-2.8h-8.9V45.8z"/>
<path d="M146.2,45.8h8.7V43h-5.4V32.2h-3.3V45.8z"/>
<path d="M163.3,46c1.1,0,2.1-0.2,2.9-0.5c0.8-0.4,1.4-0.9,1.9-1.5c0.4-0.7,0.6-1.4,0.6-2.3v0c0-0.7-0.1-1.3-0.4-1.8
	c-0.3-0.5-0.7-0.9-1.3-1.3c-0.6-0.3-1.4-0.6-2.3-0.8l-1.3-0.3c-0.7-0.1-1.2-0.3-1.5-0.5c-0.3-0.2-0.5-0.5-0.5-0.9v0
	c0-0.3,0.1-0.5,0.2-0.7c0.2-0.2,0.4-0.4,0.6-0.5c0.3-0.1,0.6-0.2,1-0.2c0.4,0,0.7,0.1,1.1,0.2c0.3,0.1,0.6,0.3,0.7,0.5
	c0.2,0.2,0.3,0.5,0.3,0.8l0,0.1h3.1l0-0.2c0-0.8-0.3-1.5-0.7-2.1c-0.4-0.6-1-1.1-1.8-1.4c-0.8-0.3-1.7-0.5-2.8-0.5
	c-1,0-1.9,0.2-2.7,0.5c-0.8,0.3-1.4,0.8-1.8,1.5c-0.4,0.6-0.7,1.4-0.7,2.3v0c0,1,0.3,1.9,1,2.5c0.7,0.6,1.7,1.1,2.9,1.3l1.3,0.3
	c0.8,0.1,1.3,0.3,1.6,0.5c0.3,0.2,0.5,0.5,0.5,0.9v0c0,0.3-0.1,0.5-0.3,0.7c-0.2,0.2-0.4,0.4-0.7,0.5c-0.3,0.1-0.7,0.2-1.1,0.2
	c-0.4,0-0.8-0.1-1.1-0.2c-0.3-0.1-0.6-0.3-0.8-0.5c-0.2-0.2-0.4-0.5-0.4-0.8l0-0.1h-3.1l0,0.2c0.1,0.9,0.3,1.6,0.7,2.2
	c0.4,0.6,1.1,1.1,1.9,1.4C161.3,45.8,162.2,46,163.3,46z"/>
<path d="M60,63.5c0.2,0,0.3,0,0.4,0c0.1,0,0.3,0,0.3,0v-1.2c-0.1,0-0.1,0-0.2,0c-0.1,0-0.1,0-0.2,0c-0.3,0-0.5-0.1-0.6-0.2
	c-0.1-0.1-0.2-0.3-0.2-0.6v-2.8h1.2v-1.2h-1.2v-1.4H58v1.4h-0.9v1.2H58v3.1c0,0.6,0.2,1,0.5,1.2C58.8,63.4,59.3,63.5,60,63.5z
	 M62.1,63.5h1.6v-3.4c0-0.3,0-0.5,0.1-0.7c0.1-0.2,0.2-0.3,0.4-0.5c0.2-0.1,0.4-0.2,0.6-0.2c0.4,0,0.6,0.1,0.8,0.3
	c0.2,0.2,0.3,0.5,0.3,1v3.5h1.6v-3.8c0-0.5-0.1-0.9-0.2-1.2c-0.2-0.3-0.4-0.6-0.7-0.8c-0.3-0.2-0.7-0.3-1.1-0.3
	c-0.4,0-0.8,0.1-1.1,0.3c-0.3,0.2-0.5,0.4-0.6,0.8h-0.1v-3.2h-1.6V63.5z M71.7,63.6c0.4,0,0.8-0.1,1.1-0.2c0.3-0.1,0.6-0.3,0.8-0.4
	c0.2-0.2,0.4-0.4,0.5-0.6c0.1-0.2,0.2-0.4,0.3-0.6l0-0.1h-1.5l0,0c0,0.1-0.1,0.2-0.2,0.3c-0.1,0.1-0.2,0.2-0.4,0.2
	c-0.2,0.1-0.4,0.1-0.6,0.1c-0.3,0-0.5-0.1-0.7-0.2c-0.2-0.1-0.4-0.3-0.5-0.5c-0.1-0.2-0.2-0.5-0.2-0.9v-0.6c0-0.3,0.1-0.6,0.2-0.9
	c0.1-0.2,0.3-0.4,0.5-0.5c0.2-0.1,0.4-0.2,0.7-0.2c0.3,0,0.5,0.1,0.7,0.2c0.2,0.1,0.3,0.3,0.5,0.5c0.1,0.2,0.2,0.5,0.2,0.9v0.6
	l0.7-0.9h-4.1v1h4.8v-0.5c0-0.6-0.1-1.1-0.3-1.6c-0.2-0.4-0.5-0.8-1-1c-0.4-0.2-0.9-0.4-1.5-0.4c-0.6,0-1.1,0.1-1.5,0.4
	c-0.4,0.3-0.8,0.6-1,1.1c-0.2,0.5-0.3,1-0.3,1.6v0c0,0.6,0.1,1.2,0.3,1.6c0.2,0.5,0.6,0.8,1,1.1C70.5,63.5,71.1,63.6,71.7,63.6z"/>
<path d="M130.4,65.6h1.6v-2.9h0.1c0.1,0.2,0.2,0.4,0.4,0.6c0.2,0.2,0.4,0.3,0.6,0.4c0.2,0.1,0.5,0.1,0.8,0.1c0.5,0,0.9-0.1,1.3-0.4
	s0.6-0.6,0.8-1c0.2-0.5,0.3-1,0.3-1.6v0c0-0.6-0.1-1.2-0.3-1.6c-0.2-0.5-0.5-0.8-0.8-1.1c-0.4-0.2-0.8-0.4-1.3-0.4
	c-0.3,0-0.5,0-0.8,0.1c-0.2,0.1-0.4,0.2-0.6,0.3c-0.2,0.2-0.3,0.3-0.4,0.5h-0.1v-0.9h-1.6V65.6z M133.3,62.4c-0.3,0-0.5-0.1-0.7-0.2
	c-0.2-0.1-0.4-0.3-0.5-0.6c-0.1-0.3-0.2-0.6-0.2-0.9v0c0-0.4,0.1-0.7,0.2-0.9c0.1-0.3,0.3-0.5,0.5-0.6c0.2-0.1,0.4-0.2,0.7-0.2
	c0.3,0,0.5,0.1,0.7,0.2c0.2,0.1,0.4,0.3,0.5,0.6c0.1,0.3,0.2,0.6,0.2,0.9v0c0,0.4-0.1,0.7-0.2,0.9c-0.1,0.3-0.3,0.5-0.5,0.6
	C133.8,62.4,133.6,62.4,133.3,62.4z M140.1,63.8c0.6,0,1.1-0.1,1.6-0.4c0.4-0.2,0.8-0.6,1-1.1c0.2-0.5,0.3-1,0.3-1.7v0
	c0-0.6-0.1-1.2-0.4-1.6c-0.2-0.5-0.6-0.8-1-1.1c-0.4-0.2-1-0.4-1.6-0.4c-0.6,0-1.1,0.1-1.6,0.4c-0.4,0.2-0.8,0.6-1,1.1
	c-0.2,0.5-0.4,1-0.4,1.6v0c0,0.6,0.1,1.2,0.3,1.7c0.2,0.5,0.6,0.8,1,1.1C139,63.6,139.5,63.8,140.1,63.8z M140.1,62.5
	c-0.3,0-0.5-0.1-0.7-0.2c-0.2-0.1-0.3-0.4-0.4-0.6c-0.1-0.3-0.2-0.6-0.2-1v0c0-0.4,0.1-0.7,0.2-1c0.1-0.3,0.3-0.5,0.4-0.6
	c0.2-0.2,0.4-0.2,0.7-0.2s0.5,0.1,0.7,0.2c0.2,0.1,0.3,0.4,0.5,0.6c0.1,0.3,0.2,0.6,0.2,1v0c0,0.4-0.1,0.7-0.2,1
	c-0.1,0.3-0.3,0.5-0.4,0.6C140.6,62.5,140.4,62.5,140.1,62.5z M146.4,63.7c0.3,0,0.5,0,0.8-0.1c0.2-0.1,0.4-0.2,0.6-0.3
	c0.2-0.2,0.3-0.3,0.4-0.5h0.1v0.9h1.6v-8.2h-1.6v3.2h-0.1c-0.1-0.2-0.2-0.4-0.4-0.6c-0.2-0.2-0.4-0.3-0.6-0.4
	c-0.2-0.1-0.5-0.1-0.7-0.1c-0.5,0-0.9,0.1-1.3,0.4c-0.4,0.2-0.6,0.6-0.8,1c-0.2,0.5-0.3,1-0.3,1.6v0c0,0.6,0.1,1.2,0.3,1.6
	c0.2,0.5,0.5,0.8,0.8,1.1C145.5,63.6,145.9,63.7,146.4,63.7z M147,62.4c-0.3,0-0.5-0.1-0.7-0.2c-0.2-0.1-0.4-0.3-0.5-0.6
	c-0.1-0.3-0.2-0.6-0.2-0.9v0c0-0.4,0.1-0.7,0.2-0.9c0.1-0.3,0.3-0.5,0.5-0.6c0.2-0.1,0.4-0.2,0.7-0.2c0.3,0,0.5,0.1,0.7,0.2
	c0.2,0.1,0.4,0.3,0.5,0.6c0.1,0.3,0.2,0.6,0.2,0.9v0c0,0.4-0.1,0.7-0.2,0.9c-0.1,0.3-0.3,0.5-0.5,0.6
	C147.5,62.4,147.2,62.4,147,62.4z M154.1,63.8c0.5,0,1-0.1,1.3-0.3c0.4-0.2,0.7-0.4,0.9-0.7c0.2-0.3,0.4-0.7,0.4-1.1v0l-1.5,0l0,0
	c-0.1,0.3-0.2,0.5-0.4,0.7c-0.2,0.2-0.5,0.2-0.8,0.2c-0.3,0-0.5-0.1-0.7-0.2c-0.2-0.1-0.3-0.4-0.4-0.6c-0.1-0.3-0.1-0.6-0.1-1v0
	c0-0.4,0-0.7,0.1-1c0.1-0.3,0.2-0.5,0.4-0.6c0.2-0.1,0.4-0.2,0.7-0.2c0.3,0,0.6,0.1,0.8,0.3c0.2,0.2,0.3,0.4,0.4,0.7l0,0h1.5v0
	c0-0.4-0.2-0.8-0.4-1.1c-0.2-0.3-0.5-0.6-0.9-0.8c-0.4-0.2-0.8-0.3-1.3-0.3c-0.6,0-1.1,0.1-1.6,0.4c-0.4,0.2-0.8,0.6-1,1
	c-0.2,0.5-0.3,1-0.3,1.7v0c0,0.7,0.1,1.2,0.3,1.7c0.2,0.5,0.6,0.8,1,1.1C153,63.7,153.5,63.8,154.1,63.8z M159.6,63.7
	c0.3,0,0.5,0,0.7-0.1c0.2-0.1,0.4-0.2,0.6-0.3c0.2-0.1,0.3-0.3,0.4-0.5h0.1v0.8h1.5v-4c0-0.4-0.1-0.8-0.3-1.1
	c-0.2-0.3-0.5-0.5-0.8-0.7c-0.4-0.2-0.8-0.2-1.3-0.2c-0.5,0-0.9,0.1-1.3,0.2c-0.4,0.1-0.7,0.3-0.9,0.6c-0.2,0.3-0.3,0.6-0.4,0.9l0,0
	h1.5l0,0c0.1-0.2,0.2-0.3,0.4-0.4c0.2-0.1,0.4-0.1,0.7-0.1c0.3,0,0.6,0.1,0.7,0.2c0.2,0.1,0.3,0.3,0.3,0.6v1.9
	c0,0.2-0.1,0.4-0.2,0.6c-0.1,0.2-0.3,0.3-0.5,0.4c-0.2,0.1-0.4,0.1-0.6,0.1c-0.3,0-0.5-0.1-0.7-0.2s-0.3-0.3-0.3-0.5v0
	c0-0.2,0.1-0.4,0.2-0.5c0.2-0.1,0.4-0.2,0.8-0.2l2-0.1v-1l-2.2,0.1c-0.5,0-0.9,0.1-1.3,0.3c-0.3,0.1-0.6,0.3-0.8,0.6
	c-0.2,0.3-0.3,0.6-0.3,0.9v0c0,0.4,0.1,0.7,0.2,0.9c0.2,0.3,0.4,0.5,0.7,0.6C158.9,63.7,159.2,63.7,159.6,63.7z M166.8,63.8
	c0.5,0,1-0.1,1.3-0.2c0.4-0.2,0.7-0.4,0.9-0.7c0.2-0.3,0.3-0.6,0.3-1v0c0-0.4-0.1-0.8-0.4-1c-0.3-0.3-0.7-0.5-1.3-0.6l-1-0.2
	c-0.2,0-0.4-0.1-0.5-0.2c-0.1-0.1-0.2-0.1-0.3-0.2c-0.1-0.1-0.1-0.2-0.1-0.3v0c0-0.1,0-0.2,0.1-0.3c0.1-0.1,0.2-0.2,0.3-0.2
	c0.1-0.1,0.3-0.1,0.5-0.1c0.3,0,0.5,0.1,0.7,0.2c0.2,0.1,0.3,0.3,0.3,0.4l0,0h1.5v0c0-0.3-0.1-0.6-0.3-0.9c-0.2-0.3-0.5-0.5-0.8-0.6
	c-0.4-0.2-0.8-0.2-1.3-0.2c-0.5,0-0.9,0.1-1.3,0.2c-0.4,0.2-0.7,0.4-0.9,0.6c-0.2,0.3-0.3,0.6-0.3,1v0c0,0.3,0.1,0.6,0.2,0.8
	c0.1,0.2,0.3,0.4,0.6,0.6c0.3,0.2,0.6,0.3,0.9,0.3l1,0.2c0.3,0.1,0.5,0.2,0.6,0.3c0.1,0.1,0.2,0.2,0.2,0.4v0c0,0.1,0,0.2-0.1,0.3
	c-0.1,0.1-0.2,0.2-0.4,0.2c-0.2,0.1-0.3,0.1-0.5,0.1c-0.3,0-0.6-0.1-0.7-0.2c-0.2-0.1-0.3-0.3-0.4-0.5l0,0h-1.5l0,0
	c0,0.3,0.2,0.6,0.4,0.9c0.2,0.3,0.5,0.5,0.9,0.6C165.8,63.7,166.3,63.8,166.8,63.8z M173.1,63.7c0.2,0,0.3,0,0.4,0
	c0.1,0,0.3,0,0.3,0v-1.2c-0.1,0-0.1,0-0.2,0c-0.1,0-0.1,0-0.2,0c-0.3,0-0.5-0.1-0.6-0.2c-0.1-0.1-0.2-0.3-0.2-0.6v-2.8h1.2v-1.2
	h-1.2v-1.4h-1.6v1.4h-0.9v1.2h0.9v3.1c0,0.6,0.2,1,0.5,1.2C171.9,63.5,172.4,63.7,173.1,63.7z"/>
<g>
	<defs>
		<rect id="SVGID_1_" x="65.8" y="55.6" width="60" height="9.8"/>
	</defs>
	<clipPath id="SVGID_00000178920311509402637580000012567769566774139294_">
		<use xlink:href="#SVGID_1_"  style="overflow:visible;"/>
	</clipPath>
	<g style="clip-path:url(#SVGID_00000178920311509402637580000012567769566774139294_);">
		<path class="st4" d="M78.7,63.7v-6.2h1.2v1h0.2c0.1-0.2,0.3-0.5,0.6-0.7s0.7-0.3,1.3-0.3c0.4,0,0.8,0.1,1.2,0.3
			c0.3,0.2,0.6,0.5,0.8,0.8c0.2,0.4,0.3,0.8,0.3,1.3v3.8H83V60c0-0.5-0.1-0.9-0.4-1.1c-0.3-0.2-0.6-0.4-1-0.4
			c-0.5,0-0.9,0.2-1.2,0.5s-0.5,0.8-0.5,1.5v3.2L78.7,63.7L78.7,63.7z"/>
		<path class="st4" d="M108,63.7v-8h1.2v8H108z"/>
		<path class="st4" d="M113.5,63.7c-0.6,0-1.1-0.1-1.6-0.4c-0.5-0.2-0.8-0.6-1.1-1c-0.3-0.5-0.4-1-0.4-1.6v-0.2
			c0-0.6,0.1-1.2,0.4-1.6c0.3-0.4,0.6-0.8,1.1-1c0.5-0.2,1-0.4,1.6-0.4s1.1,0.1,1.6,0.4c0.5,0.2,0.8,0.6,1.1,1
			c0.3,0.4,0.4,1,0.4,1.6v0.2c0,0.6-0.1,1.2-0.4,1.6c-0.3,0.5-0.6,0.8-1.1,1C114.6,63.5,114.1,63.7,113.5,63.7z M113.5,62.6
			c0.5,0,1-0.2,1.3-0.5c0.3-0.3,0.5-0.8,0.5-1.4v-0.1c0-0.6-0.2-1.1-0.5-1.4c-0.3-0.3-0.8-0.5-1.3-0.5c-0.5,0-1,0.2-1.3,0.5
			c-0.3,0.3-0.5,0.8-0.5,1.4v0.1c0,0.6,0.2,1.1,0.5,1.4C112.5,62.4,112.9,62.6,113.5,62.6z"/>
		<path class="st4" d="M118.2,62.6l-0.8-5.2h1.2l0.7,5.4h0.2l0.8-4.4c0.1-0.6,0.6-1,1.2-1c0.6,0,1.1,0.4,1.2,1l0.8,4.4h0.2l0.7-5.4
			h1.2l-0.8,5.2c-0.1,0.6-0.6,1-1.2,1c-0.6,0-1.1-0.4-1.2-1l-0.8-4.4h-0.2l-0.8,4.4c-0.1,0.6-0.6,1-1.2,1
			C118.8,63.7,118.3,63.2,118.2,62.6L118.2,62.6z"/>
		<path class="st4" d="M104.2,56c-0.2,0.2-0.3,0.5-0.3,0.9v6.8h1.2v-5.2h1.8v-1H106l-0.7,0.7h-0.2V57c0-0.2,0.1-0.4,0.3-0.4h1.4v-1
			h-1.8C104.7,55.7,104.4,55.8,104.2,56z"/>
		<path class="st4" d="M101,62.2V59h-1.2v3.5c0,0.4,0.1,0.6,0.3,0.9c0.2,0.2,0.5,0.3,0.9,0.3h1.6v-1h-1.2
			C101.1,62.6,101,62.5,101,62.2L101,62.2z"/>
		<path class="st4" d="M93.6,62c-0.3,0.4-0.8,0.6-1.4,0.6h-3.7c-0.5,0-0.9-0.2-1.2-0.5c0,0,0,0-0.1-0.1c0,0,0,0-0.1-0.1
			c0-0.1-0.1-0.1-0.1-0.2c-0.2-0.2-0.3-0.5-0.3-0.9c0,0,0-0.1,0-0.1h4.5v-0.5c0-0.6-0.1-1.1-0.4-1.6s-0.6-0.8-1-1
			c-0.4-0.3-0.9-0.4-1.5-0.4c-0.6,0-1.1,0.1-1.5,0.4c-0.2,0.1-0.4,0.3-0.6,0.5c0,0,0,0-0.1,0.1c-0.1,0.1-0.1,0.1-0.2,0.2
			c-0.1,0.1-0.1,0.2-0.2,0.3c-0.3,0.5-0.4,1-0.4,1.6v0.1c0,0.6,0.1,1.1,0.4,1.6c0.3,0.5,0.6,0.8,1,1.1c0.4,0.3,1,0.4,1.6,0.4h3.7
			c0.3,0,1-0.1,1.4-0.3c0.5-0.3,0.7-0.6,1.2-1.1L95,62l-0.7-1L93.6,62L93.6,62z M86.7,59.9c0-0.1,0-0.2,0-0.2c0-0.1,0-0.1,0.1-0.2
			c0.1-0.2,0.2-0.4,0.4-0.6c0.3-0.3,0.7-0.4,1.1-0.4s0.8,0.1,1.1,0.4c0.3,0.3,0.5,0.6,0.5,1h-2.5l-0.6,0.6h-0.2
			C86.7,60.4,86.7,60.2,86.7,59.9z"/>
		<path class="st4" d="M101,57.4v-1.8h-1.2v1.8h-1.2c-0.3,0-1,0.1-1.4,0.3c-0.5,0.3-0.8,0.6-1.3,1.1l-0.5,0.7
			c-0.2-0.3-0.4-0.6-0.5-0.7c-0.4-0.6-0.8-0.9-1.3-1.2c-0.4-0.2-1.1-0.3-1.4-0.3h-0.2v1.1h0.3c0.5,0,1,0.2,1.3,0.6l1,1.4l0,0
			l0.6,0.9l0.5,0.8c0.5,0.6,0.8,0.9,1.3,1.1c0.4,0.2,1.1,0.3,1.4,0.3h0.2v-1.1h-0.3c-0.5,0-1-0.2-1.4-0.6c-0.1-0.2-0.6-0.8-1-1.5
			l1-1.4c0.3-0.4,1-0.6,1.5-0.6h4.2v-1L101,57.4L101,57.4z"/>
	</g>
</g>
</svg>
