<svg width="567" height="225" viewBox="0 0 567 225" fill="none" xmlns="http://www.w3.org/2000/svg">
<g clip-path="url(#clip0_248_7589)">
<rect x="100" width="499" height="238.248" rx="14.97" fill="white"/>
<path d="M225.019 113.622C227.851 113.622 230.352 113.065 232.521 111.95C234.706 110.835 236.43 109.321 237.696 107.408C238.976 105.48 239.669 103.303 239.775 100.877V100.629H231.798L231.753 100.855C231.557 102.075 231.158 103.13 230.555 104.018C229.953 104.892 229.184 105.57 228.25 106.052C227.316 106.519 226.247 106.753 225.042 106.753C223.535 106.753 222.225 106.353 221.11 105.555C219.995 104.756 219.136 103.604 218.534 102.098C217.931 100.591 217.63 98.791 217.63 96.697V96.6744C217.63 94.5955 217.931 92.8179 218.534 91.3416C219.136 89.8502 219.988 88.7053 221.087 87.9069C222.202 87.1085 223.513 86.7092 225.019 86.7092C226.3 86.7092 227.407 86.9578 228.341 87.4549C229.275 87.9521 230.021 88.6375 230.578 89.5112C231.15 90.3699 231.527 91.3717 231.708 92.5166L231.753 92.833H239.752L239.73 92.6296C239.639 90.1891 238.961 88.0048 237.696 86.0765C236.446 84.1483 234.728 82.6268 232.544 81.512C230.375 80.3972 227.866 79.8398 225.019 79.8398C221.78 79.8398 218.971 80.5102 216.591 81.851C214.225 83.1766 212.395 85.0973 211.1 87.6131C209.804 90.1289 209.156 93.1568 209.156 96.697V96.7196C209.156 100.26 209.796 103.295 211.077 105.826C212.373 108.342 214.203 110.27 216.568 111.611C218.948 112.952 221.765 113.622 225.019 113.622Z" fill="black"/>
<path d="M248.312 113.034H256.605V99.9057H269.598V113.034H277.891V80.4274H269.598V93.2397H256.605V80.4274H248.312V113.034Z" fill="black"/>
<path d="M285.66 113.034H294.382L301.636 87.5227H304.279V80.4274H296.642L285.66 113.034ZM292.077 105.894H311.375L309.522 99.9057H293.93L292.077 105.894ZM309.07 113.034H317.792L306.81 80.4274H301.794V87.5227L309.07 113.034Z" fill="black"/>
<path d="M325.538 113.034H333.831V94.0306H337.244L331.255 90.0762L347.073 113.034H354.033V80.4274H345.762V99.2278H342.328L348.361 103.182L332.589 80.4274H325.538V113.034Z" fill="black"/>
<path d="M363.609 113.034H371.902V94.0306H375.314L369.326 90.0762L385.144 113.034H392.104V80.4274H383.833V99.2278H380.399L386.432 103.182L370.66 80.4274H363.609V113.034Z" fill="black"/>
<path d="M401.68 113.034H424.029V106.368H409.973V99.7702H423.192V93.5335H409.973V87.0934H424.029V80.4274H401.68V113.034Z" fill="black"/>
<path d="M433.334 113.034H455.117V106.368H441.627V80.4274H433.334V113.034Z" fill="black"/>
<path d="M476.128 113.622C479.005 113.622 481.468 113.193 483.517 112.334C485.565 111.46 487.132 110.225 488.217 108.628C489.301 107.031 489.844 105.148 489.844 102.979V102.956C489.844 101.209 489.482 99.725 488.759 98.5047C488.036 97.2694 486.929 96.2526 485.437 95.4542C483.946 94.6558 482.04 94.0381 479.72 93.6012L476.376 92.9685C474.629 92.6371 473.356 92.2153 472.557 91.7031C471.759 91.1909 471.36 90.498 471.36 89.6242V89.6016C471.36 88.984 471.54 88.4341 471.902 87.9521C472.279 87.4549 472.821 87.0633 473.529 86.777C474.237 86.4908 475.096 86.3477 476.105 86.3477C477.099 86.3477 477.98 86.4908 478.749 86.777C479.517 87.0633 480.135 87.4625 480.602 87.9747C481.069 88.4869 481.347 89.1045 481.438 89.8276L481.46 90.0762H489.166L489.143 89.6016C489.053 87.6282 488.48 85.9108 487.426 84.4496C486.386 82.9883 484.91 81.8585 482.997 81.0601C481.084 80.2466 478.764 79.8398 476.037 79.8398C473.552 79.8398 471.329 80.2692 469.371 81.1279C467.428 81.9715 465.899 83.1691 464.784 84.7207C463.669 86.2573 463.112 88.0726 463.112 90.1665V90.1891C463.112 92.6898 463.948 94.7311 465.62 96.3129C467.307 97.8796 469.763 98.9642 472.987 99.5668L476.331 100.222C478.244 100.584 479.6 101.021 480.398 101.533C481.197 102.03 481.596 102.738 481.596 103.657V103.679C481.596 104.357 481.378 104.952 480.941 105.465C480.504 105.977 479.886 106.383 479.088 106.685C478.304 106.971 477.363 107.114 476.263 107.114C475.209 107.114 474.252 106.971 473.393 106.685C472.535 106.383 471.827 105.977 471.269 105.465C470.727 104.937 470.38 104.32 470.23 103.612L470.185 103.386H462.479L462.502 103.792C462.637 105.871 463.262 107.641 464.377 109.103C465.507 110.564 467.066 111.686 469.055 112.47C471.058 113.238 473.416 113.622 476.128 113.622Z" fill="black"/>
<path d="M222.638 157.816C223.381 157.816 223.954 157.743 224.356 157.682V155.075C224.137 155.099 223.905 155.136 223.588 155.136C222.516 155.136 221.968 154.721 221.968 153.503V147.168H224.356V144.488H221.968V141.296H218.374V144.488H216.559V147.168H218.374V153.893C218.374 156.695 219.739 157.816 222.638 157.816Z" fill="black"/>
<path d="M226.403 157.548H229.96V150.068C229.96 148.362 230.971 147.168 232.543 147.168C234.163 147.168 235.064 148.252 235.064 150.08V157.548H238.622V149.349C238.622 146.194 236.868 144.22 234.041 144.22C232.08 144.22 230.703 145.122 230.033 146.742H229.96V139.968H226.403V157.548Z" fill="black"/>
<path d="M246.857 157.816C250.585 157.816 252.388 155.611 252.79 153.686L252.827 153.552H249.562L249.537 153.625C249.282 154.356 248.392 155.16 246.93 155.16C245.115 155.16 243.982 153.942 243.946 151.858H252.936V150.762C252.936 146.815 250.536 144.22 246.711 144.22C242.886 144.22 240.437 146.876 240.437 151.03V151.042C240.437 155.221 242.861 157.816 246.857 157.816ZM246.772 146.876C248.246 146.876 249.306 147.814 249.525 149.617H243.982C244.214 147.85 245.31 146.876 246.772 146.876Z" fill="black"/>
<path d="M310.878 142.391C311.449 142.371 311.768 142.407 311.962 142.425H319.448V145.486H315.934C315.934 145.486 313.577 145.492 312.361 145.486C309.875 145.503 307.544 145.937 307.429 145.951L310.878 142.391Z" fill="url(#paint0_linear_248_7589)"/>
<path d="M301.007 148.873C301.22 149.15 301.22 149.161 301.436 149.466C305.309 154.923 310.653 154.389 310.878 154.363V157.428C310.819 157.436 310.862 157.452 310.341 157.452C308.235 157.452 302.92 156.846 298.942 151.241C298.832 151.087 298.832 151.083 298.723 150.934L301.007 148.873Z" fill="url(#paint1_linear_248_7589)"/>
<path d="M298.613 150.789C294.872 145.74 291.845 145.459 291.845 145.459V142.406C292.301 142.416 296.259 142.681 300.794 148.595L298.613 150.789Z" fill="url(#paint2_linear_248_7589)"/>
<path d="M262.45 157.25V143.772C264.629 142.686 266.899 142.142 269.261 142.142C271.331 142.142 272.95 142.682 274.117 143.764C275.284 144.846 275.868 146.362 275.868 148.313V157.25H272.295V148.008C272.295 147.61 272.259 147.278 272.186 147.011C272.113 146.744 271.969 146.465 271.75 146.174C271.533 145.883 271.176 145.666 270.682 145.519C270.188 145.373 269.555 145.301 268.779 145.301C267.908 145.301 266.988 145.388 266.019 145.563V157.25H262.45Z" fill="#26AF64"/>
<path d="M278.189 149.972C278.189 147.586 278.719 145.679 279.779 144.252C280.839 142.826 282.521 142.113 284.825 142.113C287.004 142.113 288.651 142.808 289.77 144.195C290.887 145.582 291.448 147.291 291.448 149.317C291.448 150.152 291.428 150.768 291.389 151.165H281.763C281.859 152.455 282.244 153.32 282.918 153.755C283.591 154.193 284.463 154.41 285.539 154.41C287.282 154.41 288.41 154.448 290.593 153.823L290.611 156.858C289.472 157.392 287.083 157.483 285.002 157.483C284.343 157.483 283.725 157.43 283.143 157.323C282.562 157.216 281.96 156.992 281.336 156.654C280.712 156.314 280.177 155.882 279.727 155.358C279.279 154.834 278.91 154.11 278.622 153.182C278.334 152.256 278.189 151.185 278.189 149.972ZM281.763 148.692H287.746C287.65 147.671 287.348 146.81 286.838 146.108C286.331 145.406 285.63 145.053 284.74 145.053C283.849 145.053 283.154 145.34 282.655 145.912C282.158 146.486 281.859 147.412 281.763 148.692Z" fill="#26AF64"/>
<path d="M315.935 137.964H312.362V141.357H315.935V137.964Z" fill="#26AF64"/>
<path d="M316.334 154.077C316.067 153.854 315.935 153.423 315.935 152.781V146.584H312.362V152.564C312.362 154.097 312.782 155.3 313.625 156.173C314.468 157.045 315.625 157.483 317.096 157.483C317.116 157.483 317.139 157.483 317.169 157.483C317.992 157.483 318.752 157.336 319.449 157.045V154.091C318.956 154.305 318.389 154.412 317.749 154.412C317.072 154.412 316.6 154.301 316.334 154.077Z" fill="#26AF64"/>
<path d="M321.874 145.445V142.374H324.401C324.421 138.231 326.265 136.16 329.935 136.16C330.408 136.16 330.894 136.209 331.388 136.308V139.159C331.028 139.12 330.764 139.102 330.588 139.102C329.658 139.102 328.991 139.325 328.584 139.771C328.178 140.218 327.974 141.086 327.974 142.376H331.388V145.447H327.974V157.252H324.401V145.445H321.874Z" fill="black"/>
<path d="M334.305 157.249V136.711H337.878V157.249H334.305Z" fill="black"/>
<path d="M343.63 155.505C342.42 154.185 341.813 152.294 341.813 149.829C341.813 147.363 342.418 145.472 343.63 144.152C344.84 142.832 346.575 142.173 348.836 142.173C351.096 142.173 352.831 142.834 354.041 144.152C355.252 145.472 355.858 147.363 355.858 149.829C355.858 152.294 355.252 154.185 354.041 155.505C352.831 156.825 351.096 157.484 348.836 157.484C346.575 157.484 344.84 156.825 343.63 155.505ZM346.238 146.087C345.671 146.738 345.389 147.986 345.389 149.835C345.389 151.683 345.671 152.929 346.238 153.576C346.804 154.221 347.673 154.544 348.843 154.544C350.014 154.544 350.881 154.221 351.443 153.576C352.004 152.931 352.286 151.685 352.286 149.835C352.286 147.986 352.006 146.736 351.443 146.087C350.883 145.436 350.016 145.112 348.843 145.112C347.671 145.112 346.802 145.436 346.238 146.087Z" fill="black"/>
<path d="M357.847 142.374H361.623L364.774 153.102L367.605 142.374H370.669L373.486 153.102L376.637 142.374H380.413L375.156 157.249H371.583L369.143 148.69L366.673 157.249H363.1L357.847 142.374Z" fill="black"/>
<path d="M293.665 152.664C289.781 154.636 286.532 154.391 286.333 154.377L286.094 157.434C286.145 157.438 286.37 157.454 286.739 157.454C288.011 157.454 290.887 157.307 294.289 155.756L293.665 152.664Z" fill="url(#paint3_linear_248_7589)"/>
<path d="M311.961 142.424C311.716 142.401 311.134 142.363 310.307 142.424H310.295L310.291 142.426C307.845 142.61 303.285 143.659 299.038 148.477C297.084 150.693 294.979 152.084 293.055 152.955C290.425 155.99 286.09 157.434 286.09 157.434C286.141 157.438 286.366 157.454 286.735 157.454C288.85 157.454 295.678 156.92 301.332 150.505C304.86 146.502 306.341 146.204 308.388 145.707C308.388 145.707 310.273 144.73 312.709 143.986C316.172 142.882 319.445 142.424 319.445 142.424H311.961V142.424Z" fill="#26AF64"/>
<path d="M390.303 161.812H393.86V155.318H393.933C394.64 156.866 396.114 157.816 397.978 157.816C401.243 157.816 403.265 155.257 403.265 151.018V151.006C403.265 146.754 401.243 144.22 397.929 144.22C396.077 144.22 394.652 145.182 393.945 146.766H393.86V144.488H390.303V161.812ZM396.76 154.868C395.03 154.868 393.848 153.381 393.848 151.03V151.018C393.848 148.654 395.03 147.168 396.76 147.168C398.526 147.168 399.647 148.618 399.647 151.006V151.018C399.647 153.394 398.526 154.868 396.76 154.868Z" fill="black"/>
<path d="M411.111 157.816C415.058 157.816 417.58 155.282 417.58 151.018V150.994C417.58 146.766 415.009 144.22 411.098 144.22C407.2 144.22 404.642 146.791 404.642 150.994V151.018C404.642 155.27 407.139 157.816 411.111 157.816ZM411.123 155.026C409.369 155.026 408.26 153.576 408.26 151.018V150.994C408.26 148.472 409.381 147.01 411.098 147.01C412.828 147.01 413.961 148.472 413.961 150.994V151.018C413.961 153.564 412.853 155.026 411.123 155.026Z" fill="black"/>
<path d="M424.256 157.816C426.144 157.816 427.582 156.866 428.276 155.318H428.349V157.548H431.906V139.968H428.349V146.754H428.276C427.569 145.17 426.107 144.22 424.256 144.22C420.966 144.22 418.944 146.754 418.944 151.006V151.018C418.944 155.257 420.966 157.816 424.256 157.816ZM425.45 154.868C423.671 154.868 422.562 153.394 422.562 151.018V151.006C422.562 148.618 423.683 147.168 425.45 147.168C427.167 147.168 428.361 148.654 428.361 151.006V151.018C428.361 153.381 427.18 154.868 425.45 154.868Z" fill="black"/>
<path d="M440.251 157.816C443.736 157.816 445.989 155.647 446.16 152.797V152.723H442.846L442.834 152.833C442.591 154.149 441.701 155.026 440.276 155.026C438.522 155.026 437.425 153.576 437.425 151.018V151.006C437.425 148.508 438.522 147.01 440.264 147.01C441.738 147.01 442.603 147.96 442.822 149.203L442.846 149.312H446.148V149.227C446.014 146.401 443.76 144.22 440.215 144.22C436.304 144.22 433.807 146.815 433.807 150.994V151.006C433.807 155.221 436.268 157.816 440.251 157.816Z" fill="black"/>
<path d="M451.764 157.755C453.482 157.755 454.871 156.939 455.614 155.599H455.687V157.548H459.244V148.594C459.244 145.962 457.063 144.22 453.689 144.22C450.241 144.22 448.17 145.95 447.975 148.362L447.963 148.508H451.216L451.24 148.399C451.411 147.558 452.215 146.937 453.543 146.937C454.932 146.937 455.687 147.655 455.687 148.813V149.617L452.458 149.812C449.218 150.019 447.378 151.408 447.378 153.783V153.808C447.378 156.11 449.145 157.755 451.764 157.755ZM450.899 153.625V153.601C450.899 152.675 451.618 152.09 452.994 152.005L455.687 151.834V152.772C455.687 154.137 454.517 155.16 452.921 155.16C451.691 155.16 450.899 154.587 450.899 153.625Z" fill="black"/>
<path d="M466.919 157.816C470.282 157.816 472.633 156.135 472.633 153.576V153.564C472.633 151.639 471.512 150.567 468.783 149.995L466.566 149.519C465.25 149.239 464.799 148.801 464.799 148.131V148.118C464.799 147.278 465.567 146.73 466.797 146.73C468.113 146.73 468.881 147.436 469.002 148.374L469.015 148.472H472.292V148.35C472.206 146.06 470.269 144.22 466.797 144.22C463.472 144.22 461.327 145.828 461.327 148.313V148.326C461.327 150.275 462.607 151.542 465.141 152.078L467.358 152.541C468.637 152.821 469.076 153.223 469.076 153.917V153.93C469.076 154.77 468.259 155.294 466.919 155.294C465.494 155.294 464.726 154.697 464.495 153.674L464.471 153.564H460.998L461.011 153.674C461.291 156.147 463.301 157.816 466.919 157.816Z" fill="black"/>
<path d="M479.577 157.816C480.32 157.816 480.893 157.743 481.295 157.682V155.075C481.075 155.099 480.844 155.136 480.527 155.136C479.455 155.136 478.907 154.721 478.907 153.503V147.168H481.295V144.488H478.907V141.296H475.313V144.488H473.498V147.168H475.313V153.893C475.313 156.695 476.677 157.816 479.577 157.816Z" fill="black"/>
<rect y="4" width="200" height="200" rx="6" fill="white"/>
<path fill-rule="evenodd" clip-rule="evenodd" d="M112.031 70.086L112.054 70.4565V70.7616V70.7772L112.054 70.7927L112.054 70.8342L112.054 70.8757L112.054 70.8912V70.9068V81.3729H121.4L121.388 69.5045L121.429 70.9068L121.429 70.8342L121.429 70.7616V69.5045H121.388C120.696 58.3772 111.385 49.5649 100 49.5649C88.6157 49.5649 79.3046 58.3772 78.6131 69.5045H78.5718V78.8795V81.3729H87.9468V70.4604L87.97 70.086C88.3526 63.9301 93.5384 58.9399 100 58.9399C106.463 58.9399 111.648 63.9301 112.031 70.086ZM87.9468 110.168H78.5718V117.693V118.357H78.582C78.9357 129.797 88.3897 138.962 100 138.962C111.611 138.962 121.065 129.797 121.419 118.357H121.429V117.693V110.168H112.054V117.693V117.881L112.048 118.068C111.852 124.397 106.593 129.587 100 129.587C93.4072 129.587 88.1483 124.397 87.9525 118.068L87.9468 117.881V117.693V110.168Z" fill="#26AF64"/>
<mask id="mask0_248_7589" style="mask-type:alpha" maskUnits="userSpaceOnUse" x="78" y="71" width="44" height="46">
<rect x="78.5718" y="71.6631" width="42.8571" height="45.2008" fill="#D9D9D9"/>
</mask>
<g mask="url(#mask0_248_7589)">
<path d="M103.504 91.4067C104.175 92.2826 104.175 92.3202 104.852 93.2837C117.036 110.539 133.847 108.85 134.555 108.768V118.46C134.369 118.485 134.506 118.535 132.866 118.535C126.24 118.535 109.522 116.62 97.0082 98.8957C96.6604 98.4077 96.6604 98.3952 96.3188 97.926L103.504 91.4067Z" fill="url(#paint4_linear_248_7589)"/>
<path d="M95.9708 97.4692C84.2024 81.5026 74.6821 80.6142 74.6821 80.6142V70.9604C76.1167 70.9917 88.5682 71.8301 102.833 90.5307L95.9708 97.4692Z" fill="url(#paint5_linear_248_7589)"/>
<path fill-rule="evenodd" clip-rule="evenodd" d="M118.98 82.8674C114.495 85.1221 109.906 89.1775 104.098 96.8141C99.6584 102.652 95.0738 107.648 90.3538 111.221C85.6466 114.785 80.4472 117.199 74.8887 117.199L74.8887 107.611C77.5561 107.611 80.7272 106.446 84.4861 103.6C88.2321 100.765 92.2093 96.5224 96.3778 91.0412C102.599 82.8615 108.25 77.5119 114.608 74.3157C121.015 71.0946 127.622 70.3237 135.156 70.3237V79.9118C128.253 79.9118 123.416 80.6376 118.98 82.8674Z" fill="#26AF64"/>
</g>
<path fill-rule="evenodd" clip-rule="evenodd" d="M62.5 107.154V110.712V117.585V118.748H62.518C63.0768 136.824 76.6202 151.656 94.2024 154.364C94.5707 154.421 94.9408 154.472 95.3126 154.518L95.3126 154.66L95.3126 162.4H94.3371H93.617H87.2769H86.6072H78.5715V170.435H86.6072L95.3126 170.435H103.348L113.393 170.435H121.429V162.4H113.393H111.384L106.383 162.4H104.028L103.348 162.4L103.348 154.66C104.173 154.587 104.989 154.489 105.798 154.364C123.38 151.656 136.923 136.824 137.482 118.748H137.5V117.585V110.712V107.154H129.464V117.585V118.043L129.45 118.499C128.994 133.267 117.42 145.357 102.645 146.655L99.4608 146.935L96.2997 146.543C82.031 144.777 70.9954 132.913 70.5498 118.499L70.5357 118.043V117.585V107.154H62.5Z" fill="black"/>
</g>
<defs>
<linearGradient id="paint0_linear_248_7589" x1="310.561" y1="141.934" x2="317.812" y2="147.586" gradientUnits="userSpaceOnUse">
<stop offset="0.2147" stop-color="#035421"/>
<stop offset="0.2726" stop-color="#08622B"/>
<stop offset="0.4333" stop-color="#158344"/>
<stop offset="0.5866" stop-color="#1E9B56"/>
<stop offset="0.7282" stop-color="#24AA60"/>
<stop offset="0.8466" stop-color="#26AF64"/>
</linearGradient>
<linearGradient id="paint1_linear_248_7589" x1="304.041" y1="148.335" x2="305.807" y2="158.325" gradientUnits="userSpaceOnUse">
<stop offset="0.1043" stop-color="#035421"/>
<stop offset="0.4356" stop-color="#26AF64"/>
</linearGradient>
<linearGradient id="paint2_linear_248_7589" x1="291.102" y1="143.644" x2="300.414" y2="149.227" gradientUnits="userSpaceOnUse">
<stop offset="0.6196" stop-color="#26AF64"/>
<stop offset="1" stop-color="#035421"/>
</linearGradient>
<linearGradient id="paint3_linear_248_7589" x1="286.977" y1="153.301" x2="293.437" y2="157.174" gradientUnits="userSpaceOnUse">
<stop offset="0.1534" stop-color="#26AF64"/>
<stop offset="0.237" stop-color="#23A75E"/>
<stop offset="0.3702" stop-color="#1A8F4D"/>
<stop offset="0.5355" stop-color="#0B6A31"/>
<stop offset="0.6196" stop-color="#035421"/>
</linearGradient>
<linearGradient id="paint4_linear_248_7589" x1="113.048" y1="89.7079" x2="118.658" y2="121.287" gradientUnits="userSpaceOnUse">
<stop offset="0.1043" stop-color="#035421"/>
<stop offset="0.4356" stop-color="#26AF64"/>
</linearGradient>
<linearGradient id="paint5_linear_248_7589" x1="72.3451" y1="74.8754" x2="101.719" y2="92.3943" gradientUnits="userSpaceOnUse">
<stop offset="0.6196" stop-color="#26AF64"/>
<stop offset="1" stop-color="#035421"/>
</linearGradient>
<clipPath id="clip0_248_7589">
<rect width="567" height="225" fill="white"/>
</clipPath>
</defs>
</svg>
