<svg width="200" height="96" viewBox="0 0 200 96" fill="none" xmlns="http://www.w3.org/2000/svg">
<rect width="200" height="96" rx="6" fill="white"/>
<path fill-rule="evenodd" clip-rule="evenodd" d="M36.3569 30.79L36.3645 30.9118V30.9965V31.0056L36.3645 31.0147L36.3646 31.0387L36.3645 31.0628L36.3645 31.0719V31.081V34.5271H39.4559V33.6901V31.081L39.456 31.0387L39.4559 30.9965V30.5987H39.4424C39.2141 26.9163 36.1399 24 32.3811 24C28.6223 24 25.5482 26.9163 25.3199 30.5987H25.3062V33.6901V34.5271H28.3976V30.9158L28.4054 30.79C28.5324 28.7409 30.252 27.0914 32.3811 27.0914C34.5103 27.0914 36.2299 28.7409 36.3569 30.79ZM28.3976 44.0562H25.3062V46.5463V46.7659H25.3095C25.4261 50.5516 28.5475 53.585 32.381 53.585C36.2145 53.585 39.3359 50.5516 39.4525 46.7659H39.4559V46.5463V44.0562H36.3645V46.5463V46.6086L36.3626 46.6707C36.2977 48.7779 34.5533 50.4936 32.381 50.4936C30.2087 50.4936 28.4644 48.7779 28.3995 46.6707L28.3976 46.6086V46.5463V44.0562Z" fill="#26AF64"/>
<mask id="mask0_250_7197" style="mask-type:alpha" maskUnits="userSpaceOnUse" x="25" y="31" width="15" height="16">
<rect x="25.3062" y="31.313" width="14.1497" height="14.9585" fill="#D9D9D9"/>
</mask>
<g mask="url(#mask0_250_7197)">
<path d="M33.5378 37.8472C33.7592 38.137 33.7592 38.1495 33.9827 38.4683C38.0056 44.1787 43.5559 43.6197 43.7897 43.5928V46.8C43.7282 46.8082 43.7733 46.8248 43.232 46.8248C41.0442 46.8248 35.5246 46.1912 31.3931 40.3255C31.2783 40.164 31.2783 40.1599 31.1655 40.0046L33.5378 37.8472Z" fill="url(#paint0_linear_250_7197)"/>
<path d="M31.0506 39.8542C27.1652 34.5703 24.022 34.2763 24.022 34.2763V31.0815C24.4956 31.0919 28.6066 31.3693 33.3163 37.558L31.0506 39.8542Z" fill="url(#paint1_linear_250_7197)"/>
<path fill-rule="evenodd" clip-rule="evenodd" d="M38.6477 35.0208C37.1669 35.7669 35.6518 37.109 33.7342 39.6362C32.2683 41.5682 30.7547 43.2217 29.1963 44.4041C27.6422 45.5833 25.9255 46.3822 24.0903 46.3822L24.0903 43.2092C24.971 43.2092 26.018 42.8237 27.259 41.882C28.4958 40.9436 29.8089 39.5397 31.1852 37.7258C33.2391 35.0188 35.1049 33.2484 37.204 32.1907C39.3194 31.1247 41.5009 30.8696 43.9884 30.8696V34.0426C41.7092 34.0426 40.1121 34.2829 38.6477 35.0208Z" fill="#26AF64"/>
</g>
<path fill-rule="evenodd" clip-rule="evenodd" d="M20 43.0581V44.2442V46.5102V46.894H20.0059C20.1906 52.8969 24.6923 57.8189 30.5265 58.6907C30.6284 58.7059 30.7307 58.7199 30.8334 58.7327V61.3405H30.5099H30.3392H28.1836H27.956H25.3062V61.35V63.9903V63.9998H27.956H36.8062H39.4559V63.9903V61.35V61.3405H36.8062H36.1363H34.423H33.7119H33.4865V58.7795C33.7384 58.7574 33.9882 58.7277 34.2355 58.6907C40.0698 57.8189 44.5715 52.8969 44.7561 46.894H44.762V46.5102V44.2442V43.0581H42.1123V46.5102V46.6616L42.1076 46.8125C41.9569 51.7099 38.1293 55.7108 33.2541 56.14L32.203 56.2325L31.1597 56.103C26.4512 55.5189 22.8015 51.5923 22.6544 46.8125L22.6498 46.6616V46.5102V43.0581H20Z" fill="black"/>
<path d="M63.0918 46C64.2219 46 65.2197 45.769 66.0853 45.307C66.9569 44.845 67.6452 44.2176 68.1501 43.4247C68.661 42.6256 68.9376 41.7235 68.9796 40.7184V40.6154H65.7968L65.7788 40.709C65.7006 41.2147 65.5413 41.6517 65.3009 42.0201C65.0604 42.3822 64.7539 42.6631 64.3812 42.8629C64.0085 43.0564 63.5817 43.1532 63.1008 43.1532C62.4997 43.1532 61.9768 42.9877 61.532 42.6569C61.0871 42.326 60.7445 41.8484 60.5041 41.2241C60.2636 40.5998 60.1434 39.8537 60.1434 38.986V38.9766C60.1434 38.1151 60.2636 37.3784 60.5041 36.7666C60.7445 36.1485 61.0841 35.674 61.5229 35.3431C61.9678 35.0123 62.4907 34.8468 63.0918 34.8468C63.6028 34.8468 64.0446 34.9498 64.4173 35.1559C64.7899 35.3619 65.0875 35.6459 65.3099 36.008C65.5383 36.3639 65.6886 36.779 65.7607 37.2535L65.7788 37.3846H68.9706L68.9616 37.3003C68.9255 36.289 68.655 35.3837 68.1501 34.5846C67.6512 33.7855 66.9659 33.155 66.0943 32.693C65.2287 32.231 64.2279 32 63.0918 32C61.7995 32 60.6784 32.2778 59.7287 32.8334C58.7849 33.3828 58.0546 34.1788 57.5376 35.2214C57.0207 36.264 56.7622 37.5188 56.7622 38.986V38.9953C56.7622 40.4624 57.0177 41.7204 57.5286 42.7692C58.0456 43.8118 58.7759 44.6109 59.7196 45.1666C60.6694 45.7222 61.7934 46 63.0918 46Z" fill="black"/>
<path d="M72.3861 45.7565H75.6952V40.3157H80.8797V45.7565H84.1888V32.2435H80.8797V37.5532H75.6952V32.2435H72.3861V45.7565Z" fill="black"/>
<path d="M87.2886 45.7565H90.769L93.6633 35.1839H94.7183V32.2435H91.6707L87.2886 45.7565ZM89.8493 42.7973H97.5495L96.8101 40.3157H90.5887L89.8493 42.7973ZM96.6298 45.7565H100.11L95.7281 32.2435H93.7265V35.1839L96.6298 45.7565Z" fill="black"/>
<path d="M103.201 45.7565H106.51V37.8809H107.872L105.482 36.2421L111.794 45.7565H114.571V32.2435H111.271V40.0348H109.9L112.308 41.6736L106.014 32.2435H103.201V45.7565Z" fill="black"/>
<path d="M118.392 45.7565H121.701V37.8809H123.063L120.673 36.2421L126.985 45.7565H129.762V32.2435H126.462V40.0348H125.091L127.499 41.6736L121.205 32.2435H118.392V45.7565Z" fill="black"/>
<path d="M133.583 45.7565H142.501V42.994H136.892V40.2595H142.167V37.6749H136.892V35.006H142.501V32.2435H133.583V45.7565Z" fill="black"/>
<path d="M146.214 45.7565H154.906V42.994H149.523V32.2435H146.214V45.7565Z" fill="black"/>
<path d="M163.289 46C164.437 46 165.42 45.8221 166.238 45.4662C167.055 45.1041 167.68 44.5922 168.113 43.9304C168.546 43.2687 168.762 42.4883 168.762 41.5893V41.5799C168.762 40.8557 168.618 40.2408 168.329 39.7351C168.041 39.2232 167.599 38.8018 167.004 38.4709C166.409 38.14 165.648 37.8841 164.723 37.703L163.388 37.4408C162.691 37.3035 162.183 37.1287 161.865 36.9164C161.546 36.7041 161.387 36.4169 161.387 36.0548V36.0455C161.387 35.7895 161.459 35.5616 161.603 35.3619C161.753 35.1559 161.97 34.9935 162.252 34.8749C162.535 34.7563 162.877 34.697 163.28 34.697C163.677 34.697 164.029 34.7563 164.335 34.8749C164.642 34.9935 164.888 35.159 165.074 35.3712C165.261 35.5835 165.372 35.8395 165.408 36.1391L165.417 36.2421H168.492L168.483 36.0455C168.447 35.2276 168.218 34.5159 167.797 33.9104C167.383 33.3048 166.794 32.8366 166.03 32.5057C165.267 32.1686 164.341 32 163.253 32C162.261 32 161.375 32.1779 160.593 32.5338C159.818 32.8834 159.208 33.3797 158.763 34.0227C158.318 34.6595 158.096 35.4118 158.096 36.2796V36.289C158.096 37.3253 158.429 38.1712 159.096 38.8268C159.77 39.476 160.749 39.9255 162.036 40.1753L163.37 40.4468C164.134 40.5967 164.675 40.7777 164.993 40.99C165.312 41.196 165.471 41.4894 165.471 41.8702V41.8796C165.471 42.1605 165.384 42.4071 165.21 42.6194C165.035 42.8317 164.789 43.0002 164.47 43.1251C164.158 43.2437 163.782 43.303 163.343 43.303C162.922 43.303 162.541 43.2437 162.198 43.1251C161.856 43.0002 161.573 42.8317 161.351 42.6194C161.134 42.4009 160.996 42.1449 160.936 41.8515L160.918 41.7579H157.843L157.852 41.9264C157.906 42.788 158.156 43.5215 158.601 44.1271C159.051 44.7327 159.674 45.1978 160.467 45.5224C161.266 45.8408 162.207 46 163.289 46Z" fill="black"/>
<path d="M60.001 63.5215C60.1549 63.5215 60.3 63.5143 60.436 63.5C60.5721 63.4857 60.6885 63.4696 60.7852 63.4517V62.2861C60.71 62.2933 60.6383 62.3005 60.5703 62.3076C60.5059 62.3112 60.4235 62.313 60.3232 62.313C60.0583 62.313 59.8649 62.2521 59.7432 62.1304C59.625 62.005 59.5659 61.8099 59.5659 61.5449V58.7681H60.7852V57.5864H59.5659V56.1738H57.9814V57.5864H57.0684V58.7681H57.9814V61.9048C57.9814 62.4777 58.139 62.8913 58.4541 63.1455C58.7692 63.3962 59.2848 63.5215 60.001 63.5215ZM62.144 63.5H63.7124V60.0786C63.7124 59.8101 63.759 59.5773 63.8521 59.3804C63.9487 59.1834 64.083 59.0312 64.2549 58.9238C64.4303 58.8128 64.638 58.7573 64.8779 58.7573C65.2503 58.7573 65.5243 58.8647 65.6997 59.0796C65.8752 59.2944 65.9629 59.6113 65.9629 60.0303V63.5H67.5312V59.6758C67.5312 59.2031 67.4525 58.8021 67.2949 58.4727C67.141 58.1432 66.9136 57.8926 66.6128 57.7207C66.3156 57.5452 65.9468 57.4575 65.5063 57.4575C65.0838 57.4575 64.7293 57.5506 64.4429 57.7368C64.1564 57.923 63.9451 58.1772 63.8091 58.4995H63.7124V55.3252H62.144V63.5ZM71.6509 63.6235C72.0841 63.6235 72.4583 63.5698 72.7734 63.4624C73.0921 63.3514 73.3571 63.2082 73.5684 63.0327C73.7832 62.8573 73.9515 62.6693 74.0732 62.4688C74.195 62.2646 74.2791 62.0695 74.3257 61.8833L74.3364 61.8296H72.8755L72.8594 61.8618C72.8236 61.937 72.7555 62.0212 72.6553 62.1143C72.5586 62.2038 72.4297 62.2826 72.2686 62.3506C72.1074 62.4186 71.9123 62.4526 71.6831 62.4526C71.4002 62.4526 71.1567 62.39 70.9526 62.2646C70.7485 62.1393 70.591 61.9585 70.48 61.7222C70.369 61.4858 70.3135 61.2012 70.3135 60.8682V60.2344C70.3135 59.8906 70.369 59.6006 70.48 59.3643C70.5946 59.1243 70.7485 58.9435 70.9419 58.8218C71.1388 58.6965 71.3626 58.6338 71.6133 58.6338C71.8675 58.6338 72.0895 58.6947 72.2793 58.8164C72.4727 58.9346 72.623 59.1118 72.7305 59.3481C72.8415 59.5845 72.897 59.8799 72.897 60.2344V60.8628L73.6328 59.9336H69.5454V60.9165H74.3848V60.4277C74.3848 59.8298 74.272 59.3088 74.0464 58.8647C73.8208 58.4207 73.4985 58.0752 73.0796 57.8281C72.6606 57.5811 72.1629 57.4575 71.5864 57.4575C71.0135 57.4575 70.514 57.5846 70.0879 57.8389C69.6654 58.0931 69.3377 58.4512 69.105 58.9131C68.8758 59.375 68.7612 59.9193 68.7612 60.5459V60.5513C68.7612 61.1851 68.8776 61.7311 69.1104 62.1895C69.3431 62.6478 69.6743 63.0023 70.104 63.2529C70.5373 63.5 71.0529 63.6235 71.6509 63.6235Z" fill="black"/>
<path d="M100.289 57.6172C100.531 57.6088 100.666 57.6239 100.748 57.6314H103.921V58.9259H102.432C102.432 58.9259 101.433 58.9284 100.917 58.9259C99.8639 58.9334 98.8757 59.1167 98.8271 59.1225L100.289 57.6172Z" fill="url(#paint2_linear_250_7197)"/>
<path d="M96.1049 60.3584C96.1952 60.4755 96.1952 60.4806 96.2864 60.6094C97.9282 62.9172 100.193 62.6913 100.289 62.6804V63.9766C100.264 63.9799 100.282 63.9866 100.061 63.9866C99.1682 63.9866 96.9157 63.7306 95.2296 61.36C95.1827 61.2947 95.1827 61.2931 95.1367 61.2303L96.1049 60.3584Z" fill="url(#paint3_linear_250_7197)"/>
<path d="M95.0901 61.1694C93.5044 59.034 92.2217 58.9152 92.2217 58.9152V57.624C92.415 57.6282 94.0927 57.7403 96.0147 60.2414L95.0901 61.1694Z" fill="url(#paint4_linear_250_7197)"/>
<path d="M79.7622 63.9012V58.2012C80.686 57.7418 81.6483 57.5117 82.649 57.5117C83.5268 57.5117 84.213 57.7402 84.7075 58.1979C85.202 58.6556 85.4497 59.2965 85.4497 60.1216V63.9012H83.9351V59.9927C83.9351 59.8245 83.9201 59.684 83.8891 59.571C83.8582 59.458 83.7971 59.34 83.7042 59.217C83.6122 59.094 83.4607 59.002 83.2515 58.9401C83.0423 58.8782 82.7737 58.848 82.4449 58.848C82.0759 58.848 81.6859 58.8848 81.2751 58.9585V63.9012H79.7622Z" fill="#26AF64"/>
<path d="M86.4336 60.8236C86.4336 59.8145 86.6578 59.0078 87.1072 58.4045C87.5565 57.8012 88.2695 57.5 89.246 57.5C90.1697 57.5 90.8676 57.7937 91.3421 58.3803C91.8157 58.9668 92.0533 59.6898 92.0533 60.5467C92.0533 60.8998 92.0449 61.16 92.0282 61.3282H87.9481C87.9891 61.8738 88.1523 62.2394 88.4376 62.4235C88.723 62.6084 89.0928 62.7005 89.5489 62.7005C90.2877 62.7005 90.7655 62.7164 91.691 62.452L91.6985 63.7356C91.2157 63.9615 90.2032 64 89.3213 64C89.0418 64 88.7799 63.9774 88.533 63.9322C88.287 63.887 88.0318 63.7925 87.7674 63.6494C87.503 63.5055 87.2762 63.323 87.0854 63.1013C86.8955 62.8796 86.739 62.5733 86.6168 62.1809C86.4947 61.7893 86.4336 61.3366 86.4336 60.8236ZM87.9481 60.2822H90.4844C90.4434 59.8505 90.3153 59.4865 90.0995 59.1894C89.8844 58.8924 89.5874 58.7434 89.21 58.7434C88.8326 58.7434 88.5381 58.8648 88.3264 59.1066C88.1155 59.3492 87.9891 59.7409 87.9481 60.2822Z" fill="#26AF64"/>
<path d="M102.433 55.7456H100.918V57.1807H102.433V55.7456Z" fill="#26AF64"/>
<path d="M102.602 62.5599C102.489 62.4654 102.433 62.283 102.433 62.0119V59.3911H100.918V61.9198C100.918 62.5683 101.096 63.0771 101.453 63.4461C101.811 63.8151 102.301 64 102.925 64C102.933 64 102.943 64 102.955 64C103.304 64 103.627 63.9381 103.922 63.8151V62.5658C103.713 62.6562 103.473 62.7014 103.201 62.7014C102.914 62.7014 102.715 62.6545 102.602 62.5599Z" fill="#26AF64"/>
<path d="M104.95 58.9094V57.6107H106.021C106.029 55.8585 106.811 54.9824 108.366 54.9824C108.567 54.9824 108.773 55.0033 108.982 55.0452V56.251C108.83 56.2342 108.718 56.2267 108.643 56.2267C108.249 56.2267 107.966 56.3212 107.794 56.5095C107.621 56.6986 107.535 57.066 107.535 57.6115H108.982V58.9102H107.535V63.9023H106.021V58.9094H104.95Z" fill="black"/>
<path d="M110.219 63.9014V55.2158H111.733V63.9014H110.219Z" fill="black"/>
<path d="M114.171 63.1635C113.658 62.6054 113.401 61.8054 113.401 60.7628C113.401 59.7202 113.657 58.9203 114.171 58.3622C114.684 57.804 115.419 57.5254 116.377 57.5254C117.335 57.5254 118.071 57.8049 118.584 58.3622C119.097 58.9203 119.354 59.7202 119.354 60.7628C119.354 61.8054 119.097 62.6054 118.584 63.1635C118.071 63.7216 117.335 64.0003 116.377 64.0003C115.419 64.0003 114.684 63.7216 114.171 63.1635ZM115.276 59.1805C115.036 59.4558 114.916 59.9838 114.916 60.7653C114.916 61.5469 115.036 62.074 115.276 62.3477C115.516 62.6204 115.884 62.7568 116.381 62.7568C116.877 62.7568 117.244 62.6204 117.483 62.3477C117.72 62.0749 117.84 61.5477 117.84 60.7653C117.84 59.9838 117.721 59.455 117.483 59.1805C117.245 58.9052 116.878 58.768 116.381 58.768C115.884 58.768 115.515 58.9052 115.276 59.1805Z" fill="black"/>
<path d="M120.197 57.6108H121.798L123.133 62.1478L124.333 57.6108H125.632L126.826 62.1478L128.162 57.6108H129.762L127.534 63.9016H126.019L124.985 60.2818L123.938 63.9016H122.424L120.197 57.6108Z" fill="black"/>
<path d="M92.9932 61.9619C91.3473 62.7962 89.9699 62.6924 89.8854 62.6866L89.7842 63.9794C89.8059 63.981 89.9013 63.9877 90.0578 63.9877C90.5967 63.9877 91.8158 63.9258 93.2576 63.2698L92.9932 61.9619Z" fill="url(#paint5_linear_250_7197)"/>
<path d="M100.748 57.6318C100.644 57.6217 100.397 57.6058 100.047 57.6318H100.042L100.04 57.6326C99.0034 57.7104 97.0704 58.1539 95.2706 60.1914C94.4422 61.1286 93.5502 61.7169 92.7343 62.085C91.6198 63.3686 89.7822 63.9795 89.7822 63.9795C89.804 63.9811 89.8994 63.9878 90.0558 63.9878C90.952 63.9878 93.8464 63.7619 96.2429 61.0491C97.7382 59.3563 98.3658 59.23 99.2335 59.02C99.2335 59.02 100.033 58.6066 101.065 58.292C102.533 57.8251 103.92 57.6318 103.92 57.6318H100.748V57.6318Z" fill="#26AF64"/>
<path d="M133.546 65.4604H135.115V62.5547H135.211C135.312 62.7695 135.448 62.9539 135.62 63.1079C135.795 63.2619 135.997 63.3818 136.227 63.4678C136.459 63.5501 136.712 63.5913 136.984 63.5913C137.482 63.5913 137.91 63.4696 138.268 63.2261C138.626 62.9826 138.901 62.6335 139.095 62.1787C139.288 61.724 139.385 61.1797 139.385 60.5459V60.5352C139.385 59.9049 139.286 59.3643 139.089 58.9131C138.896 58.4583 138.62 58.1074 138.262 57.8604C137.904 57.6133 137.478 57.4897 136.984 57.4897C136.705 57.4897 136.45 57.5309 136.221 57.6133C135.992 57.6921 135.792 57.8066 135.62 57.957C135.451 58.1074 135.315 58.2882 135.211 58.4995H135.115V57.5864H133.546V65.4604ZM136.447 62.2915C136.175 62.2915 135.937 62.2217 135.732 62.082C135.532 61.9424 135.376 61.7419 135.265 61.4805C135.154 61.2155 135.099 60.904 135.099 60.5459V60.5352C135.099 60.1699 135.152 59.8584 135.26 59.6006C135.371 59.3392 135.527 59.1387 135.727 58.999C135.931 58.8594 136.171 58.7896 136.447 58.7896C136.726 58.7896 136.964 58.8594 137.161 58.999C137.362 59.1387 137.516 59.3392 137.623 59.6006C137.734 59.862 137.79 60.1735 137.79 60.5352V60.5459C137.79 60.9076 137.734 61.2191 137.623 61.4805C137.516 61.7419 137.362 61.9424 137.161 62.082C136.964 62.2217 136.726 62.2915 136.447 62.2915ZM143.295 63.6235C143.904 63.6235 144.425 63.5018 144.858 63.2583C145.295 63.0112 145.63 62.6585 145.862 62.2002C146.095 61.7383 146.211 61.1868 146.211 60.5459V60.5352C146.211 59.8978 146.093 59.3499 145.857 58.8916C145.621 58.4297 145.284 58.0752 144.847 57.8281C144.414 57.5811 143.896 57.4575 143.295 57.4575C142.693 57.4575 142.174 57.5828 141.737 57.8335C141.304 58.0806 140.969 58.4333 140.733 58.8916C140.497 59.3499 140.378 59.8978 140.378 60.5352V60.5459C140.378 61.1868 140.495 61.7383 140.728 62.2002C140.96 62.6585 141.295 63.0112 141.732 63.2583C142.169 63.5018 142.69 63.6235 143.295 63.6235ZM143.295 62.3936C143.016 62.3936 142.778 62.3219 142.581 62.1787C142.387 62.0319 142.239 61.8206 142.135 61.5449C142.035 61.2692 141.984 60.9362 141.984 60.5459V60.5352C141.984 60.1484 142.036 59.819 142.14 59.5469C142.244 59.2712 142.393 59.0599 142.586 58.9131C142.783 58.7627 143.019 58.6875 143.295 58.6875C143.571 58.6875 143.805 58.7627 143.999 58.9131C144.195 59.0599 144.346 59.2712 144.45 59.5469C144.554 59.819 144.605 60.1484 144.605 60.5352V60.5459C144.605 60.9326 144.554 61.2638 144.45 61.5396C144.346 61.8153 144.197 62.0265 144.004 62.1733C143.811 62.3201 143.574 62.3936 143.295 62.3936ZM149.601 63.5913C149.88 63.5913 150.134 63.5519 150.363 63.4731C150.592 63.3908 150.791 63.2744 150.959 63.124C151.131 62.9736 151.267 62.7928 151.368 62.5815H151.464V63.5H153.033V55.3252H151.464V58.5317H151.368C151.271 58.3133 151.135 58.1271 150.959 57.9731C150.784 57.8192 150.58 57.701 150.347 57.6187C150.118 57.5327 149.869 57.4897 149.601 57.4897C149.099 57.4897 148.67 57.6115 148.312 57.855C147.953 58.0985 147.678 58.4476 147.484 58.9023C147.295 59.3571 147.2 59.9014 147.2 60.5352V60.5459C147.2 61.1761 147.296 61.7186 147.49 62.1733C147.687 62.6281 147.964 62.979 148.322 63.2261C148.684 63.4696 149.11 63.5913 149.601 63.5913ZM150.132 62.2915C149.857 62.2915 149.618 62.2217 149.418 62.082C149.217 61.9424 149.063 61.7419 148.956 61.4805C148.849 61.2191 148.795 60.9076 148.795 60.5459V60.5352C148.795 60.1735 148.849 59.8638 148.956 59.606C149.063 59.3446 149.217 59.144 149.418 59.0044C149.622 58.8612 149.86 58.7896 150.132 58.7896C150.408 58.7896 150.646 58.8612 150.847 59.0044C151.051 59.144 151.207 59.3446 151.314 59.606C151.425 59.8638 151.48 60.1753 151.48 60.5405V60.5513C151.48 60.9093 151.425 61.2191 151.314 61.4805C151.207 61.7419 151.053 61.9424 150.852 62.082C150.652 62.2217 150.412 62.2915 150.132 62.2915ZM157.26 63.6235C157.775 63.6235 158.219 63.5376 158.592 63.3657C158.964 63.1903 159.26 62.9432 159.478 62.6245C159.696 62.3058 159.834 61.9334 159.892 61.5073V61.4697L158.441 61.4751L158.431 61.4912C158.363 61.792 158.232 62.0176 158.039 62.168C157.845 62.3184 157.587 62.3936 157.265 62.3936C156.986 62.3936 156.75 62.3219 156.556 62.1787C156.363 62.0355 156.214 61.826 156.11 61.5503C156.01 61.271 155.96 60.9326 155.96 60.5352V60.5244C155.96 60.127 156.01 59.7922 156.11 59.52C156.211 59.2479 156.357 59.042 156.551 58.9023C156.748 58.7591 156.986 58.6875 157.265 58.6875C157.602 58.6875 157.867 58.7752 158.06 58.9507C158.257 59.1226 158.382 59.3517 158.436 59.6382L158.441 59.6489H159.897V59.6328C159.85 59.1924 159.718 58.8092 159.5 58.4834C159.281 58.1576 158.984 57.9051 158.608 57.7261C158.232 57.547 157.783 57.4575 157.26 57.4575C156.644 57.4575 156.119 57.5793 155.686 57.8228C155.256 58.0627 154.929 58.41 154.703 58.8647C154.478 59.3195 154.365 59.8727 154.365 60.5244V60.5352C154.365 61.1904 154.478 61.749 154.703 62.2109C154.929 62.6693 155.256 63.0202 155.686 63.2637C156.119 63.5036 156.644 63.6235 157.26 63.6235ZM162.733 63.5913C162.991 63.5913 163.229 63.5573 163.447 63.4893C163.669 63.4176 163.863 63.3174 164.027 63.1885C164.196 63.056 164.33 62.8984 164.43 62.7158H164.527V63.5H166.074V59.4609C166.074 59.042 165.977 58.6839 165.784 58.3867C165.594 58.0859 165.316 57.8568 164.951 57.6992C164.586 57.5381 164.142 57.4575 163.619 57.4575C163.125 57.4575 162.69 57.5291 162.314 57.6724C161.942 57.8156 161.644 58.0161 161.422 58.2739C161.204 58.5317 161.073 58.8343 161.03 59.1816L161.025 59.23H162.475L162.486 59.2085C162.547 59.033 162.665 58.8988 162.84 58.8057C163.019 58.709 163.25 58.6606 163.533 58.6606C163.855 58.6606 164.101 58.7305 164.269 58.8701C164.441 59.0062 164.527 59.2031 164.527 59.4609V61.3462C164.527 61.5539 164.471 61.7419 164.36 61.9102C164.249 62.0749 164.099 62.2056 163.909 62.3022C163.719 62.3989 163.503 62.4473 163.259 62.4473C162.987 62.4473 162.765 62.3828 162.593 62.2539C162.421 62.125 162.335 61.9478 162.335 61.7222V61.7114C162.335 61.4966 162.418 61.3265 162.583 61.2012C162.747 61.0758 162.998 61.0042 163.334 60.9863L165.3 60.8574V59.9014L163.098 60.0356C162.608 60.0643 162.19 60.152 161.847 60.2988C161.507 60.4421 161.247 60.6408 161.068 60.895C160.892 61.1493 160.805 61.4536 160.805 61.8081V61.8188C160.805 62.1769 160.887 62.4902 161.052 62.7588C161.216 63.0238 161.444 63.2297 161.734 63.3765C162.028 63.5197 162.361 63.5913 162.733 63.5913ZM169.962 63.6235C170.467 63.6235 170.915 63.5448 171.305 63.3872C171.695 63.2261 172.002 63.0005 172.224 62.7104C172.446 62.4204 172.557 62.0802 172.557 61.6899V61.6846C172.557 61.2477 172.415 60.9004 172.132 60.6426C171.849 60.3848 171.413 60.1914 170.822 60.0625L169.839 59.853C169.635 59.8065 169.472 59.7546 169.35 59.6973C169.228 59.64 169.141 59.5719 169.087 59.4932C169.033 59.4144 169.006 59.3231 169.006 59.2192V59.2139C169.006 59.0814 169.046 58.9668 169.125 58.8701C169.207 58.7734 169.318 58.6982 169.458 58.6445C169.597 58.5908 169.757 58.564 169.936 58.564C170.229 58.564 170.462 58.6266 170.634 58.752C170.806 58.8737 170.913 59.0151 170.956 59.1763L170.961 59.2031H172.417V59.1816C172.396 58.863 172.286 58.5747 172.089 58.3169C171.896 58.0555 171.618 57.8478 171.257 57.6938C170.895 57.5363 170.457 57.4575 169.941 57.4575C169.45 57.4575 169.019 57.5345 168.646 57.6885C168.278 57.8424 167.989 58.0591 167.782 58.3384C167.578 58.6141 167.476 58.9382 167.476 59.3105V59.3159C167.476 59.6095 167.536 59.8674 167.658 60.0894C167.784 60.3114 167.972 60.4993 168.222 60.6533C168.473 60.8037 168.786 60.9183 169.162 60.9971L170.15 61.2065C170.451 61.2746 170.666 61.3605 170.795 61.4644C170.924 61.5682 170.988 61.6989 170.988 61.8564V61.8672C170.988 61.9961 170.945 62.1089 170.859 62.2056C170.773 62.3022 170.655 62.3792 170.505 62.4365C170.354 62.4902 170.179 62.5171 169.979 62.5171C169.671 62.5171 169.425 62.458 169.243 62.3398C169.064 62.2217 168.942 62.0713 168.877 61.8887L168.867 61.8672H167.325L167.331 61.8887C167.366 62.2253 167.49 62.5243 167.701 62.7856C167.916 63.047 168.211 63.2529 168.587 63.4033C168.967 63.5501 169.425 63.6235 169.962 63.6235ZM176.263 63.5215C176.417 63.5215 176.562 63.5143 176.698 63.5C176.834 63.4857 176.95 63.4696 177.047 63.4517V62.2861C176.972 62.2933 176.9 62.3005 176.832 62.3076C176.768 62.3112 176.685 62.313 176.585 62.313C176.32 62.313 176.127 62.2521 176.005 62.1304C175.887 62.005 175.828 61.8099 175.828 61.5449V58.7681H177.047V57.5864H175.828V56.1738H174.243V57.5864H173.33V58.7681H174.243V61.9048C174.243 62.4777 174.401 62.8913 174.716 63.1455C175.031 63.3962 175.547 63.5215 176.263 63.5215Z" fill="black"/>
<defs>
<linearGradient id="paint0_linear_250_7197" x1="36.6888" y1="37.2849" x2="38.5494" y2="47.7342" gradientUnits="userSpaceOnUse">
<stop offset="0.1043" stop-color="#035421"/>
<stop offset="0.4356" stop-color="#26AF64"/>
</linearGradient>
<linearGradient id="paint1_linear_250_7197" x1="23.2504" y1="32.3772" x2="32.9603" y2="38.1548" gradientUnits="userSpaceOnUse">
<stop offset="0.6196" stop-color="#26AF64"/>
<stop offset="1" stop-color="#035421"/>
</linearGradient>
<linearGradient id="paint2_linear_250_7197" x1="100.155" y1="57.4239" x2="103.223" y2="59.8209" gradientUnits="userSpaceOnUse">
<stop offset="0.2147" stop-color="#035421"/>
<stop offset="0.2726" stop-color="#08622B"/>
<stop offset="0.4333" stop-color="#158344"/>
<stop offset="0.5866" stop-color="#1E9B56"/>
<stop offset="0.7282" stop-color="#24AA60"/>
<stop offset="0.8466" stop-color="#26AF64"/>
</linearGradient>
<linearGradient id="paint3_linear_250_7197" x1="97.3908" y1="60.1312" x2="98.1358" y2="64.3566" gradientUnits="userSpaceOnUse">
<stop offset="0.1043" stop-color="#035421"/>
<stop offset="0.4356" stop-color="#26AF64"/>
</linearGradient>
<linearGradient id="paint4_linear_250_7197" x1="91.9068" y1="58.1476" x2="95.8491" y2="60.5164" gradientUnits="userSpaceOnUse">
<stop offset="0.6196" stop-color="#26AF64"/>
<stop offset="1" stop-color="#035421"/>
</linearGradient>
<linearGradient id="paint5_linear_250_7197" x1="90.1587" y1="62.2315" x2="92.8935" y2="63.8748" gradientUnits="userSpaceOnUse">
<stop offset="0.1534" stop-color="#26AF64"/>
<stop offset="0.237" stop-color="#23A75E"/>
<stop offset="0.3702" stop-color="#1A8F4D"/>
<stop offset="0.5355" stop-color="#0B6A31"/>
<stop offset="0.6196" stop-color="#035421"/>
</linearGradient>
</defs>
</svg>
