<svg width="1532" height="250" viewBox="0 0 1532 250" fill="none" xmlns="http://www.w3.org/2000/svg">
<path d="M0 46.08C39.45 48.7 71.06 80.39 73.54 119.88H119.61C117.05 54.92 64.93 2.7 0 0V46.08Z" fill="#0DC09D"/>
<path d="M73.8 130.389C71.18 169.839 39.49 201.449 0 203.929V249.999C64.96 247.439 117.18 195.319 119.88 130.389H73.8Z" fill="#0DC09D"/>
<path d="M176.199 119.61C178.819 80.16 210.509 48.55 249.999 46.07V0C185.039 2.56 132.819 54.68 130.119 119.61H176.199Z" fill="#0DC09D"/>
<path d="M250.001 203.919C210.551 201.299 178.941 169.609 176.461 130.119H130.391C132.951 195.079 185.071 247.299 250.001 249.999V203.919Z" fill="#0DC09D"/>
<path d="M330 204.52V46.1299H360.7V71.0599H365.56C368.4 64.9799 373.46 59.3099 380.76 54.0399C388.06 48.7699 398.9 46.1399 413.29 46.1399C424.64 46.1399 434.72 48.6799 443.54 53.7399C452.36 58.8099 459.3 65.9499 464.36 75.1699C469.42 84.3899 471.96 95.4899 471.96 108.46V204.52H440.65V110.89C440.65 97.9199 437.41 88.3499 430.92 82.1599C424.43 75.9799 415.52 72.8899 404.17 72.8899C391.2 72.8899 380.81 77.1499 373.01 85.6599C365.21 94.1699 361.31 106.54 361.31 122.75V204.53H330V204.52Z" fill="white"/>
<path d="M1078.41 204.59V0.290039H1109.72V204.59H1078.41Z" fill="white"/>
<path d="M1217.24 204.591C1202.24 204.591 1188.92 201.501 1177.26 195.321C1165.6 189.141 1156.44 180.271 1149.75 168.721C1143.06 157.171 1139.72 143.491 1139.72 127.681V123.121C1139.72 107.311 1143.06 93.6814 1149.75 82.2314C1156.44 70.7814 1165.61 61.9114 1177.26 55.6314C1188.91 49.3514 1202.24 46.2114 1217.24 46.2114C1232.24 46.2114 1245.61 49.3514 1257.37 55.6314C1269.12 61.9114 1278.35 70.7814 1285.03 82.2314C1291.72 93.6814 1295.06 107.311 1295.06 123.121V127.681C1295.06 143.491 1291.72 157.171 1285.03 168.721C1278.34 180.271 1269.12 189.141 1257.37 195.321C1245.61 201.501 1232.24 204.591 1217.24 204.591ZM1217.24 176.621C1231.02 176.621 1242.22 172.211 1250.83 163.401C1259.44 154.581 1263.75 142.381 1263.75 126.771V124.031C1263.75 108.431 1259.49 96.2114 1250.98 87.4014C1242.47 78.5814 1231.22 74.1814 1217.24 74.1814C1203.26 74.1814 1192.56 78.5914 1183.95 87.4014C1175.33 96.2214 1171.03 108.431 1171.03 124.031V126.771C1171.03 142.381 1175.33 154.591 1183.95 163.401C1192.56 172.221 1203.66 176.621 1217.24 176.621Z" fill="white"/>
<path d="M1337.36 178.281L1316.07 46.2112H1347.38L1366.23 183.621H1371.09L1392.5 71.1212C1395.25 56.6712 1407.88 46.2112 1422.6 46.2112C1437.34 46.2112 1449.98 56.7012 1452.71 71.1812L1473.85 183.611H1478.71L1497.56 46.2012H1528.87L1507.58 178.271C1505.14 193.431 1492.05 204.581 1476.69 204.581C1461.64 204.581 1448.73 193.871 1445.94 179.091L1424.91 67.4812H1420.05L1399.02 179.091C1396.23 193.881 1383.32 204.581 1368.27 204.581C1352.91 204.581 1339.82 193.431 1337.38 178.271L1337.36 178.281Z" fill="white"/>
<path d="M980.18 8.76905C974.78 14.2591 972.09 21.5891 972.09 30.7391V204.589H1003.52V72.8291H1048.41V46.2791H1026.71L1009.01 63.9791H1003.52V35.9291C1003.52 29.8291 1006.46 26.7791 1012.37 26.7791H1048.29V0.529053H1002.3C992.93 0.529053 985.56 3.27905 980.18 8.76905Z" fill="white"/>
<path d="M898.581 168.529V85.2891H867.141V174.019C867.141 183.179 869.831 190.499 875.231 195.999C880.621 201.489 887.901 204.239 897.061 204.239H938.571V177.679H907.131C901.421 177.679 898.581 174.629 898.581 168.519V168.529Z" fill="white"/>
<path d="M710 161.601C701.3 171.981 688.46 177.051 674.93 177.051H579.57C566.95 177.051 556.42 173.131 547.98 165.301C547.46 164.811 546.94 164.321 546.45 163.801C545.95 163.281 545.47 162.761 545 162.241C543.87 160.941 542.83 159.581 541.87 158.161C537.76 151.991 535.41 144.651 534.82 136.151C534.76 135.341 534.73 134.521 534.7 133.691H650.39V121.791C650.39 106.531 647.34 93.2012 641.23 81.8012C635.12 70.4012 626.62 61.5012 615.74 55.0912C604.84 48.6812 592.17 45.4712 577.74 45.4712C563.31 45.4712 549.86 48.7212 538.67 55.2412C533.07 58.4912 528.08 62.3812 523.68 66.9212C523.13 67.4812 522.58 68.0612 522.05 68.6512C520.45 70.4212 518.95 72.2712 517.52 74.1912C515.63 76.7712 513.87 79.5212 512.27 82.4212C505.86 94.0212 502.65 107.651 502.65 123.321V126.981C502.65 142.651 505.86 156.281 512.27 167.881C518.68 179.481 527.58 188.481 538.98 194.891C550.37 201.301 563.71 204.511 578.97 204.511H672.35C680.88 204.511 698.72 202.971 709.3 197.051C721.04 190.471 728.3 182.501 740.22 168.291L744.75 161.811L727.56 137.421L710.01 161.601H710ZM535 109.591C535.31 107.501 535.7 105.481 536.22 103.551C536.72 101.611 537.33 99.7612 538.05 97.9912C540.42 92.1012 543.94 87.1112 548.58 83.0312C556 76.5112 565.61 73.2612 577.43 73.2612C589.25 73.2612 598.8 76.5112 606.12 83.0312C613.45 89.5512 617.61 98.4012 618.64 109.591H555.76L539.69 125.661H534.39C534.31 121.041 534.39 115.081 535 109.591Z" fill="white"/>
<path d="M898.581 45.76V0H867.141V45.76H837.57C829.04 45.76 811.2 47.3 800.62 53.22C788.88 59.8 779.35 68.27 767.43 82.48L754.271 100.61C748.751 92.65 744.301 86.24 742.211 83.29C731.481 68.16 721.04 60.31 709.29 53.73C698.71 47.8 681.871 46.27 673.341 46.27H667.48V73.74H675.93C689.47 73.74 701.3 78.81 710 89.19L735.711 126.17L735.6 126.32L751.32 148.63L764.641 167.79C776.561 182 786.091 190.47 797.831 197.05C808.411 202.98 826.251 204.51 834.781 204.51H840.641V177.04H832.19C818.65 177.04 805.52 172.21 797.12 161.59C793.89 157.51 782.521 141.28 770.841 124.49L795.901 88.67C804.601 78.29 821.44 72.31 834.97 72.31H942.091V45.75H898.581V45.76Z" fill="white"/>
</svg>
