<svg width="294" height="107" viewBox="0 0 294 107" fill="none" xmlns="http://www.w3.org/2000/svg">
<g clip-path="url(#clip0_2614_1033)">
<path d="M0 8.84736C7.5744 9.3504 13.6435 15.4349 14.1197 23.017H22.9651C22.4736 10.5446 12.4666 0.5184 0 0V8.84736Z" fill="#0DC09D"/>
<path d="M14.1696 25.0349C13.6666 32.6093 7.58208 38.6784 0 39.1546V48C12.4723 47.5085 22.4986 37.5015 23.017 25.0349H14.1696Z" fill="#0DC09D"/>
<path d="M33.8304 22.9651C34.3334 15.3907 40.4179 9.3216 48 8.84544V0C35.5277 0.49152 25.5014 10.4986 24.983 22.9651H33.8304Z" fill="#0DC09D"/>
<path d="M48 39.1528C40.4256 38.6497 34.3565 32.5652 33.8803 24.9832H25.0349C25.5264 37.4555 35.5334 47.4817 48 48.0001V39.1528Z" fill="#0DC09D"/>
<path d="M63 39.2678V8.85693H68.8944V13.6435H69.8275C70.3728 12.4761 71.3443 11.3875 72.7459 10.3757C74.1475 9.36381 76.2288 8.85885 78.9917 8.85885C81.1709 8.85885 83.1062 9.34653 84.7997 10.3181C86.4931 11.2915 87.8256 12.6624 88.7971 14.4326C89.7686 16.2029 90.2563 18.3341 90.2563 20.8243V39.2678H84.2448V21.2909C84.2448 18.8006 83.6227 16.9632 82.3766 15.7747C81.1306 14.5881 79.4198 13.9949 77.2406 13.9949C74.7504 13.9949 72.7555 14.8128 71.2579 16.4467C69.7603 18.0806 69.0115 20.4557 69.0115 23.568V39.2697H63V39.2678Z" fill="#160F26"/>
<path d="M206.695 39.2813V0.0556641H212.706V39.2813H206.695Z" fill="#160F26"/>
<path d="M233.35 39.2813C230.47 39.2813 227.913 38.688 225.674 37.5014C223.435 36.3149 221.676 34.6118 220.392 32.3942C219.108 30.1766 218.466 27.5501 218.466 24.5146V23.639C218.466 20.6035 219.108 17.9866 220.392 15.7882C221.676 13.5898 223.437 11.8867 225.674 10.681C227.911 9.47519 230.47 8.87231 233.35 8.87231C236.23 8.87231 238.797 9.47519 241.055 10.681C243.311 11.8867 245.083 13.5898 246.366 15.7882C247.65 17.9866 248.292 20.6035 248.292 23.639V24.5146C248.292 27.5501 247.65 30.1766 246.366 32.3942C245.081 34.6118 243.311 36.3149 241.055 37.5014C238.797 38.688 236.23 39.2813 233.35 39.2813ZM233.35 33.911C235.996 33.911 238.146 33.0643 239.799 31.3728C241.452 29.6794 242.28 27.337 242.28 24.3398V23.8138C242.28 20.8186 241.462 18.4723 239.828 16.7808C238.194 15.0874 236.034 14.2426 233.35 14.2426C230.666 14.2426 228.612 15.0893 226.958 16.7808C225.303 18.4742 224.478 20.8186 224.478 23.8138V24.3398C224.478 27.337 225.303 29.6813 226.958 31.3728C228.612 33.0662 230.743 33.911 233.35 33.911Z" fill="#160F26"/>
<path d="M256.413 34.2297L252.325 8.87228H258.337L261.956 35.255H262.889L267 13.655C267.528 10.8806 269.953 8.87228 272.779 8.87228C275.609 8.87228 278.036 10.8864 278.56 13.6665L282.619 35.2531H283.552L287.172 8.87036H293.183L289.095 34.2278C288.627 37.1385 286.114 39.2793 283.164 39.2793C280.275 39.2793 277.796 37.223 277.26 34.3852L273.223 12.9561H272.29L268.252 34.3852C267.716 37.2249 265.237 39.2793 262.348 39.2793C259.399 39.2793 256.885 37.1385 256.417 34.2278L256.413 34.2297Z" fill="#160F26"/>
<path d="M187.835 1.68389C186.798 2.73797 186.281 4.14533 186.281 5.90213V39.2813H192.316V13.9834H200.935V8.88581H196.768L193.37 12.2842H192.316V6.89861C192.316 5.72741 192.88 5.14181 194.015 5.14181H200.912V0.101807H192.082C190.283 0.101807 188.867 0.629807 187.835 1.68389Z" fill="#160F26"/>
<path d="M172.167 32.3578V16.3757H166.131V33.4119C166.131 35.1706 166.647 36.5761 167.684 37.6321C168.719 38.6861 170.117 39.2141 171.875 39.2141H179.845V34.1146H173.809C172.713 34.1146 172.167 33.529 172.167 32.3559V32.3578Z" fill="#160F26"/>
<path d="M135.96 31.0272C134.29 33.0201 131.824 33.9936 129.227 33.9936H110.917C108.494 33.9936 106.473 33.2409 104.852 31.7376C104.752 31.6435 104.652 31.5494 104.558 31.4496C104.462 31.3497 104.37 31.2499 104.28 31.1501C104.063 30.9005 103.863 30.6393 103.679 30.3667C102.89 29.1821 102.439 27.7728 102.325 26.1408C102.314 25.9853 102.308 25.8278 102.302 25.6685H124.515V23.3837C124.515 20.4537 123.929 17.8944 122.756 15.7056C121.583 13.5168 119.951 11.808 117.862 10.5773C115.769 9.34654 113.337 8.73022 110.566 8.73022C107.796 8.73022 105.213 9.35422 103.065 10.6061C101.989 11.2301 101.031 11.9769 100.187 12.8486C100.081 12.9561 99.9754 13.0675 99.8736 13.1808C99.5664 13.5206 99.2784 13.8758 99.0038 14.2445C98.641 14.7398 98.303 15.2678 97.9958 15.8246C96.7651 18.0518 96.1488 20.6688 96.1488 23.6774V24.3801C96.1488 27.3888 96.7651 30.0057 97.9958 32.2329C99.2266 34.4601 100.935 36.1881 103.124 37.4189C105.311 38.6496 107.872 39.2659 110.802 39.2659H128.731C130.369 39.2659 133.794 38.9702 135.826 37.8336C138.08 36.5702 139.474 35.04 141.762 32.3117L142.632 31.0675L139.332 26.3846L135.962 31.0272H135.96ZM102.36 21.0413C102.42 20.64 102.494 20.2521 102.594 19.8816C102.69 19.5091 102.807 19.1539 102.946 18.8141C103.401 17.6832 104.076 16.7251 104.967 15.9417C106.392 14.6899 108.237 14.0659 110.507 14.0659C112.776 14.0659 114.61 14.6899 116.015 15.9417C117.422 17.1936 118.221 18.8928 118.419 21.0413H106.346L103.26 24.1267H102.243C102.228 23.2397 102.243 22.0953 102.36 21.0413Z" fill="#160F26"/>
<path d="M172.167 8.78592V0H166.131V8.78592H160.453C158.816 8.78592 155.39 9.0816 153.359 10.2182C151.105 11.4816 149.275 13.1078 146.987 15.8362L144.46 19.3171C143.4 17.7888 142.546 16.5581 142.144 15.9917C140.084 13.0867 138.08 11.5795 135.824 10.3162C133.792 9.1776 130.559 8.88384 128.921 8.88384H127.796V14.1581H129.419C132.018 14.1581 134.29 15.1315 135.96 17.1245L140.896 24.2246L140.875 24.2534L143.893 28.537L146.451 32.2157C148.74 34.944 150.569 36.5702 152.823 37.8336C154.855 38.9722 158.28 39.2659 159.918 39.2659H161.043V33.9917H159.42C156.821 33.9917 154.3 33.0643 152.687 31.0253C152.067 30.2419 149.884 27.1258 147.641 23.9021L152.453 17.0246C154.123 15.0317 157.356 13.8835 159.954 13.8835H180.521V8.784H172.167V8.78592Z" fill="#160F26"/>
</g>
<rect y="56" width="294" height="51" rx="8" fill="#0DC09D"/>
<path d="M36.2972 93H31.7972L39.9904 69.7273H45.1949L53.3995 93H48.8995L42.6836 74.5H42.5018L36.2972 93ZM36.4449 83.875H48.7177V87.2614H36.4449V83.875ZM56.7848 69.7273H61.9439L68.853 86.5909H69.1257L76.0348 69.7273H81.1939V93H77.1485V77.0114H76.9326L70.5007 92.9318H67.478L61.0462 76.9773H60.8303V93H56.7848V69.7273ZM86.1048 93V69.7273H95.0139C96.6957 69.7273 98.0935 69.9924 99.2071 70.5227C100.328 71.0455 101.165 71.7614 101.718 72.6705C102.279 73.5795 102.559 74.6098 102.559 75.7614C102.559 76.7083 102.378 77.5189 102.014 78.1932C101.65 78.8598 101.162 79.4015 100.548 79.8182C99.9344 80.2348 99.2488 80.5341 98.4912 80.7159V80.9432C99.3169 80.9886 100.109 81.2424 100.866 81.7045C101.631 82.1591 102.256 82.803 102.741 83.6364C103.226 84.4697 103.468 85.4773 103.468 86.6591C103.468 87.8636 103.177 88.947 102.593 89.9091C102.01 90.8636 101.131 91.6174 99.9571 92.1705C98.7829 92.7235 97.3056 93 95.5253 93H86.1048ZM90.3207 89.4773H94.8548C96.3851 89.4773 97.4874 89.1856 98.1616 88.6023C98.8435 88.0114 99.1844 87.2538 99.1844 86.3295C99.1844 85.6402 99.0139 85.0189 98.673 84.4659C98.3321 83.9053 97.8473 83.4659 97.2185 83.1477C96.5897 82.822 95.8397 82.6591 94.9685 82.6591H90.3207V89.4773ZM90.3207 79.625H94.4912C95.2185 79.625 95.8738 79.4924 96.4571 79.2273C97.0404 78.9545 97.4988 78.572 97.8321 78.0795C98.173 77.5795 98.3435 76.9886 98.3435 76.3068C98.3435 75.4053 98.0253 74.6629 97.3889 74.0795C96.7601 73.4962 95.8245 73.2045 94.5821 73.2045H90.3207V79.625ZM110.445 93H105.945L114.138 69.7273H119.342L127.547 93H123.047L116.831 74.5H116.649L110.445 93ZM110.592 83.875H122.865V87.2614H110.592V83.875ZM143.205 76.125C143.099 75.1326 142.652 74.3598 141.864 73.8068C141.084 73.2538 140.069 72.9773 138.819 72.9773C137.94 72.9773 137.186 73.1098 136.557 73.375C135.929 73.6402 135.447 74 135.114 74.4545C134.781 74.9091 134.61 75.428 134.603 76.0114C134.603 76.4962 134.713 76.9167 134.932 77.2727C135.16 77.6288 135.466 77.9318 135.853 78.1818C136.239 78.4242 136.667 78.6288 137.137 78.7955C137.607 78.9621 138.08 79.1023 138.557 79.2159L140.739 79.7614C141.618 79.9659 142.463 80.2424 143.273 80.5909C144.091 80.9394 144.822 81.3788 145.466 81.9091C146.118 82.4394 146.633 83.0795 147.012 83.8295C147.391 84.5795 147.58 85.4583 147.58 86.4659C147.58 87.8295 147.232 89.0303 146.535 90.0682C145.838 91.0985 144.83 91.9053 143.512 92.4886C142.201 93.0644 140.614 93.3523 138.751 93.3523C136.94 93.3523 135.368 93.072 134.035 92.5114C132.709 91.9508 131.671 91.1326 130.921 90.0568C130.179 88.9811 129.777 87.6705 129.716 86.125H133.864C133.925 86.9356 134.175 87.6098 134.614 88.1477C135.054 88.6856 135.626 89.0871 136.33 89.3523C137.042 89.6174 137.838 89.75 138.716 89.75C139.633 89.75 140.436 89.6136 141.126 89.3409C141.822 89.0606 142.368 88.6742 142.762 88.1818C143.156 87.6818 143.357 87.0985 143.364 86.4318C143.357 85.8258 143.179 85.3258 142.83 84.9318C142.482 84.5303 141.993 84.197 141.364 83.9318C140.743 83.6591 140.016 83.4167 139.182 83.2045L136.535 82.5227C134.618 82.0303 133.103 81.2841 131.989 80.2841C130.883 79.2765 130.33 77.9394 130.33 76.2727C130.33 74.9015 130.701 73.7008 131.444 72.6705C132.194 71.6402 133.213 70.8409 134.501 70.2727C135.788 69.697 137.247 69.4091 138.876 69.4091C140.527 69.4091 141.974 69.697 143.216 70.2727C144.466 70.8409 145.447 71.6326 146.16 72.6477C146.872 73.6553 147.239 74.8144 147.262 76.125H143.205ZM164.306 76.125C164.2 75.1326 163.753 74.3598 162.965 73.8068C162.185 73.2538 161.17 72.9773 159.92 72.9773C159.041 72.9773 158.287 73.1098 157.659 73.375C157.03 73.6402 156.549 74 156.215 74.4545C155.882 74.9091 155.712 75.428 155.704 76.0114C155.704 76.4962 155.814 76.9167 156.034 77.2727C156.261 77.6288 156.568 77.9318 156.954 78.1818C157.34 78.4242 157.768 78.6288 158.238 78.7955C158.708 78.9621 159.181 79.1023 159.659 79.2159L161.84 79.7614C162.719 79.9659 163.564 80.2424 164.374 80.5909C165.193 80.9394 165.924 81.3788 166.568 81.9091C167.219 82.4394 167.734 83.0795 168.113 83.8295C168.492 84.5795 168.681 85.4583 168.681 86.4659C168.681 87.8295 168.333 89.0303 167.636 90.0682C166.939 91.0985 165.931 91.9053 164.613 92.4886C163.303 93.0644 161.715 93.3523 159.852 93.3523C158.041 93.3523 156.469 93.072 155.136 92.5114C153.81 91.9508 152.772 91.1326 152.022 90.0568C151.28 88.9811 150.878 87.6705 150.818 86.125H154.965C155.026 86.9356 155.276 87.6098 155.715 88.1477C156.155 88.6856 156.727 89.0871 157.431 89.3523C158.143 89.6174 158.939 89.75 159.818 89.75C160.734 89.75 161.537 89.6136 162.227 89.3409C162.924 89.0606 163.469 88.6742 163.863 88.1818C164.257 87.6818 164.458 87.0985 164.465 86.4318C164.458 85.8258 164.28 85.3258 163.931 84.9318C163.583 84.5303 163.094 84.197 162.465 83.9318C161.844 83.6591 161.117 83.4167 160.284 83.2045L157.636 82.5227C155.719 82.0303 154.204 81.2841 153.09 80.2841C151.984 79.2765 151.431 77.9394 151.431 76.2727C151.431 74.9015 151.803 73.7008 152.545 72.6705C153.295 71.6402 154.314 70.8409 155.602 70.2727C156.89 69.697 158.348 69.4091 159.977 69.4091C161.628 69.4091 163.075 69.697 164.318 70.2727C165.568 70.8409 166.549 71.6326 167.261 72.6477C167.973 73.6553 168.34 74.8144 168.363 76.125H164.306ZM175.373 93H170.873L179.067 69.7273H184.271L192.476 93H187.976L181.76 74.5H181.578L175.373 93ZM175.521 83.875H187.794V87.2614H175.521V83.875ZM203.747 93H195.861V69.7273H203.907C206.217 69.7273 208.202 70.1932 209.861 71.125C211.528 72.0492 212.808 73.3788 213.702 75.1136C214.596 76.8485 215.043 78.9242 215.043 81.3409C215.043 83.7652 214.592 85.8485 213.691 87.5909C212.797 89.3333 211.505 90.6705 209.816 91.6023C208.134 92.5341 206.111 93 203.747 93ZM200.077 89.3523H203.543C205.164 89.3523 206.516 89.0568 207.6 88.4659C208.683 87.8674 209.497 86.9773 210.043 85.7955C210.588 84.6061 210.861 83.1212 210.861 81.3409C210.861 79.5606 210.588 78.0833 210.043 76.9091C209.497 75.7273 208.691 74.8447 207.622 74.2614C206.562 73.6705 205.244 73.375 203.668 73.375H200.077V89.3523ZM240.164 81.3636C240.164 83.8712 239.694 86.0189 238.755 87.8068C237.823 89.5871 236.55 90.9508 234.937 91.8977C233.331 92.8447 231.509 93.3182 229.471 93.3182C227.433 93.3182 225.607 92.8447 223.994 91.8977C222.388 90.9432 221.115 89.5758 220.175 87.7955C219.244 86.0076 218.778 83.8636 218.778 81.3636C218.778 78.8561 219.244 76.7121 220.175 74.9318C221.115 73.1439 222.388 71.7765 223.994 70.8295C225.607 69.8826 227.433 69.4091 229.471 69.4091C231.509 69.4091 233.331 69.8826 234.937 70.8295C236.55 71.7765 237.823 73.1439 238.755 74.9318C239.694 76.7121 240.164 78.8561 240.164 81.3636ZM235.925 81.3636C235.925 79.5985 235.649 78.1098 235.096 76.8977C234.55 75.678 233.793 74.7576 232.823 74.1364C231.853 73.5076 230.736 73.1932 229.471 73.1932C228.206 73.1932 227.088 73.5076 226.119 74.1364C225.149 74.7576 224.388 75.678 223.834 76.8977C223.289 78.1098 223.016 79.5985 223.016 81.3636C223.016 83.1288 223.289 84.6212 223.834 85.8409C224.388 87.053 225.149 87.9735 226.119 88.6023C227.088 89.2235 228.206 89.5341 229.471 89.5341C230.736 89.5341 231.853 89.2235 232.823 88.6023C233.793 87.9735 234.55 87.053 235.096 85.8409C235.649 84.6212 235.925 83.1288 235.925 81.3636ZM244.47 93V69.7273H253.197C254.985 69.7273 256.485 70.0379 257.697 70.6591C258.917 71.2803 259.837 72.1515 260.458 73.2727C261.087 74.3864 261.402 75.6856 261.402 77.1705C261.402 78.6629 261.083 79.9583 260.447 81.0568C259.818 82.1477 258.89 82.9924 257.663 83.5909C256.436 84.1818 254.928 84.4773 253.14 84.4773H246.924V80.9773H252.572C253.618 80.9773 254.474 80.8333 255.14 80.5455C255.807 80.25 256.299 79.822 256.618 79.2614C256.943 78.6932 257.106 77.9962 257.106 77.1705C257.106 76.3447 256.943 75.6402 256.618 75.0568C256.292 74.4659 255.796 74.0189 255.129 73.7159C254.462 73.4053 253.602 73.25 252.549 73.25H248.686V93H244.47ZM256.493 82.4545L262.254 93H257.549L251.89 82.4545H256.493Z" fill="#160F26"/>
<defs>
<clipPath id="clip0_2614_1033">
<rect width="294" height="48" fill="white"/>
</clipPath>
</defs>
</svg>
